G04*
G04 #@! TF.GenerationSoftware,Altium Limited,Altium Designer,20.2.6 (244)*
G04*
G04 Layer_Physical_Order=4*
G04 Layer_Color=16711680*
%FSLAX24Y24*%
%MOIN*%
G70*
G04*
G04 #@! TF.SameCoordinates,497DB355-11F3-479B-B1E2-BDA1D3AC948B*
G04*
G04*
G04 #@! TF.FilePolarity,Positive*
G04*
G01*
G75*
%ADD11C,0.0100*%
G04:AMPARAMS|DCode=17|XSize=20mil|YSize=20mil|CornerRadius=5mil|HoleSize=0mil|Usage=FLASHONLY|Rotation=0.000|XOffset=0mil|YOffset=0mil|HoleType=Round|Shape=RoundedRectangle|*
%AMROUNDEDRECTD17*
21,1,0.0200,0.0100,0,0,0.0*
21,1,0.0100,0.0200,0,0,0.0*
1,1,0.0100,0.0050,-0.0050*
1,1,0.0100,-0.0050,-0.0050*
1,1,0.0100,-0.0050,0.0050*
1,1,0.0100,0.0050,0.0050*
%
%ADD17ROUNDEDRECTD17*%
G04:AMPARAMS|DCode=18|XSize=20mil|YSize=20mil|CornerRadius=5mil|HoleSize=0mil|Usage=FLASHONLY|Rotation=270.000|XOffset=0mil|YOffset=0mil|HoleType=Round|Shape=RoundedRectangle|*
%AMROUNDEDRECTD18*
21,1,0.0200,0.0100,0,0,270.0*
21,1,0.0100,0.0200,0,0,270.0*
1,1,0.0100,-0.0050,-0.0050*
1,1,0.0100,-0.0050,0.0050*
1,1,0.0100,0.0050,0.0050*
1,1,0.0100,0.0050,-0.0050*
%
%ADD18ROUNDEDRECTD18*%
%ADD44C,0.0050*%
%ADD45C,0.0065*%
%ADD46C,0.0060*%
%ADD47C,0.0150*%
%ADD48C,0.0050*%
%ADD49C,0.0065*%
%ADD50C,0.0500*%
%ADD51O,0.0827X0.0394*%
%ADD52O,0.0630X0.0394*%
%ADD53C,0.0256*%
%ADD54C,0.0236*%
%ADD55C,0.0177*%
%ADD56C,0.0200*%
%ADD57C,0.0200*%
%ADD58C,0.0100*%
G04:AMPARAMS|DCode=59|XSize=21.7mil|YSize=57.1mil|CornerRadius=5.4mil|HoleSize=0mil|Usage=FLASHONLY|Rotation=0.000|XOffset=0mil|YOffset=0mil|HoleType=Round|Shape=RoundedRectangle|*
%AMROUNDEDRECTD59*
21,1,0.0217,0.0463,0,0,0.0*
21,1,0.0108,0.0571,0,0,0.0*
1,1,0.0108,0.0054,-0.0231*
1,1,0.0108,-0.0054,-0.0231*
1,1,0.0108,-0.0054,0.0231*
1,1,0.0108,0.0054,0.0231*
%
%ADD59ROUNDEDRECTD59*%
G04:AMPARAMS|DCode=60|XSize=21.7mil|YSize=57.1mil|CornerRadius=5.4mil|HoleSize=0mil|Usage=FLASHONLY|Rotation=0.000|XOffset=0mil|YOffset=0mil|HoleType=Round|Shape=RoundedRectangle|*
%AMROUNDEDRECTD60*
21,1,0.0217,0.0463,0,0,0.0*
21,1,0.0108,0.0571,0,0,0.0*
1,1,0.0108,0.0054,-0.0231*
1,1,0.0108,-0.0054,-0.0231*
1,1,0.0108,-0.0054,0.0231*
1,1,0.0108,0.0054,0.0231*
%
%ADD60ROUNDEDRECTD60*%
%ADD61O,0.0374X0.0079*%
%ADD62O,0.0079X0.0374*%
%ADD63R,0.2654X0.2654*%
G04:AMPARAMS|DCode=64|XSize=9.4mil|YSize=31.5mil|CornerRadius=2.4mil|HoleSize=0mil|Usage=FLASHONLY|Rotation=180.000|XOffset=0mil|YOffset=0mil|HoleType=Round|Shape=RoundedRectangle|*
%AMROUNDEDRECTD64*
21,1,0.0094,0.0268,0,0,180.0*
21,1,0.0047,0.0315,0,0,180.0*
1,1,0.0047,-0.0024,0.0134*
1,1,0.0047,0.0024,0.0134*
1,1,0.0047,0.0024,-0.0134*
1,1,0.0047,-0.0024,-0.0134*
%
%ADD64ROUNDEDRECTD64*%
G04:AMPARAMS|DCode=65|XSize=19.7mil|YSize=23.6mil|CornerRadius=4.9mil|HoleSize=0mil|Usage=FLASHONLY|Rotation=270.000|XOffset=0mil|YOffset=0mil|HoleType=Round|Shape=RoundedRectangle|*
%AMROUNDEDRECTD65*
21,1,0.0197,0.0138,0,0,270.0*
21,1,0.0098,0.0236,0,0,270.0*
1,1,0.0098,-0.0069,-0.0049*
1,1,0.0098,-0.0069,0.0049*
1,1,0.0098,0.0069,0.0049*
1,1,0.0098,0.0069,-0.0049*
%
%ADD65ROUNDEDRECTD65*%
G04:AMPARAMS|DCode=66|XSize=50mil|YSize=94.5mil|CornerRadius=12.5mil|HoleSize=0mil|Usage=FLASHONLY|Rotation=90.000|XOffset=0mil|YOffset=0mil|HoleType=Round|Shape=RoundedRectangle|*
%AMROUNDEDRECTD66*
21,1,0.0500,0.0695,0,0,90.0*
21,1,0.0250,0.0945,0,0,90.0*
1,1,0.0250,0.0347,0.0125*
1,1,0.0250,0.0347,-0.0125*
1,1,0.0250,-0.0347,-0.0125*
1,1,0.0250,-0.0347,0.0125*
%
%ADD66ROUNDEDRECTD66*%
G04:AMPARAMS|DCode=67|XSize=50mil|YSize=63mil|CornerRadius=12.5mil|HoleSize=0mil|Usage=FLASHONLY|Rotation=90.000|XOffset=0mil|YOffset=0mil|HoleType=Round|Shape=RoundedRectangle|*
%AMROUNDEDRECTD67*
21,1,0.0500,0.0380,0,0,90.0*
21,1,0.0250,0.0630,0,0,90.0*
1,1,0.0250,0.0190,0.0125*
1,1,0.0250,0.0190,-0.0125*
1,1,0.0250,-0.0190,-0.0125*
1,1,0.0250,-0.0190,0.0125*
%
%ADD67ROUNDEDRECTD67*%
%ADD68O,0.0787X0.0276*%
G04:AMPARAMS|DCode=69|XSize=9.4mil|YSize=31.5mil|CornerRadius=2.4mil|HoleSize=0mil|Usage=FLASHONLY|Rotation=90.000|XOffset=0mil|YOffset=0mil|HoleType=Round|Shape=RoundedRectangle|*
%AMROUNDEDRECTD69*
21,1,0.0094,0.0268,0,0,90.0*
21,1,0.0047,0.0315,0,0,90.0*
1,1,0.0047,0.0134,0.0024*
1,1,0.0047,0.0134,-0.0024*
1,1,0.0047,-0.0134,-0.0024*
1,1,0.0047,-0.0134,0.0024*
%
%ADD69ROUNDEDRECTD69*%
G04:AMPARAMS|DCode=70|XSize=59.1mil|YSize=59.1mil|CornerRadius=14.8mil|HoleSize=0mil|Usage=FLASHONLY|Rotation=180.000|XOffset=0mil|YOffset=0mil|HoleType=Round|Shape=RoundedRectangle|*
%AMROUNDEDRECTD70*
21,1,0.0591,0.0295,0,0,180.0*
21,1,0.0295,0.0591,0,0,180.0*
1,1,0.0295,-0.0148,0.0148*
1,1,0.0295,0.0148,0.0148*
1,1,0.0295,0.0148,-0.0148*
1,1,0.0295,-0.0148,-0.0148*
%
%ADD70ROUNDEDRECTD70*%
G04:AMPARAMS|DCode=71|XSize=16mil|YSize=16mil|CornerRadius=8mil|HoleSize=0mil|Usage=FLASHONLY|Rotation=90.000|XOffset=0mil|YOffset=0mil|HoleType=Round|Shape=RoundedRectangle|*
%AMROUNDEDRECTD71*
21,1,0.0160,0.0000,0,0,90.0*
21,1,0.0000,0.0160,0,0,90.0*
1,1,0.0160,0.0000,0.0000*
1,1,0.0160,0.0000,0.0000*
1,1,0.0160,0.0000,0.0000*
1,1,0.0160,0.0000,0.0000*
%
%ADD71ROUNDEDRECTD71*%
%ADD72R,0.1063X0.1102*%
G04:AMPARAMS|DCode=73|XSize=12mil|YSize=38mil|CornerRadius=3mil|HoleSize=0mil|Usage=FLASHONLY|Rotation=270.000|XOffset=0mil|YOffset=0mil|HoleType=Round|Shape=RoundedRectangle|*
%AMROUNDEDRECTD73*
21,1,0.0120,0.0320,0,0,270.0*
21,1,0.0060,0.0380,0,0,270.0*
1,1,0.0060,-0.0160,-0.0030*
1,1,0.0060,-0.0160,0.0030*
1,1,0.0060,0.0160,0.0030*
1,1,0.0060,0.0160,-0.0030*
%
%ADD73ROUNDEDRECTD73*%
G04:AMPARAMS|DCode=74|XSize=100mil|YSize=11.8mil|CornerRadius=3mil|HoleSize=0mil|Usage=FLASHONLY|Rotation=0.000|XOffset=0mil|YOffset=0mil|HoleType=Round|Shape=RoundedRectangle|*
%AMROUNDEDRECTD74*
21,1,0.1000,0.0059,0,0,0.0*
21,1,0.0941,0.0118,0,0,0.0*
1,1,0.0059,0.0470,-0.0030*
1,1,0.0059,-0.0470,-0.0030*
1,1,0.0059,-0.0470,0.0030*
1,1,0.0059,0.0470,0.0030*
%
%ADD74ROUNDEDRECTD74*%
G04:AMPARAMS|DCode=75|XSize=27.6mil|YSize=59.1mil|CornerRadius=6.9mil|HoleSize=0mil|Usage=FLASHONLY|Rotation=270.000|XOffset=0mil|YOffset=0mil|HoleType=Round|Shape=RoundedRectangle|*
%AMROUNDEDRECTD75*
21,1,0.0276,0.0453,0,0,270.0*
21,1,0.0138,0.0591,0,0,270.0*
1,1,0.0138,-0.0226,-0.0069*
1,1,0.0138,-0.0226,0.0069*
1,1,0.0138,0.0226,0.0069*
1,1,0.0138,0.0226,-0.0069*
%
%ADD75ROUNDEDRECTD75*%
G04:AMPARAMS|DCode=76|XSize=23.6mil|YSize=39.4mil|CornerRadius=5.9mil|HoleSize=0mil|Usage=FLASHONLY|Rotation=270.000|XOffset=0mil|YOffset=0mil|HoleType=Round|Shape=RoundedRectangle|*
%AMROUNDEDRECTD76*
21,1,0.0236,0.0276,0,0,270.0*
21,1,0.0118,0.0394,0,0,270.0*
1,1,0.0118,-0.0138,-0.0059*
1,1,0.0118,-0.0138,0.0059*
1,1,0.0118,0.0138,0.0059*
1,1,0.0118,0.0138,-0.0059*
%
%ADD76ROUNDEDRECTD76*%
G04:AMPARAMS|DCode=77|XSize=12mil|YSize=38mil|CornerRadius=3mil|HoleSize=0mil|Usage=FLASHONLY|Rotation=0.000|XOffset=0mil|YOffset=0mil|HoleType=Round|Shape=RoundedRectangle|*
%AMROUNDEDRECTD77*
21,1,0.0120,0.0320,0,0,0.0*
21,1,0.0060,0.0380,0,0,0.0*
1,1,0.0060,0.0030,-0.0160*
1,1,0.0060,-0.0030,-0.0160*
1,1,0.0060,-0.0030,0.0160*
1,1,0.0060,0.0030,0.0160*
%
%ADD77ROUNDEDRECTD77*%
G04:AMPARAMS|DCode=78|XSize=27.6mil|YSize=59.1mil|CornerRadius=6.9mil|HoleSize=0mil|Usage=FLASHONLY|Rotation=180.000|XOffset=0mil|YOffset=0mil|HoleType=Round|Shape=RoundedRectangle|*
%AMROUNDEDRECTD78*
21,1,0.0276,0.0453,0,0,180.0*
21,1,0.0138,0.0591,0,0,180.0*
1,1,0.0138,-0.0069,0.0226*
1,1,0.0138,0.0069,0.0226*
1,1,0.0138,0.0069,-0.0226*
1,1,0.0138,-0.0069,-0.0226*
%
%ADD78ROUNDEDRECTD78*%
G36*
X46242Y44943D02*
X46531Y44894D01*
X46812Y44813D01*
X47082Y44701D01*
X47338Y44559D01*
X47577Y44390D01*
X47795Y44195D01*
X47990Y43977D01*
X48159Y43738D01*
X48301Y43482D01*
X48413Y43212D01*
X48494Y42931D01*
X48543Y42642D01*
X48559Y42353D01*
X48558Y42350D01*
Y17900D01*
X48559Y17897D01*
X48543Y17657D01*
X48496Y17419D01*
X48417Y17189D01*
X48310Y16971D01*
X48175Y16768D01*
X48014Y16586D01*
X47832Y16425D01*
X47629Y16290D01*
X47411Y16183D01*
X47181Y16104D01*
X46943Y16057D01*
X46703Y16041D01*
X46700Y16042D01*
X18450D01*
X18447Y16041D01*
X18158Y16057D01*
X17869Y16106D01*
X17588Y16187D01*
X17318Y16299D01*
X17062Y16441D01*
X16823Y16610D01*
X16605Y16805D01*
X16410Y17023D01*
X16241Y17262D01*
X16099Y17518D01*
X15987Y17788D01*
X15906Y18069D01*
X15857Y18358D01*
X15841Y18647D01*
X15842Y18650D01*
Y41650D01*
X15841Y41653D01*
X15857Y41974D01*
X15905Y42296D01*
X15984Y42611D01*
X16093Y42916D01*
X16232Y43210D01*
X16399Y43488D01*
X16592Y43749D01*
X16810Y43990D01*
X17051Y44208D01*
X17312Y44401D01*
X17590Y44568D01*
X17884Y44707D01*
X18189Y44816D01*
X18504Y44895D01*
X18826Y44943D01*
X19101Y44957D01*
X19150Y44958D01*
D01*
X19200Y44958D01*
X19200Y44958D01*
X45950D01*
X45953Y44959D01*
X46242Y44943D01*
D02*
G37*
%LPC*%
G36*
X41210Y43443D02*
X41134Y43433D01*
X41064Y43403D01*
X41003Y43357D01*
X40957Y43296D01*
X40927Y43226D01*
X40918Y43150D01*
X40927Y43074D01*
X40957Y43004D01*
X41003Y42943D01*
X41064Y42897D01*
X41134Y42867D01*
X41210Y42857D01*
X41286Y42867D01*
X41356Y42897D01*
X41417Y42943D01*
X41463Y43004D01*
X41493Y43074D01*
X41502Y43150D01*
X41493Y43226D01*
X41463Y43296D01*
X41417Y43357D01*
X41356Y43403D01*
X41286Y43433D01*
X41210Y43443D01*
D02*
G37*
G36*
X40210D02*
X40134Y43433D01*
X40064Y43403D01*
X40003Y43357D01*
X39957Y43296D01*
X39927Y43226D01*
X39918Y43150D01*
X39927Y43074D01*
X39957Y43004D01*
X40003Y42943D01*
X40064Y42897D01*
X40134Y42867D01*
X40210Y42857D01*
X40286Y42867D01*
X40356Y42897D01*
X40417Y42943D01*
X40463Y43004D01*
X40493Y43074D01*
X40503Y43150D01*
X40493Y43226D01*
X40463Y43296D01*
X40417Y43357D01*
X40356Y43403D01*
X40286Y43433D01*
X40210Y43443D01*
D02*
G37*
G36*
X39210D02*
X39134Y43433D01*
X39064Y43403D01*
X39003Y43357D01*
X38957Y43296D01*
X38927Y43226D01*
X38918Y43150D01*
X38927Y43074D01*
X38957Y43004D01*
X39003Y42943D01*
X39064Y42897D01*
X39134Y42867D01*
X39210Y42857D01*
X39286Y42867D01*
X39356Y42897D01*
X39417Y42943D01*
X39463Y43004D01*
X39493Y43074D01*
X39502Y43150D01*
X39493Y43226D01*
X39463Y43296D01*
X39417Y43357D01*
X39356Y43403D01*
X39286Y43433D01*
X39210Y43443D01*
D02*
G37*
G36*
X38210D02*
X38134Y43433D01*
X38064Y43403D01*
X38003Y43357D01*
X37957Y43296D01*
X37927Y43226D01*
X37917Y43150D01*
X37927Y43074D01*
X37957Y43004D01*
X38003Y42943D01*
X38064Y42897D01*
X38134Y42867D01*
X38210Y42857D01*
X38286Y42867D01*
X38356Y42897D01*
X38417Y42943D01*
X38463Y43004D01*
X38493Y43074D01*
X38503Y43150D01*
X38493Y43226D01*
X38463Y43296D01*
X38417Y43357D01*
X38356Y43403D01*
X38286Y43433D01*
X38210Y43443D01*
D02*
G37*
G36*
X37210D02*
X37134Y43433D01*
X37064Y43403D01*
X37003Y43357D01*
X36957Y43296D01*
X36927Y43226D01*
X36918Y43150D01*
X36927Y43074D01*
X36957Y43004D01*
X37003Y42943D01*
X37064Y42897D01*
X37134Y42867D01*
X37210Y42857D01*
X37286Y42867D01*
X37356Y42897D01*
X37417Y42943D01*
X37463Y43004D01*
X37493Y43074D01*
X37503Y43150D01*
X37493Y43226D01*
X37463Y43296D01*
X37417Y43357D01*
X37356Y43403D01*
X37286Y43433D01*
X37210Y43443D01*
D02*
G37*
G36*
X36210D02*
X36134Y43433D01*
X36064Y43403D01*
X36003Y43357D01*
X35957Y43296D01*
X35927Y43226D01*
X35917Y43150D01*
X35927Y43074D01*
X35957Y43004D01*
X36003Y42943D01*
X36064Y42897D01*
X36134Y42867D01*
X36210Y42857D01*
X36286Y42867D01*
X36356Y42897D01*
X36417Y42943D01*
X36463Y43004D01*
X36493Y43074D01*
X36502Y43150D01*
X36493Y43226D01*
X36463Y43296D01*
X36417Y43357D01*
X36356Y43403D01*
X36286Y43433D01*
X36210Y43443D01*
D02*
G37*
G36*
X35210D02*
X35134Y43433D01*
X35064Y43403D01*
X35003Y43357D01*
X34957Y43296D01*
X34927Y43226D01*
X34918Y43150D01*
X34927Y43074D01*
X34957Y43004D01*
X35003Y42943D01*
X35064Y42897D01*
X35134Y42867D01*
X35210Y42857D01*
X35286Y42867D01*
X35356Y42897D01*
X35417Y42943D01*
X35463Y43004D01*
X35493Y43074D01*
X35503Y43150D01*
X35493Y43226D01*
X35463Y43296D01*
X35417Y43357D01*
X35356Y43403D01*
X35286Y43433D01*
X35210Y43443D01*
D02*
G37*
G36*
X34210D02*
X34134Y43433D01*
X34064Y43403D01*
X34003Y43357D01*
X33957Y43296D01*
X33927Y43226D01*
X33918Y43150D01*
X33927Y43074D01*
X33957Y43004D01*
X34003Y42943D01*
X34064Y42897D01*
X34134Y42867D01*
X34210Y42857D01*
X34286Y42867D01*
X34356Y42897D01*
X34417Y42943D01*
X34463Y43004D01*
X34493Y43074D01*
X34502Y43150D01*
X34493Y43226D01*
X34463Y43296D01*
X34417Y43357D01*
X34356Y43403D01*
X34286Y43433D01*
X34210Y43443D01*
D02*
G37*
G36*
X33210D02*
X33134Y43433D01*
X33064Y43403D01*
X33003Y43357D01*
X32957Y43296D01*
X32927Y43226D01*
X32917Y43150D01*
X32927Y43074D01*
X32957Y43004D01*
X33003Y42943D01*
X33064Y42897D01*
X33134Y42867D01*
X33210Y42857D01*
X33286Y42867D01*
X33356Y42897D01*
X33417Y42943D01*
X33463Y43004D01*
X33493Y43074D01*
X33503Y43150D01*
X33493Y43226D01*
X33463Y43296D01*
X33417Y43357D01*
X33356Y43403D01*
X33286Y43433D01*
X33210Y43443D01*
D02*
G37*
G36*
X32210D02*
X32134Y43433D01*
X32064Y43403D01*
X32003Y43357D01*
X31957Y43296D01*
X31927Y43226D01*
X31918Y43150D01*
X31927Y43074D01*
X31957Y43004D01*
X32003Y42943D01*
X32064Y42897D01*
X32134Y42867D01*
X32210Y42857D01*
X32286Y42867D01*
X32356Y42897D01*
X32417Y42943D01*
X32463Y43004D01*
X32493Y43074D01*
X32503Y43150D01*
X32493Y43226D01*
X32463Y43296D01*
X32417Y43357D01*
X32356Y43403D01*
X32286Y43433D01*
X32210Y43443D01*
D02*
G37*
G36*
X31210D02*
X31134Y43433D01*
X31064Y43403D01*
X31003Y43357D01*
X30957Y43296D01*
X30927Y43226D01*
X30917Y43150D01*
X30927Y43074D01*
X30957Y43004D01*
X31003Y42943D01*
X31064Y42897D01*
X31134Y42867D01*
X31210Y42857D01*
X31286Y42867D01*
X31356Y42897D01*
X31417Y42943D01*
X31463Y43004D01*
X31493Y43074D01*
X31502Y43150D01*
X31493Y43226D01*
X31463Y43296D01*
X31417Y43357D01*
X31356Y43403D01*
X31286Y43433D01*
X31210Y43443D01*
D02*
G37*
G36*
X30210D02*
X30134Y43433D01*
X30064Y43403D01*
X30003Y43357D01*
X29957Y43296D01*
X29927Y43226D01*
X29918Y43150D01*
X29927Y43074D01*
X29957Y43004D01*
X30003Y42943D01*
X30064Y42897D01*
X30134Y42867D01*
X30210Y42857D01*
X30286Y42867D01*
X30356Y42897D01*
X30417Y42943D01*
X30463Y43004D01*
X30493Y43074D01*
X30503Y43150D01*
X30493Y43226D01*
X30463Y43296D01*
X30417Y43357D01*
X30356Y43403D01*
X30286Y43433D01*
X30210Y43443D01*
D02*
G37*
G36*
X29210D02*
X29134Y43433D01*
X29064Y43403D01*
X29003Y43357D01*
X28957Y43296D01*
X28927Y43226D01*
X28918Y43150D01*
X28927Y43074D01*
X28957Y43004D01*
X29003Y42943D01*
X29064Y42897D01*
X29134Y42867D01*
X29210Y42857D01*
X29286Y42867D01*
X29356Y42897D01*
X29417Y42943D01*
X29463Y43004D01*
X29493Y43074D01*
X29502Y43150D01*
X29493Y43226D01*
X29463Y43296D01*
X29417Y43357D01*
X29356Y43403D01*
X29286Y43433D01*
X29210Y43443D01*
D02*
G37*
G36*
X28210D02*
X28134Y43433D01*
X28064Y43403D01*
X28003Y43357D01*
X27957Y43296D01*
X27927Y43226D01*
X27917Y43150D01*
X27927Y43074D01*
X27957Y43004D01*
X28003Y42943D01*
X28064Y42897D01*
X28134Y42867D01*
X28210Y42857D01*
X28286Y42867D01*
X28356Y42897D01*
X28417Y42943D01*
X28463Y43004D01*
X28493Y43074D01*
X28503Y43150D01*
X28493Y43226D01*
X28463Y43296D01*
X28417Y43357D01*
X28356Y43403D01*
X28286Y43433D01*
X28210Y43443D01*
D02*
G37*
G36*
X27210D02*
X27134Y43433D01*
X27064Y43403D01*
X27003Y43357D01*
X26957Y43296D01*
X26927Y43226D01*
X26918Y43150D01*
X26927Y43074D01*
X26957Y43004D01*
X27003Y42943D01*
X27064Y42897D01*
X27134Y42867D01*
X27210Y42857D01*
X27286Y42867D01*
X27356Y42897D01*
X27417Y42943D01*
X27463Y43004D01*
X27493Y43074D01*
X27503Y43150D01*
X27493Y43226D01*
X27463Y43296D01*
X27417Y43357D01*
X27356Y43403D01*
X27286Y43433D01*
X27210Y43443D01*
D02*
G37*
G36*
X26210D02*
X26134Y43433D01*
X26064Y43403D01*
X26003Y43357D01*
X25957Y43296D01*
X25927Y43226D01*
X25917Y43150D01*
X25927Y43074D01*
X25957Y43004D01*
X26003Y42943D01*
X26064Y42897D01*
X26134Y42867D01*
X26210Y42857D01*
X26286Y42867D01*
X26356Y42897D01*
X26417Y42943D01*
X26463Y43004D01*
X26493Y43074D01*
X26502Y43150D01*
X26493Y43226D01*
X26463Y43296D01*
X26417Y43357D01*
X26356Y43403D01*
X26286Y43433D01*
X26210Y43443D01*
D02*
G37*
G36*
X25210D02*
X25134Y43433D01*
X25064Y43403D01*
X25003Y43357D01*
X24957Y43296D01*
X24927Y43226D01*
X24918Y43150D01*
X24927Y43074D01*
X24957Y43004D01*
X25003Y42943D01*
X25064Y42897D01*
X25134Y42867D01*
X25210Y42857D01*
X25286Y42867D01*
X25356Y42897D01*
X25417Y42943D01*
X25463Y43004D01*
X25493Y43074D01*
X25503Y43150D01*
X25493Y43226D01*
X25463Y43296D01*
X25417Y43357D01*
X25356Y43403D01*
X25286Y43433D01*
X25210Y43443D01*
D02*
G37*
G36*
X19450Y40474D02*
Y40350D01*
X19574D01*
X19570Y40370D01*
X19530Y40430D01*
X19470Y40470D01*
X19450Y40474D01*
D02*
G37*
G36*
X19350D02*
X19330Y40470D01*
X19270Y40430D01*
X19230Y40370D01*
X19226Y40350D01*
X19350D01*
Y40474D01*
D02*
G37*
G36*
X29050Y40303D02*
Y40150D01*
X29203D01*
X29191Y40209D01*
X29158Y40258D01*
X29109Y40291D01*
X29050Y40303D01*
D02*
G37*
G36*
X28950D02*
X28891Y40291D01*
X28842Y40258D01*
X28809Y40209D01*
X28797Y40150D01*
X28950D01*
Y40303D01*
D02*
G37*
G36*
X28550D02*
Y40150D01*
X28703D01*
X28691Y40209D01*
X28658Y40258D01*
X28609Y40291D01*
X28550Y40303D01*
D02*
G37*
G36*
X28450D02*
X28391Y40291D01*
X28342Y40258D01*
X28309Y40209D01*
X28297Y40150D01*
X28450D01*
Y40303D01*
D02*
G37*
G36*
X26500D02*
X26441Y40291D01*
X26392Y40258D01*
X26359Y40209D01*
X26347Y40150D01*
D01*
X26500D01*
Y40303D01*
D02*
G37*
G36*
X19574Y40250D02*
X19450D01*
Y40126D01*
X19470Y40130D01*
X19530Y40170D01*
X19570Y40230D01*
X19574Y40250D01*
D02*
G37*
G36*
X19350D02*
X19226D01*
X19230Y40230D01*
X19270Y40170D01*
X19330Y40130D01*
X19350Y40126D01*
Y40250D01*
D02*
G37*
G36*
X24722Y40587D02*
X24584D01*
X24541Y40579D01*
X24505Y40555D01*
X24481Y40519D01*
X24473Y40476D01*
Y40024D01*
X24481Y39981D01*
X24505Y39945D01*
X24541Y39921D01*
X24573Y39915D01*
Y38636D01*
X24550Y38623D01*
X24523Y38615D01*
X24483Y38642D01*
X24429Y38653D01*
X23995D01*
Y38653D01*
X23922Y38643D01*
X23818D01*
X23735Y38678D01*
X23609Y38694D01*
Y38693D01*
X21753D01*
X21750Y38693D01*
Y38693D01*
X21745Y38692D01*
X21700D01*
X21665Y38685D01*
X21635Y38665D01*
X21615Y38635D01*
X21608Y38600D01*
Y38555D01*
X21607Y38550D01*
X21608Y38545D01*
Y38500D01*
X21615Y38465D01*
X21635Y38435D01*
X21665Y38415D01*
X21700Y38408D01*
X21739D01*
X21756Y38401D01*
X21733Y38353D01*
X21700D01*
X21641Y38341D01*
X21592Y38308D01*
X21559Y38259D01*
X21547Y38200D01*
X21953D01*
X21941Y38259D01*
X21927Y38280D01*
X21949Y38336D01*
X21953Y38337D01*
X21989Y38309D01*
X21990Y38308D01*
X22199Y38099D01*
X22245Y38068D01*
X22300Y38057D01*
X22355Y38068D01*
X22401Y38099D01*
X22432Y38145D01*
X22443Y38200D01*
X22432Y38255D01*
X22401Y38301D01*
X22341Y38361D01*
X22360Y38407D01*
X23550D01*
X23557Y38404D01*
X23557Y38100D01*
X23569Y38069D01*
X23600Y38057D01*
X23947D01*
Y37997D01*
X23943Y37991D01*
X23910Y37963D01*
X23899Y37960D01*
X23874Y37965D01*
X23790D01*
Y37815D01*
X23740D01*
Y37765D01*
X23485D01*
X23489Y37743D01*
X23494Y37737D01*
X23488Y37718D01*
X23455Y37682D01*
X23400Y37693D01*
X22271D01*
X22221Y37693D01*
X22201Y37701D01*
X22201Y37701D01*
X22155Y37732D01*
X22100Y37743D01*
X21614D01*
X21608Y37741D01*
X21447Y37757D01*
X21285Y37806D01*
X21137Y37886D01*
X21043Y37963D01*
Y38700D01*
X21042Y38705D01*
Y38750D01*
X21035Y38785D01*
X21015Y38815D01*
X20985Y38835D01*
X20950Y38842D01*
X20905D01*
X20900Y38843D01*
X20895Y38842D01*
X20850D01*
X20815Y38835D01*
X20785Y38815D01*
X20765Y38785D01*
X20758Y38750D01*
Y38705D01*
X20757Y38700D01*
Y37900D01*
X20757Y37900D01*
X20758Y37895D01*
Y37850D01*
X20765Y37815D01*
X20785Y37785D01*
X20815Y37765D01*
X20843Y37760D01*
X20942Y37675D01*
X21095Y37581D01*
X21261Y37512D01*
X21435Y37471D01*
X21614Y37456D01*
Y37457D01*
X22054D01*
X22064Y37449D01*
X22140Y37418D01*
X22220Y37407D01*
X22221Y37407D01*
X23400D01*
X23439Y37415D01*
X23468Y37393D01*
X23740D01*
Y37293D01*
X23477D01*
X23447Y37251D01*
X23385D01*
X23360Y37246D01*
X23355Y37243D01*
X23250D01*
X23219Y37231D01*
X23207Y37200D01*
Y37168D01*
X22832Y36793D01*
X21685D01*
Y36976D01*
X21677Y37019D01*
X21653Y37055D01*
X21617Y37079D01*
X21574Y37087D01*
X21437D01*
X21394Y37079D01*
X21358Y37055D01*
X21334Y37019D01*
X21326Y36976D01*
Y36524D01*
X21334Y36481D01*
X21358Y36445D01*
X21394Y36421D01*
X21437Y36413D01*
X21574D01*
X21617Y36421D01*
X21653Y36445D01*
X21677Y36481D01*
X21685Y36524D01*
Y36552D01*
X21723Y36585D01*
X21747Y36581D01*
Y36584D01*
X23300D01*
X23325Y36589D01*
X23347Y36603D01*
X23361Y36625D01*
X23366Y36650D01*
X23364Y36660D01*
X23723Y37097D01*
X23874D01*
X23898Y37101D01*
X23919Y37116D01*
X23934Y37137D01*
X23938Y37161D01*
Y37209D01*
X23982Y37230D01*
X23986D01*
X24024Y37174D01*
X24082Y37135D01*
X24063Y37088D01*
X24059Y37088D01*
X24011D01*
X23987Y37084D01*
X23966Y37069D01*
X23951Y37048D01*
X23947Y37024D01*
Y36992D01*
X23919Y36980D01*
X23907Y36950D01*
Y36500D01*
X23919Y36469D01*
X23950Y36457D01*
X24550D01*
X24550Y36457D01*
X24583Y36416D01*
Y35233D01*
X24474D01*
X24431Y35224D01*
X24395Y35200D01*
X24371Y35164D01*
X24363Y35122D01*
Y34984D01*
X24371Y34941D01*
X24395Y34905D01*
X24431Y34881D01*
X24474Y34873D01*
X24926D01*
X24969Y34881D01*
X25005Y34905D01*
X25029Y34941D01*
X25037Y34984D01*
Y35122D01*
X25029Y35164D01*
X25005Y35200D01*
X24969Y35224D01*
X24926Y35233D01*
X24817D01*
Y36805D01*
X24808Y36850D01*
X24783Y36888D01*
X24753Y36908D01*
Y37003D01*
X24757Y37009D01*
X24790Y37037D01*
X24801Y37040D01*
X24826Y37035D01*
X24910D01*
Y37185D01*
X24960D01*
Y37235D01*
X25215D01*
X25211Y37257D01*
X25206Y37264D01*
X25211Y37271D01*
X25215Y37293D01*
X24960D01*
Y37393D01*
X25236D01*
X25254Y37412D01*
X25292Y37405D01*
X25317Y37367D01*
X25355Y37342D01*
X25400Y37333D01*
X27789D01*
X27815Y37315D01*
X27850Y37308D01*
X27950D01*
X27985Y37315D01*
X27999Y37324D01*
X28070Y37317D01*
X28233Y37268D01*
X28384Y37187D01*
X28480Y37108D01*
Y35315D01*
X28480Y35313D01*
X28468Y35284D01*
X28467Y35283D01*
X28060Y34876D01*
X28057Y34871D01*
X27927Y34765D01*
X27774Y34683D01*
X27608Y34633D01*
X27441Y34616D01*
X27436Y34617D01*
X27211D01*
X27185Y34635D01*
X27150Y34642D01*
X27050D01*
X27015Y34635D01*
X26985Y34615D01*
X26965Y34585D01*
X26958Y34550D01*
Y34450D01*
X26965Y34415D01*
X26985Y34385D01*
X27015Y34365D01*
X27050Y34358D01*
X27150D01*
X27185Y34365D01*
X27211Y34383D01*
X27436D01*
Y34382D01*
X27611Y34395D01*
X27781Y34436D01*
X27944Y34503D01*
X28093Y34595D01*
X28227Y34709D01*
X28226Y34710D01*
X28633Y35117D01*
X28633Y35117D01*
X28633Y35117D01*
X28677Y35175D01*
X28705Y35242D01*
X28715Y35315D01*
X28715D01*
Y37161D01*
X28706Y37206D01*
X28680Y37244D01*
X28681Y37245D01*
X28549Y37357D01*
X28402Y37448D01*
X28241Y37514D01*
X28073Y37555D01*
X28019Y37559D01*
X28015Y37565D01*
X27985Y37585D01*
X27950Y37592D01*
X27850D01*
X27815Y37585D01*
X27789Y37567D01*
X25935D01*
X25925Y37617D01*
X26034Y37662D01*
X26149Y37751D01*
X26147Y37753D01*
X26304Y37910D01*
X26305Y37909D01*
X26414Y38036D01*
X26502Y38179D01*
X26566Y38334D01*
X26605Y38497D01*
X26618Y38664D01*
X26616D01*
Y38739D01*
X26618Y38764D01*
X26616D01*
Y39561D01*
X26635Y39565D01*
X26665Y39585D01*
X26685Y39615D01*
X26692Y39650D01*
Y39676D01*
X26740Y39724D01*
X26743Y39729D01*
X26873Y39835D01*
X27026Y39917D01*
X27192Y39967D01*
X27359Y39984D01*
X27364Y39983D01*
X27489D01*
X27515Y39965D01*
X27550Y39958D01*
X27650D01*
X27685Y39965D01*
X27715Y39985D01*
X27735Y40015D01*
X27742Y40050D01*
Y40150D01*
X27735Y40185D01*
X27715Y40215D01*
X27685Y40235D01*
X27650Y40242D01*
X27550D01*
X27515Y40235D01*
X27489Y40217D01*
X27364D01*
Y40218D01*
X27189Y40205D01*
X27019Y40164D01*
X26856Y40097D01*
X26803Y40064D01*
X26753Y40092D01*
Y40150D01*
X26741Y40209D01*
X26708Y40258D01*
X26659Y40291D01*
X26600Y40303D01*
D01*
Y40100D01*
X26550D01*
Y40050D01*
X26347D01*
X26359Y39991D01*
X26392Y39942D01*
X26441Y39909D01*
X26464Y39904D01*
X26467Y39903D01*
X26488Y39848D01*
X26481Y39838D01*
X26465Y39835D01*
X26435Y39815D01*
X26415Y39785D01*
X26408Y39750D01*
Y39650D01*
X26415Y39615D01*
X26435Y39585D01*
X26465Y39565D01*
X26484Y39561D01*
Y38756D01*
X26467Y38582D01*
X26413Y38407D01*
X26327Y38245D01*
X26212Y38105D01*
X26210Y38104D01*
X25903Y37797D01*
X25902Y37798D01*
X25869Y37776D01*
X25829Y37768D01*
Y37766D01*
X25241D01*
X25220Y37791D01*
Y37839D01*
X25211Y37887D01*
X25183Y37928D01*
X25142Y37955D01*
X25094Y37965D01*
X25010D01*
Y37815D01*
X24910D01*
Y37965D01*
X24826D01*
X24801Y37960D01*
X24790Y37963D01*
X24757Y37991D01*
X24753Y37997D01*
Y38094D01*
X24757Y38110D01*
Y39920D01*
X24764Y39921D01*
X24800Y39945D01*
X24824Y39981D01*
X24833Y40024D01*
Y40476D01*
X24824Y40519D01*
X24800Y40555D01*
X24764Y40579D01*
X24722Y40587D01*
D02*
G37*
G36*
X29203Y40050D02*
X29050D01*
Y39897D01*
X29109Y39909D01*
X29158Y39942D01*
X29191Y39991D01*
X29203Y40050D01*
D02*
G37*
G36*
X28950D02*
X28797D01*
X28809Y39991D01*
X28842Y39942D01*
X28891Y39909D01*
X28950Y39897D01*
Y40050D01*
D02*
G37*
G36*
X28703D02*
X28550D01*
Y39897D01*
X28609Y39909D01*
X28658Y39942D01*
X28691Y39991D01*
X28703Y40050D01*
D02*
G37*
G36*
X28450D02*
X28297D01*
X28309Y39991D01*
X28342Y39942D01*
X28391Y39909D01*
X28450Y39897D01*
Y40050D01*
D02*
G37*
G36*
X21950Y40422D02*
X21903Y40413D01*
X21863Y40387D01*
X21837Y40347D01*
X21828Y40300D01*
X21833Y40274D01*
Y40056D01*
X21829Y40050D01*
X21819Y40000D01*
X21829Y39950D01*
X21857Y39907D01*
X21900Y39879D01*
X21950Y39869D01*
X22000Y39879D01*
X22043Y39907D01*
X22071Y39950D01*
X22081Y40000D01*
X22071Y40050D01*
X22067Y40056D01*
Y40274D01*
X22072Y40300D01*
X22063Y40347D01*
X22037Y40387D01*
X21997Y40413D01*
X21950Y40422D01*
D02*
G37*
G36*
X24950Y41245D02*
X24756Y41226D01*
X24569Y41169D01*
X24396Y41077D01*
X24283Y40984D01*
X24245Y40953D01*
X24212Y40916D01*
X23868Y40573D01*
X23859Y40579D01*
X23816Y40587D01*
X23799D01*
X23774Y40635D01*
X23688Y40740D01*
X23582Y40826D01*
X23463Y40891D01*
X23333Y40930D01*
X23197Y40943D01*
Y40943D01*
X21600D01*
Y40943D01*
X21475Y40931D01*
X21354Y40894D01*
X21243Y40835D01*
X21145Y40755D01*
X21065Y40657D01*
X21006Y40546D01*
X20969Y40425D01*
X20957Y40300D01*
X20957D01*
X20968Y40245D01*
X20999Y40199D01*
X21045Y40168D01*
X21100Y40157D01*
X21155Y40168D01*
X21201Y40199D01*
X21232Y40245D01*
X21243Y40300D01*
X21243D01*
X21242Y40301D01*
X21254Y40393D01*
X21290Y40479D01*
X21347Y40553D01*
X21421Y40610D01*
X21507Y40646D01*
X21598Y40658D01*
X21600Y40657D01*
X23197D01*
X23201Y40658D01*
X23303Y40645D01*
X23401Y40604D01*
X23486Y40539D01*
X23551Y40454D01*
X23567Y40415D01*
Y40024D01*
X23576Y39981D01*
X23600Y39945D01*
X23636Y39921D01*
X23678Y39913D01*
X23816D01*
X23859Y39921D01*
X23895Y39945D01*
X23919Y39981D01*
X23927Y40024D01*
Y40228D01*
X24449Y40750D01*
X24449Y40750D01*
X24486Y40781D01*
X24556Y40839D01*
X24678Y40904D01*
X24811Y40945D01*
X24946Y40958D01*
X24950Y40957D01*
X27036D01*
X27042Y40959D01*
X27203Y40943D01*
X27365Y40894D01*
X27513Y40814D01*
X27638Y40712D01*
X27642Y40706D01*
X27649Y40699D01*
X27681Y40662D01*
X27738Y40592D01*
X27804Y40469D01*
X27845Y40335D01*
X27858Y40200D01*
X27857Y40196D01*
Y39793D01*
X27729Y39793D01*
X27715Y39815D01*
X27685Y39835D01*
X27650Y39842D01*
X27550D01*
X27515Y39835D01*
X27485Y39815D01*
X27465Y39785D01*
X27458Y39750D01*
Y39674D01*
X27457Y39670D01*
X27457Y39650D01*
X27457Y39100D01*
X27469Y39069D01*
X27500Y39057D01*
X28664Y39057D01*
X28682Y39014D01*
X28682D01*
X28695Y38847D01*
X28734Y38684D01*
X28798Y38529D01*
X28886Y38386D01*
X28995Y38259D01*
X28996Y38260D01*
X29360Y37896D01*
X29362Y37895D01*
X29477Y37755D01*
X29563Y37593D01*
X29617Y37418D01*
X29634Y37238D01*
X29634Y37236D01*
Y36500D01*
X29632D01*
X29643Y36420D01*
X29674Y36345D01*
X29723Y36281D01*
X29723Y36281D01*
X29759Y36247D01*
X30241Y35765D01*
X30239Y35763D01*
X30359Y35665D01*
X30496Y35592D01*
X30645Y35546D01*
X30684Y35543D01*
X30707Y35507D01*
X30750Y35479D01*
X30800Y35469D01*
X30850Y35479D01*
X30893Y35507D01*
X30921Y35550D01*
X30931Y35600D01*
X30921Y35650D01*
X30893Y35693D01*
X30850Y35721D01*
X30800Y35731D01*
X30750Y35721D01*
X30707Y35693D01*
X30697Y35677D01*
X30672Y35679D01*
X30548Y35717D01*
X30435Y35778D01*
X30335Y35859D01*
X30335Y35859D01*
X29818Y36376D01*
X29818Y36376D01*
X29818Y36376D01*
X29780Y36433D01*
X29767Y36500D01*
X29766D01*
Y37236D01*
X29768D01*
X29755Y37403D01*
X29716Y37566D01*
X29652Y37721D01*
X29564Y37864D01*
X29455Y37991D01*
X29454Y37990D01*
X29090Y38354D01*
X29088Y38355D01*
X28973Y38495D01*
X28887Y38657D01*
X28833Y38832D01*
X28816Y39007D01*
X28826Y39057D01*
X29100D01*
X29131Y39069D01*
X29143Y39100D01*
X29143Y39750D01*
X29140Y39757D01*
X29135Y39785D01*
X29115Y39815D01*
X29085Y39835D01*
X29050Y39842D01*
X28950D01*
X28915Y39835D01*
X28885Y39815D01*
X28871Y39793D01*
X28629D01*
X28615Y39815D01*
X28585Y39835D01*
X28550Y39842D01*
X28450D01*
X28415Y39835D01*
X28385Y39815D01*
X28371Y39793D01*
X28143Y39793D01*
Y40196D01*
X28145D01*
X28126Y40391D01*
X28069Y40578D01*
X27977Y40751D01*
X27878Y40872D01*
X27877Y40872D01*
X27877Y40872D01*
X27852Y40902D01*
Y40902D01*
X27844Y40909D01*
X27844Y40909D01*
X27708Y41025D01*
X27555Y41119D01*
X27389Y41188D01*
X27215Y41229D01*
X27036Y41244D01*
Y41243D01*
X24950D01*
Y41245D01*
D02*
G37*
G36*
X19700Y38403D02*
D01*
Y38250D01*
X19853D01*
X19841Y38309D01*
X19808Y38358D01*
X19759Y38391D01*
X19700Y38403D01*
D02*
G37*
G36*
X19100D02*
D01*
Y38250D01*
X19253D01*
X19241Y38309D01*
X19208Y38358D01*
X19159Y38391D01*
X19100Y38403D01*
D02*
G37*
G36*
X19600D02*
X19541Y38391D01*
X19492Y38358D01*
X19459Y38309D01*
X19447Y38250D01*
D01*
X19600D01*
Y38403D01*
D02*
G37*
G36*
X19000D02*
X18941Y38391D01*
X18892Y38358D01*
X18859Y38309D01*
X18847Y38250D01*
D01*
X19000D01*
Y38403D01*
D02*
G37*
G36*
X19853Y38150D02*
X19700D01*
Y37997D01*
X19759Y38009D01*
X19808Y38042D01*
X19841Y38091D01*
X19853Y38150D01*
D01*
D02*
G37*
G36*
X19253D02*
X19100D01*
Y37997D01*
X19159Y38009D01*
X19208Y38042D01*
X19241Y38091D01*
X19253Y38150D01*
D01*
D02*
G37*
G36*
X19600D02*
X19447D01*
X19459Y38091D01*
X19492Y38042D01*
X19541Y38009D01*
X19600Y37997D01*
D01*
Y38150D01*
D02*
G37*
G36*
X19000D02*
X18847D01*
X18859Y38091D01*
X18892Y38042D01*
X18941Y38009D01*
X19000Y37997D01*
D01*
Y38150D01*
D02*
G37*
G36*
X20550Y38103D02*
D01*
Y37950D01*
X20703D01*
X20691Y38009D01*
X20658Y38058D01*
X20609Y38091D01*
X20550Y38103D01*
D02*
G37*
G36*
X20450D02*
X20391Y38091D01*
X20342Y38058D01*
X20309Y38009D01*
X20297Y37950D01*
D01*
X20450D01*
Y38103D01*
D02*
G37*
G36*
X21953Y38100D02*
X21800D01*
Y37947D01*
X21859Y37959D01*
X21908Y37992D01*
X21941Y38041D01*
X21953Y38100D01*
D02*
G37*
G36*
X21700D02*
X21547D01*
X21559Y38041D01*
X21592Y37992D01*
X21641Y37959D01*
X21700Y37947D01*
Y38100D01*
D02*
G37*
G36*
X23690Y37965D02*
X23606D01*
X23558Y37955D01*
X23517Y37928D01*
X23489Y37887D01*
X23485Y37865D01*
X23690D01*
Y37965D01*
D02*
G37*
G36*
X20703Y37850D02*
X20550D01*
Y37697D01*
X20609Y37709D01*
X20658Y37742D01*
X20691Y37791D01*
X20703Y37850D01*
D01*
D02*
G37*
G36*
X20450D02*
X20297D01*
X20309Y37791D01*
X20342Y37742D01*
X20391Y37709D01*
X20450Y37697D01*
D01*
Y37850D01*
D02*
G37*
G36*
X46824Y37475D02*
X46526D01*
Y37171D01*
X47053D01*
Y37246D01*
X47036Y37334D01*
X46986Y37408D01*
X46912Y37458D01*
X46824Y37475D01*
D02*
G37*
G36*
X42887D02*
X42747D01*
Y37171D01*
X43116D01*
Y37246D01*
X43099Y37334D01*
X43049Y37408D01*
X42975Y37458D01*
X42887Y37475D01*
D02*
G37*
G36*
X42647D02*
X42507D01*
X42419Y37458D01*
X42345Y37408D01*
X42295Y37334D01*
X42277Y37246D01*
Y37171D01*
X42647D01*
Y37475D01*
D02*
G37*
G36*
X46426D02*
X46129D01*
X46041Y37458D01*
X45967Y37408D01*
X45917Y37334D01*
X45900Y37246D01*
Y37171D01*
X46426D01*
Y37475D01*
D02*
G37*
G36*
X27950Y37253D02*
Y37100D01*
X28103D01*
X28091Y37159D01*
X28058Y37208D01*
X28009Y37241D01*
X27950Y37253D01*
D02*
G37*
G36*
X27850D02*
X27791Y37241D01*
X27742Y37208D01*
X27709Y37159D01*
X27697Y37100D01*
X27850D01*
Y37253D01*
D02*
G37*
G36*
X25215Y37135D02*
X25010D01*
Y37035D01*
X25094D01*
X25142Y37045D01*
X25183Y37072D01*
X25211Y37113D01*
X25215Y37135D01*
D02*
G37*
G36*
X28103Y37000D02*
X27950D01*
Y36847D01*
X28009Y36859D01*
X28058Y36892D01*
X28091Y36941D01*
X28103Y37000D01*
D02*
G37*
G36*
X27850D02*
X27697D01*
X27709Y36941D01*
X27742Y36892D01*
X27791Y36859D01*
X27850Y36847D01*
Y37000D01*
D02*
G37*
G36*
X47053Y37071D02*
X46526D01*
Y36766D01*
X46824D01*
X46912Y36784D01*
X46986Y36834D01*
X47036Y36908D01*
X47053Y36996D01*
Y37071D01*
D02*
G37*
G36*
X46426D02*
X45900D01*
Y36996D01*
X45917Y36908D01*
X45967Y36834D01*
X46041Y36784D01*
X46129Y36766D01*
X46426D01*
Y37071D01*
D02*
G37*
G36*
X43116D02*
X42697D01*
X42277D01*
Y36996D01*
X42295Y36908D01*
X42340Y36841D01*
X42326Y36791D01*
X42144D01*
X42051Y36772D01*
X41973Y36720D01*
X41920Y36641D01*
X41912Y36598D01*
X42400D01*
X42888D01*
X42880Y36641D01*
X42830Y36716D01*
X42839Y36757D01*
X42841Y36766D01*
X42887D01*
X42975Y36784D01*
X43049Y36834D01*
X43099Y36908D01*
X43116Y36996D01*
Y37071D01*
D02*
G37*
G36*
X42888Y36498D02*
X42400D01*
X41912D01*
X41920Y36456D01*
X41973Y36377D01*
X42015Y36348D01*
X42024Y36283D01*
X42009Y36266D01*
X41360D01*
X41343Y36293D01*
X41300Y36321D01*
X41250Y36331D01*
X41200Y36321D01*
X41157Y36293D01*
X41140Y36266D01*
X40739D01*
X40735Y36285D01*
X40715Y36315D01*
X40685Y36335D01*
X40650Y36342D01*
X40550D01*
X40515Y36335D01*
X40485Y36315D01*
X40465Y36285D01*
X40458Y36250D01*
Y36150D01*
X40465Y36115D01*
X40485Y36085D01*
X40515Y36065D01*
X40550Y36058D01*
X40650D01*
X40685Y36065D01*
X40715Y36085D01*
X40735Y36115D01*
X40739Y36134D01*
X41140D01*
X41157Y36107D01*
X41200Y36079D01*
X41250Y36069D01*
X41300Y36079D01*
X41343Y36107D01*
X41360Y36134D01*
X41948D01*
X41963Y36115D01*
X41977Y36046D01*
X42016Y35987D01*
X42075Y35948D01*
X42144Y35934D01*
X42656D01*
X42725Y35948D01*
X42784Y35987D01*
X42823Y36046D01*
X42837Y36115D01*
X42823Y36185D01*
X42784Y36244D01*
X42741Y36272D01*
X42749Y36324D01*
X42827Y36377D01*
X42880Y36456D01*
X42888Y36498D01*
D02*
G37*
G36*
X27900Y36053D02*
Y35900D01*
X28053D01*
X28041Y35959D01*
X28008Y36008D01*
X27959Y36041D01*
X27900Y36053D01*
D02*
G37*
G36*
X27800D02*
X27741Y36041D01*
X27692Y36008D01*
X27659Y35959D01*
X27647Y35900D01*
X27800D01*
Y36053D01*
D02*
G37*
G36*
X27350D02*
Y35900D01*
X27503D01*
X27491Y35959D01*
X27458Y36008D01*
X27409Y36041D01*
X27350Y36053D01*
D02*
G37*
G36*
X27250D02*
X27191Y36041D01*
X27142Y36008D01*
X27109Y35959D01*
X27097Y35900D01*
X27250D01*
Y36053D01*
D02*
G37*
G36*
X26800D02*
Y35900D01*
X26953D01*
X26941Y35959D01*
X26908Y36008D01*
X26859Y36041D01*
X26800Y36053D01*
D02*
G37*
G36*
X26700D02*
X26641Y36041D01*
X26592Y36008D01*
X26559Y35959D01*
X26547Y35900D01*
X26700D01*
Y36053D01*
D02*
G37*
G36*
X24210Y43443D02*
X24134Y43433D01*
X24064Y43403D01*
X24003Y43357D01*
X23957Y43296D01*
X23927Y43226D01*
X23918Y43150D01*
X23927Y43074D01*
X23957Y43004D01*
X24003Y42943D01*
X24064Y42897D01*
X24134Y42867D01*
X24210Y42857D01*
X24248Y42863D01*
X24274Y42828D01*
X24276Y42830D01*
X25553Y41553D01*
X25575Y41539D01*
X25600Y41534D01*
X28786D01*
X28788Y41534D01*
X28968Y41517D01*
X29143Y41463D01*
X29305Y41377D01*
X29445Y41262D01*
X29446Y41260D01*
X31103Y39603D01*
X31102Y39602D01*
X31146Y39545D01*
X31173Y39479D01*
X31182Y39409D01*
X31184D01*
Y36060D01*
X31157Y36043D01*
X31129Y36000D01*
X31119Y35950D01*
X31129Y35900D01*
X31157Y35857D01*
X31200Y35829D01*
X31250Y35819D01*
X31300Y35829D01*
X31343Y35857D01*
X31371Y35900D01*
X31381Y35950D01*
X31371Y36000D01*
X31343Y36043D01*
X31316Y36060D01*
Y39409D01*
X31319D01*
X31305Y39515D01*
X31264Y39614D01*
X31198Y39698D01*
X31197Y39697D01*
X29540Y41354D01*
X29541Y41355D01*
X29414Y41464D01*
X29271Y41552D01*
X29116Y41616D01*
X28953Y41655D01*
X28786Y41668D01*
Y41666D01*
X25627D01*
X24406Y42888D01*
X24409Y42937D01*
X24417Y42943D01*
X24463Y43004D01*
X24493Y43074D01*
X24502Y43150D01*
X24493Y43226D01*
X24463Y43296D01*
X24417Y43357D01*
X24356Y43403D01*
X24286Y43433D01*
X24210Y43443D01*
D02*
G37*
G36*
X46634Y36022D02*
X46584Y36012D01*
X46541Y35984D01*
X46513Y35941D01*
X46503Y35891D01*
X46513Y35841D01*
X46541Y35798D01*
X46584Y35770D01*
X46634Y35760D01*
X46684Y35770D01*
X46727Y35798D01*
X46755Y35841D01*
X46765Y35891D01*
X46755Y35941D01*
X46727Y35984D01*
X46684Y36012D01*
X46634Y36022D01*
D02*
G37*
G36*
X42656Y35864D02*
X42144D01*
X42075Y35850D01*
X42016Y35810D01*
X41977Y35752D01*
X41976Y35749D01*
X41284D01*
X41281Y35750D01*
Y35752D01*
X41279Y35752D01*
X41250Y35771D01*
X41200Y35781D01*
X41150Y35771D01*
X41107Y35743D01*
X41102Y35735D01*
X41080Y35732D01*
X40886Y35674D01*
X40707Y35578D01*
X40660Y35540D01*
X40650Y35542D01*
X40550D01*
X40515Y35535D01*
X40485Y35515D01*
X40465Y35485D01*
X40458Y35450D01*
Y35350D01*
X40465Y35315D01*
X40485Y35285D01*
X40515Y35265D01*
X40550Y35258D01*
X40650D01*
X40685Y35265D01*
X40715Y35285D01*
X40735Y35315D01*
X40742Y35350D01*
Y35432D01*
X40783Y35465D01*
X40938Y35548D01*
X41084Y35593D01*
X41107Y35557D01*
X41150Y35529D01*
X41200Y35519D01*
X41250Y35529D01*
X41293Y35557D01*
X41321Y35600D01*
X41324Y35616D01*
X41976D01*
X41977Y35613D01*
X42016Y35554D01*
X42059Y35526D01*
X42051Y35473D01*
X41973Y35421D01*
X41920Y35342D01*
X41912Y35299D01*
X42400D01*
X42888D01*
X42880Y35342D01*
X42827Y35421D01*
X42749Y35473D01*
X42741Y35526D01*
X42784Y35554D01*
X42823Y35613D01*
X42837Y35682D01*
X42823Y35752D01*
X42784Y35810D01*
X42725Y35850D01*
X42656Y35864D01*
D02*
G37*
G36*
X29800Y35981D02*
X29750Y35971D01*
X29707Y35943D01*
X29679Y35900D01*
X29669Y35850D01*
X29679Y35800D01*
X29707Y35757D01*
X29750Y35729D01*
X29800Y35719D01*
X29850Y35729D01*
X29893Y35757D01*
X29921Y35800D01*
X29931Y35850D01*
X29921Y35900D01*
X29893Y35943D01*
X29850Y35971D01*
X29800Y35981D01*
D02*
G37*
G36*
X20250Y40443D02*
X20195Y40432D01*
X20149Y40401D01*
X20118Y40355D01*
X20107Y40300D01*
Y39351D01*
X20105Y39304D01*
X20096Y39293D01*
X18775D01*
X18744Y39281D01*
X18732Y39250D01*
X18732Y38554D01*
X18733Y38550D01*
X18733Y38545D01*
X18739Y38512D01*
X18742Y38509D01*
Y38504D01*
X18754Y38473D01*
X18758Y38470D01*
X18758Y38466D01*
X18777Y38438D01*
X18781Y38435D01*
X18782Y38431D01*
X18794Y38419D01*
X18794Y38419D01*
X18823Y38407D01*
X18824Y38407D01*
X18825Y38407D01*
X18839Y38413D01*
X18839D01*
X18840Y38413D01*
X18854Y38418D01*
X18864Y38427D01*
X18886Y38441D01*
X18909Y38451D01*
X18934Y38456D01*
X18947Y38457D01*
X19983Y38457D01*
Y37664D01*
X19982D01*
X19995Y37489D01*
X20036Y37319D01*
X20103Y37156D01*
X20195Y37007D01*
X20309Y36873D01*
X20310Y36874D01*
X20420Y36764D01*
Y36524D01*
X20429Y36481D01*
X20453Y36445D01*
X20489Y36421D01*
X20531Y36413D01*
X20669D01*
X20711Y36421D01*
X20721Y36427D01*
X21106Y36042D01*
X21106Y36041D01*
X21242Y35925D01*
X21395Y35831D01*
X21561Y35762D01*
X21735Y35721D01*
X21914Y35706D01*
Y35707D01*
X23000D01*
X23055Y35718D01*
X23101Y35749D01*
X23132Y35795D01*
X23143Y35850D01*
X23132Y35905D01*
X23101Y35951D01*
X23055Y35982D01*
X23000Y35993D01*
X21914D01*
X21908Y35991D01*
X21747Y36007D01*
X21585Y36056D01*
X21437Y36136D01*
X21312Y36238D01*
X21308Y36244D01*
X20780Y36772D01*
Y36976D01*
X20771Y37019D01*
X20747Y37055D01*
X20711Y37079D01*
X20669Y37087D01*
X20531D01*
X20489Y37079D01*
X20458Y37059D01*
X20365Y37173D01*
X20283Y37326D01*
X20233Y37492D01*
X20216Y37659D01*
X20217Y37664D01*
Y38457D01*
X20525D01*
X20556Y38469D01*
X20568Y38500D01*
Y38562D01*
X20585Y38565D01*
X20615Y38585D01*
X20635Y38615D01*
X20642Y38650D01*
Y38695D01*
X20643Y38700D01*
X20642Y38705D01*
Y38750D01*
X20635Y38785D01*
X20615Y38815D01*
X20585Y38835D01*
X20569Y38838D01*
X20568Y38839D01*
X20568Y39250D01*
X20556Y39281D01*
X20525Y39293D01*
X20442D01*
X20393Y39304D01*
Y40300D01*
X20382Y40355D01*
X20351Y40401D01*
X20305Y40432D01*
X20250Y40443D01*
D02*
G37*
G36*
X28053Y35800D02*
X27900D01*
Y35647D01*
X27959Y35659D01*
X28008Y35692D01*
X28041Y35741D01*
X28053Y35800D01*
D02*
G37*
G36*
X27800D02*
X27647D01*
X27659Y35741D01*
X27692Y35692D01*
X27741Y35659D01*
X27800Y35647D01*
Y35800D01*
D02*
G37*
G36*
X27503D02*
X27350D01*
Y35647D01*
X27409Y35659D01*
X27458Y35692D01*
X27491Y35741D01*
X27503Y35800D01*
D02*
G37*
G36*
X27250D02*
X27097D01*
X27109Y35741D01*
X27142Y35692D01*
X27191Y35659D01*
X27250Y35647D01*
Y35800D01*
D02*
G37*
G36*
X26953D02*
X26800D01*
Y35647D01*
X26859Y35659D01*
X26908Y35692D01*
X26941Y35741D01*
X26953Y35800D01*
D02*
G37*
G36*
X26700D02*
X26547D01*
X26559Y35741D01*
X26592Y35692D01*
X26641Y35659D01*
X26700Y35647D01*
Y35800D01*
D02*
G37*
G36*
X18900Y35503D02*
D01*
Y35350D01*
X19053D01*
X19041Y35409D01*
X19008Y35458D01*
X18959Y35491D01*
X18900Y35503D01*
D02*
G37*
G36*
X18800D02*
X18741Y35491D01*
X18692Y35458D01*
X18659Y35409D01*
X18647Y35350D01*
D01*
X18800D01*
Y35503D01*
D02*
G37*
G36*
X19053Y35250D02*
X18900D01*
Y35097D01*
X18959Y35109D01*
X19008Y35142D01*
X19041Y35191D01*
X19053Y35250D01*
D01*
D02*
G37*
G36*
X18800D02*
X18647D01*
X18659Y35191D01*
X18692Y35142D01*
X18741Y35109D01*
X18800Y35097D01*
D01*
Y35250D01*
D02*
G37*
G36*
X42888Y35199D02*
X42400D01*
X41912D01*
X41920Y35156D01*
X41973Y35078D01*
X42051Y35025D01*
X42059Y34973D01*
X42016Y34944D01*
X41988Y34903D01*
X41719D01*
X41693Y34943D01*
X41650Y34971D01*
X41600Y34981D01*
X41550Y34971D01*
X41507Y34943D01*
X41479Y34900D01*
X41469Y34850D01*
X41479Y34800D01*
X41507Y34757D01*
X41550Y34729D01*
X41600Y34719D01*
X41650Y34729D01*
X41693Y34757D01*
X41701Y34770D01*
X41972D01*
X41977Y34747D01*
X42016Y34688D01*
X42075Y34649D01*
X42144Y34635D01*
X42656D01*
X42725Y34649D01*
X42784Y34688D01*
X42823Y34747D01*
X42837Y34816D01*
X42823Y34886D01*
X42784Y34944D01*
X42741Y34973D01*
X42749Y35025D01*
X42827Y35078D01*
X42880Y35156D01*
X42888Y35199D01*
D02*
G37*
G36*
X45161Y35359D02*
X45068Y35341D01*
X44988Y35288D01*
X44935Y35208D01*
X44917Y35115D01*
X44935Y35021D01*
X44988Y34942D01*
X45068Y34888D01*
X45161Y34870D01*
X45255Y34888D01*
X45334Y34942D01*
X45387Y35021D01*
X45406Y35115D01*
X45387Y35208D01*
X45334Y35288D01*
X45255Y35341D01*
X45161Y35359D01*
D02*
G37*
G36*
X22600Y35231D02*
X22550Y35221D01*
X22507Y35193D01*
X22479Y35150D01*
X22469Y35100D01*
X22479Y35050D01*
X22507Y35007D01*
X22534Y34990D01*
Y34927D01*
X22532D01*
X22541Y34864D01*
X22540Y34864D01*
X22520Y34834D01*
X22514Y34799D01*
Y34701D01*
X22520Y34666D01*
X22540Y34636D01*
X22570Y34617D01*
X22604Y34610D01*
X22742D01*
X22777Y34617D01*
X22807Y34636D01*
X22826Y34666D01*
X22833Y34701D01*
Y34799D01*
X22826Y34834D01*
X22807Y34864D01*
X22791Y34874D01*
Y34923D01*
X22792D01*
X22779Y35018D01*
X22742Y35107D01*
X22725Y35129D01*
X22721Y35150D01*
X22693Y35193D01*
X22650Y35221D01*
X22600Y35231D01*
D02*
G37*
G36*
X21500D02*
X21450Y35221D01*
X21407Y35193D01*
X21379Y35150D01*
X21369Y35100D01*
X21379Y35050D01*
X21407Y35007D01*
X21443Y34984D01*
X21467Y34952D01*
X21499Y34876D01*
X21500Y34868D01*
X21493Y34864D01*
X21474Y34834D01*
X21467Y34799D01*
Y34701D01*
X21474Y34666D01*
X21493Y34636D01*
X21523Y34617D01*
X21558Y34610D01*
X21696D01*
X21730Y34617D01*
X21760Y34636D01*
X21780Y34666D01*
X21786Y34701D01*
Y34799D01*
X21780Y34834D01*
X21760Y34864D01*
X21735Y34880D01*
X21728Y34937D01*
X21672Y35070D01*
X21625Y35133D01*
X21621Y35150D01*
X21593Y35193D01*
X21550Y35221D01*
X21500Y35231D01*
D02*
G37*
G36*
X33800Y34703D02*
D01*
Y34550D01*
X33953D01*
X33941Y34609D01*
X33908Y34658D01*
X33859Y34691D01*
X33800Y34703D01*
D02*
G37*
G36*
X33700D02*
X33641Y34691D01*
X33592Y34658D01*
X33559Y34609D01*
X33547Y34550D01*
D01*
X33700D01*
Y34703D01*
D02*
G37*
G36*
X36200Y34603D02*
D01*
Y34450D01*
X36353D01*
X36341Y34509D01*
X36308Y34558D01*
X36259Y34591D01*
X36200Y34603D01*
D02*
G37*
G36*
X36100D02*
X36041Y34591D01*
X35992Y34558D01*
X35959Y34509D01*
X35947Y34450D01*
D01*
X36100D01*
Y34603D01*
D02*
G37*
G36*
X33953Y34450D02*
X33800D01*
Y34297D01*
X33859Y34309D01*
X33908Y34342D01*
X33941Y34391D01*
X33953Y34450D01*
D01*
D02*
G37*
G36*
X33700D02*
X33547D01*
X33559Y34391D01*
X33592Y34342D01*
X33641Y34309D01*
X33700Y34297D01*
D01*
Y34450D01*
D02*
G37*
G36*
X28150Y35593D02*
X26450D01*
X26419Y35581D01*
X26407Y35550D01*
X26407Y35271D01*
Y34543D01*
X24300D01*
X24269Y34531D01*
X24257Y34500D01*
Y34296D01*
X24217Y34267D01*
X24159Y34284D01*
X23998Y34370D01*
X23875Y34471D01*
X23881Y34500D01*
X23871Y34550D01*
X23843Y34593D01*
X23800Y34621D01*
X23750Y34631D01*
X23700Y34621D01*
X23657Y34593D01*
X23629Y34550D01*
X23619Y34500D01*
X23629Y34450D01*
X23657Y34407D01*
X23700Y34379D01*
X23750Y34369D01*
X23781Y34375D01*
X23889Y34283D01*
X24032Y34195D01*
X24187Y34131D01*
X24257Y34114D01*
Y33950D01*
X24269Y33919D01*
X24281Y33907D01*
X24285Y33906D01*
X24288Y33902D01*
X24316Y33883D01*
X24320Y33883D01*
X24323Y33879D01*
X24354Y33867D01*
X24359D01*
X24362Y33864D01*
X24395Y33858D01*
X24400Y33858D01*
X24404Y33857D01*
X24421D01*
X24421Y33857D01*
X26800D01*
X26831Y33869D01*
X26843Y33900D01*
Y34500D01*
Y35057D01*
X28150Y35057D01*
X28181Y35069D01*
X28193Y35100D01*
X28193Y35550D01*
X28181Y35581D01*
X28150Y35593D01*
D02*
G37*
G36*
X40250Y36342D02*
X40150D01*
X40115Y36335D01*
X40085Y36315D01*
X40065Y36285D01*
X40058Y36250D01*
Y36150D01*
X40065Y36115D01*
X40085Y36085D01*
X40115Y36065D01*
X40134Y36061D01*
Y35539D01*
X40115Y35535D01*
X40085Y35515D01*
X40065Y35485D01*
X40058Y35450D01*
Y35350D01*
X40065Y35315D01*
X40085Y35285D01*
X40115Y35265D01*
X40134Y35261D01*
Y34689D01*
X40115Y34685D01*
X40085Y34665D01*
X40065Y34635D01*
X40058Y34600D01*
Y34500D01*
X40065Y34465D01*
X40085Y34435D01*
X40115Y34415D01*
X40134Y34411D01*
Y33939D01*
X40115Y33935D01*
X40085Y33915D01*
X40065Y33885D01*
X40058Y33850D01*
Y33750D01*
X40065Y33715D01*
X40085Y33685D01*
X40115Y33665D01*
X40134Y33661D01*
Y33139D01*
X40115Y33135D01*
X40085Y33115D01*
X40065Y33085D01*
X40058Y33050D01*
Y32950D01*
X40065Y32915D01*
X40085Y32885D01*
X40115Y32865D01*
X40134Y32861D01*
Y32804D01*
X40134Y32803D01*
X40119Y32650D01*
X40074Y32502D01*
X40001Y32366D01*
X39934Y32285D01*
X39902Y32248D01*
X39902Y32248D01*
X39836Y32164D01*
X39795Y32065D01*
X39781Y31959D01*
X39784D01*
Y30850D01*
X39782D01*
X39793Y30770D01*
X39824Y30695D01*
X39873Y30631D01*
X39874Y30632D01*
X39874Y30632D01*
X40203Y30303D01*
X40202Y30302D01*
X40246Y30245D01*
X40273Y30179D01*
X40276Y30155D01*
X40257Y30143D01*
X40229Y30100D01*
X40219Y30050D01*
X40229Y30000D01*
X40257Y29957D01*
X40300Y29929D01*
X40350Y29919D01*
X40400Y29929D01*
X40443Y29957D01*
X40471Y30000D01*
X40481Y30050D01*
X40471Y30100D01*
X40443Y30143D01*
X40411Y30164D01*
X40405Y30215D01*
X40364Y30314D01*
X40298Y30398D01*
X40297Y30397D01*
X40003Y30691D01*
X39968Y30726D01*
X39930Y30783D01*
X39917Y30850D01*
X39916D01*
Y31959D01*
X39918D01*
X39927Y32029D01*
X39954Y32095D01*
X39997Y32151D01*
X39999Y32151D01*
X39999D01*
X40114Y32291D01*
X40199Y32450D01*
X40252Y32623D01*
X40269Y32804D01*
X40266D01*
Y32861D01*
X40285Y32865D01*
X40315Y32885D01*
X40335Y32915D01*
X40342Y32950D01*
Y33050D01*
X40335Y33085D01*
X40315Y33115D01*
X40285Y33135D01*
X40266Y33139D01*
Y33661D01*
X40285Y33665D01*
X40315Y33685D01*
X40335Y33715D01*
X40342Y33750D01*
Y33850D01*
X40335Y33885D01*
X40315Y33915D01*
X40285Y33935D01*
X40266Y33939D01*
Y34411D01*
X40285Y34415D01*
X40315Y34435D01*
X40335Y34465D01*
X40342Y34500D01*
Y34600D01*
X40335Y34635D01*
X40315Y34665D01*
X40285Y34685D01*
X40266Y34689D01*
Y35025D01*
X40312Y35044D01*
X40453Y34903D01*
X40475Y34889D01*
X40500Y34884D01*
X40623D01*
X41053Y34453D01*
X41075Y34439D01*
X41100Y34434D01*
X41931D01*
X41965Y34395D01*
X41963Y34383D01*
X41977Y34314D01*
X42016Y34255D01*
X42075Y34216D01*
X42144Y34202D01*
X42656D01*
X42725Y34216D01*
X42784Y34255D01*
X42823Y34314D01*
X42837Y34383D01*
X42823Y34452D01*
X42784Y34511D01*
X42725Y34551D01*
X42656Y34564D01*
X42144D01*
X42075Y34551D01*
X42035Y34524D01*
X42013Y34547D01*
X41991Y34561D01*
X41966Y34566D01*
X41127D01*
X40697Y34997D01*
X40675Y35011D01*
X40650Y35016D01*
X40527D01*
X40317Y35227D01*
X40315Y35285D01*
X40335Y35315D01*
X40342Y35350D01*
Y35450D01*
X40335Y35485D01*
X40315Y35515D01*
X40285Y35535D01*
X40266Y35539D01*
Y36061D01*
X40285Y36065D01*
X40315Y36085D01*
X40335Y36115D01*
X40342Y36150D01*
Y36250D01*
X40335Y36285D01*
X40315Y36315D01*
X40285Y36335D01*
X40250Y36342D01*
D02*
G37*
G36*
X36353Y34350D02*
X36200D01*
Y34197D01*
X36259Y34209D01*
X36308Y34242D01*
X36341Y34291D01*
X36353Y34350D01*
D01*
D02*
G37*
G36*
X36100D02*
X35947D01*
X35959Y34291D01*
X35992Y34242D01*
X36041Y34209D01*
X36100Y34197D01*
D01*
Y34350D01*
D02*
G37*
G36*
X33800Y34153D02*
D01*
Y34000D01*
X33953D01*
X33941Y34059D01*
X33908Y34108D01*
X33859Y34141D01*
X33800Y34153D01*
D02*
G37*
G36*
X33700D02*
X33641Y34141D01*
X33592Y34108D01*
X33559Y34059D01*
X33547Y34000D01*
D01*
X33700D01*
Y34153D01*
D02*
G37*
G36*
X33953Y33900D02*
X33800D01*
Y33747D01*
X33859Y33759D01*
X33908Y33792D01*
X33941Y33841D01*
X33953Y33900D01*
D01*
D02*
G37*
G36*
X33700D02*
X33547D01*
X33559Y33841D01*
X33592Y33792D01*
X33641Y33759D01*
X33700Y33747D01*
D01*
Y33900D01*
D02*
G37*
G36*
X40650Y33942D02*
X40550D01*
X40515Y33935D01*
X40485Y33915D01*
X40465Y33885D01*
X40458Y33850D01*
Y33750D01*
X40465Y33715D01*
X40485Y33685D01*
X40515Y33665D01*
X40550Y33658D01*
X40650D01*
X40660Y33660D01*
X40708Y33622D01*
X40887Y33526D01*
X41022Y33485D01*
X41029Y33450D01*
X41057Y33407D01*
X41100Y33379D01*
X41150Y33369D01*
X41200Y33379D01*
X41243Y33407D01*
X41270Y33448D01*
X41283Y33447D01*
Y33451D01*
X41976D01*
X41977Y33448D01*
X42016Y33389D01*
X42075Y33349D01*
X42144Y33336D01*
X42656D01*
X42725Y33349D01*
X42784Y33389D01*
X42823Y33448D01*
X42837Y33517D01*
X42823Y33586D01*
X42784Y33645D01*
X42725Y33684D01*
X42656Y33698D01*
X42144D01*
X42075Y33684D01*
X42016Y33645D01*
X41977Y33586D01*
X41976Y33583D01*
X41283D01*
X41281Y33583D01*
X41247Y33586D01*
X41243Y33593D01*
X41200Y33621D01*
X41150Y33631D01*
X41100Y33621D01*
X41080Y33608D01*
X40939Y33651D01*
X40783Y33734D01*
X40742Y33768D01*
Y33850D01*
X40735Y33885D01*
X40715Y33915D01*
X40685Y33935D01*
X40650Y33942D01*
D02*
G37*
G36*
X42656Y33265D02*
X42144D01*
X42075Y33251D01*
X42016Y33212D01*
X41977Y33153D01*
X41963Y33084D01*
X41948Y33066D01*
X41260D01*
X41243Y33093D01*
X41200Y33121D01*
X41150Y33131D01*
X41100Y33121D01*
X41057Y33093D01*
X41040Y33066D01*
X40739D01*
X40735Y33085D01*
X40715Y33115D01*
X40685Y33135D01*
X40650Y33142D01*
X40550D01*
X40515Y33135D01*
X40485Y33115D01*
X40465Y33085D01*
X40458Y33050D01*
Y32950D01*
X40465Y32915D01*
X40485Y32885D01*
X40515Y32865D01*
X40550Y32858D01*
X40650D01*
X40685Y32865D01*
X40715Y32885D01*
X40735Y32915D01*
X40739Y32934D01*
X41040D01*
X41057Y32907D01*
X41100Y32879D01*
X41150Y32869D01*
X41200Y32879D01*
X41243Y32907D01*
X41260Y32934D01*
X42049D01*
X42075Y32916D01*
X42144Y32903D01*
X42656D01*
X42725Y32916D01*
X42784Y32956D01*
X42823Y33014D01*
X42837Y33084D01*
X42823Y33153D01*
X42784Y33212D01*
X42725Y33251D01*
X42656Y33265D01*
D02*
G37*
G36*
X45161Y33430D02*
X45068Y33412D01*
X44988Y33358D01*
X44935Y33279D01*
X44917Y33185D01*
X44935Y33092D01*
X44988Y33012D01*
X45068Y32959D01*
X45161Y32941D01*
X45255Y32959D01*
X45334Y33012D01*
X45387Y33092D01*
X45406Y33185D01*
X45387Y33279D01*
X45334Y33358D01*
X45255Y33412D01*
X45161Y33430D01*
D02*
G37*
G36*
X41664Y37718D02*
X41497Y37705D01*
X41334Y37666D01*
X41179Y37602D01*
X41036Y37514D01*
X40909Y37405D01*
X40910Y37404D01*
X40246Y36740D01*
X40245Y36738D01*
X40105Y36623D01*
X39943Y36537D01*
X39768Y36483D01*
X39588Y36466D01*
X39586Y36466D01*
X33164D01*
Y36468D01*
X32997Y36455D01*
X32834Y36416D01*
X32679Y36352D01*
X32536Y36264D01*
X32409Y36155D01*
X32410Y36154D01*
X31423Y35166D01*
X30814D01*
X30812Y35166D01*
X30632Y35183D01*
X30457Y35237D01*
X30295Y35323D01*
X30155Y35438D01*
X30154Y35440D01*
X30047Y35547D01*
X30025Y35561D01*
X30000Y35566D01*
X29814D01*
Y35568D01*
X29647Y35555D01*
X29484Y35516D01*
X29329Y35452D01*
X29186Y35364D01*
X29059Y35255D01*
X29060Y35254D01*
X26680Y32874D01*
X26680Y32874D01*
X26679Y32875D01*
X26595Y32773D01*
X26533Y32657D01*
X26495Y32531D01*
X26493Y32517D01*
X26457Y32493D01*
X26429Y32450D01*
X26419Y32400D01*
X26429Y32350D01*
X26457Y32307D01*
X26500Y32279D01*
X26550Y32269D01*
X26600Y32279D01*
X26643Y32307D01*
X26671Y32350D01*
X26681Y32400D01*
X26671Y32450D01*
X26643Y32493D01*
X26629Y32502D01*
X26634Y32539D01*
X26687Y32669D01*
X26744Y32742D01*
X26774Y32780D01*
X26808Y32814D01*
X29154Y35160D01*
X29155Y35162D01*
X29295Y35277D01*
X29457Y35363D01*
X29632Y35417D01*
X29812Y35434D01*
X29814Y35434D01*
X29973D01*
X30060Y35346D01*
X30059Y35345D01*
X30186Y35236D01*
X30329Y35148D01*
X30484Y35084D01*
X30647Y35045D01*
X30814Y35032D01*
Y35034D01*
X31450D01*
X31475Y35039D01*
X31497Y35053D01*
X32024Y35580D01*
X32070Y35556D01*
X32069Y35550D01*
X32079Y35500D01*
X32107Y35457D01*
X32150Y35429D01*
X32200Y35419D01*
X32250Y35429D01*
X32293Y35457D01*
X32310Y35484D01*
X33879D01*
Y35482D01*
X33919Y35474D01*
X33952Y35452D01*
X33953Y35453D01*
X35160Y34246D01*
X35159Y34245D01*
X35286Y34136D01*
X35429Y34048D01*
X35584Y33984D01*
X35747Y33945D01*
X35914Y33932D01*
Y33934D01*
X36011D01*
X36015Y33915D01*
X36035Y33885D01*
X36065Y33865D01*
X36100Y33858D01*
X36184D01*
Y32571D01*
X36166Y32559D01*
X36134Y32549D01*
X36100Y32571D01*
X36050Y32581D01*
X36000Y32571D01*
X35957Y32543D01*
X35929Y32500D01*
X35925Y32483D01*
X35875D01*
X35871Y32500D01*
X35843Y32543D01*
X35800Y32571D01*
X35750Y32581D01*
X35700Y32571D01*
X35657Y32543D01*
X35655Y32539D01*
X35595D01*
X35593Y32543D01*
X35550Y32571D01*
X35500Y32581D01*
X35450Y32571D01*
X35407Y32543D01*
X35379Y32500D01*
X35369Y32450D01*
X35379Y32400D01*
X35407Y32357D01*
X35424Y32346D01*
X35420Y32320D01*
X35409Y32296D01*
X35385Y32292D01*
X35359Y32274D01*
X35316D01*
X35290Y32292D01*
X35259Y32298D01*
X35228Y32292D01*
X35201Y32274D01*
X35158D01*
X35132Y32292D01*
X35101Y32298D01*
X35070Y32292D01*
X35044Y32274D01*
X35001D01*
X34975Y32292D01*
X34944Y32298D01*
X34913Y32292D01*
X34886Y32274D01*
X34843D01*
X34817Y32292D01*
X34786Y32298D01*
X34755Y32292D01*
X34748Y32287D01*
X34703Y32317D01*
X34709Y32346D01*
X34727Y32373D01*
X34752Y32407D01*
X34784Y32434D01*
X34842Y32478D01*
X34889Y32497D01*
X34942Y32519D01*
X34949Y32520D01*
X34957Y32507D01*
X35000Y32479D01*
X35050Y32469D01*
X35100Y32479D01*
X35143Y32507D01*
X35171Y32550D01*
X35181Y32600D01*
X35171Y32650D01*
X35143Y32693D01*
X35100Y32721D01*
X35050Y32731D01*
X35000Y32721D01*
X34957Y32693D01*
X34932Y32654D01*
X34907Y32651D01*
X34843Y32624D01*
X34836Y32623D01*
X34836Y32623D01*
X34808Y32664D01*
X34897Y32753D01*
X34911Y32775D01*
X34916Y32800D01*
Y33009D01*
X34919D01*
X34905Y33115D01*
X34870Y33198D01*
X34871Y33200D01*
X34881Y33250D01*
X34871Y33300D01*
X34843Y33343D01*
X34800Y33371D01*
X34750Y33381D01*
X34700Y33371D01*
X34657Y33343D01*
X34629Y33300D01*
X34619Y33250D01*
X34629Y33200D01*
X34647Y33173D01*
X34619Y33127D01*
X34600Y33131D01*
X34550Y33121D01*
X34507Y33093D01*
X34479Y33050D01*
X34469Y33000D01*
X34479Y32950D01*
X34507Y32907D01*
X34516Y32902D01*
X34515Y32897D01*
X34487Y32829D01*
X34472Y32809D01*
X34442Y32771D01*
X34441Y32771D01*
X34411Y32734D01*
X34374Y32689D01*
X34324Y32707D01*
Y32795D01*
X34343Y32807D01*
X34371Y32850D01*
X34381Y32900D01*
X34371Y32950D01*
X34343Y32993D01*
X34300Y33021D01*
X34250Y33031D01*
X34200Y33021D01*
X34157Y32993D01*
X34129Y32950D01*
X34119Y32900D01*
X34129Y32850D01*
X34157Y32807D01*
X34176Y32795D01*
Y32730D01*
X34126Y32725D01*
X34121Y32750D01*
X34093Y32793D01*
X34050Y32821D01*
X34000Y32831D01*
X33950Y32821D01*
X33916Y32799D01*
X33884Y32809D01*
X33866Y32821D01*
Y32990D01*
X33893Y33007D01*
X33921Y33050D01*
X33931Y33100D01*
X33921Y33150D01*
X33893Y33193D01*
X33850Y33221D01*
X33800Y33231D01*
X33750Y33221D01*
X33707Y33193D01*
X33679Y33150D01*
X33669Y33100D01*
X33679Y33050D01*
X33707Y33007D01*
X33734Y32990D01*
Y32721D01*
X33716Y32709D01*
X33684Y32699D01*
X33650Y32721D01*
X33600Y32731D01*
X33550Y32721D01*
X33507Y32693D01*
X33479Y32650D01*
X33469Y32600D01*
X33479Y32550D01*
X33507Y32507D01*
X33550Y32479D01*
X33570Y32475D01*
Y32339D01*
X33526Y32298D01*
X33495Y32292D01*
X33469Y32274D01*
X33462D01*
X33416Y32319D01*
Y33811D01*
X33435Y33815D01*
X33465Y33835D01*
X33485Y33865D01*
X33492Y33900D01*
Y34000D01*
X33485Y34035D01*
X33465Y34065D01*
X33435Y34085D01*
X33416Y34089D01*
Y34361D01*
X33435Y34365D01*
X33465Y34385D01*
X33485Y34415D01*
X33492Y34450D01*
Y34550D01*
X33485Y34585D01*
X33465Y34615D01*
X33435Y34635D01*
X33400Y34642D01*
X33300D01*
X33265Y34635D01*
X33235Y34615D01*
X33215Y34585D01*
X33211Y34566D01*
X32228D01*
X32221Y34600D01*
X32193Y34643D01*
X32150Y34671D01*
X32100Y34681D01*
X32050Y34671D01*
X32007Y34643D01*
X32003Y34636D01*
X31974Y34599D01*
X31931Y34600D01*
X31921Y34650D01*
X31893Y34693D01*
X31889Y34695D01*
Y34755D01*
X31893Y34757D01*
X31921Y34800D01*
X31931Y34850D01*
X31974Y34851D01*
X32003Y34814D01*
X32007Y34807D01*
X32050Y34779D01*
X32100Y34769D01*
X32150Y34779D01*
X32193Y34807D01*
X32221Y34850D01*
X32231Y34900D01*
X32221Y34950D01*
X32193Y34993D01*
X32150Y35021D01*
X32100Y35031D01*
X32050Y35021D01*
X32007Y34993D01*
X31979Y34950D01*
X31969Y34900D01*
X31926Y34899D01*
X31897Y34936D01*
X31893Y34943D01*
X31850Y34971D01*
X31800Y34981D01*
X31750Y34971D01*
X31707Y34943D01*
X31679Y34900D01*
X31669Y34850D01*
X31679Y34800D01*
X31707Y34757D01*
X31711Y34755D01*
Y34695D01*
X31707Y34693D01*
X31679Y34650D01*
X31669Y34600D01*
X31679Y34550D01*
X31707Y34507D01*
X31750Y34479D01*
X31800Y34469D01*
X31850Y34479D01*
X31893Y34507D01*
X31897Y34514D01*
X31926Y34551D01*
X31969Y34550D01*
X31979Y34500D01*
X32007Y34457D01*
X32050Y34429D01*
X32100Y34419D01*
X32150Y34429D01*
X32168Y34441D01*
X32221Y34430D01*
Y34434D01*
X33211D01*
X33215Y34415D01*
X33235Y34385D01*
X33265Y34365D01*
X33284Y34361D01*
Y34089D01*
X33265Y34085D01*
X33235Y34065D01*
X33215Y34035D01*
X33208Y34000D01*
Y33900D01*
X33215Y33865D01*
X33235Y33835D01*
X33265Y33815D01*
X33284Y33811D01*
Y33206D01*
X33234Y33199D01*
X33219Y33248D01*
X33159Y33360D01*
X33078Y33458D01*
X33077Y33457D01*
X33077Y33457D01*
X32582Y33952D01*
Y34050D01*
X32575Y34085D01*
X32555Y34115D01*
X32525Y34135D01*
X32490Y34142D01*
X32390D01*
X32355Y34135D01*
X32325Y34115D01*
X32305Y34085D01*
X32298Y34050D01*
Y33950D01*
X32305Y33915D01*
X32325Y33885D01*
X32355Y33865D01*
X32390Y33858D01*
X32488D01*
X32949Y33397D01*
X32983Y33363D01*
X33013Y33325D01*
X33066Y33257D01*
X33117Y33133D01*
X33134Y33002D01*
X33134Y33000D01*
Y32994D01*
X33084Y32987D01*
X33064Y33050D01*
X32994Y33183D01*
X32899Y33299D01*
X32898Y33298D01*
X32814Y33364D01*
X32715Y33405D01*
X32609Y33419D01*
Y33416D01*
X32550D01*
Y33417D01*
X32483Y33430D01*
X32426Y33468D01*
X32426Y33468D01*
X32426Y33468D01*
X32166Y33727D01*
Y33855D01*
X32167D01*
X32162Y33896D01*
X32175Y33915D01*
X32182Y33950D01*
Y34050D01*
X32175Y34085D01*
X32155Y34115D01*
X32125Y34135D01*
X32090Y34142D01*
X31990D01*
X31955Y34135D01*
X31925Y34115D01*
X31905Y34085D01*
X31901Y34066D01*
X30671D01*
Y34070D01*
X30661Y34068D01*
X30635Y34085D01*
X30600Y34092D01*
X30500D01*
X30465Y34085D01*
X30435Y34065D01*
X30415Y34035D01*
X30408Y34000D01*
Y33900D01*
X30415Y33865D01*
X30435Y33835D01*
X30465Y33815D01*
X30500Y33808D01*
X30600D01*
X30635Y33815D01*
X30665Y33835D01*
X30685Y33865D01*
X30692Y33900D01*
Y33934D01*
X31901D01*
X31905Y33915D01*
X31925Y33885D01*
X31955Y33865D01*
X31990Y33858D01*
X32032D01*
X32033Y33855D01*
X32034D01*
Y33700D01*
X32039Y33675D01*
X32053Y33653D01*
X32332Y33374D01*
X32332Y33374D01*
X32331Y33373D01*
X32395Y33324D01*
X32470Y33293D01*
X32550Y33282D01*
Y33284D01*
X32609D01*
Y33282D01*
X32679Y33273D01*
X32745Y33246D01*
X32802Y33202D01*
X32802Y33202D01*
X32802Y33202D01*
X32803Y33202D01*
X32881Y33107D01*
X32939Y32998D01*
X32975Y32880D01*
X32987Y32758D01*
X32988D01*
Y32613D01*
X32938Y32603D01*
X32919Y32647D01*
X32921Y32650D01*
X32931Y32700D01*
X32921Y32750D01*
X32893Y32793D01*
X32850Y32821D01*
X32800Y32831D01*
X32750Y32821D01*
X32707Y32793D01*
X32679Y32750D01*
X32669Y32700D01*
X32679Y32650D01*
X32707Y32607D01*
X32750Y32579D01*
X32800Y32569D01*
X32821Y32525D01*
X32829Y32467D01*
X32830D01*
Y32261D01*
X32822Y32248D01*
X32816Y32217D01*
Y31928D01*
X32808Y31914D01*
X32786Y31892D01*
X32772Y31884D01*
X32483D01*
X32452Y31878D01*
X32451Y31877D01*
X32404Y31870D01*
X32404Y31870D01*
X32404Y31870D01*
X32291Y31885D01*
X32187Y31928D01*
X32178Y31935D01*
X32181Y31950D01*
X32171Y32000D01*
X32143Y32043D01*
X32100Y32071D01*
X32050Y32081D01*
X32000Y32071D01*
X31957Y32043D01*
X31929Y32000D01*
X31919Y31950D01*
X31929Y31900D01*
X31957Y31857D01*
X32000Y31829D01*
X32050Y31819D01*
X32052Y31819D01*
X32070Y31810D01*
X32073Y31797D01*
X32061Y31745D01*
X32057Y31743D01*
X32029Y31700D01*
X32019Y31650D01*
X32029Y31600D01*
X32057Y31557D01*
X32100Y31529D01*
X32150Y31519D01*
X32200Y31529D01*
X32243Y31557D01*
X32258Y31580D01*
X32393D01*
X32394Y31579D01*
X32415Y31530D01*
X32408Y31520D01*
X32402Y31489D01*
X32408Y31458D01*
X32426Y31431D01*
Y31388D01*
X32408Y31362D01*
X32402Y31331D01*
X32408Y31300D01*
X32426Y31274D01*
Y31231D01*
X32408Y31205D01*
X32402Y31174D01*
X32408Y31143D01*
X32415Y31132D01*
X32394Y31083D01*
X32393Y31082D01*
X31115D01*
Y31083D01*
X30972Y31097D01*
X30834Y31138D01*
X30708Y31206D01*
X30692Y31219D01*
Y31300D01*
X30685Y31335D01*
X30665Y31365D01*
X30635Y31385D01*
X30616Y31389D01*
Y31661D01*
X30635Y31665D01*
X30665Y31685D01*
X30685Y31715D01*
X30692Y31750D01*
Y31850D01*
X30685Y31885D01*
X30665Y31915D01*
X30635Y31935D01*
X30616Y31939D01*
Y32211D01*
X30635Y32215D01*
X30665Y32235D01*
X30685Y32265D01*
X30692Y32300D01*
Y32400D01*
X30685Y32435D01*
X30665Y32465D01*
X30635Y32485D01*
X30600Y32492D01*
X30500D01*
X30465Y32485D01*
X30435Y32465D01*
X30415Y32435D01*
X30408Y32400D01*
Y32300D01*
X30415Y32265D01*
X30435Y32235D01*
X30465Y32215D01*
X30484Y32211D01*
Y31939D01*
X30465Y31935D01*
X30435Y31915D01*
X30415Y31885D01*
X30408Y31850D01*
Y31750D01*
X30415Y31715D01*
X30435Y31685D01*
X30465Y31665D01*
X30484Y31661D01*
Y31389D01*
X30465Y31385D01*
X30435Y31365D01*
X30415Y31335D01*
X30408Y31300D01*
Y31200D01*
X30415Y31165D01*
X30435Y31135D01*
X30465Y31115D01*
X30500Y31108D01*
X30600D01*
X30611Y31111D01*
X30633Y31093D01*
X30783Y31013D01*
X30905Y30976D01*
X30900Y30925D01*
X30756Y30914D01*
X30593Y30875D01*
X30438Y30811D01*
X30295Y30723D01*
X30262Y30695D01*
X30216Y30715D01*
Y31111D01*
X30235Y31115D01*
X30265Y31135D01*
X30285Y31165D01*
X30292Y31200D01*
Y31300D01*
X30285Y31335D01*
X30265Y31365D01*
X30235Y31385D01*
X30216Y31389D01*
Y31661D01*
X30235Y31665D01*
X30265Y31685D01*
X30285Y31715D01*
X30292Y31750D01*
Y31850D01*
X30285Y31885D01*
X30265Y31915D01*
X30235Y31935D01*
X30216Y31939D01*
Y32211D01*
X30235Y32215D01*
X30265Y32235D01*
X30285Y32265D01*
X30292Y32300D01*
Y32400D01*
X30285Y32435D01*
X30265Y32465D01*
X30235Y32485D01*
X30216Y32489D01*
Y33811D01*
X30235Y33815D01*
X30265Y33835D01*
X30285Y33865D01*
X30292Y33900D01*
Y34000D01*
X30285Y34035D01*
X30265Y34065D01*
X30235Y34085D01*
X30200Y34092D01*
X30102D01*
X30090Y34104D01*
X30088Y34105D01*
X29973Y34245D01*
X29887Y34407D01*
X29833Y34582D01*
X29816Y34762D01*
X29816Y34764D01*
Y34890D01*
X29843Y34907D01*
X29871Y34950D01*
X29881Y35000D01*
X29871Y35050D01*
X29843Y35093D01*
X29800Y35121D01*
X29750Y35131D01*
X29700Y35121D01*
X29657Y35093D01*
X29629Y35050D01*
X29619Y35000D01*
X29629Y34950D01*
X29657Y34907D01*
X29684Y34890D01*
Y34764D01*
X29682D01*
X29695Y34597D01*
X29734Y34434D01*
X29798Y34279D01*
X29886Y34136D01*
X29995Y34009D01*
X30008Y33964D01*
Y33900D01*
X30015Y33865D01*
X30035Y33835D01*
X30065Y33815D01*
X30084Y33811D01*
Y32489D01*
X30065Y32485D01*
X30035Y32465D01*
X30015Y32435D01*
X30008Y32400D01*
Y32300D01*
X30015Y32265D01*
X30035Y32235D01*
X30065Y32215D01*
X30084Y32211D01*
Y31939D01*
X30065Y31935D01*
X30035Y31915D01*
X30015Y31885D01*
X30008Y31850D01*
Y31750D01*
X30015Y31715D01*
X30035Y31685D01*
X30065Y31665D01*
X30084Y31661D01*
Y31389D01*
X30065Y31385D01*
X30035Y31365D01*
X30015Y31335D01*
X30008Y31300D01*
Y31200D01*
X30015Y31165D01*
X30035Y31135D01*
X30065Y31115D01*
X30084Y31111D01*
Y30639D01*
X30065Y30635D01*
X30035Y30615D01*
X30015Y30585D01*
X30008Y30550D01*
Y30450D01*
X30015Y30415D01*
X30035Y30385D01*
X30065Y30365D01*
X30100Y30358D01*
X30200D01*
X30235Y30365D01*
X30265Y30385D01*
X30285Y30415D01*
X30292Y30450D01*
Y30544D01*
X30373Y30611D01*
X30402Y30593D01*
X30414Y30580D01*
X30408Y30550D01*
Y30450D01*
X30415Y30415D01*
X30435Y30385D01*
X30465Y30365D01*
X30500Y30358D01*
X30600D01*
X30635Y30365D01*
X30665Y30385D01*
X30685Y30415D01*
X30692Y30450D01*
Y30530D01*
X30798Y30587D01*
X30915Y30622D01*
X31036Y30634D01*
Y30635D01*
X31640D01*
X31655Y30585D01*
X31601Y30549D01*
X31566Y30514D01*
X31455Y30423D01*
X31293Y30337D01*
X31118Y30283D01*
X30938Y30266D01*
X30936Y30266D01*
X28877D01*
X27490Y31654D01*
X27491Y31655D01*
X27364Y31764D01*
X27221Y31852D01*
X27066Y31916D01*
X26903Y31955D01*
X26736Y31968D01*
Y31966D01*
X25250D01*
X25246Y31966D01*
X25100Y31985D01*
X24961Y32043D01*
X24844Y32132D01*
X24842Y32135D01*
X24225Y32753D01*
X24241Y32776D01*
X24248Y32815D01*
Y32933D01*
X24241Y32972D01*
X24219Y33004D01*
X24186Y33026D01*
X24147Y33034D01*
X23872D01*
X23833Y33026D01*
X23800Y33004D01*
X23778Y32972D01*
X23771Y32933D01*
Y32856D01*
X23713Y32832D01*
X23593Y32816D01*
X23589Y32817D01*
X22711D01*
X22685Y32835D01*
X22650Y32842D01*
X22550D01*
X22515Y32835D01*
X22489Y32817D01*
X22161D01*
X22135Y32835D01*
X22100Y32842D01*
X22000D01*
X21965Y32835D01*
X21935Y32815D01*
X21915Y32785D01*
X21911Y32766D01*
X21662D01*
X21662Y32766D01*
X21547Y32781D01*
X21439Y32826D01*
X21428Y32834D01*
X21431Y32850D01*
X21421Y32900D01*
X21393Y32943D01*
X21350Y32971D01*
X21300Y32981D01*
X21250Y32971D01*
X21207Y32943D01*
X21179Y32900D01*
X21169Y32850D01*
X21179Y32800D01*
X21207Y32757D01*
X21250Y32729D01*
X21300Y32719D01*
X21345Y32728D01*
X21371Y32708D01*
X21511Y32650D01*
X21662Y32630D01*
Y32634D01*
X21911D01*
X21915Y32615D01*
X21935Y32585D01*
X21965Y32565D01*
X22000Y32558D01*
X22100D01*
X22135Y32565D01*
X22161Y32583D01*
X22489D01*
X22515Y32565D01*
X22550Y32558D01*
X22650D01*
X22685Y32565D01*
X22711Y32583D01*
X23589D01*
Y32582D01*
X23728Y32595D01*
X23862Y32636D01*
X23985Y32702D01*
X24000Y32714D01*
X24076D01*
X24748Y32042D01*
X24748Y32042D01*
X24747Y32040D01*
X24854Y31952D01*
X24978Y31886D01*
X25111Y31845D01*
X25250Y31832D01*
Y31834D01*
X26736D01*
X26738Y31834D01*
X26918Y31817D01*
X27093Y31763D01*
X27255Y31677D01*
X27395Y31562D01*
X27396Y31560D01*
X28803Y30153D01*
X28825Y30139D01*
X28850Y30134D01*
X30936D01*
Y30132D01*
X31103Y30145D01*
X31266Y30184D01*
X31421Y30248D01*
X31564Y30336D01*
X31691Y30445D01*
X31691D01*
X31731Y30470D01*
X31755Y30475D01*
Y30477D01*
X32025D01*
X32027Y30475D01*
X32047Y30427D01*
X32029Y30400D01*
X32019Y30350D01*
X32029Y30300D01*
X32057Y30257D01*
X32100Y30229D01*
X32150Y30219D01*
X32200Y30229D01*
X32243Y30257D01*
X32271Y30300D01*
X32275Y30320D01*
X32393D01*
X32394Y30319D01*
X32415Y30270D01*
X32408Y30260D01*
X32402Y30229D01*
X32408Y30198D01*
X32426Y30172D01*
Y30128D01*
X32408Y30102D01*
X32402Y30071D01*
X32408Y30040D01*
X32426Y30014D01*
Y29971D01*
X32408Y29945D01*
X32402Y29914D01*
X32408Y29883D01*
X32426Y29857D01*
Y29814D01*
X32408Y29787D01*
X32402Y29756D01*
X32408Y29725D01*
X32426Y29699D01*
Y29656D01*
X32408Y29630D01*
X32402Y29599D01*
X32408Y29568D01*
X32415Y29558D01*
X32394Y29509D01*
X32393Y29508D01*
X31253D01*
Y29510D01*
X31087Y29497D01*
X30925Y29458D01*
X30771Y29394D01*
X30629Y29307D01*
X30609Y29290D01*
X30600Y29292D01*
X30500D01*
X30465Y29285D01*
X30435Y29265D01*
X30415Y29235D01*
X30408Y29200D01*
Y29100D01*
X30415Y29065D01*
X30435Y29035D01*
X30465Y29015D01*
X30500Y29008D01*
X30600D01*
X30635Y29015D01*
X30665Y29035D01*
X30685Y29065D01*
X30692Y29100D01*
Y29182D01*
X30737Y29219D01*
X30898Y29305D01*
X31072Y29358D01*
X31251Y29376D01*
X31253Y29375D01*
X32393D01*
X32394Y29374D01*
X32415Y29325D01*
X32408Y29315D01*
X32402Y29284D01*
X32406Y29266D01*
X32372Y29230D01*
X32334Y29231D01*
X32283Y29282D01*
X32283Y29283D01*
X32245Y29308D01*
X32200Y29317D01*
Y29316D01*
X31621D01*
Y29318D01*
X31528Y29306D01*
X31441Y29270D01*
X31405Y29242D01*
X31373Y29218D01*
X31366Y29213D01*
X31368Y29212D01*
X30598Y28442D01*
X30500D01*
X30465Y28435D01*
X30435Y28415D01*
X30415Y28385D01*
X30408Y28350D01*
Y28250D01*
X30415Y28215D01*
X30435Y28185D01*
X30465Y28165D01*
X30500Y28158D01*
X30600D01*
X30635Y28165D01*
X30665Y28185D01*
X30685Y28215D01*
X30692Y28250D01*
Y28348D01*
X31458Y29114D01*
X31500Y29134D01*
X31525Y29139D01*
X31547Y29153D01*
X31560Y29172D01*
X31619Y29184D01*
X31621Y29184D01*
X32187D01*
X32198Y29179D01*
X32279Y29098D01*
X32299Y29085D01*
X32299Y29081D01*
X32285Y29035D01*
X32224D01*
X32221Y29050D01*
X32193Y29093D01*
X32150Y29121D01*
X32100Y29131D01*
X32050Y29121D01*
X32007Y29093D01*
X31979Y29050D01*
X31969Y29000D01*
X31979Y28950D01*
X32007Y28907D01*
X32050Y28879D01*
X32055Y28827D01*
X32024Y28814D01*
X31953Y28760D01*
X31953Y28760D01*
X31953Y28760D01*
X31921Y28725D01*
X31119Y27924D01*
X26178D01*
Y27927D01*
X26175Y27929D01*
X26173Y27933D01*
X26170D01*
Y28038D01*
X26171D01*
X26159Y28098D01*
X26125Y28149D01*
X26074Y28184D01*
X26013Y28196D01*
X25953Y28184D01*
X25902Y28149D01*
X25882Y28120D01*
X25829Y28128D01*
X25795Y28179D01*
X25744Y28214D01*
X25683Y28226D01*
X25623Y28214D01*
X25572Y28179D01*
X25546Y28141D01*
X25537Y28138D01*
X25500D01*
X25491Y28141D01*
X25465Y28179D01*
X25414Y28214D01*
X25353Y28226D01*
X25293Y28214D01*
X25242Y28179D01*
X25207Y28128D01*
X25195Y28068D01*
X25197D01*
Y27948D01*
X25156Y27926D01*
Y27926D01*
X24974Y27912D01*
X24797Y27869D01*
X24629Y27800D01*
X24473Y27704D01*
X24335Y27586D01*
X24336Y27585D01*
X24336Y27584D01*
X23926Y27174D01*
X23926Y27174D01*
X22101Y25349D01*
X22101Y25349D01*
X21056Y24304D01*
X21056Y24305D01*
X20963Y24228D01*
X20856Y24171D01*
X20741Y24136D01*
X20623Y24125D01*
X20621Y24127D01*
Y24127D01*
X20526Y24108D01*
X20446Y24055D01*
X20423Y24049D01*
X20371Y24075D01*
X20343Y24118D01*
X20300Y24146D01*
X20250Y24156D01*
X20200Y24146D01*
X20157Y24118D01*
X20129Y24075D01*
X20127Y24064D01*
X20101Y24028D01*
X20100Y24028D01*
X20100Y24026D01*
X19183D01*
Y24028D01*
X19178Y24055D01*
X19163Y24078D01*
Y24084D01*
X19191Y24126D01*
X19800D01*
X19828Y24132D01*
X19852Y24148D01*
X19853Y24147D01*
X19908Y24189D01*
X19973Y24216D01*
X20041Y24225D01*
Y24226D01*
X20395D01*
X20407Y24207D01*
X20450Y24179D01*
X20500Y24169D01*
X20550Y24179D01*
X20593Y24207D01*
X20621Y24250D01*
X20631Y24300D01*
X20621Y24350D01*
X20593Y24393D01*
X20550Y24421D01*
X20500Y24431D01*
X20450Y24421D01*
X20407Y24393D01*
X20395Y24374D01*
X20041D01*
Y24376D01*
X19933Y24362D01*
X19833Y24320D01*
X19772Y24274D01*
X19193D01*
X19184Y24284D01*
X19170Y24324D01*
X19178Y24335D01*
X19183Y24363D01*
Y24422D01*
X19178Y24449D01*
X19163Y24472D01*
X19170Y24515D01*
X19177Y24523D01*
X19473D01*
Y24522D01*
X19495Y24526D01*
X19507Y24507D01*
X19550Y24479D01*
X19600Y24469D01*
X19650Y24479D01*
X19693Y24507D01*
X19721Y24550D01*
X19731Y24600D01*
X19721Y24650D01*
X19693Y24693D01*
X19650Y24721D01*
X19600Y24731D01*
X19550Y24721D01*
X19507Y24693D01*
X19473Y24662D01*
X19426Y24655D01*
X19205D01*
X19194Y24672D01*
X19181Y24719D01*
X19193Y24750D01*
Y24839D01*
X19271Y24849D01*
X19347Y24881D01*
X19350Y24879D01*
X19400Y24869D01*
X19450Y24879D01*
X19493Y24907D01*
X19521Y24950D01*
X19531Y25000D01*
X19521Y25050D01*
X19493Y25093D01*
X19450Y25121D01*
X19400Y25131D01*
X19350Y25121D01*
X19307Y25093D01*
X19295Y25074D01*
X19245Y25089D01*
Y25130D01*
X19238Y25163D01*
X19242Y25170D01*
X19248Y25200D01*
X19150D01*
Y25050D01*
X18150D01*
Y25200D01*
X18052D01*
X18054Y25187D01*
X18050Y25181D01*
X18040Y25130D01*
Y25118D01*
X18016Y25111D01*
X17990Y25110D01*
X17957Y25159D01*
X17901Y25196D01*
X17836Y25209D01*
X17770Y25196D01*
X17715Y25159D01*
X17678Y25103D01*
X17665Y25038D01*
X17678Y24972D01*
X17715Y24917D01*
X17770Y24880D01*
X17836Y24867D01*
X17876Y24875D01*
X17898Y24828D01*
X17808Y24754D01*
X17801Y24749D01*
X17801D01*
X17773Y24719D01*
X17773Y24719D01*
X17768Y24712D01*
X17724Y24655D01*
X17693Y24580D01*
X17682Y24500D01*
X17684D01*
Y23391D01*
X17681D01*
X17695Y23285D01*
X17736Y23186D01*
X17802Y23102D01*
X17801Y23101D01*
X17911Y23016D01*
X18040Y22963D01*
X18057Y22961D01*
X18101Y22926D01*
Y22867D01*
X18106Y22841D01*
X18078Y22822D01*
X18053Y22785D01*
X18030Y22784D01*
X18001Y22790D01*
X17994Y22828D01*
X17957Y22883D01*
X17901Y22920D01*
X17836Y22933D01*
X17770Y22920D01*
X17715Y22883D01*
X17678Y22828D01*
X17665Y22762D01*
X17678Y22697D01*
X17715Y22641D01*
X17770Y22604D01*
X17836Y22591D01*
X17901Y22604D01*
X17957Y22641D01*
X17990Y22690D01*
X18016Y22689D01*
X18040Y22682D01*
Y22670D01*
X18045Y22640D01*
X18044Y22631D01*
X18150D01*
Y22750D01*
X19150D01*
Y22749D01*
X19250D01*
X19274Y22779D01*
X19826D01*
X19831Y22780D01*
X19982Y22765D01*
X19999Y22763D01*
X20164Y22713D01*
X20317Y22631D01*
X20447Y22525D01*
X20450Y22520D01*
X22710Y20260D01*
X22710Y20259D01*
X22843Y20145D01*
X22993Y20053D01*
X23155Y19986D01*
X23326Y19945D01*
X23500Y19932D01*
Y19933D01*
X25261D01*
X25306Y19942D01*
X25344Y19967D01*
X25345Y19967D01*
X25418Y20056D01*
X25473Y20158D01*
X25506Y20269D01*
X25508Y20280D01*
X25515Y20285D01*
X25535Y20315D01*
X25542Y20350D01*
Y20387D01*
X25580Y20433D01*
X25651Y20566D01*
X25695Y20710D01*
X25709Y20860D01*
X25708D01*
Y22687D01*
X25979Y22958D01*
X26075D01*
X26102Y22964D01*
X26125Y22979D01*
X26141Y23002D01*
X26146Y23029D01*
Y23089D01*
X26141Y23117D01*
X26125Y23140D01*
Y23176D01*
X26141Y23199D01*
X26146Y23226D01*
Y23286D01*
X26141Y23314D01*
X26130Y23329D01*
X26139Y23359D01*
X26152Y23379D01*
X26710D01*
Y23379D01*
X26830Y23367D01*
X26946Y23332D01*
X27053Y23274D01*
X27071Y23260D01*
X27069Y23250D01*
X27079Y23200D01*
X27107Y23157D01*
X27150Y23129D01*
X27200Y23119D01*
X27250Y23129D01*
X27293Y23157D01*
X27321Y23200D01*
X27331Y23250D01*
X27321Y23300D01*
X27293Y23343D01*
X27250Y23371D01*
X27200Y23381D01*
X27168Y23375D01*
X27137Y23400D01*
X27004Y23471D01*
X26860Y23515D01*
X26743Y23526D01*
X26745Y23576D01*
X26867D01*
Y23574D01*
X27015Y23588D01*
X27158Y23632D01*
X27289Y23702D01*
X27318Y23725D01*
X27350Y23719D01*
X27400Y23729D01*
X27443Y23757D01*
X27471Y23800D01*
X27481Y23850D01*
X27471Y23900D01*
X27443Y23943D01*
X27400Y23971D01*
X27350Y23981D01*
X27300Y23971D01*
X27257Y23943D01*
X27229Y23900D01*
X27219Y23850D01*
X27221Y23840D01*
X27205Y23827D01*
X27100Y23771D01*
X26986Y23736D01*
X26867Y23725D01*
Y23724D01*
X26222D01*
X26199Y23774D01*
X26204Y23797D01*
X25915D01*
Y23897D01*
X26204D01*
X26197Y23928D01*
X26169Y23971D01*
X26141Y23989D01*
X26146Y24014D01*
Y24074D01*
X26141Y24101D01*
X26125Y24124D01*
Y24160D01*
X26141Y24183D01*
X26146Y24211D01*
Y24271D01*
X26141Y24298D01*
X26125Y24321D01*
X26102Y24336D01*
X26075Y24342D01*
X25755D01*
X25728Y24336D01*
X25705Y24321D01*
X25689Y24298D01*
X25684Y24271D01*
Y24211D01*
X25689Y24183D01*
X25705Y24160D01*
Y24124D01*
X25689Y24101D01*
X25684Y24074D01*
Y24039D01*
X25682Y24037D01*
X25631Y24064D01*
Y24285D01*
X25631Y24294D01*
X25640Y24318D01*
X25653Y24342D01*
X25671Y24355D01*
X25686Y24378D01*
X25692Y24405D01*
Y24725D01*
X25686Y24752D01*
X25671Y24775D01*
X25648Y24791D01*
X25621Y24796D01*
X25561D01*
X25533Y24791D01*
X25510Y24775D01*
X25474D01*
X25451Y24791D01*
X25424Y24796D01*
X25364D01*
X25316Y24833D01*
Y26323D01*
X25402Y26408D01*
X25500D01*
X25535Y26415D01*
X25565Y26435D01*
X25585Y26465D01*
X25592Y26500D01*
Y26600D01*
X25585Y26635D01*
X25565Y26665D01*
X25535Y26685D01*
X25500Y26692D01*
X25400D01*
X25365Y26685D01*
X25335Y26665D01*
X25315Y26635D01*
X25308Y26600D01*
Y26502D01*
X25203Y26397D01*
X25189Y26375D01*
X25184Y26350D01*
Y24796D01*
X25167D01*
X25140Y24791D01*
X25116Y24775D01*
X25076Y24783D01*
X25066Y24790D01*
Y25690D01*
X25093Y25707D01*
X25121Y25750D01*
X25131Y25800D01*
X25121Y25850D01*
X25093Y25893D01*
X25050Y25921D01*
X25000Y25931D01*
X24950Y25921D01*
X24907Y25893D01*
X24879Y25850D01*
X24869Y25800D01*
X24879Y25750D01*
X24907Y25707D01*
X24934Y25690D01*
Y24790D01*
X24924Y24783D01*
X24884Y24775D01*
X24860Y24791D01*
X24833Y24796D01*
X24773D01*
X24746Y24791D01*
X24723Y24775D01*
X24687D01*
X24664Y24791D01*
X24636Y24796D01*
X24576D01*
X24549Y24791D01*
X24526Y24775D01*
X24490D01*
X24467Y24791D01*
X24439Y24796D01*
X24379D01*
X24352Y24791D01*
X24329Y24775D01*
X24314Y24752D01*
X24308Y24725D01*
Y24405D01*
X24314Y24378D01*
X24329Y24355D01*
X24347Y24342D01*
X24360Y24318D01*
X24369Y24294D01*
X24369Y23700D01*
X25000D01*
Y23600D01*
X24369D01*
Y22999D01*
X24347Y22958D01*
X24329Y22945D01*
X24314Y22922D01*
X24308Y22895D01*
Y22575D01*
X24314Y22548D01*
X24329Y22525D01*
X24352Y22509D01*
X24379Y22504D01*
X24439D01*
X24467Y22509D01*
X24490Y22525D01*
X24526D01*
X24549Y22509D01*
X24576Y22504D01*
X24636D01*
X24664Y22509D01*
X24687Y22525D01*
X24723D01*
X24746Y22509D01*
X24773Y22504D01*
X24833D01*
X24860Y22509D01*
X24884Y22525D01*
X24920D01*
X24943Y22509D01*
X24970Y22504D01*
X25030D01*
X25057Y22509D01*
X25080Y22525D01*
X25116D01*
X25140Y22509D01*
X25167Y22504D01*
X25227D01*
X25254Y22509D01*
X25277Y22525D01*
X25318Y22517D01*
X25327Y22510D01*
Y21208D01*
X25328Y21205D01*
X25310Y21026D01*
X25257Y20850D01*
X25171Y20689D01*
X25056Y20549D01*
X25054Y20548D01*
X25048Y20542D01*
X24950D01*
X24915Y20535D01*
X24885Y20515D01*
X24865Y20485D01*
X24858Y20450D01*
Y20350D01*
X24865Y20315D01*
X24885Y20285D01*
X24915Y20265D01*
X24950Y20258D01*
X25050D01*
X25085Y20265D01*
X25115Y20285D01*
X25135Y20315D01*
X25142Y20350D01*
Y20406D01*
X25149Y20453D01*
X25258Y20580D01*
X25346Y20723D01*
X25410Y20878D01*
X25423Y20935D01*
X25473Y20929D01*
Y20860D01*
X25474Y20855D01*
X25457Y20722D01*
X25403Y20593D01*
X25365Y20542D01*
X25350D01*
X25315Y20535D01*
X25285Y20515D01*
X25265Y20485D01*
X25258Y20450D01*
Y20350D01*
X25265Y20315D01*
X25272Y20304D01*
X25271Y20292D01*
X25235Y20207D01*
X25205Y20167D01*
X23500D01*
X23495Y20166D01*
X23328Y20183D01*
X23162Y20233D01*
X23009Y20315D01*
X22879Y20422D01*
X22876Y20426D01*
X20616Y22686D01*
X20617Y22687D01*
X20483Y22801D01*
X20334Y22893D01*
X20172Y22960D01*
X20001Y23001D01*
X19826Y23015D01*
Y23013D01*
X19193D01*
Y23050D01*
X19181Y23081D01*
X19178Y23082D01*
X19165Y23125D01*
X19163Y23132D01*
X19178Y23154D01*
X19183Y23181D01*
Y23241D01*
X19178Y23268D01*
X19163Y23291D01*
X19170Y23334D01*
X19177Y23342D01*
X19510D01*
Y23340D01*
X19521Y23338D01*
X19529Y23300D01*
X19557Y23257D01*
X19600Y23229D01*
X19650Y23219D01*
X19700Y23229D01*
X19743Y23257D01*
X19771Y23300D01*
X19781Y23350D01*
X19771Y23400D01*
X19743Y23443D01*
X19700Y23471D01*
X19675Y23476D01*
X19680Y23526D01*
X20150D01*
X20150Y23526D01*
X20300Y23511D01*
X20445Y23468D01*
X20578Y23396D01*
X20695Y23301D01*
X20695Y23300D01*
X21212Y22783D01*
X21212Y22783D01*
X21211Y22781D01*
X21224Y22772D01*
X21229Y22750D01*
X21257Y22707D01*
X21300Y22679D01*
X21350Y22669D01*
X21400Y22679D01*
X21443Y22707D01*
X21471Y22750D01*
X21481Y22800D01*
X21471Y22850D01*
X21443Y22893D01*
X21400Y22921D01*
X21350Y22931D01*
X21300Y22921D01*
X21290Y22915D01*
X20800Y23405D01*
X20802Y23407D01*
X20662Y23522D01*
X20503Y23607D01*
X20330Y23659D01*
X20150Y23677D01*
Y23674D01*
X19181D01*
X19163Y23712D01*
Y23722D01*
X19178Y23745D01*
X19183Y23772D01*
Y23774D01*
X20278D01*
Y23770D01*
X20372Y23789D01*
X20423Y23823D01*
X20479Y23800D01*
X20479Y23800D01*
X20507Y23757D01*
X20550Y23729D01*
X20600Y23719D01*
X20650Y23729D01*
X20693Y23757D01*
X20705Y23776D01*
X20753D01*
Y23774D01*
X20884Y23787D01*
X21010Y23826D01*
X21127Y23888D01*
X21190Y23940D01*
X21191Y23940D01*
X21229Y23971D01*
X21229Y23971D01*
Y23974D01*
X21315Y24060D01*
X21320Y24069D01*
X21327Y24076D01*
X21512Y24402D01*
X24514Y27405D01*
X24516Y27407D01*
X24602Y27478D01*
X24602Y27478D01*
X24652Y27519D01*
X24809Y27603D01*
X24979Y27654D01*
X25153Y27672D01*
X25156Y27671D01*
X31193D01*
X31222Y27677D01*
X31246Y27693D01*
X31700Y28147D01*
X32143Y28536D01*
X32181Y28503D01*
X32179Y28500D01*
X32169Y28450D01*
X32179Y28400D01*
X32207Y28357D01*
X32250Y28329D01*
X32267Y28325D01*
Y28275D01*
X32250Y28271D01*
X32207Y28243D01*
X32179Y28200D01*
X32169Y28150D01*
X32179Y28100D01*
X32207Y28057D01*
X32250Y28029D01*
X32300Y28019D01*
X32350Y28029D01*
X32393Y28057D01*
X32421Y28100D01*
X32431Y28150D01*
X32421Y28200D01*
X32393Y28243D01*
X32350Y28271D01*
X32333Y28275D01*
Y28325D01*
X32350Y28329D01*
X32393Y28357D01*
X32421Y28400D01*
X32476Y28417D01*
X32483Y28416D01*
X32772D01*
X32786Y28408D01*
X32808Y28386D01*
X32816Y28372D01*
Y28239D01*
X32756Y28162D01*
X32700Y28025D01*
X32680Y27877D01*
X32684D01*
Y27560D01*
X32657Y27543D01*
X32629Y27500D01*
X32619Y27450D01*
X32629Y27400D01*
X32657Y27357D01*
X32700Y27329D01*
X32750Y27319D01*
X32800Y27329D01*
X32801Y27329D01*
X32857Y27306D01*
X32858Y27298D01*
X32857Y27293D01*
X32829Y27250D01*
X32819Y27200D01*
X32826Y27165D01*
X32797Y27131D01*
X32787Y27125D01*
X32755Y27136D01*
X32466Y27193D01*
X32171Y27213D01*
X32171Y27209D01*
X31510D01*
X31493Y27236D01*
X31450Y27264D01*
X31400Y27274D01*
X31350Y27264D01*
X31307Y27236D01*
X31279Y27193D01*
X31269Y27143D01*
X31279Y27093D01*
X31307Y27050D01*
X31350Y27022D01*
X31400Y27012D01*
X31450Y27022D01*
X31493Y27050D01*
X31510Y27077D01*
X32171D01*
X32171Y27077D01*
X32171Y27077D01*
X32220Y27074D01*
X32448Y27059D01*
X32720Y27005D01*
X32834Y26966D01*
X32837Y26959D01*
X32837Y26913D01*
X32807Y26893D01*
X32790Y26866D01*
X29977D01*
X29847Y26997D01*
X29825Y27011D01*
X29800Y27016D01*
X25178D01*
X25171Y27050D01*
X25143Y27093D01*
X25100Y27121D01*
X25050Y27131D01*
X25000Y27121D01*
X24957Y27093D01*
X24929Y27050D01*
X24919Y27000D01*
X24929Y26950D01*
X24957Y26907D01*
X25000Y26879D01*
X25050Y26869D01*
X25100Y26879D01*
X25114Y26888D01*
X25134Y26884D01*
X29079D01*
X29091Y26866D01*
X29101Y26834D01*
X29079Y26800D01*
X29069Y26750D01*
X29079Y26700D01*
X29107Y26657D01*
X29150Y26629D01*
X29200Y26619D01*
X29250Y26629D01*
X29293Y26657D01*
X29321Y26700D01*
X29331Y26750D01*
X29321Y26800D01*
X29299Y26834D01*
X29309Y26866D01*
X29321Y26884D01*
X29582D01*
X29596Y26849D01*
X29599Y26834D01*
X29573Y26794D01*
X29563Y26744D01*
X29573Y26694D01*
X29601Y26651D01*
X29644Y26623D01*
X29694Y26613D01*
X29744Y26623D01*
X29787Y26651D01*
X29815Y26694D01*
X29825Y26744D01*
X29821Y26765D01*
X29867Y26789D01*
X29903Y26753D01*
X29925Y26739D01*
X29950Y26734D01*
X32790D01*
X32807Y26707D01*
X32850Y26679D01*
X32900Y26669D01*
X32950Y26679D01*
X32993Y26707D01*
X33021Y26750D01*
X33031Y26800D01*
X33023Y26839D01*
X33047Y26866D01*
X33063Y26875D01*
X33174Y26821D01*
X33351Y26702D01*
X33475Y26593D01*
X33512Y26560D01*
X33512Y26560D01*
X33566Y26518D01*
X33631Y26492D01*
X33700Y26483D01*
X33746Y26474D01*
X33757Y26457D01*
X33800Y26429D01*
X33850Y26419D01*
X33900Y26429D01*
X33943Y26457D01*
X33971Y26500D01*
X33981Y26550D01*
X33971Y26600D01*
X33943Y26643D01*
X33900Y26671D01*
X33850Y26681D01*
X33800Y26671D01*
X33757Y26643D01*
X33746Y26626D01*
X33700Y26617D01*
Y26617D01*
X33649Y26628D01*
X33646Y26630D01*
X33607Y26657D01*
X33607Y26657D01*
X33570Y26690D01*
X33434Y26810D01*
X33242Y26938D01*
X33035Y27040D01*
X33036Y27041D01*
X33035Y27041D01*
X33034Y27041D01*
X33027Y27097D01*
X33043Y27107D01*
X33071Y27150D01*
X33081Y27200D01*
X33071Y27250D01*
X33043Y27293D01*
X33034Y27299D01*
X33036Y27322D01*
X33036Y27322D01*
X33089Y27343D01*
X33112Y27327D01*
X33163Y27317D01*
X33213Y27327D01*
X33253Y27354D01*
X33267Y27351D01*
X33303Y27336D01*
Y27227D01*
X33275Y27221D01*
X33232Y27193D01*
X33204Y27150D01*
X33194Y27100D01*
X33204Y27050D01*
X33232Y27007D01*
X33275Y26979D01*
X33325Y26969D01*
X33375Y26979D01*
X33418Y27007D01*
X33446Y27050D01*
X33456Y27100D01*
X33446Y27150D01*
X33436Y27196D01*
X33445Y27211D01*
X33503Y27214D01*
X33507Y27207D01*
X33550Y27179D01*
X33600Y27169D01*
X33650Y27179D01*
X33693Y27207D01*
X33721Y27250D01*
X33729Y27288D01*
X33779Y27286D01*
X33788Y27201D01*
X33832Y27055D01*
X33904Y26920D01*
X33927Y26892D01*
X33919Y26850D01*
X33929Y26800D01*
X33957Y26757D01*
X34000Y26729D01*
X34050Y26719D01*
X34100Y26729D01*
X34143Y26757D01*
X34171Y26800D01*
X34181Y26850D01*
X34171Y26900D01*
X34143Y26943D01*
X34100Y26971D01*
X34050Y26981D01*
X34032Y26977D01*
X34017Y26995D01*
X33957Y27107D01*
X33921Y27228D01*
X33908Y27354D01*
X33908D01*
Y27484D01*
X33958Y27491D01*
X33989Y27386D01*
X34000Y27352D01*
X34086Y27191D01*
X34127Y27141D01*
X34119Y27100D01*
X34129Y27050D01*
X34157Y27007D01*
X34200Y26979D01*
X34250Y26969D01*
X34300Y26979D01*
X34343Y27007D01*
X34371Y27050D01*
X34381Y27100D01*
X34371Y27150D01*
X34343Y27193D01*
X34300Y27221D01*
X34250Y27231D01*
X34231Y27227D01*
X34198Y27267D01*
X34125Y27404D01*
X34080Y27552D01*
X34065Y27706D01*
X34065Y27706D01*
Y27993D01*
X34066Y27994D01*
X34115Y28015D01*
X34125Y28008D01*
X34156Y28002D01*
X34187Y28008D01*
X34198Y28015D01*
X34246Y27994D01*
X34248Y27993D01*
Y27937D01*
X34245D01*
X34247Y27927D01*
X34229Y27900D01*
X34219Y27850D01*
X34229Y27800D01*
X34257Y27757D01*
X34300Y27729D01*
X34350Y27719D01*
X34400Y27729D01*
X34443Y27757D01*
X34471Y27800D01*
X34475Y27817D01*
X34525D01*
X34529Y27800D01*
X34557Y27757D01*
X34600Y27729D01*
X34650Y27719D01*
X34700Y27729D01*
X34743Y27757D01*
X34771Y27800D01*
X34781Y27850D01*
X34771Y27900D01*
X34744Y27941D01*
X34743Y27944D01*
X34746Y27964D01*
X34786Y28002D01*
X34817Y28008D01*
X34843Y28026D01*
X34886D01*
X34913Y28008D01*
X34944Y28002D01*
X34975Y28008D01*
X34985Y28015D01*
X35034Y27994D01*
X35035Y27993D01*
Y27453D01*
X34992Y27438D01*
X34985Y27437D01*
X34924Y27478D01*
X34900Y27482D01*
Y27300D01*
Y27118D01*
X34924Y27122D01*
X34980Y27160D01*
X35003Y27153D01*
X35028Y27137D01*
X35020Y27052D01*
X34975Y26904D01*
X34902Y26767D01*
X34881Y26742D01*
X34815D01*
X34799Y26756D01*
X34787Y26772D01*
X34780Y26789D01*
X34782Y26800D01*
X34600D01*
Y26850D01*
X34550D01*
Y27032D01*
X34526Y27028D01*
X34464Y26986D01*
X34422Y26924D01*
X34408Y26850D01*
X34411Y26834D01*
X34376Y26828D01*
X34314Y26786D01*
X34272Y26724D01*
X34268Y26700D01*
X34450D01*
Y26600D01*
X34268D01*
X34272Y26576D01*
X34311Y26519D01*
X34272Y26461D01*
X34268Y26438D01*
X34450D01*
Y26338D01*
X34268D01*
X34272Y26314D01*
X34314Y26252D01*
X34343Y26232D01*
X34363Y26187D01*
X34353Y26170D01*
X34322Y26124D01*
X34318Y26100D01*
X34500D01*
Y26000D01*
X34318D01*
X34322Y25976D01*
X34351Y25934D01*
X34333Y25879D01*
X34326Y25878D01*
X34264Y25836D01*
X34222Y25774D01*
X34218Y25750D01*
X34400D01*
Y25650D01*
X34218D01*
X34222Y25626D01*
X34264Y25564D01*
X34323Y25525D01*
X34322Y25524D01*
X34318Y25500D01*
X34500D01*
Y25400D01*
X34318D01*
X34322Y25376D01*
X34363Y25316D01*
X34360Y25303D01*
X34346Y25266D01*
X31664D01*
X31662Y25266D01*
X31482Y25283D01*
X31307Y25337D01*
X31145Y25423D01*
X31005Y25538D01*
X31004Y25540D01*
X30540Y26004D01*
X30541Y26005D01*
X30414Y26114D01*
X30271Y26202D01*
X30116Y26266D01*
X29953Y26305D01*
X29786Y26318D01*
Y26316D01*
X26352D01*
Y26316D01*
X26243Y26331D01*
X26141Y26373D01*
X26072Y26426D01*
X26059Y26445D01*
X25992Y26513D01*
Y26600D01*
X25985Y26635D01*
X25965Y26665D01*
X25935Y26685D01*
X25900Y26692D01*
X25800D01*
X25765Y26685D01*
X25735Y26665D01*
X25715Y26635D01*
X25708Y26600D01*
Y26500D01*
X25715Y26465D01*
X25735Y26435D01*
X25765Y26415D01*
X25800Y26408D01*
X25887D01*
X25955Y26341D01*
X25979Y26325D01*
X25984Y26324D01*
X26073Y26255D01*
X26208Y26199D01*
X26352Y26180D01*
Y26184D01*
X29786D01*
X29788Y26184D01*
X29968Y26167D01*
X30143Y26113D01*
X30305Y26027D01*
X30445Y25912D01*
X30446Y25910D01*
X30910Y25446D01*
X30909Y25445D01*
X31036Y25336D01*
X31179Y25248D01*
X31334Y25184D01*
X31497Y25145D01*
X31664Y25132D01*
Y25134D01*
X35900D01*
X35925Y25139D01*
X35947Y25153D01*
X36126Y25333D01*
X36126Y25333D01*
X36128Y25331D01*
X36230Y25455D01*
X36306Y25597D01*
X36353Y25752D01*
X36369Y25912D01*
X36366D01*
Y26300D01*
X36369D01*
X36352Y26478D01*
X36300Y26650D01*
X36215Y26808D01*
X36129Y26914D01*
X36102Y26947D01*
X36067Y26982D01*
X36064Y26987D01*
X35997Y27067D01*
X35926Y27202D01*
X35916Y27233D01*
X35906Y27338D01*
X35869Y27458D01*
X35810Y27568D01*
X35731Y27665D01*
X35732Y27672D01*
X35750Y27719D01*
X35800Y27729D01*
X35817Y27740D01*
X35874Y27722D01*
X35892Y27663D01*
X35981Y27497D01*
X36101Y27351D01*
X36103Y27353D01*
X36264Y27193D01*
X36281Y27150D01*
X36281D01*
X36296Y27039D01*
X36339Y26935D01*
X36407Y26845D01*
X36409Y26847D01*
X37360Y25896D01*
X37359Y25895D01*
X37486Y25786D01*
X37629Y25698D01*
X37784Y25634D01*
X37947Y25595D01*
X38114Y25582D01*
Y25584D01*
X41440D01*
X41457Y25557D01*
X41500Y25529D01*
X41550Y25519D01*
X41600Y25529D01*
X41643Y25557D01*
X41671Y25600D01*
X41681Y25650D01*
X41671Y25700D01*
X41643Y25743D01*
X41600Y25771D01*
X41550Y25781D01*
X41500Y25771D01*
X41457Y25743D01*
X41440Y25716D01*
X38114D01*
X38112Y25716D01*
X37932Y25733D01*
X37757Y25787D01*
X37595Y25873D01*
X37455Y25988D01*
X37454Y25990D01*
X36503Y26941D01*
X36504Y26942D01*
X36457Y27003D01*
X36428Y27074D01*
X36418Y27149D01*
X36419Y27150D01*
X36419D01*
X36404Y27222D01*
X36363Y27284D01*
X36362Y27282D01*
X36361Y27282D01*
X36197Y27447D01*
X36196Y27447D01*
X36132Y27526D01*
X36150Y27575D01*
X36153Y27578D01*
X36200Y27569D01*
X36250Y27579D01*
X36293Y27607D01*
X36321Y27650D01*
X36331Y27700D01*
X36321Y27750D01*
X36293Y27793D01*
X36250Y27821D01*
X36200Y27831D01*
X36176Y27826D01*
X36152Y27857D01*
X36123Y27927D01*
X36115Y27989D01*
X36144Y28010D01*
X36162Y28015D01*
X36173Y28008D01*
X36204Y28002D01*
X36235Y28008D01*
X36261Y28026D01*
X36292Y28024D01*
X36334Y28005D01*
X36423Y27931D01*
X36525Y27877D01*
X36633Y27844D01*
X36657Y27807D01*
X36700Y27779D01*
X36750Y27769D01*
X36800Y27779D01*
X36843Y27807D01*
X36871Y27850D01*
X36881Y27900D01*
X36871Y27950D01*
X36843Y27993D01*
X36800Y28021D01*
X36750Y28031D01*
X36700Y28021D01*
X36657Y27993D01*
X36648Y27979D01*
X36632Y27982D01*
X36523Y28027D01*
X36429Y28099D01*
X36429Y28099D01*
X36284Y28244D01*
Y28372D01*
X36292Y28386D01*
X36314Y28408D01*
X36328Y28416D01*
X36617D01*
X36648Y28422D01*
X36674Y28439D01*
X36692Y28465D01*
X36698Y28496D01*
X36692Y28527D01*
X36685Y28538D01*
X36706Y28587D01*
X36707Y28588D01*
X36760D01*
X36795Y28553D01*
X36816Y28539D01*
X36841Y28534D01*
X36873D01*
X36975Y28431D01*
X36969Y28400D01*
X36979Y28350D01*
X37007Y28307D01*
X37050Y28279D01*
X37100Y28269D01*
X37150Y28279D01*
X37193Y28307D01*
X37221Y28350D01*
X37231Y28400D01*
X37221Y28450D01*
X37199Y28484D01*
X37209Y28516D01*
X37221Y28534D01*
X37290D01*
X37307Y28507D01*
X37350Y28479D01*
X37400Y28469D01*
X37450Y28479D01*
X37493Y28507D01*
X37521Y28550D01*
X37531Y28600D01*
X37521Y28650D01*
X37493Y28693D01*
X37450Y28721D01*
X37400Y28731D01*
X37350Y28721D01*
X37307Y28693D01*
X37290Y28666D01*
X37122D01*
X37119Y28672D01*
X37144Y28728D01*
X37150Y28729D01*
X37193Y28757D01*
X37221Y28800D01*
X37231Y28850D01*
X37221Y28900D01*
X37193Y28943D01*
X37169Y28959D01*
X37184Y29009D01*
X37540D01*
X37557Y28982D01*
X37600Y28954D01*
X37650Y28944D01*
X37700Y28954D01*
X37743Y28982D01*
X37771Y29025D01*
X37781Y29075D01*
X37771Y29125D01*
X37743Y29168D01*
X37700Y29196D01*
X37650Y29206D01*
X37600Y29196D01*
X37557Y29168D01*
X37540Y29141D01*
X37242D01*
X37215Y29191D01*
X37221Y29200D01*
X37231Y29250D01*
X37221Y29300D01*
X37204Y29325D01*
X37213Y29343D01*
X37250Y29373D01*
X37278Y29367D01*
X37301Y29351D01*
X37303Y29353D01*
X37325Y29339D01*
X37350Y29334D01*
X37375Y29339D01*
X37397Y29353D01*
X37527Y29484D01*
X37590D01*
X37607Y29457D01*
X37650Y29429D01*
X37700Y29419D01*
X37750Y29429D01*
X37793Y29457D01*
X37821Y29500D01*
X37831Y29550D01*
X37821Y29600D01*
X37793Y29643D01*
X37750Y29671D01*
X37700Y29681D01*
X37650Y29671D01*
X37607Y29643D01*
X37590Y29616D01*
X37500D01*
X37475Y29611D01*
X37453Y29597D01*
X37343Y29486D01*
X37331Y29494D01*
X37254Y29510D01*
X37233Y29536D01*
X37223Y29558D01*
X37231Y29600D01*
X37221Y29650D01*
X37193Y29693D01*
X37150Y29721D01*
X37100Y29731D01*
X37050Y29721D01*
X37007Y29693D01*
X36990Y29666D01*
X36721D01*
X36711Y29716D01*
X36768Y29740D01*
X36848Y29802D01*
X36847Y29803D01*
X36905Y29862D01*
X36905Y29862D01*
X36908Y29859D01*
X36996Y29974D01*
X37051Y30107D01*
X37054Y30132D01*
X37093Y30157D01*
X37110Y30184D01*
X37473D01*
X38025Y29631D01*
X38019Y29600D01*
X38029Y29550D01*
X38057Y29507D01*
X38100Y29479D01*
X38150Y29469D01*
X38200Y29479D01*
X38243Y29507D01*
X38271Y29550D01*
X38281Y29600D01*
X38271Y29650D01*
X38243Y29693D01*
X38200Y29721D01*
X38150Y29731D01*
X38119Y29725D01*
X37619Y30224D01*
X37640Y30274D01*
X38308Y30274D01*
Y30250D01*
X38315Y30215D01*
X38335Y30185D01*
X38365Y30165D01*
X38384Y30161D01*
Y29989D01*
X38365Y29985D01*
X38335Y29965D01*
X38315Y29935D01*
X38308Y29900D01*
Y29800D01*
X38315Y29765D01*
X38335Y29735D01*
X38365Y29715D01*
X38384Y29711D01*
Y29139D01*
X38365Y29135D01*
X38335Y29115D01*
X38315Y29085D01*
X38308Y29050D01*
Y28950D01*
X38315Y28915D01*
X38335Y28885D01*
X38365Y28865D01*
X38384Y28861D01*
Y28639D01*
X38365Y28635D01*
X38335Y28615D01*
X38315Y28585D01*
X38308Y28550D01*
Y28450D01*
X38315Y28415D01*
X38335Y28385D01*
X38365Y28365D01*
X38368Y28365D01*
X38366Y28314D01*
X38346Y28313D01*
X38235Y28286D01*
X38225Y28284D01*
X38187Y28274D01*
X38181Y28271D01*
X38177Y28268D01*
X38171Y28266D01*
X37769Y28020D01*
X37762Y28014D01*
X37755Y28009D01*
X37556Y27811D01*
X37544Y27800D01*
X37511Y27777D01*
X37511Y27778D01*
X37511Y27777D01*
X37510Y27776D01*
X37458Y27811D01*
X37398Y27823D01*
X37338Y27811D01*
X37286Y27776D01*
X37286Y27776D01*
X37252Y27725D01*
X37240Y27665D01*
X37247Y27631D01*
X37202Y27601D01*
X37200Y27602D01*
X37140Y27614D01*
X37079Y27602D01*
X37028Y27568D01*
X37028Y27568D01*
X36994Y27517D01*
X36982Y27456D01*
X36994Y27396D01*
X37028Y27344D01*
X37028Y27344D01*
X37048Y27303D01*
X36872Y27127D01*
X36850Y27131D01*
X36800Y27121D01*
X36757Y27093D01*
X36729Y27050D01*
X36719Y27000D01*
X36729Y26950D01*
X36757Y26907D01*
X36800Y26879D01*
X36850Y26869D01*
X36900Y26879D01*
X36943Y26907D01*
X36971Y26950D01*
X36981Y27000D01*
X36977Y27022D01*
X37159Y27204D01*
X37160Y27203D01*
X37194Y27254D01*
X37206Y27315D01*
X37202Y27336D01*
X37248Y27360D01*
X37310Y27298D01*
X37309Y27297D01*
X37360Y27263D01*
X37421Y27251D01*
X37481Y27263D01*
X37532Y27297D01*
X37532Y27297D01*
X37567Y27348D01*
X37579Y27409D01*
X37567Y27469D01*
X37532Y27520D01*
X37531Y27519D01*
X37469Y27581D01*
X37494Y27627D01*
X37515Y27623D01*
X37575Y27635D01*
X37626Y27670D01*
X37626Y27670D01*
X37661Y27706D01*
X37853Y27899D01*
X38193Y28106D01*
X38233Y28129D01*
Y28129D01*
X38333Y28159D01*
X38511Y28177D01*
X38514Y28176D01*
X39000D01*
Y28175D01*
X39082Y28186D01*
X39129Y28205D01*
X39173Y28169D01*
X39169Y28150D01*
X39179Y28100D01*
X39207Y28057D01*
X39250Y28029D01*
X39300Y28019D01*
X39350Y28029D01*
X39393Y28057D01*
X39410Y28084D01*
X40846D01*
Y28081D01*
X41027Y28098D01*
X41200Y28151D01*
X41359Y28236D01*
X41499Y28351D01*
X41497Y28353D01*
X41604Y28460D01*
X41605Y28459D01*
X41714Y28586D01*
X41802Y28729D01*
X41866Y28884D01*
X41905Y29047D01*
X41918Y29214D01*
X41916D01*
Y29625D01*
X41918D01*
X41907Y29680D01*
X41876Y29726D01*
X41864Y29734D01*
X41879Y29784D01*
X41975D01*
Y29782D01*
X42030Y29793D01*
X42076Y29824D01*
X42107Y29870D01*
X42118Y29925D01*
X42107Y29980D01*
X42076Y30026D01*
X42044Y30047D01*
X42042Y30053D01*
Y30097D01*
X42044Y30103D01*
X42076Y30124D01*
X42107Y30170D01*
X42118Y30225D01*
X42107Y30280D01*
X42076Y30326D01*
X42030Y30357D01*
X41975Y30368D01*
Y30366D01*
X41879D01*
X41864Y30416D01*
X41876Y30424D01*
X41907Y30470D01*
X41918Y30525D01*
X41916D01*
Y31357D01*
X41918D01*
X41927Y31429D01*
X41955Y31496D01*
X41999Y31553D01*
X42033Y31590D01*
X42926Y32482D01*
X42926Y32482D01*
X42928Y32481D01*
X43030Y32605D01*
X43106Y32747D01*
X43153Y32902D01*
X43169Y33062D01*
X43166D01*
Y33500D01*
X43168D01*
X43157Y33580D01*
X43126Y33655D01*
X43077Y33719D01*
X43076Y33718D01*
X43076Y33718D01*
X42997Y33797D01*
X42999Y33799D01*
X42885Y33892D01*
X42831Y33920D01*
X42837Y33950D01*
X42823Y34019D01*
X42784Y34078D01*
X42725Y34117D01*
X42656Y34131D01*
X42144D01*
X42075Y34117D01*
X42016Y34078D01*
X41977Y34019D01*
X41976Y34016D01*
X41614D01*
X41612Y34016D01*
X41432Y34033D01*
X41257Y34087D01*
X41095Y34173D01*
X40955Y34288D01*
X40954Y34290D01*
X40742Y34502D01*
Y34600D01*
X40735Y34635D01*
X40715Y34665D01*
X40685Y34685D01*
X40650Y34692D01*
X40550D01*
X40515Y34685D01*
X40485Y34665D01*
X40465Y34635D01*
X40458Y34600D01*
Y34500D01*
X40465Y34465D01*
X40485Y34435D01*
X40515Y34415D01*
X40550Y34408D01*
X40648D01*
X40860Y34196D01*
X40859Y34195D01*
X40986Y34086D01*
X41129Y33998D01*
X41284Y33934D01*
X41447Y33895D01*
X41614Y33882D01*
Y33884D01*
X41976D01*
X41977Y33881D01*
X42016Y33822D01*
X42075Y33783D01*
X42144Y33769D01*
X42656D01*
X42725Y33783D01*
X42760Y33806D01*
X42809Y33779D01*
X42903Y33703D01*
X42903Y33703D01*
X42982Y33624D01*
X42982Y33624D01*
X42982Y33624D01*
X43020Y33567D01*
X43033Y33500D01*
X43034D01*
Y33062D01*
X43033D01*
X43020Y32928D01*
X42981Y32799D01*
X42918Y32681D01*
X42832Y32576D01*
X42797Y32541D01*
X41904Y31648D01*
X41904Y31648D01*
X41903Y31649D01*
X41837Y31564D01*
X41796Y31464D01*
X41781Y31357D01*
X41784D01*
Y30525D01*
X41780D01*
X41779Y30521D01*
X41775Y30520D01*
Y30516D01*
X41725D01*
Y30518D01*
X41670Y30507D01*
X41624Y30476D01*
X41593Y30430D01*
X41582Y30375D01*
X41593Y30320D01*
X41624Y30274D01*
X41656Y30253D01*
X41658Y30247D01*
Y30203D01*
X41656Y30197D01*
X41624Y30176D01*
X41593Y30130D01*
X41582Y30075D01*
X41593Y30020D01*
X41624Y29974D01*
X41656Y29953D01*
X41658Y29947D01*
Y29903D01*
X41656Y29897D01*
X41624Y29876D01*
X41593Y29830D01*
X41582Y29775D01*
X41593Y29720D01*
X41624Y29674D01*
X41670Y29643D01*
X41725Y29632D01*
Y29634D01*
X41775D01*
Y29630D01*
X41779Y29629D01*
X41780Y29625D01*
X41784D01*
Y29214D01*
X41784Y29212D01*
X41767Y29032D01*
X41713Y28857D01*
X41627Y28695D01*
X41512Y28555D01*
X41510Y28554D01*
X41403Y28447D01*
X41403Y28447D01*
X41284Y28349D01*
X41148Y28276D01*
X41000Y28231D01*
X40847Y28216D01*
X40846Y28216D01*
X39410D01*
X39393Y28243D01*
X39350Y28271D01*
X39305Y28280D01*
X39294Y28299D01*
X39283Y28329D01*
X39628Y28673D01*
X39650Y28669D01*
X39700Y28679D01*
X39743Y28707D01*
X39771Y28750D01*
X39781Y28800D01*
X39771Y28850D01*
X39743Y28893D01*
X39700Y28921D01*
X39650Y28931D01*
X39600Y28921D01*
X39557Y28893D01*
X39529Y28850D01*
X39519Y28800D01*
X39523Y28778D01*
X39118Y28373D01*
X39118Y28373D01*
X39118Y28373D01*
X39094Y28357D01*
X39080Y28360D01*
X39041Y28391D01*
X39053Y28450D01*
D01*
X38850D01*
X38647D01*
X38659Y28391D01*
X38670Y28374D01*
X38644Y28324D01*
X38563D01*
X38548Y28374D01*
X38565Y28385D01*
X38585Y28415D01*
X38592Y28450D01*
Y28550D01*
X38585Y28585D01*
X38565Y28615D01*
X38535Y28635D01*
X38516Y28639D01*
Y28861D01*
X38535Y28865D01*
X38565Y28885D01*
X38585Y28915D01*
X38592Y28950D01*
Y29050D01*
X38585Y29085D01*
X38565Y29115D01*
X38535Y29135D01*
X38516Y29139D01*
Y29711D01*
X38535Y29715D01*
X38565Y29735D01*
X38585Y29765D01*
X38592Y29800D01*
Y29900D01*
X38585Y29935D01*
X38565Y29965D01*
X38535Y29985D01*
X38516Y29989D01*
Y30161D01*
X38535Y30165D01*
X38565Y30185D01*
X38585Y30215D01*
X38592Y30250D01*
Y30350D01*
X38585Y30385D01*
X38565Y30415D01*
X38535Y30435D01*
X38500Y30442D01*
X38400D01*
X38365Y30435D01*
X38335Y30415D01*
X38330Y30407D01*
X37594Y30407D01*
Y30409D01*
X37567Y30414D01*
X37531Y30444D01*
X37531Y30444D01*
X37442Y30511D01*
X37339Y30554D01*
X37229Y30569D01*
Y30566D01*
X37171D01*
X37159Y30584D01*
X37149Y30616D01*
X37171Y30650D01*
X37181Y30700D01*
X37171Y30750D01*
X37143Y30793D01*
X37100Y30821D01*
X37050Y30831D01*
X37000Y30821D01*
X36957Y30793D01*
X36904Y30790D01*
X36856Y30838D01*
X36875Y30884D01*
X37350D01*
X37375Y30889D01*
X37397Y30903D01*
X37519Y31025D01*
X37550Y31019D01*
X37600Y31029D01*
X37643Y31057D01*
X37671Y31100D01*
X37681Y31150D01*
X37671Y31200D01*
X37643Y31243D01*
X37600Y31271D01*
X37550Y31281D01*
X37500Y31271D01*
X37457Y31243D01*
X37429Y31200D01*
X37419Y31150D01*
X37425Y31119D01*
X37323Y31016D01*
X37171D01*
X37159Y31034D01*
X37149Y31066D01*
X37171Y31100D01*
X37181Y31150D01*
X37171Y31200D01*
X37149Y31234D01*
X37159Y31266D01*
X37171Y31284D01*
X37296D01*
X37321Y31289D01*
X37343Y31303D01*
X37444Y31404D01*
X37475Y31398D01*
X37525Y31408D01*
X37568Y31437D01*
X37596Y31479D01*
X37606Y31529D01*
X37596Y31579D01*
X37568Y31622D01*
X37525Y31650D01*
X37475Y31660D01*
X37425Y31650D01*
X37382Y31622D01*
X37354Y31579D01*
X37344Y31529D01*
X37350Y31498D01*
X37268Y31416D01*
X37171D01*
X37159Y31434D01*
X37149Y31466D01*
X37171Y31500D01*
X37181Y31550D01*
X37171Y31600D01*
X37143Y31643D01*
X37100Y31671D01*
X37050Y31681D01*
X37019Y31675D01*
X37002Y31689D01*
X37002Y31691D01*
X37017Y31741D01*
X37023Y31742D01*
X37060Y31735D01*
X37110Y31745D01*
X37153Y31773D01*
X37181Y31816D01*
X37191Y31866D01*
X37181Y31916D01*
X37153Y31959D01*
X37110Y31987D01*
X37060Y31997D01*
X37010Y31987D01*
X36967Y31959D01*
X36939Y31916D01*
X36930Y31870D01*
X36661D01*
X36648Y31878D01*
X36617Y31884D01*
X36328D01*
X36314Y31892D01*
X36292Y31914D01*
X36284Y31928D01*
Y32201D01*
X36297Y32214D01*
X36311Y32235D01*
X36316Y32261D01*
Y33896D01*
X36311Y33921D01*
X36297Y33943D01*
X36291Y33948D01*
X36292Y33950D01*
Y34050D01*
X36285Y34085D01*
X36265Y34115D01*
X36235Y34135D01*
X36200Y34142D01*
X36100D01*
X36065Y34135D01*
X36035Y34115D01*
X36015Y34085D01*
X36011Y34066D01*
X35914D01*
X35912Y34066D01*
X35732Y34083D01*
X35557Y34137D01*
X35395Y34223D01*
X35255Y34338D01*
X35254Y34340D01*
X34047Y35547D01*
X34049Y35549D01*
X33971Y35601D01*
X33879Y35620D01*
Y35616D01*
X32310D01*
X32293Y35643D01*
X32250Y35671D01*
X32200Y35681D01*
X32194Y35680D01*
X32170Y35726D01*
X32504Y36060D01*
X32505Y36062D01*
X32645Y36177D01*
X32807Y36263D01*
X32982Y36317D01*
X33162Y36334D01*
X33164Y36334D01*
X39586D01*
Y36332D01*
X39753Y36345D01*
X39916Y36384D01*
X40071Y36448D01*
X40214Y36536D01*
X40341Y36645D01*
X40340Y36646D01*
X41004Y37310D01*
X41005Y37312D01*
X41145Y37427D01*
X41307Y37513D01*
X41482Y37567D01*
X41662Y37584D01*
X41664Y37584D01*
X43123D01*
X43603Y37103D01*
X43625Y37089D01*
X43650Y37084D01*
X43886D01*
X43888Y37084D01*
X44068Y37067D01*
X44243Y37013D01*
X44405Y36927D01*
X44545Y36812D01*
X44546Y36810D01*
X45660Y35696D01*
X45662Y35695D01*
X45777Y35555D01*
X45863Y35393D01*
X45917Y35218D01*
X45934Y35038D01*
X45934Y35036D01*
Y33031D01*
X45834Y32949D01*
X45698Y32876D01*
X45550Y32831D01*
X45397Y32816D01*
X45396Y32816D01*
X44760D01*
X44743Y32843D01*
X44700Y32871D01*
X44650Y32881D01*
X44600Y32871D01*
X44557Y32843D01*
X44529Y32800D01*
X44519Y32750D01*
X44529Y32700D01*
X44557Y32657D01*
X44600Y32629D01*
X44650Y32619D01*
X44700Y32629D01*
X44743Y32657D01*
X44760Y32684D01*
X45396D01*
Y32681D01*
X45577Y32698D01*
X45750Y32751D01*
X45909Y32836D01*
X46049Y32951D01*
X46047Y32953D01*
X46061Y32975D01*
X46066Y33000D01*
Y35036D01*
X46068D01*
X46055Y35203D01*
X46016Y35366D01*
X45952Y35521D01*
X45864Y35664D01*
X45755Y35791D01*
X45754Y35790D01*
X44640Y36904D01*
X44641Y36905D01*
X44514Y37014D01*
X44371Y37102D01*
X44216Y37166D01*
X44053Y37205D01*
X43886Y37218D01*
Y37216D01*
X43677D01*
X43197Y37697D01*
X43175Y37711D01*
X43150Y37716D01*
X41664D01*
Y37718D01*
D02*
G37*
G36*
X32350Y32881D02*
X32300Y32871D01*
X32257Y32843D01*
X32229Y32800D01*
X32219Y32750D01*
X32229Y32700D01*
X32257Y32657D01*
X32300Y32629D01*
X32350Y32619D01*
X32400Y32629D01*
X32443Y32657D01*
X32471Y32700D01*
X32481Y32750D01*
X32471Y32800D01*
X32443Y32843D01*
X32400Y32871D01*
X32350Y32881D01*
D02*
G37*
G36*
X46634Y32880D02*
X46584Y32870D01*
X46541Y32842D01*
X46513Y32799D01*
X46503Y32749D01*
X46513Y32699D01*
X46541Y32657D01*
X46584Y32628D01*
X46634Y32618D01*
X46684Y32628D01*
X46727Y32657D01*
X46755Y32699D01*
X46765Y32749D01*
X46755Y32799D01*
X46727Y32842D01*
X46684Y32870D01*
X46634Y32880D01*
D02*
G37*
G36*
X25128Y32660D02*
X24853D01*
X24814Y32652D01*
X24781Y32630D01*
X24759Y32598D01*
X24752Y32559D01*
Y32441D01*
X24759Y32402D01*
X24781Y32370D01*
X24814Y32348D01*
X24853Y32340D01*
X25128D01*
X25167Y32348D01*
X25200Y32370D01*
X25209Y32383D01*
X25594D01*
X25600Y32379D01*
X25650Y32369D01*
X25700Y32379D01*
X25743Y32407D01*
X25771Y32450D01*
X25781Y32500D01*
X25771Y32550D01*
X25743Y32593D01*
X25700Y32621D01*
X25650Y32631D01*
X25600Y32621D01*
X25594Y32617D01*
X25209D01*
X25200Y32630D01*
X25167Y32652D01*
X25128Y32660D01*
D02*
G37*
G36*
X19300Y35442D02*
X19200D01*
X19165Y35435D01*
X19135Y35415D01*
X19115Y35385D01*
X19108Y35350D01*
Y35250D01*
X19115Y35215D01*
X19133Y35189D01*
Y34164D01*
X19132D01*
X19145Y33989D01*
X19186Y33819D01*
X19253Y33656D01*
X19345Y33507D01*
X19459Y33373D01*
X19460Y33374D01*
X20324Y32510D01*
X20324Y32510D01*
X20323Y32509D01*
X20457Y32395D01*
X20606Y32303D01*
X20769Y32236D01*
X20939Y32195D01*
X21114Y32182D01*
Y32183D01*
X21939D01*
X21965Y32165D01*
X22000Y32158D01*
X22100D01*
X22135Y32165D01*
X22161Y32183D01*
X22489D01*
X22515Y32165D01*
X22550Y32158D01*
X22587D01*
X22624Y32128D01*
X22747Y32062D01*
X22881Y32021D01*
X23020Y32008D01*
Y32009D01*
X23791D01*
X23800Y31996D01*
X23833Y31974D01*
X23872Y31966D01*
X24147D01*
X24186Y31974D01*
X24200Y31983D01*
X24344D01*
X24350Y31979D01*
X24400Y31969D01*
X24450Y31979D01*
X24493Y32007D01*
X24521Y32050D01*
X24531Y32100D01*
X24521Y32150D01*
X24493Y32193D01*
X24450Y32221D01*
X24400Y32231D01*
X24350Y32221D01*
X24344Y32217D01*
X24242D01*
X24241Y32224D01*
X24219Y32256D01*
X24186Y32278D01*
X24147Y32286D01*
X23872D01*
X23833Y32278D01*
X23800Y32256D01*
X23791Y32243D01*
X23020D01*
X23016Y32242D01*
X22896Y32258D01*
X22781Y32306D01*
X22742Y32336D01*
Y32350D01*
X22735Y32385D01*
X22715Y32415D01*
X22685Y32435D01*
X22650Y32442D01*
X22550D01*
X22515Y32435D01*
X22489Y32417D01*
X22161D01*
X22135Y32435D01*
X22100Y32442D01*
X22000D01*
X21965Y32435D01*
X21939Y32417D01*
X21441D01*
X21341Y32471D01*
X21247Y32547D01*
X21247Y32547D01*
X21138Y32655D01*
X21138Y32656D01*
X21072Y32742D01*
X21031Y32842D01*
X21016Y32950D01*
X21016D01*
Y33500D01*
X21018D01*
X21007Y33580D01*
X20976Y33655D01*
X20927Y33719D01*
X20926Y33718D01*
X20926Y33718D01*
X19392Y35252D01*
Y35350D01*
X19385Y35385D01*
X19365Y35415D01*
X19335Y35435D01*
X19300Y35442D01*
D02*
G37*
G36*
X38500Y31703D02*
D01*
Y31550D01*
X38653D01*
X38641Y31609D01*
X38608Y31658D01*
X38559Y31691D01*
X38500Y31703D01*
D02*
G37*
G36*
X38400D02*
X38341Y31691D01*
X38292Y31658D01*
X38259Y31609D01*
X38247Y31550D01*
D01*
X38400D01*
Y31703D01*
D02*
G37*
G36*
X24200Y31581D02*
X24150Y31571D01*
X24107Y31543D01*
X24079Y31500D01*
X24069Y31450D01*
X24079Y31400D01*
X24107Y31357D01*
X24150Y31329D01*
X24200Y31319D01*
X24250Y31329D01*
X24293Y31357D01*
X24321Y31400D01*
X24331Y31450D01*
X24321Y31500D01*
X24293Y31543D01*
X24250Y31571D01*
X24200Y31581D01*
D02*
G37*
G36*
X42887Y31608D02*
X42747D01*
Y31303D01*
X43116D01*
Y31378D01*
X43099Y31466D01*
X43049Y31540D01*
X42975Y31590D01*
X42887Y31608D01*
D02*
G37*
G36*
X42647D02*
X42507D01*
X42419Y31590D01*
X42345Y31540D01*
X42295Y31466D01*
X42277Y31378D01*
Y31303D01*
X42647D01*
Y31608D01*
D02*
G37*
G36*
X38653Y31450D02*
X38450D01*
X38247D01*
X38259Y31391D01*
X38292Y31342D01*
X38341Y31309D01*
X38383Y31300D01*
Y31250D01*
X38341Y31241D01*
X38292Y31208D01*
X38259Y31159D01*
X38247Y31100D01*
D01*
X38450D01*
X38653D01*
X38641Y31159D01*
X38608Y31208D01*
X38559Y31241D01*
X38517Y31250D01*
Y31300D01*
X38559Y31309D01*
X38608Y31342D01*
X38641Y31391D01*
X38653Y31450D01*
D01*
D02*
G37*
G36*
X26200Y31281D02*
X26150Y31271D01*
X26107Y31243D01*
X26079Y31200D01*
X26069Y31150D01*
X26079Y31100D01*
X26107Y31057D01*
X26150Y31029D01*
X26200Y31019D01*
X26250Y31029D01*
X26293Y31057D01*
X26321Y31100D01*
X26331Y31150D01*
X26321Y31200D01*
X26293Y31243D01*
X26250Y31271D01*
X26200Y31281D01*
D02*
G37*
G36*
X20350Y31593D02*
X20274Y31583D01*
X20204Y31553D01*
X20143Y31507D01*
X20097Y31446D01*
X20067Y31376D01*
X20057Y31300D01*
X20067Y31224D01*
X20097Y31154D01*
X20143Y31093D01*
X20204Y31047D01*
X20274Y31017D01*
X20350Y31007D01*
X20426Y31017D01*
X20496Y31047D01*
X20557Y31093D01*
X20603Y31154D01*
X20633Y31224D01*
X20642Y31300D01*
X20633Y31376D01*
X20603Y31446D01*
X20557Y31507D01*
X20496Y31553D01*
X20426Y31583D01*
X20350Y31593D01*
D02*
G37*
G36*
X43116Y31203D02*
X42747D01*
Y30899D01*
X42887D01*
X42975Y30916D01*
X43049Y30966D01*
X43099Y31040D01*
X43116Y31128D01*
Y31203D01*
D02*
G37*
G36*
X42647D02*
X42277D01*
Y31128D01*
X42295Y31040D01*
X42345Y30966D01*
X42419Y30916D01*
X42507Y30899D01*
X42647D01*
Y31203D01*
D02*
G37*
G36*
X38653Y31000D02*
X38500D01*
Y30847D01*
X38559Y30859D01*
X38608Y30892D01*
X38641Y30941D01*
X38653Y31000D01*
D01*
D02*
G37*
G36*
X38400D02*
X38247D01*
X38259Y30941D01*
X38292Y30892D01*
X38341Y30859D01*
X38400Y30847D01*
D01*
Y31000D01*
D02*
G37*
G36*
X46824Y31053D02*
X46526D01*
Y30749D01*
X47053D01*
Y30824D01*
X47036Y30912D01*
X46986Y30986D01*
X46912Y31036D01*
X46824Y31053D01*
D02*
G37*
G36*
X46426D02*
X46129D01*
X46041Y31036D01*
X45967Y30986D01*
X45917Y30912D01*
X45900Y30824D01*
Y30749D01*
X46426D01*
Y31053D01*
D02*
G37*
G36*
X20400Y30646D02*
Y30350D01*
X20696D01*
X20691Y30391D01*
X20656Y30477D01*
X20600Y30550D01*
X20527Y30606D01*
X20441Y30641D01*
X20400Y30646D01*
D02*
G37*
G36*
X20300D02*
X20259Y30641D01*
X20173Y30606D01*
X20100Y30550D01*
X20044Y30477D01*
X20009Y30391D01*
X20004Y30350D01*
X20300D01*
Y30646D01*
D02*
G37*
G36*
X47053Y30649D02*
X46526D01*
Y30344D01*
X46824D01*
X46912Y30362D01*
X46986Y30412D01*
X47036Y30486D01*
X47053Y30574D01*
Y30649D01*
D02*
G37*
G36*
X46426D02*
X45900D01*
Y30574D01*
X45917Y30486D01*
X45967Y30412D01*
X46041Y30362D01*
X46129Y30344D01*
X46426D01*
Y30649D01*
D02*
G37*
G36*
X20696Y30250D02*
X20400D01*
Y29954D01*
X20441Y29959D01*
X20527Y29994D01*
X20600Y30050D01*
X20656Y30123D01*
X20691Y30209D01*
X20696Y30250D01*
D02*
G37*
G36*
X20300D02*
X20004D01*
X20009Y30209D01*
X20044Y30123D01*
X20100Y30050D01*
X20173Y29994D01*
X20259Y29959D01*
X20300Y29954D01*
Y30250D01*
D02*
G37*
G36*
X40050Y29831D02*
X40000Y29821D01*
X39957Y29793D01*
X39929Y29750D01*
X39919Y29700D01*
X39929Y29650D01*
X39957Y29607D01*
X40000Y29579D01*
X40050Y29569D01*
X40100Y29579D01*
X40143Y29607D01*
X40171Y29650D01*
X40181Y29700D01*
X40171Y29750D01*
X40143Y29793D01*
X40100Y29821D01*
X40050Y29831D01*
D02*
G37*
G36*
X38900Y31642D02*
X38800D01*
X38765Y31635D01*
X38735Y31615D01*
X38715Y31585D01*
X38708Y31550D01*
Y31450D01*
X38715Y31415D01*
X38735Y31385D01*
X38765Y31365D01*
X38784Y31361D01*
Y31189D01*
X38765Y31185D01*
X38735Y31165D01*
X38715Y31135D01*
X38708Y31100D01*
Y31000D01*
X38715Y30965D01*
X38735Y30935D01*
X38765Y30915D01*
X38784Y30911D01*
Y30439D01*
X38765Y30435D01*
X38735Y30415D01*
X38715Y30385D01*
X38708Y30350D01*
Y30250D01*
X38715Y30215D01*
X38735Y30185D01*
X38765Y30165D01*
X38784Y30161D01*
Y29989D01*
X38765Y29985D01*
X38735Y29965D01*
X38715Y29935D01*
X38708Y29900D01*
Y29800D01*
X38712Y29779D01*
X38710Y29771D01*
X38686Y29731D01*
X38683Y29728D01*
X38650Y29721D01*
X38607Y29693D01*
X38579Y29650D01*
X38569Y29600D01*
X38579Y29550D01*
X38607Y29507D01*
X38650Y29479D01*
X38700Y29469D01*
X38750Y29479D01*
X38793Y29507D01*
X38821Y29550D01*
X38831Y29600D01*
X38821Y29650D01*
X38814Y29661D01*
X38842Y29708D01*
X38900D01*
X38935Y29715D01*
X38965Y29735D01*
X38985Y29765D01*
X38992Y29800D01*
Y29900D01*
X38985Y29935D01*
X38965Y29965D01*
X38935Y29985D01*
X38916Y29989D01*
Y30161D01*
X38935Y30165D01*
X38965Y30185D01*
X38985Y30215D01*
X38992Y30250D01*
Y30350D01*
X38985Y30385D01*
X38965Y30415D01*
X38935Y30435D01*
X38916Y30439D01*
Y30911D01*
X38935Y30915D01*
X38965Y30935D01*
X38985Y30965D01*
X38992Y31000D01*
Y31100D01*
X38985Y31135D01*
X38965Y31165D01*
X38935Y31185D01*
X38916Y31189D01*
Y31361D01*
X38935Y31365D01*
X38965Y31385D01*
X38985Y31415D01*
X38992Y31450D01*
Y31550D01*
X38985Y31585D01*
X38965Y31615D01*
X38935Y31635D01*
X38900Y31642D01*
D02*
G37*
G36*
X25150Y29431D02*
X25100Y29421D01*
X25057Y29393D01*
X25029Y29350D01*
X25019Y29300D01*
X25029Y29250D01*
X25057Y29207D01*
X25100Y29179D01*
X25150Y29169D01*
X25200Y29179D01*
X25243Y29207D01*
X25271Y29250D01*
X25281Y29300D01*
X25271Y29350D01*
X25243Y29393D01*
X25200Y29421D01*
X25150Y29431D01*
D02*
G37*
G36*
X28650Y29253D02*
D01*
Y29100D01*
X28803D01*
X28791Y29159D01*
X28758Y29208D01*
X28709Y29241D01*
X28650Y29253D01*
D02*
G37*
G36*
X28550D02*
X28491Y29241D01*
X28442Y29208D01*
X28409Y29159D01*
X28397Y29100D01*
D01*
X28550D01*
Y29253D01*
D02*
G37*
G36*
X38900Y29203D02*
D01*
Y29050D01*
X39053D01*
X39041Y29109D01*
X39008Y29158D01*
X38959Y29191D01*
X38900Y29203D01*
D02*
G37*
G36*
X38800D02*
X38741Y29191D01*
X38692Y29158D01*
X38659Y29109D01*
X38647Y29050D01*
D01*
X38800D01*
Y29203D01*
D02*
G37*
G36*
X21800Y29181D02*
X21750Y29171D01*
X21707Y29143D01*
X21679Y29100D01*
X21669Y29050D01*
X21679Y29000D01*
X21707Y28957D01*
X21750Y28929D01*
X21800Y28919D01*
X21850Y28929D01*
X21893Y28957D01*
X21921Y29000D01*
X21931Y29050D01*
X21921Y29100D01*
X21893Y29143D01*
X21850Y29171D01*
X21800Y29181D01*
D02*
G37*
G36*
X28803Y29000D02*
X28650D01*
Y28847D01*
X28709Y28859D01*
X28758Y28892D01*
X28791Y28941D01*
X28803Y29000D01*
D01*
D02*
G37*
G36*
X28550D02*
X28397D01*
X28409Y28941D01*
X28442Y28892D01*
X28491Y28859D01*
X28550Y28847D01*
D01*
Y29000D01*
D02*
G37*
G36*
X39053Y28950D02*
X38900D01*
Y28797D01*
X38959Y28809D01*
X39008Y28842D01*
X39041Y28891D01*
X39053Y28950D01*
D01*
D02*
G37*
G36*
X38800D02*
X38647D01*
X38659Y28891D01*
X38692Y28842D01*
X38741Y28809D01*
X38800Y28797D01*
D01*
Y28950D01*
D02*
G37*
G36*
X22500Y29731D02*
X22450Y29721D01*
X22407Y29693D01*
X22379Y29650D01*
X22369Y29600D01*
X22379Y29550D01*
X22407Y29507D01*
X22450Y29479D01*
X22500Y29469D01*
X22531Y29475D01*
X23075Y28931D01*
X23069Y28900D01*
X23079Y28850D01*
X23107Y28807D01*
X23150Y28779D01*
X23200Y28769D01*
X23250Y28779D01*
X23293Y28807D01*
X23321Y28850D01*
X23331Y28900D01*
X23321Y28950D01*
X23293Y28993D01*
X23250Y29021D01*
X23200Y29031D01*
X23169Y29025D01*
X22625Y29569D01*
X22631Y29600D01*
X22621Y29650D01*
X22593Y29693D01*
X22550Y29721D01*
X22500Y29731D01*
D02*
G37*
G36*
X29000Y29581D02*
X28950Y29571D01*
X28907Y29543D01*
X28879Y29500D01*
X28869Y29450D01*
X28879Y29400D01*
X28907Y29357D01*
X28934Y29340D01*
Y29189D01*
X28915Y29185D01*
X28885Y29165D01*
X28865Y29135D01*
X28858Y29100D01*
Y29000D01*
X28865Y28965D01*
X28885Y28935D01*
X28915Y28915D01*
X28934Y28911D01*
Y28639D01*
X28915Y28635D01*
X28885Y28615D01*
X28865Y28585D01*
X28858Y28550D01*
Y28450D01*
X28865Y28415D01*
X28885Y28385D01*
X28915Y28365D01*
X28950Y28358D01*
X29050D01*
X29085Y28365D01*
X29115Y28385D01*
X29135Y28415D01*
X29139Y28434D01*
X29240D01*
X29257Y28407D01*
X29300Y28379D01*
X29350Y28369D01*
X29400Y28379D01*
X29443Y28407D01*
X29471Y28450D01*
X29481Y28500D01*
X29471Y28550D01*
X29443Y28593D01*
X29400Y28621D01*
X29350Y28631D01*
X29300Y28621D01*
X29257Y28593D01*
X29240Y28566D01*
X29139D01*
X29135Y28585D01*
X29115Y28615D01*
X29085Y28635D01*
X29066Y28639D01*
Y28911D01*
X29085Y28915D01*
X29115Y28935D01*
X29135Y28965D01*
X29142Y29000D01*
Y29100D01*
X29135Y29135D01*
X29115Y29165D01*
X29085Y29185D01*
X29066Y29189D01*
Y29340D01*
X29093Y29357D01*
X29110Y29384D01*
X29436D01*
X29438Y29384D01*
X29618Y29367D01*
X29793Y29313D01*
X29955Y29227D01*
X30008Y29183D01*
Y29100D01*
X30015Y29065D01*
X30035Y29035D01*
X30065Y29015D01*
X30099Y29008D01*
X30099Y29007D01*
X30154Y28874D01*
X30178Y28843D01*
X30169Y28800D01*
X30179Y28750D01*
X30207Y28707D01*
X30250Y28679D01*
X30300Y28669D01*
X30350Y28679D01*
X30393Y28707D01*
X30421Y28750D01*
X30431Y28800D01*
X30421Y28850D01*
X30393Y28893D01*
X30350Y28921D01*
X30300Y28931D01*
X30283Y28928D01*
X30272Y28942D01*
X30240Y29019D01*
X30265Y29035D01*
X30285Y29065D01*
X30292Y29100D01*
Y29200D01*
X30285Y29235D01*
X30265Y29265D01*
X30235Y29285D01*
X30200Y29292D01*
X30100D01*
X30092Y29290D01*
X30064Y29314D01*
X29921Y29402D01*
X29766Y29466D01*
X29603Y29505D01*
X29436Y29518D01*
Y29516D01*
X29110D01*
X29093Y29543D01*
X29050Y29571D01*
X29000Y29581D01*
D02*
G37*
G36*
X38900Y28703D02*
D01*
Y28550D01*
X39053D01*
X39041Y28609D01*
X39008Y28658D01*
X38959Y28691D01*
X38900Y28703D01*
D02*
G37*
G36*
X28650D02*
D01*
Y28550D01*
X28803D01*
X28791Y28609D01*
X28758Y28658D01*
X28709Y28691D01*
X28650Y28703D01*
D02*
G37*
G36*
X28550D02*
X28491Y28691D01*
X28442Y28658D01*
X28409Y28609D01*
X28397Y28550D01*
D01*
X28550D01*
Y28703D01*
D02*
G37*
G36*
X38800D02*
X38741Y28691D01*
X38692Y28658D01*
X38659Y28609D01*
X38647Y28550D01*
D01*
X38800D01*
Y28703D01*
D02*
G37*
G36*
X30200Y28503D02*
D01*
Y28350D01*
X30353D01*
X30341Y28409D01*
X30308Y28458D01*
X30259Y28491D01*
X30200Y28503D01*
D02*
G37*
G36*
X30100D02*
X30041Y28491D01*
X29992Y28458D01*
X29959Y28409D01*
X29947Y28350D01*
D01*
X30100D01*
Y28503D01*
D02*
G37*
G36*
X28803Y28450D02*
X28650D01*
Y28297D01*
X28709Y28309D01*
X28758Y28342D01*
X28791Y28391D01*
X28803Y28450D01*
D01*
D02*
G37*
G36*
X28550D02*
X28397D01*
X28409Y28391D01*
X28442Y28342D01*
X28491Y28309D01*
X28550Y28297D01*
D01*
Y28450D01*
D02*
G37*
G36*
X30353Y28250D02*
X30200D01*
Y28097D01*
X30259Y28109D01*
X30308Y28142D01*
X30341Y28191D01*
X30353Y28250D01*
D01*
D02*
G37*
G36*
X30100D02*
X29947D01*
X29959Y28191D01*
X29992Y28142D01*
X30041Y28109D01*
X30100Y28097D01*
D01*
Y28250D01*
D02*
G37*
G36*
X39950Y28031D02*
X39900Y28021D01*
X39857Y27993D01*
X39829Y27950D01*
X39828Y27948D01*
X39792Y27933D01*
X39726Y27882D01*
X39726Y27882D01*
X39692Y27846D01*
X37968Y26123D01*
X37968Y26123D01*
X37968Y26123D01*
X37933Y26099D01*
X37900Y26121D01*
X37850Y26131D01*
X37800Y26121D01*
X37757Y26093D01*
X37729Y26050D01*
X37719Y26000D01*
X37729Y25950D01*
X37757Y25907D01*
X37800Y25879D01*
X37850Y25869D01*
X37900Y25879D01*
X37943Y25907D01*
X37971Y25950D01*
X37972Y25952D01*
X38008Y25967D01*
X38074Y26018D01*
X38074Y26018D01*
X38108Y26054D01*
X39832Y27777D01*
X39832Y27777D01*
X39832Y27777D01*
X39867Y27801D01*
X39900Y27779D01*
X39950Y27769D01*
X40000Y27779D01*
X40043Y27807D01*
X40071Y27850D01*
X40081Y27900D01*
X40071Y27950D01*
X40043Y27993D01*
X40000Y28021D01*
X39950Y28031D01*
D02*
G37*
G36*
X34800Y27482D02*
X34776Y27478D01*
X34714Y27436D01*
X34672Y27374D01*
X34668Y27350D01*
X34800D01*
Y27482D01*
D02*
G37*
G36*
Y27250D02*
X34668D01*
X34672Y27226D01*
X34714Y27164D01*
X34776Y27122D01*
X34800Y27118D01*
Y27250D01*
D02*
G37*
G36*
X34650Y27032D02*
Y26900D01*
X34782D01*
X34778Y26924D01*
X34736Y26986D01*
X34674Y27028D01*
X34650Y27032D01*
D02*
G37*
G36*
X29700Y26131D02*
X29650Y26121D01*
X29607Y26093D01*
X29579Y26050D01*
X29569Y26000D01*
X29579Y25950D01*
X29607Y25907D01*
X29650Y25879D01*
X29700Y25869D01*
X29750Y25879D01*
X29793Y25907D01*
X29821Y25950D01*
X29831Y26000D01*
X29821Y26050D01*
X29793Y26093D01*
X29750Y26121D01*
X29700Y26131D01*
D02*
G37*
G36*
X18249Y25902D02*
X18083D01*
Y25653D01*
X18542D01*
X18538Y25680D01*
X18509Y25752D01*
X18461Y25814D01*
X18399Y25862D01*
X18327Y25892D01*
X18249Y25902D01*
D02*
G37*
G36*
X17983D02*
X17816D01*
X17739Y25892D01*
X17666Y25862D01*
X17604Y25814D01*
X17557Y25752D01*
X17527Y25680D01*
X17523Y25653D01*
X17983D01*
Y25902D01*
D02*
G37*
G36*
X16576D02*
X16508D01*
Y25653D01*
X16869D01*
X16865Y25680D01*
X16835Y25752D01*
X16788Y25814D01*
X16726Y25862D01*
X16653Y25892D01*
X16576Y25902D01*
D02*
G37*
G36*
X16408D02*
X16340D01*
X16262Y25892D01*
X16190Y25862D01*
X16128Y25814D01*
X16080Y25752D01*
X16051Y25680D01*
X16047Y25653D01*
X16408D01*
Y25902D01*
D02*
G37*
G36*
X29750Y25581D02*
X29700Y25571D01*
X29657Y25543D01*
X29629Y25500D01*
X29619Y25450D01*
X29629Y25400D01*
X29657Y25357D01*
X29700Y25329D01*
X29750Y25319D01*
X29800Y25329D01*
X29843Y25357D01*
X29871Y25400D01*
X29881Y25450D01*
X29871Y25500D01*
X29843Y25543D01*
X29800Y25571D01*
X29750Y25581D01*
D02*
G37*
G36*
X16869Y25553D02*
X16508D01*
Y25303D01*
X16576D01*
X16653Y25314D01*
X16726Y25343D01*
X16788Y25391D01*
X16835Y25453D01*
X16865Y25525D01*
X16869Y25553D01*
D02*
G37*
G36*
X16408D02*
X16047D01*
X16051Y25525D01*
X16080Y25453D01*
X16128Y25391D01*
X16190Y25343D01*
X16262Y25314D01*
X16340Y25303D01*
X16408D01*
Y25553D01*
D02*
G37*
G36*
X19120Y25412D02*
X18700D01*
Y25300D01*
X19248D01*
X19242Y25330D01*
X19214Y25373D01*
X19171Y25402D01*
X19120Y25412D01*
D02*
G37*
G36*
X18542Y25553D02*
X17523D01*
X17527Y25525D01*
X17557Y25453D01*
X17604Y25391D01*
X17666Y25343D01*
X17739Y25314D01*
X17816Y25303D01*
X18028D01*
X18031Y25300D01*
X18600D01*
Y25412D01*
X18532D01*
X18512Y25462D01*
X18538Y25525D01*
X18542Y25553D01*
D02*
G37*
G36*
X29150Y25531D02*
X29100Y25521D01*
X29057Y25493D01*
X29029Y25450D01*
X29019Y25400D01*
X29029Y25350D01*
X29057Y25307D01*
X29100Y25279D01*
X29150Y25269D01*
X29172Y25273D01*
X29355Y25091D01*
X29353Y25089D01*
X29482Y24980D01*
X29626Y24891D01*
X29782Y24827D01*
X29946Y24787D01*
X30114Y24774D01*
Y24776D01*
X35845D01*
X35857Y24757D01*
X35900Y24729D01*
X35950Y24719D01*
X36000Y24729D01*
X36043Y24757D01*
X36071Y24800D01*
X36081Y24850D01*
X36071Y24900D01*
X36043Y24943D01*
X36000Y24971D01*
X35950Y24981D01*
X35900Y24971D01*
X35857Y24943D01*
X35845Y24924D01*
X30114D01*
X30111Y24923D01*
X29933Y24941D01*
X29759Y24994D01*
X29599Y25079D01*
X29461Y25193D01*
X29459Y25195D01*
X29277Y25378D01*
X29281Y25400D01*
X29271Y25450D01*
X29243Y25493D01*
X29200Y25521D01*
X29150Y25531D01*
D02*
G37*
G36*
X24245Y24342D02*
X23925D01*
X23898Y24336D01*
X23875Y24321D01*
X23859Y24298D01*
X23854Y24271D01*
Y24211D01*
X23859Y24183D01*
X23875Y24160D01*
Y24124D01*
X23859Y24101D01*
X23854Y24074D01*
Y24014D01*
X23859Y23986D01*
X23875Y23963D01*
Y23927D01*
X23859Y23904D01*
X23854Y23877D01*
Y23817D01*
X23859Y23790D01*
X23875Y23766D01*
Y23730D01*
X23859Y23707D01*
X23854Y23680D01*
Y23620D01*
X23859Y23593D01*
X23875Y23570D01*
Y23534D01*
X23859Y23510D01*
X23854Y23483D01*
Y23423D01*
X23859Y23396D01*
X23875Y23373D01*
Y23337D01*
X23859Y23314D01*
X23854Y23286D01*
Y23226D01*
X23859Y23199D01*
X23875Y23176D01*
Y23140D01*
X23859Y23117D01*
X23854Y23089D01*
Y23029D01*
X23859Y23002D01*
X23875Y22979D01*
X23898Y22964D01*
X23925Y22958D01*
X24245D01*
X24272Y22964D01*
X24295Y22979D01*
X24311Y23002D01*
X24316Y23029D01*
Y23089D01*
X24311Y23117D01*
X24295Y23140D01*
Y23176D01*
X24311Y23199D01*
X24316Y23226D01*
Y23286D01*
X24311Y23314D01*
X24295Y23337D01*
Y23373D01*
X24311Y23396D01*
X24316Y23423D01*
Y23483D01*
X24311Y23510D01*
X24295Y23534D01*
Y23570D01*
X24311Y23593D01*
X24316Y23620D01*
Y23680D01*
X24311Y23707D01*
X24295Y23730D01*
Y23766D01*
X24311Y23790D01*
X24316Y23817D01*
Y23877D01*
X24311Y23904D01*
X24295Y23927D01*
Y23963D01*
X24311Y23986D01*
X24316Y24014D01*
Y24074D01*
X24311Y24101D01*
X24295Y24124D01*
Y24160D01*
X24311Y24183D01*
X24316Y24211D01*
Y24271D01*
X24311Y24298D01*
X24295Y24321D01*
X24272Y24336D01*
X24245Y24342D01*
D02*
G37*
G36*
X19241Y22649D02*
X19150D01*
Y22631D01*
X19241D01*
X19239Y22640D01*
X19241Y22649D01*
D02*
G37*
G36*
Y22531D02*
X18692D01*
Y22420D01*
X19113D01*
X19163Y22430D01*
X19206Y22458D01*
X19235Y22501D01*
X19241Y22531D01*
D02*
G37*
G36*
X18592D02*
X18028D01*
X18000Y22497D01*
X17816D01*
X17739Y22486D01*
X17666Y22457D01*
X17604Y22409D01*
X17557Y22347D01*
X17527Y22275D01*
X17523Y22247D01*
X18542D01*
X18538Y22275D01*
X18509Y22347D01*
X18491Y22370D01*
X18516Y22420D01*
X18592D01*
Y22531D01*
D02*
G37*
G36*
X16576Y22497D02*
X16508D01*
Y22247D01*
X16869D01*
X16865Y22275D01*
X16835Y22347D01*
X16788Y22409D01*
X16726Y22457D01*
X16653Y22486D01*
X16576Y22497D01*
D02*
G37*
G36*
X16408D02*
X16340D01*
X16262Y22486D01*
X16190Y22457D01*
X16128Y22409D01*
X16080Y22347D01*
X16051Y22275D01*
X16047Y22247D01*
X16408D01*
Y22497D01*
D02*
G37*
G36*
X18542Y22147D02*
X18083D01*
Y21898D01*
X18249D01*
X18327Y21908D01*
X18399Y21938D01*
X18461Y21986D01*
X18509Y22048D01*
X18538Y22120D01*
X18542Y22147D01*
D02*
G37*
G36*
X17983D02*
X17523D01*
X17527Y22120D01*
X17557Y22048D01*
X17604Y21986D01*
X17666Y21938D01*
X17739Y21908D01*
X17816Y21898D01*
X17983D01*
Y22147D01*
D02*
G37*
G36*
X16869D02*
X16508D01*
Y21898D01*
X16576D01*
X16653Y21908D01*
X16726Y21938D01*
X16788Y21986D01*
X16835Y22048D01*
X16865Y22120D01*
X16869Y22147D01*
D02*
G37*
G36*
X16408D02*
X16047D01*
X16051Y22120D01*
X16080Y22048D01*
X16128Y21986D01*
X16190Y21938D01*
X16262Y21908D01*
X16340Y21898D01*
X16408D01*
Y22147D01*
D02*
G37*
G36*
X34001Y21381D02*
X33951Y21371D01*
X33908Y21343D01*
X33880Y21300D01*
X33870Y21250D01*
X33880Y21200D01*
X33908Y21157D01*
X33951Y21129D01*
X34001Y21119D01*
X34051Y21129D01*
X34094Y21157D01*
X34122Y21200D01*
X34132Y21250D01*
X34122Y21300D01*
X34094Y21343D01*
X34051Y21371D01*
X34001Y21381D01*
D02*
G37*
G36*
X33600Y21331D02*
X33550Y21321D01*
X33507Y21293D01*
X33479Y21250D01*
X33469Y21200D01*
X33479Y21150D01*
X33507Y21107D01*
X33550Y21079D01*
X33600Y21069D01*
X33650Y21079D01*
X33693Y21107D01*
X33721Y21150D01*
X33731Y21200D01*
X33721Y21250D01*
X33693Y21293D01*
X33650Y21321D01*
X33600Y21331D01*
D02*
G37*
G36*
X34700Y21031D02*
X34650Y21021D01*
X34607Y20993D01*
X34579Y20950D01*
X34569Y20900D01*
X34579Y20850D01*
X34607Y20807D01*
X34650Y20779D01*
X34700Y20769D01*
X34750Y20779D01*
X34793Y20807D01*
X34821Y20850D01*
X34831Y20900D01*
X34821Y20950D01*
X34793Y20993D01*
X34750Y21021D01*
X34700Y21031D01*
D02*
G37*
G36*
X25750Y18246D02*
Y17950D01*
X26046D01*
X26041Y17991D01*
X26006Y18077D01*
X25950Y18150D01*
X25877Y18206D01*
X25791Y18241D01*
X25750Y18246D01*
D02*
G37*
G36*
X24750D02*
Y17950D01*
X25046D01*
X25041Y17991D01*
X25006Y18077D01*
X24950Y18150D01*
X24877Y18206D01*
X24791Y18241D01*
X24750Y18246D01*
D02*
G37*
G36*
X25650D02*
X25609Y18241D01*
X25523Y18206D01*
X25450Y18150D01*
X25394Y18077D01*
X25359Y17991D01*
X25354Y17950D01*
X25650D01*
Y18246D01*
D02*
G37*
G36*
X24650D02*
X24609Y18241D01*
X24523Y18206D01*
X24450Y18150D01*
X24394Y18077D01*
X24359Y17991D01*
X24354Y17950D01*
X24650D01*
Y18246D01*
D02*
G37*
G36*
X41700Y18192D02*
X41624Y18183D01*
X41554Y18153D01*
X41493Y18107D01*
X41447Y18046D01*
X41417Y17976D01*
X41407Y17900D01*
X41417Y17824D01*
X41447Y17754D01*
X41493Y17693D01*
X41554Y17647D01*
X41624Y17617D01*
X41700Y17608D01*
X41776Y17617D01*
X41846Y17647D01*
X41907Y17693D01*
X41953Y17754D01*
X41983Y17824D01*
X41993Y17900D01*
X41983Y17976D01*
X41953Y18046D01*
X41907Y18107D01*
X41846Y18153D01*
X41776Y18183D01*
X41700Y18192D01*
D02*
G37*
G36*
X40700D02*
X40624Y18183D01*
X40554Y18153D01*
X40493Y18107D01*
X40447Y18046D01*
X40417Y17976D01*
X40408Y17900D01*
X40417Y17824D01*
X40447Y17754D01*
X40493Y17693D01*
X40554Y17647D01*
X40624Y17617D01*
X40700Y17608D01*
X40776Y17617D01*
X40846Y17647D01*
X40907Y17693D01*
X40953Y17754D01*
X40983Y17824D01*
X40992Y17900D01*
X40983Y17976D01*
X40953Y18046D01*
X40907Y18107D01*
X40846Y18153D01*
X40776Y18183D01*
X40700Y18192D01*
D02*
G37*
G36*
X39700D02*
X39624Y18183D01*
X39554Y18153D01*
X39493Y18107D01*
X39447Y18046D01*
X39417Y17976D01*
X39407Y17900D01*
X39417Y17824D01*
X39447Y17754D01*
X39493Y17693D01*
X39554Y17647D01*
X39624Y17617D01*
X39700Y17608D01*
X39776Y17617D01*
X39846Y17647D01*
X39907Y17693D01*
X39953Y17754D01*
X39983Y17824D01*
X39992Y17900D01*
X39983Y17976D01*
X39953Y18046D01*
X39907Y18107D01*
X39846Y18153D01*
X39776Y18183D01*
X39700Y18192D01*
D02*
G37*
G36*
X38700D02*
X38624Y18183D01*
X38554Y18153D01*
X38493Y18107D01*
X38447Y18046D01*
X38417Y17976D01*
X38407Y17900D01*
X38417Y17824D01*
X38447Y17754D01*
X38493Y17693D01*
X38554Y17647D01*
X38624Y17617D01*
X38700Y17608D01*
X38776Y17617D01*
X38846Y17647D01*
X38907Y17693D01*
X38953Y17754D01*
X38983Y17824D01*
X38993Y17900D01*
X38983Y17976D01*
X38953Y18046D01*
X38907Y18107D01*
X38846Y18153D01*
X38776Y18183D01*
X38700Y18192D01*
D02*
G37*
G36*
X37700D02*
X37624Y18183D01*
X37554Y18153D01*
X37493Y18107D01*
X37447Y18046D01*
X37417Y17976D01*
X37408Y17900D01*
X37417Y17824D01*
X37447Y17754D01*
X37493Y17693D01*
X37554Y17647D01*
X37624Y17617D01*
X37700Y17608D01*
X37776Y17617D01*
X37846Y17647D01*
X37907Y17693D01*
X37953Y17754D01*
X37983Y17824D01*
X37992Y17900D01*
X37983Y17976D01*
X37953Y18046D01*
X37907Y18107D01*
X37846Y18153D01*
X37776Y18183D01*
X37700Y18192D01*
D02*
G37*
G36*
X36700D02*
X36624Y18183D01*
X36554Y18153D01*
X36493Y18107D01*
X36447Y18046D01*
X36417Y17976D01*
X36407Y17900D01*
X36417Y17824D01*
X36447Y17754D01*
X36493Y17693D01*
X36554Y17647D01*
X36624Y17617D01*
X36700Y17608D01*
X36776Y17617D01*
X36846Y17647D01*
X36907Y17693D01*
X36953Y17754D01*
X36983Y17824D01*
X36992Y17900D01*
X36983Y17976D01*
X36953Y18046D01*
X36907Y18107D01*
X36846Y18153D01*
X36776Y18183D01*
X36700Y18192D01*
D02*
G37*
G36*
X33350Y20931D02*
X33300Y20921D01*
X33257Y20893D01*
X33229Y20850D01*
X33219Y20800D01*
X33229Y20750D01*
X33257Y20707D01*
X33300Y20679D01*
X33350Y20669D01*
X33381Y20675D01*
X35360Y18696D01*
X35362Y18695D01*
X35477Y18555D01*
X35563Y18393D01*
X35617Y18218D01*
X35620Y18181D01*
X35554Y18153D01*
X35493Y18107D01*
X35447Y18046D01*
X35417Y17976D01*
X35408Y17900D01*
X35417Y17824D01*
X35447Y17754D01*
X35493Y17693D01*
X35554Y17647D01*
X35624Y17617D01*
X35700Y17608D01*
X35776Y17617D01*
X35846Y17647D01*
X35907Y17693D01*
X35953Y17754D01*
X35983Y17824D01*
X35993Y17900D01*
X35983Y17976D01*
X35953Y18046D01*
X35907Y18107D01*
X35846Y18153D01*
X35776Y18183D01*
X35757Y18185D01*
X35755Y18203D01*
X35716Y18366D01*
X35652Y18521D01*
X35564Y18664D01*
X35455Y18791D01*
X35454Y18790D01*
X33475Y20769D01*
X33481Y20800D01*
X33471Y20850D01*
X33443Y20893D01*
X33400Y20921D01*
X33350Y20931D01*
D02*
G37*
G36*
X32950Y21331D02*
X32900Y21321D01*
X32857Y21293D01*
X32829Y21250D01*
X32819Y21200D01*
X32829Y21150D01*
X32857Y21107D01*
X32884Y21090D01*
Y20914D01*
X32882D01*
X32895Y20747D01*
X32934Y20584D01*
X32998Y20429D01*
X33086Y20286D01*
X33195Y20159D01*
X33196Y20160D01*
X34360Y18996D01*
X34362Y18995D01*
X34477Y18855D01*
X34563Y18693D01*
X34617Y18518D01*
X34634Y18338D01*
X34634Y18336D01*
Y18184D01*
X34624Y18183D01*
X34554Y18153D01*
X34493Y18107D01*
X34447Y18046D01*
X34417Y17976D01*
X34407Y17900D01*
X34417Y17824D01*
X34447Y17754D01*
X34493Y17693D01*
X34554Y17647D01*
X34624Y17617D01*
X34700Y17608D01*
X34776Y17617D01*
X34846Y17647D01*
X34907Y17693D01*
X34953Y17754D01*
X34983Y17824D01*
X34992Y17900D01*
X34983Y17976D01*
X34953Y18046D01*
X34907Y18107D01*
X34846Y18153D01*
X34776Y18183D01*
X34766Y18184D01*
Y18336D01*
X34768D01*
X34755Y18503D01*
X34716Y18666D01*
X34652Y18821D01*
X34564Y18964D01*
X34455Y19091D01*
X34454Y19090D01*
X33290Y20254D01*
X33288Y20255D01*
X33173Y20395D01*
X33087Y20557D01*
X33033Y20732D01*
X33016Y20912D01*
X33016Y20914D01*
Y21090D01*
X33043Y21107D01*
X33071Y21150D01*
X33081Y21200D01*
X33071Y21250D01*
X33043Y21293D01*
X33000Y21321D01*
X32950Y21331D01*
D02*
G37*
G36*
X32650Y20881D02*
X32600Y20871D01*
X32557Y20843D01*
X32529Y20800D01*
X32519Y20750D01*
X32529Y20700D01*
X32557Y20657D01*
X32584Y20640D01*
Y20512D01*
X32580D01*
X32600Y20361D01*
X32658Y20221D01*
X32750Y20101D01*
X32753Y20103D01*
X32753Y20103D01*
X33360Y19496D01*
X33362Y19495D01*
X33477Y19355D01*
X33563Y19193D01*
X33617Y19018D01*
X33634Y18838D01*
X33634Y18836D01*
Y18184D01*
X33624Y18183D01*
X33554Y18153D01*
X33493Y18107D01*
X33447Y18046D01*
X33417Y17976D01*
X33407Y17900D01*
X33417Y17824D01*
X33447Y17754D01*
X33493Y17693D01*
X33554Y17647D01*
X33624Y17617D01*
X33700Y17608D01*
X33776Y17617D01*
X33846Y17647D01*
X33907Y17693D01*
X33953Y17754D01*
X33983Y17824D01*
X33993Y17900D01*
X33983Y17976D01*
X33953Y18046D01*
X33907Y18107D01*
X33846Y18153D01*
X33776Y18183D01*
X33766Y18184D01*
Y18836D01*
X33768D01*
X33755Y19003D01*
X33716Y19166D01*
X33652Y19321D01*
X33564Y19464D01*
X33455Y19591D01*
X33454Y19590D01*
X32847Y20197D01*
X32847Y20197D01*
X32776Y20289D01*
X32731Y20397D01*
X32716Y20512D01*
X32716Y20512D01*
Y20640D01*
X32743Y20657D01*
X32771Y20700D01*
X32781Y20750D01*
X32771Y20800D01*
X32743Y20843D01*
X32700Y20871D01*
X32650Y20881D01*
D02*
G37*
G36*
X32250Y21281D02*
X32200Y21271D01*
X32157Y21243D01*
X32129Y21200D01*
X32119Y21150D01*
X32129Y21100D01*
X32157Y21057D01*
X32184Y21040D01*
Y18764D01*
X32182D01*
X32195Y18597D01*
X32234Y18434D01*
X32298Y18279D01*
X32386Y18136D01*
X32454Y18056D01*
X32447Y18046D01*
X32417Y17976D01*
X32408Y17900D01*
X32417Y17824D01*
X32447Y17754D01*
X32493Y17693D01*
X32554Y17647D01*
X32624Y17617D01*
X32700Y17608D01*
X32776Y17617D01*
X32846Y17647D01*
X32907Y17693D01*
X32953Y17754D01*
X32983Y17824D01*
X32992Y17900D01*
X32983Y17976D01*
X32953Y18046D01*
X32907Y18107D01*
X32846Y18153D01*
X32776Y18183D01*
X32700Y18192D01*
X32624Y18183D01*
X32554Y18153D01*
X32550Y18151D01*
X32473Y18245D01*
X32387Y18407D01*
X32333Y18582D01*
X32316Y18762D01*
X32316Y18764D01*
Y21040D01*
X32343Y21057D01*
X32371Y21100D01*
X32381Y21150D01*
X32371Y21200D01*
X32343Y21243D01*
X32300Y21271D01*
X32250Y21281D01*
D02*
G37*
G36*
X31700Y18192D02*
X31624Y18183D01*
X31554Y18153D01*
X31493Y18107D01*
X31447Y18046D01*
X31417Y17976D01*
X31407Y17900D01*
X31417Y17824D01*
X31447Y17754D01*
X31493Y17693D01*
X31554Y17647D01*
X31624Y17617D01*
X31700Y17608D01*
X31776Y17617D01*
X31846Y17647D01*
X31907Y17693D01*
X31953Y17754D01*
X31983Y17824D01*
X31992Y17900D01*
X31983Y17976D01*
X31953Y18046D01*
X31907Y18107D01*
X31846Y18153D01*
X31776Y18183D01*
X31700Y18192D01*
D02*
G37*
G36*
X30700D02*
X30624Y18183D01*
X30554Y18153D01*
X30493Y18107D01*
X30447Y18046D01*
X30417Y17976D01*
X30408Y17900D01*
X30417Y17824D01*
X30447Y17754D01*
X30493Y17693D01*
X30554Y17647D01*
X30624Y17617D01*
X30700Y17608D01*
X30776Y17617D01*
X30846Y17647D01*
X30907Y17693D01*
X30953Y17754D01*
X30983Y17824D01*
X30993Y17900D01*
X30983Y17976D01*
X30953Y18046D01*
X30907Y18107D01*
X30846Y18153D01*
X30776Y18183D01*
X30700Y18192D01*
D02*
G37*
G36*
X29700D02*
X29624Y18183D01*
X29554Y18153D01*
X29493Y18107D01*
X29447Y18046D01*
X29417Y17976D01*
X29407Y17900D01*
X29417Y17824D01*
X29447Y17754D01*
X29493Y17693D01*
X29554Y17647D01*
X29624Y17617D01*
X29700Y17608D01*
X29776Y17617D01*
X29846Y17647D01*
X29907Y17693D01*
X29953Y17754D01*
X29983Y17824D01*
X29992Y17900D01*
X29983Y17976D01*
X29953Y18046D01*
X29907Y18107D01*
X29846Y18153D01*
X29776Y18183D01*
X29700Y18192D01*
D02*
G37*
G36*
X28700D02*
X28624Y18183D01*
X28554Y18153D01*
X28493Y18107D01*
X28447Y18046D01*
X28417Y17976D01*
X28407Y17900D01*
X28417Y17824D01*
X28447Y17754D01*
X28493Y17693D01*
X28554Y17647D01*
X28624Y17617D01*
X28700Y17608D01*
X28776Y17617D01*
X28846Y17647D01*
X28907Y17693D01*
X28953Y17754D01*
X28983Y17824D01*
X28993Y17900D01*
X28983Y17976D01*
X28953Y18046D01*
X28907Y18107D01*
X28846Y18153D01*
X28776Y18183D01*
X28700Y18192D01*
D02*
G37*
G36*
X27700D02*
X27624Y18183D01*
X27554Y18153D01*
X27493Y18107D01*
X27447Y18046D01*
X27417Y17976D01*
X27408Y17900D01*
X27417Y17824D01*
X27447Y17754D01*
X27493Y17693D01*
X27554Y17647D01*
X27624Y17617D01*
X27700Y17608D01*
X27776Y17617D01*
X27846Y17647D01*
X27907Y17693D01*
X27953Y17754D01*
X27983Y17824D01*
X27992Y17900D01*
X27983Y17976D01*
X27953Y18046D01*
X27907Y18107D01*
X27846Y18153D01*
X27776Y18183D01*
X27700Y18192D01*
D02*
G37*
G36*
X26700D02*
X26624Y18183D01*
X26554Y18153D01*
X26493Y18107D01*
X26447Y18046D01*
X26417Y17976D01*
X26407Y17900D01*
X26417Y17824D01*
X26447Y17754D01*
X26493Y17693D01*
X26554Y17647D01*
X26624Y17617D01*
X26700Y17608D01*
X26776Y17617D01*
X26846Y17647D01*
X26907Y17693D01*
X26953Y17754D01*
X26983Y17824D01*
X26992Y17900D01*
X26983Y17976D01*
X26953Y18046D01*
X26907Y18107D01*
X26846Y18153D01*
X26776Y18183D01*
X26700Y18192D01*
D02*
G37*
G36*
X26046Y17850D02*
X25750D01*
Y17554D01*
X25791Y17559D01*
X25877Y17594D01*
X25950Y17650D01*
X26006Y17723D01*
X26041Y17809D01*
X26046Y17850D01*
D02*
G37*
G36*
X25046D02*
X24750D01*
Y17554D01*
X24791Y17559D01*
X24877Y17594D01*
X24950Y17650D01*
X25006Y17723D01*
X25041Y17809D01*
X25046Y17850D01*
D02*
G37*
G36*
X25650D02*
X25354D01*
X25359Y17809D01*
X25394Y17723D01*
X25450Y17650D01*
X25523Y17594D01*
X25609Y17559D01*
X25650Y17554D01*
Y17850D01*
D02*
G37*
G36*
X24650D02*
X24354D01*
X24359Y17809D01*
X24394Y17723D01*
X24450Y17650D01*
X24523Y17594D01*
X24609Y17559D01*
X24650Y17554D01*
Y17850D01*
D02*
G37*
%LPD*%
G36*
X24050Y38146D02*
X24050Y38141D01*
X24048Y38131D01*
X24044Y38122D01*
X24039Y38114D01*
X24035Y38110D01*
X24033Y38108D01*
X24027Y38104D01*
X24021Y38101D01*
X24014Y38100D01*
X24010Y38100D01*
X23600D01*
X23600Y38600D01*
X24050D01*
X24050Y38146D01*
D02*
G37*
G36*
X23740Y37185D02*
X23300Y36650D01*
X21650D01*
X21550Y36550D01*
X21506Y36594D01*
Y36750D01*
X22850D01*
X23250Y37150D01*
Y37200D01*
X23725D01*
X23740Y37185D01*
D02*
G37*
G36*
X24449Y36950D02*
X24470D01*
X24507Y36934D01*
X24536Y36904D01*
X24551Y36866D01*
X24550Y36846D01*
X24550Y36846D01*
X24550Y36500D01*
X23950D01*
Y36950D01*
X24449Y36950D01*
D02*
G37*
G36*
X29100Y39100D02*
X27500Y39100D01*
X27500Y39650D01*
D01*
Y39650D01*
Y39650D01*
X27500Y39670D01*
X27515Y39707D01*
X27543Y39735D01*
X27580Y39750D01*
X27600Y39750D01*
X29100Y39750D01*
X29100Y39100D01*
D02*
G37*
G36*
X20525Y38500D02*
X18946Y38500D01*
X18929Y38499D01*
X18896Y38493D01*
X18865Y38480D01*
X18837Y38461D01*
X18825Y38450D01*
Y38450D01*
X18813Y38462D01*
X18794Y38490D01*
X18782Y38521D01*
X18775Y38554D01*
Y38571D01*
Y38571D01*
X18775Y39250D01*
X20525D01*
X20525Y38500D01*
D02*
G37*
G36*
X28150Y35100D02*
X26800Y35100D01*
Y34300D01*
Y33900D01*
X24421D01*
X24421Y33900D01*
X24404D01*
X24371Y33907D01*
X24340Y33919D01*
X24312Y33938D01*
X24300Y33950D01*
Y34500D01*
X26450D01*
Y35271D01*
X26450Y35550D01*
X28150D01*
X28150Y35100D01*
D02*
G37*
G36*
X33495Y31847D02*
X33520Y31842D01*
X33533Y31795D01*
X33534Y31792D01*
X33536Y31783D01*
X33536Y31781D01*
X33562Y31743D01*
X33598Y31708D01*
X33639Y31667D01*
X33638Y31667D01*
X33676Y31641D01*
X33678Y31641D01*
X33718Y31633D01*
X33768Y31632D01*
X33956Y31627D01*
X33956Y31577D01*
X33123D01*
Y30975D01*
X33122Y30974D01*
X33118Y30950D01*
X33300D01*
Y30850D01*
X33118D01*
X33122Y30826D01*
X33123Y30825D01*
Y30200D01*
X34550D01*
Y30100D01*
X33123D01*
Y29611D01*
X33078Y29580D01*
X33032Y29586D01*
X33009Y29631D01*
X33014Y29636D01*
X33055Y29735D01*
X33069Y29841D01*
X33066D01*
Y30800D01*
X33061Y30825D01*
X33047Y30847D01*
X33048Y30848D01*
X32992Y30890D01*
X32928Y30917D01*
X32868Y30925D01*
X32867Y30926D01*
X32851Y30954D01*
X32846Y30975D01*
X32853Y30985D01*
X32859Y31016D01*
X32853Y31047D01*
X32836Y31073D01*
Y31116D01*
X32853Y31143D01*
X32859Y31174D01*
X32853Y31205D01*
X32836Y31231D01*
Y31274D01*
X32853Y31300D01*
X32859Y31331D01*
X32853Y31362D01*
X32836Y31388D01*
Y31431D01*
X32853Y31458D01*
X32859Y31489D01*
X32853Y31520D01*
X32836Y31546D01*
Y31589D01*
X32853Y31615D01*
X32859Y31646D01*
X32853Y31677D01*
X32836Y31703D01*
Y31746D01*
X32853Y31773D01*
X32859Y31804D01*
X32896Y31841D01*
X32927Y31847D01*
X32954Y31864D01*
X32997D01*
X33023Y31847D01*
X33054Y31841D01*
X33085Y31847D01*
X33111Y31864D01*
X33154D01*
X33180Y31847D01*
X33211Y31841D01*
X33242Y31847D01*
X33269Y31864D01*
X33312D01*
X33338Y31847D01*
X33369Y31841D01*
X33400Y31847D01*
X33426Y31864D01*
X33469D01*
X33495Y31847D01*
D02*
G37*
G36*
X35417Y27510D02*
X35428Y27496D01*
X35419Y27450D01*
X35429Y27400D01*
X35457Y27357D01*
X35500Y27329D01*
X35550Y27319D01*
X35600Y27329D01*
X35643Y27357D01*
X35671Y27400D01*
X35677Y27431D01*
X35729Y27436D01*
X35767Y27344D01*
X35784Y27215D01*
X35784Y27214D01*
X35788Y27191D01*
X35788Y27191D01*
X35800Y27150D01*
X35803Y27144D01*
X35885Y26992D01*
X35998Y26853D01*
X35998Y26853D01*
X36033Y26818D01*
X36103Y26733D01*
X36174Y26598D01*
X36219Y26452D01*
X36234Y26300D01*
X36234Y26300D01*
Y25998D01*
X36184Y25993D01*
X36178Y26024D01*
X36136Y26086D01*
X36112Y26102D01*
X36128Y26126D01*
X36132Y26150D01*
X35950D01*
Y26250D01*
X36132D01*
X36128Y26274D01*
X36086Y26336D01*
X36027Y26375D01*
X36028Y26376D01*
X36032Y26400D01*
X35850D01*
Y26450D01*
X35800D01*
Y26670D01*
X35786Y26681D01*
X35778Y26724D01*
X35736Y26786D01*
X35674Y26828D01*
X35650Y26832D01*
Y26650D01*
X35550D01*
Y26832D01*
X35526Y26828D01*
X35464Y26786D01*
X35422Y26724D01*
X35422Y26720D01*
X35369Y26709D01*
X35365Y26715D01*
X35335Y26735D01*
X35325Y26737D01*
Y27602D01*
X35375Y27612D01*
X35417Y27510D01*
D02*
G37*
G36*
X19150Y24750D02*
X18150D01*
Y24950D01*
X19150D01*
Y24750D01*
D02*
G37*
G36*
Y22850D02*
X18150D01*
Y23050D01*
X19150D01*
Y22850D01*
D02*
G37*
%LPC*%
G36*
X35900Y26632D02*
Y26500D01*
X36032D01*
X36028Y26524D01*
X35986Y26586D01*
X35924Y26628D01*
X35900Y26632D01*
D02*
G37*
%LPD*%
D11*
X24665Y40221D02*
G03*
X24653Y40250I-42J0D01*
G01*
X34779Y26929D02*
G03*
X34850Y27100I-171J171D01*
G01*
X34600Y26750D02*
G03*
X34450Y26388I362J-362D01*
G01*
Y25621D02*
G03*
X34500Y25500I171J0D01*
G01*
D02*
G03*
X34621Y25450I121J121D01*
G01*
X35174Y25754D02*
G03*
X35300Y25450I430J0D01*
G01*
X36000Y26109D02*
G03*
X35900Y26350I-341J0D01*
G01*
X35650Y25450D02*
G03*
X35735Y25485I0J121D01*
G01*
X35500Y26800D02*
G03*
X35535Y26715I121J0D01*
G01*
X35859Y25609D02*
G03*
X36000Y25950I-341J341D01*
G01*
X34500Y25450D02*
X35300D01*
X34500D02*
X34621D01*
X34400Y25700D02*
Y26338D01*
X34450Y26388D01*
X34400Y25671D02*
Y25700D01*
Y25671D02*
X34450Y25621D01*
X24665Y38110D02*
Y40221D01*
X34850Y27300D02*
Y27350D01*
X34600Y26750D02*
X34779Y26929D01*
X34600Y26750D02*
X34600Y26750D01*
X34850Y27100D02*
Y27300D01*
X35850Y25500D02*
Y25600D01*
X35859Y25609D01*
X35475Y25450D02*
X35650D01*
X35300D02*
X35475D01*
X36000Y25950D02*
Y26109D01*
X35174Y25754D02*
Y25950D01*
X35535Y26715D02*
X35900Y26350D01*
X35735Y25485D02*
X35859Y25609D01*
D17*
X21750Y38550D02*
D03*
X36150Y34400D02*
D03*
X29000Y40100D02*
D03*
X28500D02*
D03*
X26550D02*
D03*
X27900Y37050D02*
D03*
X27300Y35850D02*
D03*
X27850D02*
D03*
X26750D02*
D03*
X19650Y38200D02*
D03*
X21750Y38150D02*
D03*
X19050Y38200D02*
D03*
X27850Y35450D02*
D03*
X27300D02*
D03*
X26750D02*
D03*
X27600Y40100D02*
D03*
Y39700D02*
D03*
X26550D02*
D03*
X36150Y34000D02*
D03*
X22600Y32700D02*
D03*
Y32300D02*
D03*
X22050Y32700D02*
D03*
Y32300D02*
D03*
X28500Y39700D02*
D03*
X29000D02*
D03*
X27900Y37450D02*
D03*
X19050Y38600D02*
D03*
X19650D02*
D03*
D18*
X35250Y26600D02*
D03*
X34850D02*
D03*
X38450Y31500D02*
D03*
Y31050D02*
D03*
X33750Y34500D02*
D03*
Y33950D02*
D03*
X38850Y28500D02*
D03*
Y29000D02*
D03*
X28600Y29050D02*
D03*
X30150Y28300D02*
D03*
X28600Y28500D02*
D03*
X20500Y37900D02*
D03*
X18850Y35300D02*
D03*
X40200Y35400D02*
D03*
Y36200D02*
D03*
Y34550D02*
D03*
Y33800D02*
D03*
Y33000D02*
D03*
X33350Y34500D02*
D03*
Y33950D02*
D03*
X30150Y29150D02*
D03*
X26700Y34500D02*
D03*
X29000Y29050D02*
D03*
Y28500D02*
D03*
X25850Y26550D02*
D03*
X25450D02*
D03*
X32440Y34000D02*
D03*
X32040D02*
D03*
X30150Y33950D02*
D03*
X30550D02*
D03*
X40600Y36200D02*
D03*
Y35400D02*
D03*
Y34550D02*
D03*
Y33800D02*
D03*
X38450Y28500D02*
D03*
X30150Y31800D02*
D03*
X30550D02*
D03*
Y29150D02*
D03*
Y31250D02*
D03*
X30150D02*
D03*
X30550Y28300D02*
D03*
Y32350D02*
D03*
X30150D02*
D03*
X38850Y31050D02*
D03*
Y31500D02*
D03*
X38450Y29850D02*
D03*
X38850D02*
D03*
X38450Y29000D02*
D03*
X30550Y30500D02*
D03*
X30150D02*
D03*
X38850Y30300D02*
D03*
X38450D02*
D03*
X25000Y20400D02*
D03*
X25400D02*
D03*
X40600Y33000D02*
D03*
X19250Y35300D02*
D03*
X27100Y34500D02*
D03*
X20500Y38700D02*
D03*
X20900D02*
D03*
Y37900D02*
D03*
D44*
X36469Y28654D02*
G03*
X36579Y28601I130J130D01*
G01*
X36568Y30071D02*
G03*
X37000Y30250I0J610D01*
G01*
X36859Y29909D02*
G03*
X37000Y30250I-341J341D01*
G01*
X36150Y30200D02*
G03*
X36461Y30071I311J311D01*
G01*
X33559Y26608D02*
G03*
X33700Y26550I141J142D01*
G01*
X33009Y26976D02*
G03*
X32171Y27143I-838J-2021D01*
G01*
X33559Y26608D02*
G03*
X33009Y26976I-1199J-1198D01*
G01*
X33800Y32169D02*
G03*
X33841Y32069I141J0D01*
G01*
X34700Y32450D02*
G03*
X34629Y32278I172J-172D01*
G01*
X34862Y32562D02*
G03*
X34709Y32459I188J-445D01*
G01*
X35050Y32600D02*
G03*
X34862Y32562I0J-483D01*
G01*
X34600Y32550D02*
G03*
X34471Y32239I311J-311D01*
G01*
X34850Y33009D02*
G03*
X34750Y33250I-341J0D01*
G01*
X37000Y31150D02*
G03*
X36943Y31174I-57J-57D01*
G01*
X25400Y37450D02*
G03*
X25279Y37500I-121J-121D01*
G01*
X26257Y37957D02*
G03*
X26550Y38664I-707J707D01*
G01*
X25756Y37657D02*
G03*
X26100Y37800I0J487D01*
G01*
X25829Y37700D02*
G03*
X25950Y37750I0J171D01*
G01*
X21300Y32850D02*
G03*
X21662Y32700I362J362D01*
G01*
X23810Y34440D02*
G03*
X24517Y34147I707J707D01*
G01*
X19168Y24904D02*
G03*
X19400Y25000I0J328D01*
G01*
X19650Y23350D02*
G03*
X19510Y23408I-140J-140D01*
G01*
X22600Y34927D02*
G03*
X22673Y34750I251J0D01*
G01*
X26257Y38057D02*
G03*
X26550Y38764I-707J707D01*
G01*
X24700Y36805D02*
G03*
X24665Y36890I-120J0D01*
G01*
X21200Y32500D02*
G03*
X21683Y32300I483J483D01*
G01*
X24795Y32088D02*
G03*
X25250Y31900I455J455D01*
G01*
X31755Y30544D02*
G03*
X31650Y30500I0J-149D01*
G01*
X20950Y32950D02*
G03*
X21091Y32609I483J0D01*
G01*
X21506Y36750D02*
G03*
X21747Y36650I241J241D01*
G01*
X23888Y38257D02*
G03*
X23181Y38550I-707J-707D01*
G01*
X32100Y29000D02*
G03*
X32175Y28969I75J75D01*
G01*
X31500Y29200D02*
G03*
X31415Y29165I0J-121D01*
G01*
X31621Y29250D02*
G03*
X31415Y29165I0J-291D01*
G01*
X32236Y29235D02*
G03*
X32200Y29250I-36J-36D01*
G01*
X37012Y30500D02*
G03*
X36821Y30421I0J-271D01*
G01*
X36699Y30229D02*
G03*
X36750Y30250I0J73D01*
G01*
X37496Y30381D02*
G03*
X37594Y30341I98J97D01*
G01*
X37482Y30395D02*
G03*
X37229Y30500I-253J-253D01*
G01*
X36574Y29756D02*
G03*
X36800Y29850I0J320D01*
G01*
X41775Y30450D02*
G03*
X41850Y30525I0J75D01*
G01*
X41725Y30450D02*
G03*
X41725Y30300I0J-75D01*
G01*
X41975Y30150D02*
G03*
X41975Y30300I0J75D01*
G01*
X41725Y30150D02*
G03*
X41725Y30000I0J-75D01*
G01*
X41975Y29850D02*
G03*
X41975Y30000I0J75D01*
G01*
X41725Y29850D02*
G03*
X41725Y29700I0J-75D01*
G01*
X41850Y29625D02*
G03*
X41775Y29700I-75J0D01*
G01*
X41951Y31601D02*
G03*
X41850Y31357I244J-244D01*
G01*
X41557Y28507D02*
G03*
X41850Y29214I-707J707D01*
G01*
X40846Y28150D02*
G03*
X41450Y28400I0J854D01*
G01*
X42879Y32529D02*
G03*
X43100Y33062I-533J533D01*
G01*
Y33500D02*
G03*
X43029Y33671I-241J0D01*
G01*
X34200Y28600D02*
G03*
X34156Y28495I105J-105D01*
G01*
X42400Y36115D02*
G03*
X42196Y36200I-204J-204D01*
G01*
X24210Y43150D02*
G03*
X24323Y42877I386J0D01*
G01*
X29493Y41307D02*
G03*
X28786Y41600I-707J-707D01*
G01*
X28750Y39014D02*
G03*
X29043Y38307I1000J0D01*
G01*
X34850Y26600D02*
G03*
X35101Y27206I-606J606D01*
G01*
X34800Y25950D02*
G03*
X34850Y26071I-121J121D01*
G01*
X35548Y25950D02*
G03*
X35299Y26551I-850J0D01*
G01*
X35250Y26600D02*
G03*
X35259Y26621I-21J21D01*
G01*
X35416Y27773D02*
G03*
X35550Y27450I457J0D01*
G01*
X36079Y25379D02*
G03*
X36300Y25912I-533J533D01*
G01*
X35850Y27214D02*
G03*
X36047Y26903I795J286D01*
G01*
X35802Y27443D02*
G03*
X35683Y27617I-523J-229D01*
G01*
X35850Y27214D02*
G03*
X35802Y27443I-571J0D01*
G01*
X35574Y27764D02*
G03*
X35600Y27700I90J0D01*
G01*
X36300Y26300D02*
G03*
X36053Y26897I-845J0D01*
G01*
X26007Y26393D02*
G03*
X26352Y26250I345J345D01*
G01*
X30957Y25493D02*
G03*
X31664Y25200I707J707D01*
G01*
X30493Y25957D02*
G03*
X29786Y26250I-707J-707D01*
G01*
X37407Y25943D02*
G03*
X38114Y25650I707J707D01*
G01*
X36350Y27150D02*
G03*
X36456Y26894I362J0D01*
G01*
X36350Y27150D02*
G03*
X36315Y27235I-121J0D01*
G01*
X35889Y28031D02*
G03*
X36150Y27400I893J0D01*
G01*
X36046Y28001D02*
G03*
X36150Y27750I355J0D01*
G01*
X33841Y27354D02*
G03*
X34050Y26850I712J0D01*
G01*
X33600Y27300D02*
G03*
X33684Y27502I-202J202D01*
G01*
X33350Y27150D02*
G03*
X33369Y27196I-46J46D01*
G01*
X35820Y31740D02*
G03*
X35854Y31781I-16J47D01*
G01*
X35541Y31650D02*
G03*
X35558Y31653I1J50D01*
G01*
X33686Y31714D02*
G03*
X33720Y31699I35J35D01*
G01*
X33597Y31813D02*
G03*
X33609Y31791I48J13D01*
G01*
X32888Y29149D02*
G03*
X32911Y29157I-5J50D01*
G01*
X36150Y29950D02*
G03*
X36237Y29914I87J87D01*
G01*
X36050Y30100D02*
G03*
X36085Y30015I121J0D01*
G01*
X18342Y24904D02*
G03*
X17850Y24700I0J-696D01*
G01*
X17821Y24671D02*
G03*
X17750Y24500I171J-171D01*
G01*
X17850Y23150D02*
G03*
X18178Y23014I328J328D01*
G01*
X17750Y23391D02*
G03*
X17850Y23150I341J0D01*
G01*
X39950Y32200D02*
G03*
X39850Y31959I241J-241D01*
G01*
X40350Y30109D02*
G03*
X40250Y30350I-341J0D01*
G01*
X39850Y30850D02*
G03*
X39921Y30679I241J0D01*
G01*
X39950Y32200D02*
G03*
X40200Y32804I-604J604D01*
G01*
X32896Y32467D02*
G03*
X32800Y32700I-329J0D01*
G01*
X30288Y35812D02*
G03*
X30800Y35600I512J512D01*
G01*
X32100Y34550D02*
G03*
X32221Y34500I121J121D01*
G01*
X29700Y37236D02*
G03*
X29407Y37943I-1000J0D01*
G01*
X29700Y36500D02*
G03*
X29771Y36329I241J0D01*
G01*
X30107Y35393D02*
G03*
X30814Y35100I707J707D01*
G01*
X33164Y36400D02*
G03*
X32457Y36107I0J-1000D01*
G01*
X26727Y32827D02*
G03*
X26550Y32400I427J-427D01*
G01*
X30923Y30859D02*
G03*
X30216Y30566I0J-1000D01*
G01*
X30550Y31250D02*
G03*
X31115Y31016I565J565D01*
G01*
X27443Y31607D02*
G03*
X26736Y31900I-707J-707D01*
G01*
X32412Y28496D02*
G03*
X32300Y28450I0J-159D01*
G01*
X30150Y29150D02*
G03*
X30291Y28809I483J0D01*
G01*
X30143Y29157D02*
G03*
X29436Y29450I-707J-707D01*
G01*
X35059Y28509D02*
G03*
X34944Y28231I278J-278D01*
G01*
X36050Y28600D02*
G03*
X36300Y28496I250J250D01*
G01*
X34052Y27409D02*
G03*
X34250Y27100I804J297D01*
G01*
X33999Y27706D02*
G03*
X34052Y27409I858J0D01*
G01*
X33526Y28486D02*
G03*
X33500Y28550I-90J0D01*
G01*
X35207Y34293D02*
G03*
X35914Y34000I707J707D01*
G01*
X34000Y35500D02*
G03*
X33879Y35550I-121J-121D01*
G01*
X41664Y37650D02*
G03*
X40957Y37357I0J-1000D01*
G01*
X46000Y35036D02*
G03*
X45707Y35743I-1000J0D01*
G01*
X44593Y36857D02*
G03*
X43886Y37150I-707J-707D01*
G01*
X39586Y36400D02*
G03*
X40293Y36693I0J1000D01*
G01*
X29814Y35500D02*
G03*
X29107Y35207I0J-1000D01*
G01*
X45396Y32750D02*
G03*
X46000Y33000I0J854D01*
G01*
X37350Y29400D02*
G03*
X37250Y29441I-100J-100D01*
G01*
X37100Y29250D02*
G03*
X37018Y29284I-82J-82D01*
G01*
X33200Y27500D02*
G03*
X33211Y27528I-28J28D01*
G01*
X32250Y18764D02*
G03*
X32543Y18057I1000J0D01*
G01*
X33700Y18836D02*
G03*
X33407Y19543I-1000J0D01*
G01*
X32650Y20512D02*
G03*
X32800Y20150I512J0D01*
G01*
X32950Y20914D02*
G03*
X33243Y20207I1000J0D01*
G01*
X34700Y18336D02*
G03*
X34407Y19043I-1000J0D01*
G01*
X35700Y18036D02*
G03*
X35407Y18743I-1000J0D01*
G01*
X32896Y28231D02*
G03*
X32750Y27877I354J-354D01*
G01*
X32950Y27750D02*
G03*
X33054Y28001I-251J251D01*
G01*
X34550Y28600D02*
G03*
X34471Y28410I190J-190D01*
G01*
X41281Y35682D02*
G03*
X40600Y35400I0J-964D01*
G01*
X34314Y27937D02*
G03*
X34350Y27850I124J0D01*
G01*
X34650Y28179D02*
G03*
X34629Y28231I-73J0D01*
G01*
X32050Y31950D02*
G03*
X32404Y31804I354J354D01*
G01*
X32150Y31650D02*
G03*
X32160Y31646I10J10D01*
G01*
X36382Y28053D02*
G03*
X36750Y27900I368J368D01*
G01*
X36237Y30386D02*
G03*
X36150Y30350I0J-124D01*
G01*
X34850Y28600D02*
G03*
X34786Y28446I154J-154D01*
G01*
X36085Y31625D02*
G03*
X36050Y31450I423J-175D01*
G01*
X32237Y30386D02*
G03*
X32150Y30350I0J-124D01*
G01*
X35574Y32272D02*
G03*
X35500Y32450I-251J0D01*
G01*
X32900Y29600D02*
G03*
X33000Y29841I-241J241D01*
G01*
X36469Y28969D02*
G03*
X36515Y28950I46J46D01*
G01*
X36469Y29126D02*
G03*
X36533Y29100I64J64D01*
G01*
X33000Y30800D02*
G03*
X32858Y30859I-142J-142D01*
G01*
X40600Y33800D02*
G03*
X41283Y33517I683J683D01*
G01*
X42950Y33750D02*
G03*
X42467Y33950I-483J-483D01*
G01*
X40907Y34243D02*
G03*
X41614Y33950I707J707D01*
G01*
X33350Y32115D02*
G03*
X33369Y32069I65J0D01*
G01*
X33200Y32097D02*
G03*
X33211Y32069I39J0D01*
G01*
X33200Y33000D02*
G03*
X33030Y33410I-579J0D01*
G01*
X33054Y32758D02*
G03*
X32850Y33250I-696J0D01*
G01*
D02*
G03*
X32609Y33350I-241J-241D01*
G01*
X32379Y33421D02*
G03*
X32550Y33350I171J171D01*
G01*
X32100Y33855D02*
G03*
X32040Y34000I-205J0D01*
G01*
X30936Y30200D02*
G03*
X31643Y30493I0J1000D01*
G01*
X31036Y30701D02*
G03*
X30550Y30500I0J-687D01*
G01*
X31253Y29441D02*
G03*
X30550Y29150I0J-995D01*
G01*
X25197Y24565D02*
G03*
X25250Y24693I-128J128D01*
G01*
X19473Y24589D02*
G03*
X19500Y24600I0J38D01*
G01*
X42198Y33000D02*
G03*
X42400Y33084I0J286D01*
G01*
X25101Y20501D02*
G03*
X25394Y21208I-707J707D01*
G01*
X29750Y34764D02*
G03*
X30043Y34057I1000J0D01*
G01*
X30671Y34000D02*
G03*
X30550Y33950I0J-171D01*
G01*
X31250Y39409D02*
G03*
X31150Y39650I-341J0D01*
G01*
X20950Y33500D02*
G03*
X20879Y33671I-241J0D01*
G01*
X37050Y28600D02*
X37400D01*
X36900Y28700D02*
X36950D01*
X37050Y28600D01*
X36789Y28811D02*
X36900Y28700D01*
X36788Y28654D02*
X36841Y28600D01*
X36469Y28654D02*
X36788D01*
X36841Y28600D02*
X36900D01*
X37100Y28400D01*
X36469Y28811D02*
X36789D01*
X25134Y26950D02*
X29800D01*
X29950Y26800D02*
X32900D01*
X29800Y26950D02*
X29950Y26800D01*
X25050Y27000D02*
X25084D01*
X25134Y26950D01*
X35525Y28627D02*
Y28650D01*
X35416Y28518D02*
X35525Y28627D01*
X35416Y28231D02*
Y28518D01*
X37000Y30250D02*
X37500D01*
X36322Y30071D02*
X36461D01*
X36469D01*
X36568D01*
X33050Y29296D02*
Y29450D01*
X32911Y29157D02*
X33050Y29296D01*
X28750Y39014D02*
Y39250D01*
X33559Y26608D02*
X33559Y26608D01*
X31400Y27143D02*
X32171D01*
X32171Y27143D01*
X33700Y26550D02*
X33850D01*
X32950Y27200D02*
Y27750D01*
X33325Y27100D02*
Y27125D01*
X33350Y27150D01*
X36558Y29075D02*
X37650D01*
X36549Y28916D02*
X37034D01*
X37100Y28850D01*
X36515Y28950D02*
X36549Y28916D01*
X36533Y29100D02*
X36558Y29075D01*
X37500Y29550D02*
X37700D01*
X37350Y29400D02*
X37500Y29550D01*
X37016Y31550D02*
X37050D01*
X36920Y31646D02*
X37016Y31550D01*
X36469Y31646D02*
X36920D01*
X37296Y31350D02*
X37475Y31529D01*
X36644Y31350D02*
X37296D01*
X36625Y31331D02*
X36644Y31350D01*
X36469Y31331D02*
X36625D01*
X36469Y31804D02*
X36998D01*
X37060Y31866D01*
X37036Y30714D02*
X37050Y30700D01*
X36886Y30714D02*
X37036D01*
X36469Y30859D02*
X36741D01*
X36886Y30714D01*
X36469Y31016D02*
X36734D01*
X37350Y30950D02*
X37550Y31150D01*
X36800Y30950D02*
X37350D01*
X36734Y31016D02*
X36800Y30950D01*
X37000Y31150D02*
X37050D01*
X33997Y32071D02*
Y32697D01*
X34000Y32700D01*
X33800Y32169D02*
Y33100D01*
X34700Y32450D02*
X34709Y32459D01*
X33997Y32071D02*
X33999Y32069D01*
X34471D02*
Y32239D01*
X34471Y32239D02*
X34471Y32239D01*
X34600Y32550D02*
X34850Y32800D01*
Y33009D01*
X36469Y31174D02*
X36943D01*
X24960Y37500D02*
X25279D01*
X26100Y37800D02*
X26257Y37957D01*
X26550Y38664D02*
Y38764D01*
X25950Y37750D02*
X26257Y38057D01*
X25150Y37700D02*
X25829D01*
X24960Y37657D02*
X25756D01*
X44650Y32750D02*
X45396D01*
X21662Y32700D02*
X22050D01*
X23750Y34500D02*
X23810Y34440D01*
X18178Y23014D02*
X18642D01*
X18342Y24904D02*
X18642D01*
X19168D01*
X19500Y24600D02*
X19600D01*
X22600Y34927D02*
Y35100D01*
X23570Y37815D02*
X23740D01*
X26550Y38764D02*
Y39700D01*
X24009Y32874D02*
X24795Y32088D01*
X31650Y30500D02*
X31650Y30500D01*
X31643Y30493D02*
X31650Y30500D01*
X21091Y32609D02*
X21200Y32500D01*
X19250Y35300D02*
X20879Y33671D01*
X21747Y36650D02*
X23300D01*
X24035Y38110D02*
Y38364D01*
X32175Y28969D02*
X32631D01*
X31621Y29250D02*
X32200D01*
X32326Y29145D02*
X32612D01*
X32236Y29235D02*
X32326Y29145D01*
X30550Y28300D02*
X31415Y29165D01*
X32612Y29145D02*
X32631Y29126D01*
X36469Y30229D02*
X36699D01*
X36821Y30421D02*
X36821Y30421D01*
X36750Y30250D02*
X36821Y30421D01*
X37012Y30500D02*
X37229D01*
X37482Y30395D02*
X37482Y30395D01*
X37482D02*
X37496Y30381D01*
X37496Y30381D01*
X37594Y30341D02*
X38409Y30341D01*
X38450Y30300D01*
X37500Y30250D02*
X38150Y29600D01*
X36326Y29756D02*
X36469D01*
X36800Y29850D02*
X36859Y29909D01*
X33163Y27448D02*
Y27462D01*
X33200Y27500D01*
X33369Y27196D02*
Y28231D01*
X41850Y30525D02*
Y31357D01*
X41725Y30450D02*
X41775D01*
X41725Y30300D02*
X41975D01*
X41725Y30150D02*
X41975D01*
X41725Y30000D02*
X41975D01*
X41725Y29850D02*
X41975D01*
X41725Y29700D02*
X41775D01*
X41850Y29600D02*
Y29625D01*
Y29214D02*
Y29600D01*
X41450Y28400D02*
X41557Y28507D01*
X39300Y28150D02*
X40846D01*
X41951Y31601D02*
X42879Y32529D01*
X43100Y33062D02*
Y33500D01*
X41150Y33000D02*
X42198D01*
X41250Y36200D02*
X42196D01*
X41614Y33950D02*
X42400D01*
X41613Y34837D02*
X42380D01*
X41600Y34850D02*
X41613Y34837D01*
X42380D02*
X42400Y34816D01*
X23385Y37185D02*
X23740D01*
X25600Y41600D02*
X28786D01*
X24323Y42877D02*
X25600Y41600D01*
X29043Y38307D02*
X29407Y37943D01*
X34850Y26071D02*
Y26600D01*
X35574Y25850D02*
Y25950D01*
X35259Y26621D02*
Y28231D01*
X35250Y26600D02*
X35299Y26551D01*
X35229Y26621D02*
X35250Y26600D01*
X31664Y25200D02*
X35900D01*
X36079Y25379D01*
X35574Y27764D02*
Y28231D01*
Y28231D01*
X35101Y27206D02*
Y28231D01*
X35416Y27773D02*
Y28231D01*
X35259D02*
Y28259D01*
X34826Y25976D02*
X34874Y26024D01*
X35600Y27700D02*
X35683Y27617D01*
X36047Y26903D02*
X36053Y26897D01*
X36300Y25912D02*
Y26300D01*
X26352Y26250D02*
X26352D01*
X29786D01*
X30493Y25957D02*
X30957Y25493D01*
X35731Y28231D02*
X35750Y27850D01*
X36456Y26894D02*
X37407Y25943D01*
X36150Y27400D02*
X36315Y27235D01*
X35889Y28031D02*
Y28231D01*
X36046Y28001D02*
Y28231D01*
X36150Y27750D02*
X36200Y27700D01*
X33841Y27354D02*
Y28231D01*
X33684Y27502D02*
Y28231D01*
X40200Y34550D02*
Y35250D01*
Y35400D01*
X40500Y34950D02*
X40650D01*
X40200Y35250D02*
X40500Y34950D01*
X40650D02*
X41100Y34500D01*
X42083Y34383D02*
X42400D01*
X41966Y34500D02*
X42083Y34383D01*
X41100Y34500D02*
X41966D01*
X23888Y38257D02*
X24035Y38110D01*
X24210Y37640D02*
Y38093D01*
Y37640D02*
X24350Y37500D01*
X24193Y38110D02*
X24210Y38093D01*
X35854Y31781D02*
X35854Y31781D01*
X35558Y31653D02*
X35820Y31740D01*
X35558Y31653D02*
Y31653D01*
X33720Y31699D02*
X35541Y31650D01*
X33720Y31699D02*
X33720Y31699D01*
X33369Y32069D02*
X33526D01*
X33597Y31813D01*
X33609Y31791D02*
X33686Y31714D01*
X33609Y31791D02*
X33609Y31791D01*
X35854Y31781D02*
X35889Y32069D01*
X32631Y29126D02*
X32888Y29149D01*
X36237Y29914D02*
X36469D01*
X36100Y29800D02*
X36469Y29914D01*
X36050Y30100D02*
Y31450D01*
X36085Y30015D02*
X36150Y29950D01*
X38700Y29600D02*
X38850Y29850D01*
X32950Y27750D02*
X32950Y27750D01*
X32750Y27450D02*
Y27877D01*
X18642Y22896D02*
Y23014D01*
X17821Y24671D02*
X17850Y24700D01*
X17750Y23391D02*
Y24500D01*
X18642Y24786D02*
Y24904D01*
X40350Y30050D02*
Y30109D01*
X39921Y30679D02*
X40250Y30350D01*
X39850Y30850D02*
Y31959D01*
X40200Y32804D02*
Y33000D01*
X33600Y32581D02*
X33637Y32544D01*
X33600Y32581D02*
Y32600D01*
X33637Y32261D02*
Y32544D01*
X29771Y36329D02*
X30288Y35812D01*
X29700Y36500D02*
Y37236D01*
X31450Y35100D02*
X32457Y36107D01*
X30814Y35100D02*
X31450D01*
X29750Y34764D02*
Y35000D01*
X26727Y32827D02*
X29107Y35207D01*
X25250Y31900D02*
X26736D01*
X32631Y30859D02*
X32858D01*
X30923D02*
X32631D01*
X30150Y30500D02*
X30216Y30566D01*
X31115Y31016D02*
X32631D01*
X30550Y31250D02*
Y31800D01*
Y32350D01*
X27443Y31607D02*
X28850Y30200D01*
X30936D01*
X32412Y28496D02*
X32631D01*
X32650Y20512D02*
Y20750D01*
X30143Y29157D02*
X30150Y29150D01*
X30291Y28809D02*
X30300Y28800D01*
X29000Y29450D02*
X29436D01*
X35059Y28509D02*
X35150Y28600D01*
X22500Y29600D02*
X23200Y28900D01*
X29000Y28500D02*
X29350D01*
X32200Y35550D02*
X33879D01*
X35914Y34000D02*
X36150D01*
X34000Y35500D02*
X35207Y34293D01*
X31250Y35950D02*
Y39409D01*
X28000Y39700D02*
X28500D01*
X27600D02*
X28000D01*
X43650Y37150D02*
X43886D01*
X41664Y37650D02*
X43150D01*
X40293Y36693D02*
X40957Y37357D01*
X44593Y36857D02*
X45707Y35743D01*
X33164Y36400D02*
X39586D01*
X30000Y35500D02*
X30107Y35393D01*
X29814Y35500D02*
X30000D01*
X46000Y33000D02*
Y35036D01*
X43150Y37650D02*
X43650Y37150D01*
X33526Y28231D02*
Y28486D01*
X33211Y27528D02*
Y28231D01*
X32543Y18057D02*
X32700Y17900D01*
X32250Y18764D02*
Y21150D01*
X33700Y17900D02*
Y18836D01*
X32800Y20150D02*
X33407Y19543D01*
X33243Y20207D02*
X34407Y19043D01*
X34700Y17900D02*
Y18336D01*
X32950Y20914D02*
Y21200D01*
X33350Y20800D02*
X35407Y18743D01*
X35700Y17900D02*
Y18036D01*
X33999Y27706D02*
Y28231D01*
X33054Y28001D02*
Y28231D01*
X41281Y35682D02*
X42400D01*
X34314Y27937D02*
Y28231D01*
X36050Y31450D02*
X36050Y31450D01*
X36085Y31625D02*
X36184Y31865D01*
X36150Y30200D02*
Y30350D01*
X36469Y29441D02*
X37250D01*
X36300Y28496D02*
X36469D01*
X36204Y28231D02*
X36382Y28053D01*
X32404Y31804D02*
X32631D01*
X36469Y30386D02*
X36469Y30386D01*
Y29284D02*
X37018D01*
X36469Y29599D02*
X36470Y29600D01*
X33637Y32261D02*
X33684Y32213D01*
X32631Y29599D02*
X32899D01*
X33000Y29841D02*
Y30800D01*
X36469Y30386D02*
Y30544D01*
X36237Y30386D02*
X36469D01*
X33684Y32069D02*
Y32213D01*
X36184Y32050D02*
X36204Y32069D01*
X34629D02*
Y32278D01*
X36184Y31865D02*
Y32050D01*
X36469Y29756D02*
X36574D01*
X36469Y30544D02*
Y30701D01*
X36470Y29600D02*
X37100D01*
X35574Y32069D02*
Y32272D01*
X32237Y30386D02*
X32631D01*
X34786Y28231D02*
Y28446D01*
X32899Y29599D02*
X32900Y29600D01*
X34156Y28231D02*
Y28495D01*
X34471Y28231D02*
Y28410D01*
X32896Y32069D02*
Y32467D01*
X34650Y27850D02*
Y28179D01*
X32160Y31646D02*
X32631D01*
X31755Y30544D02*
X32631D01*
X40600Y34550D02*
X40907Y34243D01*
X41283Y33517D02*
X42400D01*
X40600Y36200D02*
X41250D01*
X40600Y33000D02*
X41150D01*
X42950Y33750D02*
X43029Y33671D01*
X42400Y33950D02*
X42467D01*
X38114Y25650D02*
X41550D01*
X33350Y32115D02*
Y33950D01*
X33200Y32097D02*
Y33000D01*
X32440Y34000D02*
X33030Y33410D01*
X33054Y32069D02*
Y32758D01*
X32550Y33350D02*
X32609D01*
X30671Y34000D02*
X32040D01*
X32100Y33700D02*
X32379Y33421D01*
X32100Y33700D02*
Y33855D01*
X30043Y34057D02*
X30150Y33950D01*
Y32350D02*
Y33950D01*
Y30500D02*
Y31250D01*
Y31800D01*
Y32350D01*
X31036Y30701D02*
X32631D01*
X31253Y29441D02*
X32631D01*
X38850Y28500D02*
Y29000D01*
X29000Y28500D02*
Y29050D01*
X40200Y35400D02*
Y36200D01*
Y33800D02*
Y34550D01*
Y33000D02*
Y33800D01*
X33350Y33950D02*
Y34500D01*
X32221D02*
X33350D01*
X24517Y34147D02*
X24700D01*
X29000Y29050D02*
Y29450D01*
X25250Y26350D02*
X25450Y26550D01*
X25250Y24693D02*
Y26350D01*
X25000Y24565D02*
Y25800D01*
X18642Y23408D02*
X19510D01*
X18642Y24589D02*
X19473D01*
X38450Y28500D02*
Y29000D01*
Y29850D01*
Y30300D01*
X38850Y29850D02*
Y30300D01*
Y31050D01*
Y31500D01*
X36150Y33996D02*
Y34000D01*
Y33996D02*
X36250Y33896D01*
Y32261D02*
Y33896D01*
X36204Y32214D02*
X36250Y32261D01*
X36204Y32069D02*
Y32214D01*
X25000Y20400D02*
X25101Y20501D01*
X25394Y21208D02*
Y22735D01*
X29493Y41307D02*
X31150Y39650D01*
X20950Y32950D02*
Y33500D01*
X28500Y39700D02*
X29000D01*
D45*
X39950Y27900D02*
G03*
X39779Y27829I0J-241D01*
G01*
X34226Y32528D02*
G03*
X34250Y32650I-296J122D01*
G01*
X34202Y32492D02*
G03*
X34226Y32528I-77J77D01*
G01*
X34495Y32717D02*
G03*
X34600Y32971I-255J253D01*
G01*
X34495Y32717D02*
G03*
X34350Y32500I472J-473D01*
G01*
D02*
G03*
X34314Y32318I439J-182D01*
G01*
X20747Y23353D02*
G03*
X20150Y23600I-597J-597D01*
G01*
X21265Y22835D02*
G03*
X21350Y22800I85J85D01*
G01*
X29407Y25143D02*
G03*
X30114Y24850I707J707D01*
G01*
X38245Y28213D02*
G03*
X38210Y28202I269J-963D01*
G01*
X37456Y27723D02*
G03*
X37573Y27723I58J58D01*
G01*
X37456Y27723D02*
G03*
X37340Y27723I-58J-58D01*
G01*
D02*
G03*
X37340Y27606I58J-58D01*
G01*
X37479Y27350D02*
G03*
X37479Y27467I-58J58D01*
G01*
X37362Y27350D02*
G03*
X37479Y27350I58J58D01*
G01*
X37198Y27514D02*
G03*
X37082Y27514I-58J-58D01*
G01*
D02*
G03*
X37082Y27398I58J-58D01*
G01*
X37106Y27256D02*
G03*
X37106Y27373I-58J58D01*
G01*
X38514Y28250D02*
G03*
X38245Y28213I0J-1000D01*
G01*
X26096Y27933D02*
G03*
X26178Y27850I82J0D01*
G01*
X26096Y28038D02*
G03*
X25931Y28038I-82J0D01*
G01*
X25766Y27933D02*
G03*
X25931Y27933I82J0D01*
G01*
X25766Y28068D02*
G03*
X25601Y28068I-82J0D01*
G01*
X25436Y27933D02*
G03*
X25601Y27933I82J0D01*
G01*
X25436Y28068D02*
G03*
X25271Y28068I-82J0D01*
G01*
X25188Y27850D02*
G03*
X25271Y27933I0J82D01*
G01*
X25156Y27850D02*
G03*
X24389Y27532I0J-1085D01*
G01*
X20621Y24050D02*
G03*
X21109Y24252I0J690D01*
G01*
X37850Y26000D02*
G03*
X38021Y26071I0J241D01*
G01*
X39000Y28250D02*
G03*
X39171Y28321I0J241D01*
G01*
X33066Y28634D02*
G03*
X32973Y28672I-93J-93D01*
G01*
X32914Y28676D02*
G03*
X32905Y28680I-9J-9D01*
G01*
X32827D02*
G03*
X32795Y28667I0J-45D01*
G01*
X35750Y32450D02*
G03*
X35731Y32404I46J-46D01*
G01*
X32498Y28811D02*
G03*
X32466Y28798I0J-45D01*
G01*
X32764Y28654D02*
G03*
X32795Y28667I0J45D01*
G01*
X32197Y28785D02*
G03*
X32006Y28706I0J-271D01*
G01*
X32914Y28676D02*
G03*
X32923Y28672I9J9D01*
G01*
X32435Y28785D02*
G03*
X32466Y28798I0J45D01*
G01*
Y28667D02*
G03*
X32498Y28654I32J32D01*
G01*
X32219Y28680D02*
G03*
X32176Y28664I0J-65D01*
G01*
X32466Y28667D02*
G03*
X32435Y28680I-32J-32D01*
G01*
X20621Y24050D02*
G03*
X20500Y24000I0J-171D01*
G01*
X20278Y23847D02*
G03*
X20397Y23897I0J169D01*
G01*
X19161Y23847D02*
G03*
X19106Y23825I0J-78D01*
G01*
X19051Y23802D02*
G03*
X19106Y23825I0J78D01*
G01*
X25156Y27745D02*
G03*
X24555Y27539I0J-980D01*
G01*
D02*
G03*
X24462Y27457I615J-789D01*
G01*
X20753Y23850D02*
G03*
X21175Y24025I0J597D01*
G01*
X19106Y23975D02*
G03*
X19051Y23998I-55J-55D01*
G01*
X20100Y23953D02*
G03*
X20201Y23982I-0J187D01*
G01*
X19106Y23975D02*
G03*
X19161Y23953I55J55D01*
G01*
X26867Y23650D02*
G03*
X27350Y23850I0J683D01*
G01*
X27200Y23250D02*
G03*
X26710Y23453I-490J-490D01*
G01*
X20041Y24300D02*
G03*
X19800Y24200I0J-341D01*
G01*
X18654D02*
G03*
X18642Y24195I0J-16D01*
G01*
X33050Y28930D02*
Y28950D01*
X32975Y28855D02*
X33050Y28930D01*
X38021Y26071D02*
X39779Y27829D01*
X34156Y32069D02*
Y32382D01*
X34202Y32492D01*
X34226Y32528D02*
X34226Y32528D01*
X34250Y32650D02*
Y32900D01*
X34314Y32069D02*
Y32318D01*
X34314Y32318D02*
X34314Y32318D01*
X34600Y32971D02*
X34600Y32971D01*
Y33000D01*
X25850Y26550D02*
X26007Y26393D01*
X20747Y23353D02*
X21265Y22835D01*
X29150Y25400D02*
X29407Y25143D01*
X30114Y24850D02*
X35950D01*
X32498Y28811D02*
X32631D01*
X32975Y28855D01*
X37807Y27957D02*
X38210Y28202D01*
X37573Y27723D02*
X37807Y27957D01*
X37456Y27723D02*
X37456Y27723D01*
X37340Y27606D02*
X37479Y27467D01*
X37479Y27350D02*
X37479Y27350D01*
X37198Y27514D02*
X37362Y27350D01*
X37082Y27398D02*
X37106Y27373D01*
X37106Y27373D02*
X37106Y27373D01*
X36850Y27000D02*
X37106Y27256D01*
X39171Y28321D02*
X39650Y28800D01*
X26178Y27850D02*
X27400D01*
X26096Y27933D02*
Y28038D01*
X25931Y27933D02*
Y28038D01*
X25766Y27933D02*
Y28068D01*
X25601Y27933D02*
Y28068D01*
X25436Y27933D02*
Y28068D01*
X25271Y27933D02*
Y28068D01*
X25156Y27850D02*
X25188D01*
X27400D02*
X31150D01*
X38514Y28250D02*
X39000D01*
X33066Y28634D02*
X33100Y28600D01*
X36050Y32073D02*
Y32450D01*
X36046Y32069D02*
X36050Y32073D01*
X32631Y28654D02*
X32764D01*
X35731Y32069D02*
Y32404D01*
X32827Y28680D02*
X32905D01*
X32197Y28785D02*
X32435D01*
X32923Y28672D02*
X32973D01*
X32006Y28706D02*
X32006Y28706D01*
X31193Y27745D02*
X31650Y28201D01*
X25156Y27745D02*
X31193D01*
X31650Y28201D02*
X31651Y28203D01*
X31150Y27850D02*
X32006Y28706D01*
X31651Y28203D02*
X32176Y28664D01*
X21109Y24252D02*
X22153Y25297D01*
X32219Y28680D02*
X32435D01*
X20397Y23897D02*
X20500Y24000D01*
X19161Y23847D02*
X20278D01*
X18642Y23802D02*
X19051D01*
X21453Y24448D02*
X24462Y27457D01*
X20600Y23850D02*
X20753D01*
X18642Y23998D02*
X19051D01*
X19161Y23953D02*
X20100D01*
X32498Y28654D02*
X32631D01*
X23978Y27122D02*
X24389Y27532D01*
X22153Y25297D02*
X23978Y27122D01*
X21263Y24113D02*
X21453Y24448D01*
X21175Y24025D02*
X21263Y24113D01*
X25915Y23453D02*
X26710D01*
X25915Y23650D02*
X26867D01*
X20041Y24300D02*
X20500D01*
X18654Y24200D02*
X19800D01*
X18647Y23600D02*
X20150D01*
X18642Y23605D02*
X18647Y23600D01*
D46*
X23586Y37650D02*
G03*
X23400Y37550I74J-359D01*
G01*
X23659Y37657D02*
G03*
X23586Y37650I0J-367D01*
G01*
X23740Y37343D02*
Y37500D01*
X23659Y37657D02*
X23740D01*
D47*
X27436Y34500D02*
G03*
X28143Y34793I0J1000D01*
G01*
X28597Y37161D02*
G03*
X27900Y37450I-697J-697D01*
G01*
X28550Y35200D02*
G03*
X28597Y35315I-115J115D01*
G01*
X25400Y20400D02*
G03*
X25591Y20860I-460J460D01*
G01*
X25261Y20050D02*
G03*
X25400Y20385I-335J335D01*
G01*
X22793Y20343D02*
G03*
X23500Y20050I707J707D01*
G01*
X20533Y22603D02*
G03*
X20003Y22880I-707J-707D01*
G01*
D02*
G03*
X19826Y22896I-177J-984D01*
G01*
X21627Y34794D02*
G03*
X21500Y35100I-432J0D01*
G01*
X22673Y34923D02*
G03*
X22600Y35100I-251J0D01*
G01*
X21792Y38108D02*
G03*
X22499Y37815I707J707D01*
G01*
X27364Y40100D02*
G03*
X26657Y39807I0J-1000D01*
G01*
X23589Y32700D02*
G03*
X24009Y32874I0J594D01*
G01*
Y32126D02*
G03*
X24072Y32100I63J63D01*
G01*
X22600Y32300D02*
G03*
X23020Y32126I420J420D01*
G01*
X20407Y32593D02*
G03*
X21114Y32300I707J707D01*
G01*
X19250Y34164D02*
G03*
X19543Y33457I1000J0D01*
G01*
X20100Y37664D02*
G03*
X20393Y36957I1000J0D01*
G01*
X25400Y37450D02*
X27900D01*
X27100Y34500D02*
X27436D01*
X28597Y35315D02*
Y37161D01*
X28143Y34793D02*
X28550Y35200D01*
X25591Y22735D02*
X25915Y23059D01*
X25591Y22735D02*
X25591Y22735D01*
Y20860D02*
Y22735D01*
X25400Y20385D02*
Y20400D01*
X23500Y20050D02*
X25261D01*
X20533Y22603D02*
X22793Y20343D01*
X18642Y22896D02*
X19826D01*
X22499Y37815D02*
X23570D01*
X21750Y38150D02*
X21792Y38108D01*
X26550Y39700D02*
X26657Y39807D01*
X27364Y40100D02*
X27600D01*
X24700Y35053D02*
Y36805D01*
X24991Y32500D02*
X25650D01*
X22600Y32700D02*
X23589D01*
X22050D02*
X22600D01*
X23020Y32126D02*
X24009D01*
X24072Y32100D02*
X24400D01*
X22050Y32300D02*
X22600D01*
X21683D02*
X22050D01*
X21114D02*
X21683D01*
X19543Y33457D02*
X20407Y32593D01*
X19250Y34164D02*
Y35300D01*
X21627Y34750D02*
Y34794D01*
X22673Y34750D02*
Y34923D01*
X20393Y36957D02*
X20600Y36750D01*
X20100Y37664D02*
Y38650D01*
X21950Y40000D02*
Y40300D01*
D48*
X31650Y30500D02*
D03*
X35550Y27450D02*
D03*
D49*
X32006Y28706D02*
D03*
X20397Y23897D02*
D03*
X21175Y24025D02*
D03*
D50*
X26700Y17900D02*
D03*
X20350Y30300D02*
D03*
X25700Y17900D02*
D03*
X24700D02*
D03*
X27700D02*
D03*
X38700D02*
D03*
X40700D02*
D03*
X39700D02*
D03*
X20350Y31300D02*
D03*
X32210Y43150D02*
D03*
X27210D02*
D03*
X28210D02*
D03*
X26210D02*
D03*
X24210D02*
D03*
X25210D02*
D03*
X29210D02*
D03*
X31210D02*
D03*
X30210D02*
D03*
X32700Y17900D02*
D03*
X28700D02*
D03*
X29700D02*
D03*
X31700D02*
D03*
X30700D02*
D03*
X39210Y43150D02*
D03*
X40210D02*
D03*
X38210D02*
D03*
X41700Y17900D02*
D03*
X36700D02*
D03*
X37700D02*
D03*
X35700D02*
D03*
X33700D02*
D03*
X34700D02*
D03*
X34210Y43150D02*
D03*
X33210D02*
D03*
X35210D02*
D03*
X37210D02*
D03*
X36210D02*
D03*
X41210D02*
D03*
D51*
X18033Y25603D02*
D03*
Y22197D02*
D03*
D52*
X16458Y25603D02*
D03*
Y22197D02*
D03*
D53*
X17836Y22762D02*
D03*
Y25038D02*
D03*
D54*
X45161Y33185D02*
D03*
Y35115D02*
D03*
D55*
X37100Y28400D02*
D03*
X33050Y28950D02*
D03*
X24500Y37600D02*
D03*
Y37300D02*
D03*
X34500Y26050D02*
D03*
X34800Y25450D02*
D03*
X34500D02*
D03*
X35050D02*
D03*
X34400Y25700D02*
D03*
X29694Y26744D02*
D03*
X29200Y26750D02*
D03*
X35525Y28650D02*
D03*
X33050Y29450D02*
D03*
X23000Y35850D02*
D03*
X28750Y39250D02*
D03*
X39950Y27900D02*
D03*
X33850Y28850D02*
D03*
X33300Y30900D02*
D03*
X34000Y30800D02*
D03*
X34100Y31300D02*
D03*
X32950Y27200D02*
D03*
X33325Y27100D02*
D03*
X33850Y26550D02*
D03*
X37100Y28850D02*
D03*
X37400Y28600D02*
D03*
X37650Y29075D02*
D03*
X37700Y29550D02*
D03*
X37475Y31529D02*
D03*
X37050Y31550D02*
D03*
X37060Y31866D02*
D03*
X37050Y31150D02*
D03*
Y30700D02*
D03*
X37550Y31150D02*
D03*
X34000Y32700D02*
D03*
X33800Y33100D02*
D03*
X35050Y32600D02*
D03*
X34600Y33000D02*
D03*
X34250Y32900D02*
D03*
X34750Y33250D02*
D03*
X32900Y26800D02*
D03*
X21300Y32850D02*
D03*
X21350Y22800D02*
D03*
X19400Y25000D02*
D03*
X19600Y24600D02*
D03*
X19650Y23350D02*
D03*
X22600Y35100D02*
D03*
X22300Y38200D02*
D03*
X29150Y25400D02*
D03*
X29700Y26000D02*
D03*
X29750Y25450D02*
D03*
X34850Y27300D02*
D03*
X34450Y26650D02*
D03*
X35850Y26450D02*
D03*
X34600Y26850D02*
D03*
X35850Y25500D02*
D03*
X36000Y25750D02*
D03*
X19200Y38950D02*
D03*
X19650Y39100D02*
D03*
X28000Y39400D02*
D03*
X28400Y39250D02*
D03*
X23850Y38450D02*
D03*
X32100Y29000D02*
D03*
X35300Y30300D02*
D03*
X34400Y30400D02*
D03*
X33800Y30450D02*
D03*
X33450Y30200D02*
D03*
X35050Y29900D02*
D03*
X35500Y30550D02*
D03*
X35100Y30700D02*
D03*
X35500Y30850D02*
D03*
X37000Y30250D02*
D03*
X33163Y27448D02*
D03*
X39650Y28800D02*
D03*
X34750Y31250D02*
D03*
X34700Y30800D02*
D03*
X35150Y31050D02*
D03*
X35500Y31200D02*
D03*
X21500Y35100D02*
D03*
X34450Y26388D02*
D03*
X35600Y26650D02*
D03*
X35300Y25450D02*
D03*
X35650D02*
D03*
X35475D02*
D03*
X35950Y26200D02*
D03*
X36000Y25950D02*
D03*
X35550Y27450D02*
D03*
X35750Y27850D02*
D03*
X25650Y32500D02*
D03*
X26200Y31150D02*
D03*
X26550Y32400D02*
D03*
X25150Y29300D02*
D03*
X34050Y26850D02*
D03*
X35950Y24850D02*
D03*
X29800Y35850D02*
D03*
X41600Y34850D02*
D03*
X24650Y23350D02*
D03*
X25300D02*
D03*
X24950D02*
D03*
X24700Y23650D02*
D03*
X25000D02*
D03*
X25300D02*
D03*
X24750Y23950D02*
D03*
X25250D02*
D03*
X34700Y29800D02*
D03*
X36100D02*
D03*
X38150Y29600D02*
D03*
X38700D02*
D03*
X33700Y29900D02*
D03*
X33650Y30750D02*
D03*
X33550Y31150D02*
D03*
X37850Y26000D02*
D03*
X40050Y29700D02*
D03*
X36850Y27000D02*
D03*
X32750Y27450D02*
D03*
X31400Y27143D02*
D03*
X40350Y30050D02*
D03*
X32800Y32700D02*
D03*
X32350Y32750D02*
D03*
X32100Y34550D02*
D03*
X33600Y32600D02*
D03*
X30800Y35600D02*
D03*
X21800Y29050D02*
D03*
X24200Y31450D02*
D03*
X24400Y32100D02*
D03*
X32300Y28450D02*
D03*
Y28150D02*
D03*
X30300Y28800D02*
D03*
X35150Y28600D02*
D03*
X33600Y27300D02*
D03*
X22500Y29600D02*
D03*
X23200Y28900D02*
D03*
X25050Y27000D02*
D03*
X34250Y27100D02*
D03*
X29350Y28500D02*
D03*
X33100Y28600D02*
D03*
X33500Y28550D02*
D03*
X32200Y35550D02*
D03*
X31250Y35950D02*
D03*
X32100Y34900D02*
D03*
X31800Y34850D02*
D03*
X44650Y32750D02*
D03*
X37100Y29250D02*
D03*
X33350Y20800D02*
D03*
X34001Y21250D02*
D03*
X33600Y21200D02*
D03*
X32950D02*
D03*
X32650Y20750D02*
D03*
X32250Y21150D02*
D03*
X34700Y20900D02*
D03*
X34550Y28600D02*
D03*
X36050D02*
D03*
X34200D02*
D03*
X37100Y29600D02*
D03*
X36050Y32450D02*
D03*
X34350Y27850D02*
D03*
X35750Y32450D02*
D03*
X32150Y30350D02*
D03*
X36750Y27900D02*
D03*
X35500Y32450D02*
D03*
X34850Y28600D02*
D03*
X32050Y31950D02*
D03*
X32150Y31650D02*
D03*
X34650Y27850D02*
D03*
X36200Y27700D02*
D03*
X41200Y35650D02*
D03*
X41250Y36200D02*
D03*
X41150Y33500D02*
D03*
Y33000D02*
D03*
X39300Y28150D02*
D03*
X41550Y25650D02*
D03*
X24350Y36600D02*
D03*
X24100D02*
D03*
X31800Y34600D02*
D03*
X27850Y35200D02*
D03*
X27500D02*
D03*
X27100D02*
D03*
X26150Y34150D02*
D03*
X25900Y34000D02*
D03*
X23750Y34500D02*
D03*
X21950Y40000D02*
D03*
X25550Y34150D02*
D03*
X29000Y29450D02*
D03*
X20250Y24025D02*
D03*
X20600Y23850D02*
D03*
X25000Y25800D02*
D03*
X27200Y23250D02*
D03*
X27350Y23850D02*
D03*
X29750Y35000D02*
D03*
X20100Y38650D02*
D03*
X20500Y24300D02*
D03*
X46634Y35891D02*
D03*
Y32749D02*
D03*
D56*
X22100Y37600D02*
G03*
X22221Y37550I121J121D01*
G01*
X20907Y37893D02*
G03*
X21614Y37600I707J707D01*
G01*
X27743Y40807D02*
G03*
X27036Y41100I-707J-707D01*
G01*
X28000Y40196D02*
G03*
X27750Y40800I-854J0D01*
G01*
X21207Y36143D02*
G03*
X21914Y35850I707J707D01*
G01*
X20250Y39304D02*
G03*
X20500Y38700I854J0D01*
G01*
X22091Y38409D02*
G03*
X21750Y38550I-341J-341D01*
G01*
X23995Y38510D02*
G03*
X23850Y38450I0J-205D01*
G01*
X23850Y38450D02*
G03*
X23609Y38550I-241J-241D01*
G01*
X23747Y40250D02*
G03*
X23197Y40800I-550J0D01*
G01*
X24354Y40857D02*
G03*
X24348Y40851I596J-609D01*
G01*
X24950Y41100D02*
G03*
X24354Y40857I0J-852D01*
G01*
X21600Y40800D02*
G03*
X21100Y40300I0J-500D01*
G01*
X21914Y35850D02*
X23000D01*
X22221Y37550D02*
X23400D01*
X21614Y37600D02*
X22100D01*
X20900Y37900D02*
X20907Y37893D01*
X28000Y39700D02*
Y40196D01*
X27743Y40807D02*
X27750Y40800D01*
X20900Y37900D02*
Y38700D01*
X20600Y36750D02*
X21207Y36143D01*
X22091Y38409D02*
X22300Y38200D01*
X21750Y38550D02*
X23181D01*
X23995Y38510D02*
X24429D01*
X23181Y38550D02*
X23609D01*
X24429Y38110D02*
Y38510D01*
X20250Y39304D02*
Y40300D01*
X23747Y40250D02*
X24348Y40851D01*
X24950Y41100D02*
X27036D01*
X28000Y39400D02*
Y39700D01*
X21600Y40800D02*
X23197D01*
D57*
X23850Y38450D02*
D03*
D58*
X34600Y26750D02*
D03*
D59*
X35548Y25950D02*
D03*
X35174D02*
D03*
D60*
X34800Y25950D02*
D03*
D61*
X32631Y28496D02*
D03*
Y28811D02*
D03*
Y28654D02*
D03*
Y29284D02*
D03*
Y29126D02*
D03*
Y28969D02*
D03*
Y29599D02*
D03*
Y29441D02*
D03*
Y30386D02*
D03*
Y30701D02*
D03*
Y30544D02*
D03*
Y29756D02*
D03*
Y30071D02*
D03*
Y29914D02*
D03*
Y30859D02*
D03*
Y31174D02*
D03*
Y31016D02*
D03*
Y31489D02*
D03*
Y31331D02*
D03*
Y31646D02*
D03*
Y30229D02*
D03*
Y31804D02*
D03*
X36469Y28496D02*
D03*
X36469Y29126D02*
D03*
Y28969D02*
D03*
X36469Y28811D02*
D03*
Y28654D02*
D03*
Y29284D02*
D03*
Y29599D02*
D03*
Y29441D02*
D03*
Y29914D02*
D03*
Y29756D02*
D03*
Y30229D02*
D03*
X36469Y30859D02*
D03*
Y30544D02*
D03*
X36469Y30386D02*
D03*
Y30071D02*
D03*
Y31016D02*
D03*
Y30701D02*
D03*
X36469Y31174D02*
D03*
X36469Y31489D02*
D03*
Y31331D02*
D03*
Y31804D02*
D03*
Y31646D02*
D03*
D62*
X32896Y28231D02*
D03*
X33054D02*
D03*
X33684D02*
D03*
X33211D02*
D03*
X33369D02*
D03*
X33526Y28231D02*
D03*
X33999Y28231D02*
D03*
X34314D02*
D03*
X33841Y28231D02*
D03*
X34156D02*
D03*
X33211Y32069D02*
D03*
X33369D02*
D03*
X32896D02*
D03*
X33054D02*
D03*
X33684D02*
D03*
X33526D02*
D03*
X34156D02*
D03*
X34314D02*
D03*
X33841D02*
D03*
X33999D02*
D03*
X34786Y28231D02*
D03*
X34471D02*
D03*
X34629D02*
D03*
X35259D02*
D03*
X34944D02*
D03*
X35101D02*
D03*
X35416D02*
D03*
X35574Y28231D02*
D03*
X36046Y28231D02*
D03*
X36204D02*
D03*
X35731Y28231D02*
D03*
X35889Y28231D02*
D03*
X34471Y32069D02*
D03*
X34629D02*
D03*
X35101D02*
D03*
X34786D02*
D03*
X34944D02*
D03*
X35574D02*
D03*
X35259D02*
D03*
X35416D02*
D03*
X36046D02*
D03*
X36204D02*
D03*
X35731D02*
D03*
X35889D02*
D03*
D63*
X34550Y30150D02*
D03*
D64*
X24507Y38110D02*
D03*
X24350D02*
D03*
X24507Y36890D02*
D03*
X24350D02*
D03*
X24193D02*
D03*
X24035Y38110D02*
D03*
Y36890D02*
D03*
X24193Y38110D02*
D03*
X24665Y36890D02*
D03*
Y38110D02*
D03*
D65*
X22673Y34750D02*
D03*
X21627D02*
D03*
D66*
X46476Y37121D02*
D03*
Y30699D02*
D03*
D67*
X42697Y37121D02*
D03*
Y31253D02*
D03*
D68*
X42400Y36548D02*
D03*
Y35249D02*
D03*
Y34383D02*
D03*
Y36115D02*
D03*
Y35682D02*
D03*
Y34816D02*
D03*
Y33950D02*
D03*
Y33517D02*
D03*
Y33084D02*
D03*
D69*
X24960Y37815D02*
D03*
X23740D02*
D03*
X24960Y37343D02*
D03*
Y37185D02*
D03*
X23740Y37500D02*
D03*
Y37343D02*
D03*
X24960Y37657D02*
D03*
Y37500D02*
D03*
X23740Y37185D02*
D03*
Y37657D02*
D03*
D70*
X24350Y37500D02*
D03*
D71*
X19400Y40300D02*
D03*
X21950Y40300D02*
D03*
X20250D02*
D03*
X21100Y40300D02*
D03*
D72*
X25000Y23650D02*
D03*
D73*
X25915Y23847D02*
D03*
Y24241D02*
D03*
Y24044D02*
D03*
Y23650D02*
D03*
Y23453D02*
D03*
Y23256D02*
D03*
Y23059D02*
D03*
X24085D02*
D03*
Y23256D02*
D03*
Y23453D02*
D03*
Y23650D02*
D03*
Y23847D02*
D03*
Y24044D02*
D03*
Y24241D02*
D03*
D74*
X18650Y25250D02*
D03*
X18642Y25101D02*
D03*
Y22699D02*
D03*
Y22581D02*
D03*
Y22896D02*
D03*
Y23014D02*
D03*
Y23211D02*
D03*
Y23408D02*
D03*
Y23605D02*
D03*
Y23802D02*
D03*
Y23998D02*
D03*
Y24195D02*
D03*
Y24392D02*
D03*
Y24589D02*
D03*
Y24786D02*
D03*
Y24904D02*
D03*
D75*
X24700Y34147D02*
D03*
Y35053D02*
D03*
D76*
X24991Y32500D02*
D03*
X24009Y32874D02*
D03*
Y32126D02*
D03*
D77*
X25591Y22735D02*
D03*
X25394D02*
D03*
X25197D02*
D03*
X25000D02*
D03*
X24803D02*
D03*
X24606D02*
D03*
X24409D02*
D03*
Y24565D02*
D03*
X24606D02*
D03*
X24803D02*
D03*
X25000D02*
D03*
X25197D02*
D03*
X25394D02*
D03*
X25591D02*
D03*
D78*
X23747Y40250D02*
D03*
X24653D02*
D03*
X20600Y36750D02*
D03*
X21506D02*
D03*
M02*
