G04*
G04 #@! TF.GenerationSoftware,Altium Limited,Altium Designer,20.2.6 (244)*
G04*
G04 Layer_Color=128*
%FSLAX24Y24*%
%MOIN*%
G70*
G04*
G04 #@! TF.SameCoordinates,497DB355-11F3-479B-B1E2-BDA1D3AC948B*
G04*
G04*
G04 #@! TF.FilePolarity,Positive*
G04*
G01*
G75*
%ADD101C,0.0020*%
D101*
X26540Y17900D02*
X26860D01*
X26700Y17740D02*
Y18060D01*
X20190Y30300D02*
X20510D01*
X20350Y30140D02*
Y30460D01*
X25540Y17900D02*
X25860D01*
X25700Y17740D02*
Y18060D01*
X24540Y17900D02*
X24860D01*
X24700Y17740D02*
Y18060D01*
X17915Y25603D02*
X18151D01*
X18033Y25485D02*
Y25721D01*
X16340Y25603D02*
X16576D01*
X16458Y25485D02*
Y25721D01*
X17915Y22197D02*
X18151D01*
X18033Y22079D02*
Y22315D01*
X16340Y22197D02*
X16576D01*
X16458Y22079D02*
Y22315D01*
X27540Y17900D02*
X27860D01*
X27700Y17740D02*
Y18060D01*
X17708Y22762D02*
X17964D01*
X17836Y22634D02*
Y22890D01*
X17708Y25038D02*
X17964D01*
X17836Y24910D02*
Y25166D01*
X44961Y33185D02*
X45361D01*
X45161Y32985D02*
Y33385D01*
X44961Y35115D02*
X45361D01*
X45161Y34915D02*
Y35315D01*
X38540Y17900D02*
X38860D01*
X38700Y17740D02*
Y18060D01*
X40540Y17900D02*
X40860D01*
X40700Y17740D02*
Y18060D01*
X39540Y17900D02*
X39860D01*
X39700Y17740D02*
Y18060D01*
X20190Y31300D02*
X20510D01*
X20350Y31140D02*
Y31460D01*
X32050Y43150D02*
X32370D01*
X32210Y42990D02*
Y43310D01*
X27050Y43150D02*
X27370D01*
X27210Y42990D02*
Y43310D01*
X28050Y43150D02*
X28370D01*
X28210Y42990D02*
Y43310D01*
X26050Y43150D02*
X26370D01*
X26210Y42990D02*
Y43310D01*
X24050Y43150D02*
X24370D01*
X24210Y42990D02*
Y43310D01*
X25050Y43150D02*
X25370D01*
X25210Y42990D02*
Y43310D01*
X29050Y43150D02*
X29370D01*
X29210Y42990D02*
Y43310D01*
X31050Y43150D02*
X31370D01*
X31210Y42990D02*
Y43310D01*
X30050Y43150D02*
X30370D01*
X30210Y42990D02*
Y43310D01*
X32540Y17900D02*
X32860D01*
X32700Y17740D02*
Y18060D01*
X28540Y17900D02*
X28860D01*
X28700Y17740D02*
Y18060D01*
X29540Y17900D02*
X29860D01*
X29700Y17740D02*
Y18060D01*
X31540Y17900D02*
X31860D01*
X31700Y17740D02*
Y18060D01*
X30540Y17900D02*
X30860D01*
X30700Y17740D02*
Y18060D01*
X39050Y43150D02*
X39370D01*
X39210Y42990D02*
Y43310D01*
X40050Y43150D02*
X40370D01*
X40210Y42990D02*
Y43310D01*
X38050Y43150D02*
X38370D01*
X38210Y42990D02*
Y43310D01*
X41540Y17900D02*
X41860D01*
X41700Y17740D02*
Y18060D01*
X36540Y17900D02*
X36860D01*
X36700Y17740D02*
Y18060D01*
X37540Y17900D02*
X37860D01*
X37700Y17740D02*
Y18060D01*
X35540Y17900D02*
X35860D01*
X35700Y17740D02*
Y18060D01*
X33540Y17900D02*
X33860D01*
X33700Y17740D02*
Y18060D01*
X34540Y17900D02*
X34860D01*
X34700Y17740D02*
Y18060D01*
X34050Y43150D02*
X34370D01*
X34210Y42990D02*
Y43310D01*
X33050Y43150D02*
X33370D01*
X33210Y42990D02*
Y43310D01*
X35050Y43150D02*
X35370D01*
X35210Y42990D02*
Y43310D01*
X37050Y43150D02*
X37370D01*
X37210Y42990D02*
Y43310D01*
X36050Y43150D02*
X36370D01*
X36210Y42990D02*
Y43310D01*
X41050Y43150D02*
X41370D01*
X41210Y42990D02*
Y43310D01*
X37031Y28400D02*
X37169D01*
X37100Y28331D02*
Y28469D01*
X32981Y28950D02*
X33119D01*
X33050Y28881D02*
Y29019D01*
X24431Y37600D02*
X24569D01*
X24500Y37531D02*
Y37669D01*
X24431Y37300D02*
X24569D01*
X24500Y37231D02*
Y37369D01*
X34431Y26050D02*
X34569D01*
X34500Y25981D02*
Y26119D01*
X34731Y25450D02*
X34869D01*
X34800Y25381D02*
Y25519D01*
X34431Y25450D02*
X34569D01*
X34500Y25381D02*
Y25519D01*
X34981Y25450D02*
X35119D01*
X35050Y25381D02*
Y25519D01*
X34331Y25700D02*
X34469D01*
X34400Y25631D02*
Y25769D01*
X29625Y26744D02*
X29763D01*
X29694Y26675D02*
Y26813D01*
X29131Y26750D02*
X29269D01*
X29200Y26681D02*
Y26819D01*
X35456Y28650D02*
X35594D01*
X35525Y28581D02*
Y28719D01*
X32981Y29450D02*
X33119D01*
X33050Y29381D02*
Y29519D01*
X22931Y35850D02*
X23069D01*
X23000Y35781D02*
Y35919D01*
X28681Y39250D02*
X28819D01*
X28750Y39181D02*
Y39319D01*
X39881Y27900D02*
X40019D01*
X39950Y27831D02*
Y27969D01*
X33781Y28850D02*
X33919D01*
X33850Y28781D02*
Y28919D01*
X33231Y30900D02*
X33369D01*
X33300Y30831D02*
Y30969D01*
X33931Y30800D02*
X34069D01*
X34000Y30731D02*
Y30869D01*
X34031Y31300D02*
X34169D01*
X34100Y31231D02*
Y31369D01*
X32881Y27200D02*
X33019D01*
X32950Y27131D02*
Y27269D01*
X33256Y27100D02*
X33394D01*
X33325Y27031D02*
Y27169D01*
X33781Y26550D02*
X33919D01*
X33850Y26481D02*
Y26619D01*
X37031Y28850D02*
X37169D01*
X37100Y28781D02*
Y28919D01*
X37331Y28600D02*
X37469D01*
X37400Y28531D02*
Y28669D01*
X37581Y29075D02*
X37719D01*
X37650Y29006D02*
Y29144D01*
X37631Y29550D02*
X37769D01*
X37700Y29481D02*
Y29619D01*
X37406Y31529D02*
X37544D01*
X37475Y31460D02*
Y31598D01*
X36981Y31550D02*
X37119D01*
X37050Y31481D02*
Y31619D01*
X36991Y31866D02*
X37129D01*
X37060Y31797D02*
Y31935D01*
X36981Y31150D02*
X37119D01*
X37050Y31081D02*
Y31219D01*
X36981Y30700D02*
X37119D01*
X37050Y30631D02*
Y30769D01*
X37481Y31150D02*
X37619D01*
X37550Y31081D02*
Y31219D01*
X33931Y32700D02*
X34069D01*
X34000Y32631D02*
Y32769D01*
X33731Y33100D02*
X33869D01*
X33800Y33031D02*
Y33169D01*
X34981Y32600D02*
X35119D01*
X35050Y32531D02*
Y32669D01*
X34531Y33000D02*
X34669D01*
X34600Y32931D02*
Y33069D01*
X34181Y32900D02*
X34319D01*
X34250Y32831D02*
Y32969D01*
X34681Y33250D02*
X34819D01*
X34750Y33181D02*
Y33319D01*
X32831Y26800D02*
X32969D01*
X32900Y26731D02*
Y26869D01*
X21231Y32850D02*
X21369D01*
X21300Y32781D02*
Y32919D01*
X21281Y22800D02*
X21419D01*
X21350Y22731D02*
Y22869D01*
X19331Y25000D02*
X19469D01*
X19400Y24931D02*
Y25069D01*
X19531Y24600D02*
X19669D01*
X19600Y24531D02*
Y24669D01*
X19581Y23350D02*
X19719D01*
X19650Y23281D02*
Y23419D01*
X22531Y35100D02*
X22669D01*
X22600Y35031D02*
Y35169D01*
X22231Y38200D02*
X22369D01*
X22300Y38131D02*
Y38269D01*
X29081Y25400D02*
X29219D01*
X29150Y25331D02*
Y25469D01*
X29631Y26000D02*
X29769D01*
X29700Y25931D02*
Y26069D01*
X29681Y25450D02*
X29819D01*
X29750Y25381D02*
Y25519D01*
X34781Y27300D02*
X34919D01*
X34850Y27231D02*
Y27369D01*
X34381Y26650D02*
X34519D01*
X34450Y26581D02*
Y26719D01*
X35781Y26450D02*
X35919D01*
X35850Y26381D02*
Y26519D01*
X34531Y26850D02*
X34669D01*
X34600Y26781D02*
Y26919D01*
X35781Y25500D02*
X35919D01*
X35850Y25431D02*
Y25569D01*
X35931Y25750D02*
X36069D01*
X36000Y25681D02*
Y25819D01*
X19131Y38950D02*
X19269D01*
X19200Y38881D02*
Y39019D01*
X19581Y39100D02*
X19719D01*
X19650Y39031D02*
Y39169D01*
X27931Y39400D02*
X28069D01*
X28000Y39331D02*
Y39469D01*
X28331Y39250D02*
X28469D01*
X28400Y39181D02*
Y39319D01*
X23781Y38450D02*
X23919D01*
X23850Y38381D02*
Y38519D01*
X32031Y29000D02*
X32169D01*
X32100Y28931D02*
Y29069D01*
X35231Y30300D02*
X35369D01*
X35300Y30231D02*
Y30369D01*
X34331Y30400D02*
X34469D01*
X34400Y30331D02*
Y30469D01*
X33731Y30450D02*
X33869D01*
X33800Y30381D02*
Y30519D01*
X33381Y30200D02*
X33519D01*
X33450Y30131D02*
Y30269D01*
X34981Y29900D02*
X35119D01*
X35050Y29831D02*
Y29969D01*
X35431Y30550D02*
X35569D01*
X35500Y30481D02*
Y30619D01*
X35031Y30700D02*
X35169D01*
X35100Y30631D02*
Y30769D01*
X35431Y30850D02*
X35569D01*
X35500Y30781D02*
Y30919D01*
X36931Y30250D02*
X37069D01*
X37000Y30181D02*
Y30319D01*
X33094Y27448D02*
X33231D01*
X33163Y27379D02*
Y27517D01*
X39581Y28800D02*
X39719D01*
X39650Y28731D02*
Y28869D01*
X34681Y31250D02*
X34819D01*
X34750Y31181D02*
Y31319D01*
X34631Y30800D02*
X34769D01*
X34700Y30731D02*
Y30869D01*
X35081Y31050D02*
X35219D01*
X35150Y30981D02*
Y31119D01*
X35431Y31200D02*
X35569D01*
X35500Y31131D02*
Y31269D01*
X21431Y35100D02*
X21569D01*
X21500Y35031D02*
Y35169D01*
X34381Y26388D02*
X34519D01*
X34450Y26319D02*
Y26457D01*
X35531Y26650D02*
X35669D01*
X35600Y26581D02*
Y26719D01*
X35231Y25450D02*
X35369D01*
X35300Y25381D02*
Y25519D01*
X35581Y25450D02*
X35719D01*
X35650Y25381D02*
Y25519D01*
X35406Y25450D02*
X35544D01*
X35475Y25381D02*
Y25519D01*
X35881Y26200D02*
X36019D01*
X35950Y26131D02*
Y26269D01*
X35931Y25950D02*
X36069D01*
X36000Y25881D02*
Y26019D01*
X35481Y27450D02*
X35619D01*
X35550Y27381D02*
Y27519D01*
X35681Y27850D02*
X35819D01*
X35750Y27781D02*
Y27919D01*
X25581Y32500D02*
X25719D01*
X25650Y32431D02*
Y32569D01*
X26131Y31150D02*
X26269D01*
X26200Y31081D02*
Y31219D01*
X26481Y32400D02*
X26619D01*
X26550Y32331D02*
Y32469D01*
X25081Y29300D02*
X25219D01*
X25150Y29231D02*
Y29369D01*
X33981Y26850D02*
X34119D01*
X34050Y26781D02*
Y26919D01*
X35881Y24850D02*
X36019D01*
X35950Y24781D02*
Y24919D01*
X29731Y35850D02*
X29869D01*
X29800Y35781D02*
Y35919D01*
X41531Y34850D02*
X41669D01*
X41600Y34781D02*
Y34919D01*
X24581Y23350D02*
X24719D01*
X24650Y23281D02*
Y23419D01*
X25231Y23350D02*
X25369D01*
X25300Y23281D02*
Y23419D01*
X24881Y23350D02*
X25019D01*
X24950Y23281D02*
Y23419D01*
X24631Y23650D02*
X24769D01*
X24700Y23581D02*
Y23719D01*
X24931Y23650D02*
X25069D01*
X25000Y23581D02*
Y23719D01*
X25231Y23650D02*
X25369D01*
X25300Y23581D02*
Y23719D01*
X24681Y23950D02*
X24819D01*
X24750Y23881D02*
Y24019D01*
X25181Y23950D02*
X25319D01*
X25250Y23881D02*
Y24019D01*
X34631Y29800D02*
X34769D01*
X34700Y29731D02*
Y29869D01*
X36031Y29800D02*
X36169D01*
X36100Y29731D02*
Y29869D01*
X38081Y29600D02*
X38219D01*
X38150Y29531D02*
Y29669D01*
X38631Y29600D02*
X38769D01*
X38700Y29531D02*
Y29669D01*
X33631Y29900D02*
X33769D01*
X33700Y29831D02*
Y29969D01*
X33581Y30750D02*
X33719D01*
X33650Y30681D02*
Y30819D01*
X33481Y31150D02*
X33619D01*
X33550Y31081D02*
Y31219D01*
X37781Y26000D02*
X37919D01*
X37850Y25931D02*
Y26069D01*
X39981Y29700D02*
X40119D01*
X40050Y29631D02*
Y29769D01*
X36781Y27000D02*
X36919D01*
X36850Y26931D02*
Y27069D01*
X32681Y27450D02*
X32819D01*
X32750Y27381D02*
Y27519D01*
X31331Y27143D02*
X31469D01*
X31400Y27074D02*
Y27212D01*
X40281Y30050D02*
X40419D01*
X40350Y29981D02*
Y30119D01*
X32731Y32700D02*
X32869D01*
X32800Y32631D02*
Y32769D01*
X32281Y32750D02*
X32419D01*
X32350Y32681D02*
Y32819D01*
X32031Y34550D02*
X32169D01*
X32100Y34481D02*
Y34619D01*
X33531Y32600D02*
X33669D01*
X33600Y32531D02*
Y32669D01*
X30731Y35600D02*
X30869D01*
X30800Y35531D02*
Y35669D01*
X21731Y29050D02*
X21869D01*
X21800Y28981D02*
Y29119D01*
X24131Y31450D02*
X24269D01*
X24200Y31381D02*
Y31519D01*
X24331Y32100D02*
X24469D01*
X24400Y32031D02*
Y32169D01*
X32231Y28450D02*
X32369D01*
X32300Y28381D02*
Y28519D01*
X32231Y28150D02*
X32369D01*
X32300Y28081D02*
Y28219D01*
X30231Y28800D02*
X30369D01*
X30300Y28731D02*
Y28869D01*
X35081Y28600D02*
X35219D01*
X35150Y28531D02*
Y28669D01*
X33531Y27300D02*
X33669D01*
X33600Y27231D02*
Y27369D01*
X22431Y29600D02*
X22569D01*
X22500Y29531D02*
Y29669D01*
X23131Y28900D02*
X23269D01*
X23200Y28831D02*
Y28969D01*
X24981Y27000D02*
X25119D01*
X25050Y26931D02*
Y27069D01*
X34181Y27100D02*
X34319D01*
X34250Y27031D02*
Y27169D01*
X29281Y28500D02*
X29419D01*
X29350Y28431D02*
Y28569D01*
X33031Y28600D02*
X33169D01*
X33100Y28531D02*
Y28669D01*
X33431Y28550D02*
X33569D01*
X33500Y28481D02*
Y28619D01*
X32131Y35550D02*
X32269D01*
X32200Y35481D02*
Y35619D01*
X31181Y35950D02*
X31319D01*
X31250Y35881D02*
Y36019D01*
X32031Y34900D02*
X32169D01*
X32100Y34831D02*
Y34969D01*
X31731Y34850D02*
X31869D01*
X31800Y34781D02*
Y34919D01*
X44581Y32750D02*
X44719D01*
X44650Y32681D02*
Y32819D01*
X37031Y29250D02*
X37169D01*
X37100Y29181D02*
Y29319D01*
X33281Y20800D02*
X33419D01*
X33350Y20731D02*
Y20869D01*
X33932Y21250D02*
X34070D01*
X34001Y21181D02*
Y21319D01*
X33531Y21200D02*
X33669D01*
X33600Y21131D02*
Y21269D01*
X32881Y21200D02*
X33019D01*
X32950Y21131D02*
Y21269D01*
X32581Y20750D02*
X32719D01*
X32650Y20681D02*
Y20819D01*
X32181Y21150D02*
X32319D01*
X32250Y21081D02*
Y21219D01*
X34631Y20900D02*
X34769D01*
X34700Y20831D02*
Y20969D01*
X34481Y28600D02*
X34619D01*
X34550Y28531D02*
Y28669D01*
X35981Y28600D02*
X36119D01*
X36050Y28531D02*
Y28669D01*
X34131Y28600D02*
X34269D01*
X34200Y28531D02*
Y28669D01*
X37031Y29600D02*
X37169D01*
X37100Y29531D02*
Y29669D01*
X35981Y32450D02*
X36119D01*
X36050Y32381D02*
Y32519D01*
X34281Y27850D02*
X34419D01*
X34350Y27781D02*
Y27919D01*
X35681Y32450D02*
X35819D01*
X35750Y32381D02*
Y32519D01*
X32081Y30350D02*
X32219D01*
X32150Y30281D02*
Y30419D01*
X36681Y27900D02*
X36819D01*
X36750Y27831D02*
Y27969D01*
X35431Y32450D02*
X35569D01*
X35500Y32381D02*
Y32519D01*
X34781Y28600D02*
X34919D01*
X34850Y28531D02*
Y28669D01*
X31981Y31950D02*
X32119D01*
X32050Y31881D02*
Y32019D01*
X32081Y31650D02*
X32219D01*
X32150Y31581D02*
Y31719D01*
X34581Y27850D02*
X34719D01*
X34650Y27781D02*
Y27919D01*
X36131Y27700D02*
X36269D01*
X36200Y27631D02*
Y27769D01*
X41131Y35650D02*
X41269D01*
X41200Y35581D02*
Y35719D01*
X41181Y36200D02*
X41319D01*
X41250Y36131D02*
Y36269D01*
X41081Y33500D02*
X41219D01*
X41150Y33431D02*
Y33569D01*
X41081Y33000D02*
X41219D01*
X41150Y32931D02*
Y33069D01*
X39231Y28150D02*
X39369D01*
X39300Y28081D02*
Y28219D01*
X41481Y25650D02*
X41619D01*
X41550Y25581D02*
Y25719D01*
X24281Y36600D02*
X24419D01*
X24350Y36531D02*
Y36669D01*
X24031Y36600D02*
X24169D01*
X24100Y36531D02*
Y36669D01*
X31731Y34600D02*
X31869D01*
X31800Y34531D02*
Y34669D01*
X27781Y35200D02*
X27919D01*
X27850Y35131D02*
Y35269D01*
X27431Y35200D02*
X27569D01*
X27500Y35131D02*
Y35269D01*
X27031Y35200D02*
X27169D01*
X27100Y35131D02*
Y35269D01*
X26081Y34150D02*
X26219D01*
X26150Y34081D02*
Y34219D01*
X25831Y34000D02*
X25969D01*
X25900Y33931D02*
Y34069D01*
X23681Y34500D02*
X23819D01*
X23750Y34431D02*
Y34569D01*
X21881Y40000D02*
X22019D01*
X21950Y39931D02*
Y40069D01*
X25481Y34150D02*
X25619D01*
X25550Y34081D02*
Y34219D01*
X28931Y29450D02*
X29069D01*
X29000Y29381D02*
Y29519D01*
X20181Y24025D02*
X20319D01*
X20250Y23956D02*
Y24094D01*
X20531Y23850D02*
X20669D01*
X20600Y23781D02*
Y23919D01*
X24931Y25800D02*
X25069D01*
X25000Y25731D02*
Y25869D01*
X27131Y23250D02*
X27269D01*
X27200Y23181D02*
Y23319D01*
X27281Y23850D02*
X27419D01*
X27350Y23781D02*
Y23919D01*
X29681Y35000D02*
X29819D01*
X29750Y34931D02*
Y35069D01*
X20031Y38650D02*
X20169D01*
X20100Y38581D02*
Y38719D01*
X20431Y24300D02*
X20569D01*
X20500Y24231D02*
Y24369D01*
X46565Y35891D02*
X46703D01*
X46634Y35822D02*
Y35960D01*
X46565Y32749D02*
X46703D01*
X46634Y32680D02*
Y32818D01*
M02*
