G04*
G04 #@! TF.GenerationSoftware,Altium Limited,Altium Designer,20.2.6 (244)*
G04*
G04 Layer_Color=32768*
%FSLAX24Y24*%
%MOIN*%
G70*
G04*
G04 #@! TF.SameCoordinates,497DB355-11F3-479B-B1E2-BDA1D3AC948B*
G04*
G04*
G04 #@! TF.FilePolarity,Positive*
G04*
G01*
G75*
%ADD102C,0.0039*%
%ADD103C,0.0020*%
D102*
X34550Y29953D02*
Y30347D01*
X34353Y30150D02*
X34747D01*
X39880Y29020D02*
Y29380D01*
X39220D02*
X39880D01*
X39220Y29020D02*
X39880D01*
X39220D02*
Y29380D01*
X39900Y29920D02*
Y30280D01*
X39240D02*
X39900D01*
X39240Y29920D02*
X39900D01*
X39240D02*
Y30280D01*
X24500Y32303D02*
Y32697D01*
X24303Y32500D02*
X24697D01*
X23700Y33209D02*
X25300D01*
X23700Y31791D02*
X25300D01*
Y33209D01*
X23700Y31791D02*
Y33209D01*
X24153Y37500D02*
X24547D01*
X24350Y37303D02*
Y37697D01*
X30800Y34753D02*
Y35147D01*
X30603Y34950D02*
X30997D01*
X29875Y34143D02*
X31725D01*
X29875Y35757D02*
X31725D01*
Y34143D02*
Y35757D01*
X29875Y34143D02*
Y35757D01*
D103*
X32345Y27945D02*
Y32355D01*
Y27945D02*
X36755D01*
X32345Y32355D02*
X36755D01*
Y27945D02*
Y32355D01*
X25177Y36673D02*
Y38327D01*
X23523Y36673D02*
Y38327D01*
X25177D01*
X23523Y36673D02*
X25177D01*
M02*
