G04*
G04 #@! TF.GenerationSoftware,Altium Limited,Altium Designer,20.2.6 (244)*
G04*
G04 Layer_Color=16711935*
%FSLAX24Y24*%
%MOIN*%
G70*
G04*
G04 #@! TF.SameCoordinates,497DB355-11F3-479B-B1E2-BDA1D3AC948B*
G04*
G04*
G04 #@! TF.FilePolarity,Positive*
G04*
G01*
G75*
%ADD101C,0.0020*%
%ADD102C,0.0039*%
D101*
X34990Y26600D02*
X35110D01*
X35050Y26540D02*
Y26660D01*
X34853Y26502D02*
X35247D01*
X34853Y26698D02*
X35247D01*
X34853Y26502D02*
Y26698D01*
X35247Y26502D02*
Y26698D01*
X41950Y25940D02*
Y26060D01*
X41852Y25803D02*
Y26197D01*
X42048Y25803D02*
Y26197D01*
X41852Y25803D02*
X42048D01*
X41852Y26197D02*
X42048D01*
X41890Y26000D02*
X42010D01*
X40847Y26302D02*
Y26498D01*
X40453Y26302D02*
Y26498D01*
Y26302D02*
X40847D01*
X40453Y26498D02*
X40847D01*
X40650Y26340D02*
Y26460D01*
X40590Y26400D02*
X40710D01*
X40590Y27750D02*
X40710D01*
X40650Y27690D02*
Y27810D01*
X40453Y27848D02*
X40847D01*
X40453Y27652D02*
X40847D01*
X40453Y27652D02*
Y27848D01*
X40847Y27652D02*
Y27848D01*
X30100Y26790D02*
Y26910D01*
X30040Y26850D02*
X30160D01*
X30002Y26653D02*
Y27047D01*
X30198Y26653D02*
Y27047D01*
X30002Y26653D02*
X30198D01*
X30002Y27047D02*
X30198D01*
X31400Y26340D02*
Y26460D01*
X31340Y26400D02*
X31460D01*
X31302Y26203D02*
Y26597D01*
X31498Y26203D02*
Y26597D01*
X31302Y26203D02*
X31498D01*
X31302Y26597D02*
X31498D01*
X29290Y27250D02*
X29410D01*
X29350Y27190D02*
Y27310D01*
X29153Y27152D02*
X29547D01*
X29153Y27348D02*
X29547D01*
Y27152D02*
Y27348D01*
X29153Y27152D02*
Y27348D01*
X25590Y26550D02*
X25710D01*
X25650Y26490D02*
Y26610D01*
X25453Y26452D02*
X25847D01*
X25453Y26648D02*
X25847D01*
X25453Y26452D02*
Y26648D01*
X25847Y26452D02*
Y26648D01*
X20150Y20340D02*
Y20460D01*
X20090Y20400D02*
X20210D01*
X20052Y20203D02*
Y20597D01*
X20248Y20203D02*
Y20597D01*
X20052Y20203D02*
X20248D01*
X20052Y20597D02*
X20248D01*
X20850Y20340D02*
Y20460D01*
X20790Y20400D02*
X20910D01*
X20752Y20203D02*
Y20597D01*
X20948Y20203D02*
Y20597D01*
X20752Y20203D02*
X20948D01*
X20752Y20597D02*
X20948D01*
X40590Y29250D02*
X40710D01*
X40650Y29190D02*
Y29310D01*
X40453Y29152D02*
X40847D01*
X40453Y29348D02*
X40847D01*
Y29152D02*
Y29348D01*
X40453Y29152D02*
Y29348D01*
X40590Y28450D02*
X40710D01*
X40650Y28390D02*
Y28510D01*
X40453Y28352D02*
X40847D01*
X40453Y28548D02*
X40847D01*
Y28352D02*
Y28548D01*
X40453Y28352D02*
Y28548D01*
X27600Y39840D02*
Y39960D01*
X27540Y39900D02*
X27660D01*
X27698Y39703D02*
Y40097D01*
X27502Y39703D02*
Y40097D01*
X27502Y39703D02*
X27698D01*
X27502Y40097D02*
X27698D01*
X26550Y39840D02*
Y39960D01*
X26490Y39900D02*
X26610D01*
X26648Y39703D02*
Y40097D01*
X26452Y39703D02*
Y40097D01*
X26452Y39703D02*
X26648D01*
X26452Y40097D02*
X26648D01*
X29547Y29752D02*
Y29948D01*
X29153Y29752D02*
Y29948D01*
Y29752D02*
X29547D01*
X29153Y29948D02*
X29547D01*
X29350Y29790D02*
Y29910D01*
X29290Y29850D02*
X29410D01*
X29547Y28052D02*
Y28248D01*
X29153Y28052D02*
Y28248D01*
Y28052D02*
X29547D01*
X29153Y28248D02*
X29547D01*
X29350Y28090D02*
Y28210D01*
X29290Y28150D02*
X29410D01*
X29547Y30652D02*
Y30848D01*
X29153Y30652D02*
Y30848D01*
Y30652D02*
X29547D01*
X29153Y30848D02*
X29547D01*
X29350Y30690D02*
Y30810D01*
X29290Y30750D02*
X29410D01*
X29153Y28902D02*
Y29098D01*
X29547Y28902D02*
Y29098D01*
X29153Y29098D02*
X29547D01*
X29153Y28902D02*
X29547D01*
X29350Y28940D02*
Y29060D01*
X29290Y29000D02*
X29410D01*
X29153Y24802D02*
Y24998D01*
X29547Y24802D02*
Y24998D01*
X29153Y24998D02*
X29547D01*
X29153Y24802D02*
X29547D01*
X29350Y24840D02*
Y24960D01*
X29290Y24900D02*
X29410D01*
X29153Y25652D02*
Y25848D01*
X29547Y25652D02*
Y25848D01*
X29153Y25848D02*
X29547D01*
X29153Y25652D02*
X29547D01*
X29350Y25690D02*
Y25810D01*
X29290Y25750D02*
X29410D01*
X29153Y26402D02*
Y26598D01*
X29547Y26402D02*
Y26598D01*
X29153Y26598D02*
X29547D01*
X29153Y26402D02*
X29547D01*
X29350Y26440D02*
Y26560D01*
X29290Y26500D02*
X29410D01*
X43443Y24809D02*
Y25990D01*
X45017D01*
X43443Y24809D02*
X45017D01*
Y25991D01*
X32043Y33902D02*
Y34098D01*
X32437Y33902D02*
Y34098D01*
X32043Y33902D02*
X32437D01*
X32043Y34098D02*
X32437D01*
X32240Y33940D02*
Y34060D01*
X32180Y34000D02*
X32300D01*
X30547Y33852D02*
Y34048D01*
X30153Y33852D02*
Y34048D01*
Y34048D02*
X30547D01*
X30153Y33852D02*
X30547D01*
X30350Y33890D02*
Y34010D01*
X30290Y33950D02*
X30410D01*
X40203Y36102D02*
Y36298D01*
X40597Y36102D02*
Y36298D01*
X40203Y36102D02*
X40597D01*
X40203Y36298D02*
X40597D01*
X40400Y36140D02*
Y36260D01*
X40340Y36200D02*
X40460D01*
X40203Y35302D02*
Y35498D01*
X40597Y35302D02*
Y35498D01*
X40203Y35302D02*
X40597D01*
X40203Y35498D02*
X40597D01*
X40400Y35340D02*
Y35460D01*
X40340Y35400D02*
X40460D01*
X40203Y34452D02*
Y34648D01*
X40597Y34452D02*
Y34648D01*
X40203Y34452D02*
X40597D01*
X40203Y34648D02*
X40597D01*
X40400Y34490D02*
Y34610D01*
X40340Y34550D02*
X40460D01*
X40203Y33702D02*
Y33898D01*
X40597Y33702D02*
Y33898D01*
X40203Y33702D02*
X40597D01*
X40203Y33898D02*
X40597D01*
X40400Y33740D02*
Y33860D01*
X40340Y33800D02*
X40460D01*
X38847Y28402D02*
Y28598D01*
X38453Y28402D02*
Y28598D01*
Y28598D02*
X38847D01*
X38453Y28402D02*
X38847D01*
X38650Y28440D02*
Y28560D01*
X38590Y28500D02*
X38710D01*
X30547Y31702D02*
Y31898D01*
X30153Y31702D02*
Y31898D01*
Y31898D02*
X30547D01*
X30153Y31702D02*
X30547D01*
X30350Y31740D02*
Y31860D01*
X30290Y31800D02*
X30410D01*
X30547Y29052D02*
Y29248D01*
X30153Y29052D02*
Y29248D01*
Y29248D02*
X30547D01*
X30153Y29052D02*
X30547D01*
X30350Y29090D02*
Y29210D01*
X30290Y29150D02*
X30410D01*
X30153Y31152D02*
Y31348D01*
X30547Y31152D02*
Y31348D01*
X30153Y31152D02*
X30547D01*
X30153Y31348D02*
X30547D01*
X30350Y31190D02*
Y31310D01*
X30290Y31250D02*
X30410D01*
X30153Y28202D02*
Y28398D01*
X30547Y28202D02*
Y28398D01*
X30153Y28202D02*
X30547D01*
X30153Y28398D02*
X30547D01*
X30350Y28240D02*
Y28360D01*
X30290Y28300D02*
X30410D01*
X30153Y32252D02*
Y32448D01*
X30547Y32252D02*
Y32448D01*
X30153Y32252D02*
X30547D01*
X30153Y32448D02*
X30547D01*
X30350Y32290D02*
Y32410D01*
X30290Y32350D02*
X30410D01*
X28997Y28952D02*
Y29148D01*
X28603Y28952D02*
Y29148D01*
Y29148D02*
X28997D01*
X28603Y28952D02*
X28997D01*
X28800Y28990D02*
Y29110D01*
X28740Y29050D02*
X28860D01*
X28997Y28402D02*
Y28598D01*
X28603Y28402D02*
Y28598D01*
Y28598D02*
X28997D01*
X28603Y28402D02*
X28997D01*
X28800Y28440D02*
Y28560D01*
X28740Y28500D02*
X28860D01*
X38453Y30952D02*
Y31148D01*
X38847Y30952D02*
Y31148D01*
X38453Y30952D02*
X38847D01*
X38453Y31148D02*
X38847D01*
X38650Y30990D02*
Y31110D01*
X38590Y31050D02*
X38710D01*
X38847Y31402D02*
Y31598D01*
X38453Y31402D02*
Y31598D01*
Y31598D02*
X38847D01*
X38453Y31402D02*
X38847D01*
X38650Y31440D02*
Y31560D01*
X38590Y31500D02*
X38710D01*
X38847Y29752D02*
Y29948D01*
X38453Y29752D02*
Y29948D01*
Y29948D02*
X38847D01*
X38453Y29752D02*
X38847D01*
X38650Y29790D02*
Y29910D01*
X38590Y29850D02*
X38710D01*
X38453Y28902D02*
Y29098D01*
X38847Y28902D02*
Y29098D01*
X38453Y28902D02*
X38847D01*
X38453Y29098D02*
X38847D01*
X38650Y28940D02*
Y29060D01*
X38590Y29000D02*
X38710D01*
X33747Y34402D02*
Y34598D01*
X33353Y34402D02*
Y34598D01*
Y34598D02*
X33747D01*
X33353Y34402D02*
X33747D01*
X33550Y34440D02*
Y34560D01*
X33490Y34500D02*
X33610D01*
X30153Y30402D02*
Y30598D01*
X30547Y30402D02*
Y30598D01*
X30153Y30402D02*
X30547D01*
X30153Y30598D02*
X30547D01*
X30350Y30440D02*
Y30560D01*
X30290Y30500D02*
X30410D01*
X33747Y33852D02*
Y34048D01*
X33353Y33852D02*
Y34048D01*
Y34048D02*
X33747D01*
X33353Y33852D02*
X33747D01*
X33550Y33890D02*
Y34010D01*
X33490Y33950D02*
X33610D01*
X38453Y30202D02*
Y30398D01*
X38847Y30202D02*
Y30398D01*
X38453Y30202D02*
X38847D01*
X38453Y30398D02*
X38847D01*
X38650Y30240D02*
Y30360D01*
X38590Y30300D02*
X38710D01*
X36052Y34397D02*
X36248D01*
X36052Y34003D02*
X36248D01*
X36052D02*
Y34397D01*
X36248Y34003D02*
Y34397D01*
X36090Y34200D02*
X36210D01*
X36150Y34140D02*
Y34260D01*
X25397Y20302D02*
Y20498D01*
X25003Y20302D02*
Y20498D01*
Y20498D02*
X25397D01*
X25003Y20302D02*
X25397D01*
X25200Y20340D02*
Y20460D01*
X25140Y20400D02*
X25260D01*
X40203Y32902D02*
Y33098D01*
X40597Y32902D02*
Y33098D01*
X40203Y32902D02*
X40597D01*
X40203Y33098D02*
X40597D01*
X40400Y32940D02*
Y33060D01*
X40340Y33000D02*
X40460D01*
X22502Y32303D02*
X22698D01*
X22502Y32697D02*
X22698D01*
X22698Y32303D02*
Y32697D01*
X22502Y32303D02*
Y32697D01*
X22540Y32500D02*
X22660D01*
X22600Y32440D02*
Y32560D01*
X27752Y35453D02*
X27948D01*
X27752Y35847D02*
X27948D01*
X27948Y35453D02*
Y35847D01*
X27752Y35453D02*
Y35847D01*
X27790Y35650D02*
X27910D01*
X27850Y35590D02*
Y35710D01*
X21952Y32303D02*
X22148D01*
X21952Y32697D02*
X22148D01*
X22148Y32303D02*
Y32697D01*
X21952Y32303D02*
Y32697D01*
X21990Y32500D02*
X22110D01*
X22050Y32440D02*
Y32560D01*
X19247Y35202D02*
Y35398D01*
X18853Y35202D02*
Y35398D01*
Y35398D02*
X19247D01*
X18853Y35202D02*
X19247D01*
X19050Y35240D02*
Y35360D01*
X18990Y35300D02*
X19110D01*
X28402Y39703D02*
X28598D01*
X28402Y40097D02*
X28598D01*
X28598Y39703D02*
Y40097D01*
X28402Y39703D02*
Y40097D01*
X28440Y39900D02*
X28560D01*
X28500Y39840D02*
Y39960D01*
X28902Y39703D02*
X29098D01*
X28902Y40097D02*
X29098D01*
X29098Y39703D02*
Y40097D01*
X28902Y39703D02*
Y40097D01*
X28940Y39900D02*
X29060D01*
X29000Y39840D02*
Y39960D01*
X27202Y35453D02*
X27398D01*
X27202Y35847D02*
X27398D01*
X27398Y35453D02*
Y35847D01*
X27202Y35453D02*
Y35847D01*
X27240Y35650D02*
X27360D01*
X27300Y35590D02*
Y35710D01*
X26652Y35453D02*
X26848D01*
X26652Y35847D02*
X26848D01*
X26848Y35453D02*
Y35847D01*
X26652Y35453D02*
Y35847D01*
X26690Y35650D02*
X26810D01*
X26750Y35590D02*
Y35710D01*
X27097Y34402D02*
Y34598D01*
X26703Y34402D02*
Y34598D01*
Y34598D02*
X27097D01*
X26703Y34402D02*
X27097D01*
X26900Y34440D02*
Y34560D01*
X26840Y34500D02*
X26960D01*
X27802Y37053D02*
X27998D01*
X27802Y37447D02*
X27998D01*
X27998Y37053D02*
Y37447D01*
X27802Y37053D02*
Y37447D01*
X27840Y37250D02*
X27960D01*
X27900Y37190D02*
Y37310D01*
X21652Y38153D02*
X21848D01*
X21652Y38547D02*
X21848D01*
X21848Y38153D02*
Y38547D01*
X21652Y38153D02*
Y38547D01*
X21690Y38350D02*
X21810D01*
X21750Y38290D02*
Y38410D01*
X19552Y38597D02*
X19748D01*
X19552Y38203D02*
X19748D01*
X19552D02*
Y38597D01*
X19748Y38203D02*
Y38597D01*
X19590Y38400D02*
X19710D01*
X19650Y38340D02*
Y38460D01*
X18952Y38597D02*
X19148D01*
X18952Y38203D02*
X19148D01*
X18952D02*
Y38597D01*
X19148Y38203D02*
Y38597D01*
X18990Y38400D02*
X19110D01*
X19050Y38340D02*
Y38460D01*
X20503Y37802D02*
Y37998D01*
X20897Y37802D02*
Y37998D01*
X20503Y37802D02*
X20897D01*
X20503Y37998D02*
X20897D01*
X20700Y37840D02*
Y37960D01*
X20640Y37900D02*
X20760D01*
X20897Y38602D02*
Y38798D01*
X20503Y38602D02*
Y38798D01*
Y38798D02*
X20897D01*
X20503Y38602D02*
X20897D01*
X20700Y38640D02*
Y38760D01*
X20640Y38700D02*
X20760D01*
X33200Y18400D02*
X42200D01*
Y17400D02*
Y18400D01*
X33200Y17400D02*
X42200D01*
X33200D02*
Y18400D01*
X40590Y27150D02*
X40710D01*
X40650Y27090D02*
Y27210D01*
X40453Y27248D02*
X40847D01*
X40453Y27052D02*
X40847D01*
X40453Y27052D02*
Y27248D01*
X40847Y27052D02*
Y27248D01*
X40152Y31453D02*
X40348D01*
X40152Y31847D02*
X40348D01*
X40152Y31453D02*
Y31847D01*
X40348Y31453D02*
Y31847D01*
X40190Y31650D02*
X40310D01*
X40250Y31590D02*
Y31710D01*
X29347Y33452D02*
Y33648D01*
X28953Y33452D02*
Y33648D01*
Y33452D02*
X29347D01*
X28953Y33648D02*
X29347D01*
X29150Y33490D02*
Y33610D01*
X29090Y33550D02*
X29210D01*
X41552Y27653D02*
X41748D01*
X41552Y28047D02*
X41748D01*
X41552Y27653D02*
Y28047D01*
X41748Y27653D02*
Y28047D01*
X41590Y27850D02*
X41710D01*
X41650Y27790D02*
Y27910D01*
X22352Y31847D02*
X22548D01*
X22352Y31453D02*
X22548D01*
X22548D02*
Y31847D01*
X22352Y31453D02*
Y31847D01*
X22390Y31650D02*
X22510D01*
X22450Y31590D02*
Y31710D01*
X24200Y18400D02*
X33200D01*
Y17400D02*
Y18400D01*
X24200Y17400D02*
X33200D01*
X24200D02*
Y18400D01*
X23710Y43650D02*
X32710D01*
Y42650D02*
Y43650D01*
X23710Y42650D02*
X32710D01*
X23710D02*
Y43650D01*
X19850Y29800D02*
Y31800D01*
X20850D01*
Y29800D02*
Y31800D01*
X19850Y29800D02*
X20850D01*
X43463Y22359D02*
Y23540D01*
X45037D01*
X43463Y22359D02*
X45037D01*
Y23541D01*
X22402Y30347D02*
X22598D01*
X22402Y29953D02*
X22598D01*
X22598D02*
Y30347D01*
X22402Y29953D02*
Y30347D01*
X22440Y30150D02*
X22560D01*
X22500Y30090D02*
Y30210D01*
X29347Y32652D02*
Y32848D01*
X28953Y32652D02*
Y32848D01*
Y32652D02*
X29347D01*
X28953Y32848D02*
X29347D01*
X29150Y32690D02*
Y32810D01*
X29090Y32750D02*
X29210D01*
X28903Y35152D02*
Y35348D01*
X29297Y35152D02*
Y35348D01*
X28903Y35348D02*
X29297D01*
X28903Y35152D02*
X29297D01*
X29100Y35190D02*
Y35310D01*
X29040Y35250D02*
X29160D01*
X29297Y34302D02*
Y34498D01*
X28903Y34302D02*
Y34498D01*
Y34302D02*
X29297D01*
X28903Y34498D02*
X29297D01*
X29100Y34340D02*
Y34460D01*
X29040Y34400D02*
X29160D01*
X23847Y31352D02*
Y31548D01*
X23453Y31352D02*
Y31548D01*
Y31352D02*
X23847D01*
X23453Y31548D02*
X23847D01*
X23650Y31390D02*
Y31510D01*
X23590Y31450D02*
X23710D01*
X32710Y42650D02*
Y43650D01*
Y42650D02*
X41710D01*
Y43650D01*
X32710D02*
X41710D01*
D102*
X32562Y28162D02*
Y32138D01*
Y28162D02*
X36538D01*
X32562Y32138D02*
X36538D01*
Y28162D02*
Y32138D01*
X24146Y33110D02*
X24854D01*
X24146Y31890D02*
X24854D01*
Y33110D01*
X24146Y31890D02*
Y33110D01*
X30446Y34340D02*
X31154D01*
Y35560D01*
X30446Y34340D02*
Y35560D01*
X31154D01*
M02*
