G04*
G04 #@! TF.GenerationSoftware,Altium Limited,Altium Designer,20.2.6 (244)*
G04*
G04 Layer_Color=8388736*
%FSLAX24Y24*%
%MOIN*%
G70*
G04*
G04 #@! TF.SameCoordinates,497DB355-11F3-479B-B1E2-BDA1D3AC948B*
G04*
G04*
G04 #@! TF.FilePolarity,Positive*
G04*
G01*
G75*
%ADD101C,0.0020*%
G36*
X41000Y26230D02*
X40900D01*
Y26280D01*
Y26290D01*
X40908Y26308D01*
X40922Y26322D01*
X40940Y26330D01*
X40950D01*
D01*
X41000D01*
Y26230D01*
D02*
G37*
G36*
Y26980D02*
X40900D01*
Y27030D01*
Y27040D01*
X40908Y27058D01*
X40922Y27072D01*
X40940Y27080D01*
X40950D01*
D01*
X41000D01*
Y26980D01*
D02*
G37*
G36*
X28410Y43213D02*
X28351D01*
X28247Y43315D01*
X28246Y43317D01*
X28242Y43320D01*
X28237Y43325D01*
X28230Y43332D01*
X28222Y43340D01*
X28214Y43347D01*
X28206Y43355D01*
X28198Y43362D01*
X28197Y43362D01*
X28194Y43365D01*
X28190Y43368D01*
X28185Y43372D01*
X28179Y43376D01*
X28173Y43380D01*
X28167Y43385D01*
X28161Y43388D01*
X28160Y43389D01*
X28158Y43390D01*
X28155Y43391D01*
X28150Y43394D01*
X28141Y43398D01*
X28130Y43401D01*
X28129D01*
X28127Y43402D01*
X28124Y43402D01*
X28121Y43403D01*
X28111Y43404D01*
X28101Y43405D01*
X28100D01*
X28098D01*
X28096D01*
X28093Y43404D01*
X28085Y43403D01*
X28077Y43400D01*
X28076D01*
X28075Y43399D01*
X28070Y43397D01*
X28064Y43394D01*
X28058Y43388D01*
X28057D01*
X28056Y43387D01*
X28053Y43383D01*
X28049Y43377D01*
X28045Y43369D01*
Y43368D01*
X28044Y43367D01*
X28044Y43365D01*
X28042Y43362D01*
X28041Y43353D01*
X28040Y43342D01*
Y43338D01*
X28041Y43334D01*
X28041Y43327D01*
X28043Y43320D01*
X28044Y43312D01*
X28047Y43303D01*
X28051Y43295D01*
X28052Y43294D01*
X28053Y43291D01*
X28056Y43287D01*
X28059Y43282D01*
X28063Y43275D01*
X28068Y43268D01*
X28074Y43261D01*
X28081Y43254D01*
X28026Y43211D01*
X28024Y43212D01*
X28022Y43216D01*
X28016Y43222D01*
X28010Y43229D01*
X28004Y43239D01*
X27997Y43249D01*
X27990Y43262D01*
X27984Y43274D01*
Y43275D01*
X27983Y43276D01*
X27982Y43278D01*
X27982Y43280D01*
X27979Y43288D01*
X27976Y43297D01*
X27973Y43309D01*
X27970Y43322D01*
X27968Y43336D01*
X27967Y43351D01*
Y43357D01*
X27968Y43362D01*
Y43371D01*
X27970Y43379D01*
X27971Y43389D01*
X27973Y43399D01*
X27976Y43409D01*
Y43411D01*
X27978Y43414D01*
X27980Y43418D01*
X27982Y43425D01*
X27986Y43431D01*
X27990Y43439D01*
X27995Y43446D01*
X28001Y43453D01*
X28002Y43454D01*
X28004Y43456D01*
X28007Y43460D01*
X28012Y43464D01*
X28017Y43469D01*
X28024Y43473D01*
X28032Y43478D01*
X28041Y43482D01*
X28041Y43483D01*
X28045Y43484D01*
X28050Y43485D01*
X28056Y43488D01*
X28064Y43490D01*
X28074Y43491D01*
X28084Y43492D01*
X28096Y43493D01*
X28097D01*
X28100D01*
X28105D01*
X28111Y43492D01*
X28118Y43491D01*
X28127Y43490D01*
X28144Y43485D01*
X28145D01*
X28148Y43484D01*
X28152Y43482D01*
X28158Y43480D01*
X28165Y43477D01*
X28172Y43474D01*
X28188Y43465D01*
X28189Y43465D01*
X28192Y43463D01*
X28195Y43460D01*
X28201Y43456D01*
X28207Y43451D01*
X28215Y43445D01*
X28222Y43439D01*
X28230Y43432D01*
X28231Y43431D01*
X28234Y43428D01*
X28238Y43425D01*
X28244Y43419D01*
X28251Y43413D01*
X28258Y43405D01*
X28266Y43396D01*
X28275Y43388D01*
X28335Y43325D01*
Y43508D01*
X28410D01*
Y43213D01*
D02*
G37*
G36*
X28127Y43141D02*
X28135Y43140D01*
X28144Y43139D01*
X28155Y43137D01*
X28166Y43134D01*
X28177Y43130D01*
X28178Y43129D01*
X28181Y43128D01*
X28187Y43126D01*
X28194Y43122D01*
X28201Y43117D01*
X28209Y43112D01*
X28218Y43105D01*
X28226Y43097D01*
X28227Y43096D01*
X28230Y43093D01*
X28234Y43088D01*
X28238Y43081D01*
X28244Y43074D01*
X28249Y43064D01*
X28254Y43053D01*
X28259Y43041D01*
X28260Y43040D01*
X28261Y43035D01*
X28263Y43029D01*
X28264Y43019D01*
X28266Y43008D01*
X28269Y42995D01*
X28269Y42980D01*
X28270Y42964D01*
Y42923D01*
X28410D01*
Y42840D01*
X27975D01*
Y42975D01*
X27976Y42982D01*
X27976Y42992D01*
X27977Y43004D01*
X27979Y43017D01*
X27982Y43029D01*
X27984Y43042D01*
Y43043D01*
X27985Y43043D01*
X27986Y43047D01*
X27988Y43053D01*
X27991Y43061D01*
X27995Y43069D01*
X27999Y43078D01*
X28005Y43088D01*
X28011Y43096D01*
X28012Y43097D01*
X28014Y43100D01*
X28018Y43103D01*
X28023Y43109D01*
X28030Y43114D01*
X28037Y43120D01*
X28045Y43125D01*
X28055Y43130D01*
X28056Y43131D01*
X28059Y43132D01*
X28064Y43134D01*
X28072Y43136D01*
X28081Y43138D01*
X28090Y43140D01*
X28102Y43141D01*
X28114Y43142D01*
X28115D01*
X28120D01*
X28127Y43141D01*
D02*
G37*
G36*
X28779Y18259D02*
X28787Y18258D01*
X28796Y18257D01*
X28805Y18255D01*
X28816Y18252D01*
X28825Y18247D01*
X28827Y18246D01*
X28830Y18245D01*
X28834Y18242D01*
X28841Y18238D01*
X28847Y18233D01*
X28855Y18226D01*
X28862Y18219D01*
X28870Y18210D01*
X28870Y18209D01*
X28873Y18206D01*
X28876Y18201D01*
X28880Y18193D01*
X28884Y18184D01*
X28889Y18174D01*
X28893Y18161D01*
X28897Y18148D01*
Y18147D01*
X28898Y18146D01*
Y18144D01*
X28899Y18141D01*
X28900Y18134D01*
X28901Y18123D01*
X28904Y18110D01*
X28905Y18095D01*
X28906Y18078D01*
X28907Y18060D01*
Y18045D01*
X28906Y18036D01*
Y18032D01*
X28905Y18028D01*
Y18021D01*
X28904Y18011D01*
Y18007D01*
X28904Y18004D01*
X28903Y17996D01*
X28902Y17987D01*
Y17983D01*
X28901Y17981D01*
X28901Y17973D01*
X28900Y17967D01*
X28830D01*
Y17967D01*
X28830Y17970D01*
X28831Y17975D01*
X28832Y17980D01*
X28833Y17987D01*
X28834Y17995D01*
X28836Y18004D01*
X28836Y18013D01*
Y18018D01*
X28837Y18023D01*
Y18030D01*
X28838Y18038D01*
Y18047D01*
X28839Y18058D01*
Y18078D01*
X28838Y18084D01*
Y18092D01*
X28836Y18100D01*
X28834Y18115D01*
Y18116D01*
X28833Y18119D01*
X28832Y18122D01*
X28830Y18127D01*
X28827Y18138D01*
X28821Y18148D01*
X28820Y18149D01*
X28819Y18150D01*
X28817Y18152D01*
X28815Y18155D01*
X28808Y18162D01*
X28799Y18167D01*
X28799D01*
X28797Y18168D01*
X28794Y18169D01*
X28790Y18171D01*
X28786Y18172D01*
X28781Y18173D01*
X28770Y18174D01*
X28769D01*
X28768D01*
X28765D01*
X28761Y18173D01*
X28753Y18171D01*
X28744Y18167D01*
X28743D01*
X28742Y18166D01*
X28739Y18164D01*
X28737Y18162D01*
X28731Y18156D01*
X28724Y18147D01*
X28723Y18146D01*
X28722Y18145D01*
X28721Y18142D01*
X28719Y18138D01*
X28717Y18134D01*
X28715Y18128D01*
X28713Y18122D01*
X28711Y18115D01*
Y18114D01*
X28711Y18111D01*
X28710Y18107D01*
X28708Y18101D01*
X28708Y18095D01*
X28707Y18087D01*
X28706Y18077D01*
Y18019D01*
X28644D01*
Y18072D01*
X28643Y18078D01*
Y18086D01*
X28642Y18092D01*
X28641Y18100D01*
X28640Y18107D01*
Y18107D01*
X28639Y18109D01*
X28637Y18112D01*
X28636Y18116D01*
X28631Y18125D01*
X28625Y18134D01*
X28625Y18135D01*
X28624Y18135D01*
X28620Y18140D01*
X28613Y18144D01*
X28605Y18149D01*
X28604D01*
X28603Y18149D01*
X28600Y18150D01*
X28597Y18151D01*
X28589Y18152D01*
X28580Y18153D01*
X28579D01*
X28576D01*
X28571Y18152D01*
X28566Y18151D01*
X28559Y18149D01*
X28552Y18146D01*
X28546Y18141D01*
X28540Y18135D01*
X28539Y18135D01*
X28537Y18132D01*
X28535Y18128D01*
X28532Y18122D01*
X28530Y18115D01*
X28528Y18106D01*
X28526Y18095D01*
X28526Y18082D01*
Y18072D01*
X28526Y18066D01*
X28527Y18058D01*
X28528Y18049D01*
X28531Y18030D01*
Y18030D01*
X28531Y18026D01*
X28533Y18021D01*
X28534Y18015D01*
X28536Y18007D01*
X28539Y17998D01*
X28544Y17979D01*
X28476D01*
Y17979D01*
X28475Y17981D01*
X28475Y17984D01*
X28473Y17987D01*
X28471Y17997D01*
X28469Y18007D01*
Y18007D01*
X28468Y18009D01*
X28467Y18012D01*
X28466Y18016D01*
X28464Y18024D01*
X28463Y18034D01*
Y18035D01*
X28462Y18036D01*
Y18039D01*
X28461Y18043D01*
X28460Y18052D01*
X28459Y18061D01*
Y18064D01*
X28458Y18067D01*
Y18070D01*
X28457Y18080D01*
Y18097D01*
X28458Y18104D01*
Y18112D01*
X28460Y18122D01*
X28461Y18132D01*
X28463Y18143D01*
X28466Y18153D01*
Y18155D01*
X28467Y18158D01*
X28469Y18163D01*
X28471Y18169D01*
X28474Y18176D01*
X28477Y18184D01*
X28482Y18192D01*
X28487Y18199D01*
X28488Y18200D01*
X28489Y18202D01*
X28492Y18206D01*
X28497Y18209D01*
X28502Y18214D01*
X28508Y18219D01*
X28514Y18223D01*
X28522Y18227D01*
X28523Y18228D01*
X28526Y18229D01*
X28529Y18230D01*
X28535Y18232D01*
X28542Y18234D01*
X28549Y18235D01*
X28558Y18236D01*
X28567Y18237D01*
X28568D01*
X28568D01*
X28571D01*
X28574D01*
X28580Y18236D01*
X28590Y18235D01*
X28600Y18232D01*
X28611Y18229D01*
X28621Y18224D01*
X28631Y18218D01*
X28631Y18218D01*
X28634Y18215D01*
X28639Y18211D01*
X28645Y18205D01*
X28651Y18198D01*
X28657Y18189D01*
X28663Y18179D01*
X28668Y18167D01*
Y18168D01*
X28669Y18171D01*
X28670Y18175D01*
X28671Y18180D01*
X28673Y18186D01*
X28675Y18192D01*
X28680Y18205D01*
Y18206D01*
X28682Y18208D01*
X28683Y18211D01*
X28686Y18215D01*
X28692Y18224D01*
X28701Y18234D01*
X28702Y18235D01*
X28703Y18236D01*
X28706Y18238D01*
X28709Y18241D01*
X28714Y18244D01*
X28719Y18247D01*
X28731Y18253D01*
X28731D01*
X28733Y18254D01*
X28736Y18255D01*
X28741Y18257D01*
X28747Y18257D01*
X28753Y18259D01*
X28768Y18260D01*
X28769D01*
X28773D01*
X28779Y18259D01*
D02*
G37*
G36*
X28617Y17891D02*
X28625Y17890D01*
X28634Y17889D01*
X28645Y17887D01*
X28656Y17884D01*
X28667Y17880D01*
X28668Y17879D01*
X28671Y17878D01*
X28677Y17876D01*
X28684Y17872D01*
X28691Y17867D01*
X28699Y17862D01*
X28708Y17855D01*
X28716Y17847D01*
X28717Y17846D01*
X28720Y17843D01*
X28724Y17838D01*
X28728Y17831D01*
X28733Y17824D01*
X28739Y17814D01*
X28744Y17803D01*
X28749Y17791D01*
X28750Y17790D01*
X28751Y17785D01*
X28753Y17779D01*
X28754Y17769D01*
X28756Y17758D01*
X28759Y17745D01*
X28759Y17730D01*
X28760Y17714D01*
Y17673D01*
X28900D01*
Y17590D01*
X28465D01*
Y17725D01*
X28466Y17732D01*
X28466Y17742D01*
X28467Y17754D01*
X28469Y17767D01*
X28472Y17779D01*
X28475Y17792D01*
Y17793D01*
X28475Y17794D01*
X28476Y17797D01*
X28478Y17803D01*
X28481Y17811D01*
X28485Y17819D01*
X28489Y17828D01*
X28495Y17838D01*
X28501Y17846D01*
X28502Y17847D01*
X28504Y17850D01*
X28508Y17853D01*
X28513Y17859D01*
X28520Y17864D01*
X28527Y17870D01*
X28535Y17875D01*
X28545Y17880D01*
X28546Y17881D01*
X28549Y17882D01*
X28554Y17884D01*
X28562Y17886D01*
X28571Y17888D01*
X28580Y17890D01*
X28592Y17891D01*
X28604Y17892D01*
X28605D01*
X28610D01*
X28617Y17891D01*
D02*
G37*
G36*
X37774Y18269D02*
X37782Y18268D01*
X37791Y18266D01*
X37802Y18264D01*
X37812Y18261D01*
X37822Y18257D01*
X37824Y18256D01*
X37827Y18255D01*
X37832Y18252D01*
X37838Y18248D01*
X37845Y18243D01*
X37853Y18238D01*
X37861Y18231D01*
X37868Y18223D01*
X37869Y18223D01*
X37871Y18220D01*
X37875Y18215D01*
X37879Y18209D01*
X37884Y18202D01*
X37889Y18194D01*
X37893Y18183D01*
X37898Y18173D01*
X37899Y18172D01*
X37899Y18168D01*
X37901Y18162D01*
X37902Y18155D01*
X37904Y18145D01*
X37906Y18134D01*
X37907Y18122D01*
X37907Y18109D01*
Y18101D01*
X37907Y18096D01*
X37906Y18089D01*
X37905Y18083D01*
X37904Y18075D01*
X37901Y18066D01*
X37896Y18047D01*
X37892Y18037D01*
X37887Y18027D01*
X37882Y18018D01*
X37876Y18009D01*
X37868Y18001D01*
X37860Y17993D01*
X37859Y17992D01*
X37858Y17991D01*
X37855Y17989D01*
X37851Y17987D01*
X37846Y17984D01*
X37839Y17980D01*
X37832Y17976D01*
X37824Y17973D01*
X37814Y17969D01*
X37803Y17965D01*
X37791Y17962D01*
X37778Y17959D01*
X37764Y17956D01*
X37748Y17954D01*
X37731Y17953D01*
X37714Y17953D01*
X37713D01*
X37712D01*
X37708D01*
X37700D01*
X37691Y17953D01*
X37681D01*
X37669Y17954D01*
X37645Y17956D01*
X37645D01*
X37644D01*
X37640Y17957D01*
X37634Y17959D01*
X37625Y17960D01*
X37617Y17962D01*
X37606Y17964D01*
X37585Y17971D01*
X37584Y17972D01*
X37581Y17973D01*
X37575Y17976D01*
X37568Y17979D01*
X37561Y17982D01*
X37552Y17987D01*
X37535Y17998D01*
X37534Y17999D01*
X37531Y18001D01*
X37527Y18005D01*
X37522Y18010D01*
X37516Y18016D01*
X37510Y18024D01*
X37503Y18032D01*
X37497Y18041D01*
X37497Y18042D01*
X37495Y18045D01*
X37492Y18051D01*
X37489Y18058D01*
X37485Y18067D01*
X37481Y18077D01*
X37477Y18089D01*
X37474Y18101D01*
Y18102D01*
X37473Y18103D01*
Y18105D01*
X37472Y18108D01*
X37471Y18115D01*
X37469Y18125D01*
X37468Y18137D01*
X37466Y18151D01*
X37465Y18166D01*
Y18233D01*
X37534D01*
Y18162D01*
X37534Y18154D01*
X37535Y18144D01*
X37537Y18135D01*
X37539Y18124D01*
X37541Y18115D01*
Y18114D01*
X37543Y18111D01*
X37544Y18106D01*
X37546Y18101D01*
X37553Y18087D01*
X37557Y18081D01*
X37563Y18075D01*
X37563Y18074D01*
X37565Y18072D01*
X37568Y18070D01*
X37571Y18066D01*
X37577Y18062D01*
X37583Y18058D01*
X37588Y18055D01*
X37596Y18052D01*
X37597D01*
X37600Y18050D01*
X37603Y18050D01*
X37608Y18048D01*
X37615Y18046D01*
X37622Y18044D01*
X37631Y18043D01*
X37640Y18042D01*
X37648Y18041D01*
X37647Y18042D01*
X37646Y18044D01*
X37645Y18048D01*
X37643Y18053D01*
X37641Y18058D01*
X37639Y18065D01*
X37637Y18072D01*
X37634Y18081D01*
Y18081D01*
X37634Y18084D01*
X37632Y18089D01*
X37631Y18095D01*
X37630Y18102D01*
X37629Y18109D01*
X37628Y18127D01*
Y18133D01*
X37629Y18140D01*
X37630Y18148D01*
X37631Y18158D01*
X37632Y18168D01*
X37635Y18178D01*
X37638Y18189D01*
X37639Y18190D01*
X37640Y18193D01*
X37642Y18198D01*
X37645Y18204D01*
X37648Y18212D01*
X37653Y18219D01*
X37659Y18226D01*
X37665Y18233D01*
X37665Y18234D01*
X37668Y18236D01*
X37671Y18240D01*
X37677Y18243D01*
X37682Y18248D01*
X37690Y18252D01*
X37698Y18257D01*
X37707Y18260D01*
X37708Y18261D01*
X37711Y18262D01*
X37716Y18263D01*
X37723Y18265D01*
X37731Y18266D01*
X37741Y18268D01*
X37751Y18269D01*
X37762D01*
X37764D01*
X37768D01*
X37774Y18269D01*
D02*
G37*
G36*
X37617Y17891D02*
X37625Y17890D01*
X37634Y17889D01*
X37645Y17887D01*
X37656Y17884D01*
X37667Y17880D01*
X37668Y17879D01*
X37671Y17878D01*
X37677Y17876D01*
X37684Y17872D01*
X37691Y17867D01*
X37699Y17862D01*
X37708Y17855D01*
X37716Y17847D01*
X37717Y17846D01*
X37720Y17843D01*
X37724Y17838D01*
X37728Y17831D01*
X37734Y17824D01*
X37739Y17814D01*
X37744Y17803D01*
X37749Y17791D01*
X37750Y17790D01*
X37751Y17785D01*
X37753Y17779D01*
X37754Y17769D01*
X37756Y17758D01*
X37759Y17745D01*
X37759Y17730D01*
X37760Y17714D01*
Y17673D01*
X37900D01*
Y17590D01*
X37465D01*
Y17725D01*
X37466Y17732D01*
X37466Y17742D01*
X37467Y17754D01*
X37469Y17767D01*
X37472Y17779D01*
X37475Y17792D01*
Y17793D01*
X37475Y17794D01*
X37476Y17797D01*
X37478Y17803D01*
X37481Y17811D01*
X37485Y17819D01*
X37489Y17828D01*
X37495Y17838D01*
X37501Y17846D01*
X37502Y17847D01*
X37504Y17850D01*
X37508Y17853D01*
X37513Y17859D01*
X37520Y17864D01*
X37527Y17870D01*
X37535Y17875D01*
X37545Y17880D01*
X37546Y17881D01*
X37549Y17882D01*
X37554Y17884D01*
X37562Y17886D01*
X37571Y17888D01*
X37580Y17890D01*
X37592Y17891D01*
X37604Y17892D01*
X37605D01*
X37610D01*
X37617Y17891D01*
D02*
G37*
G36*
X37283Y43505D02*
X37292Y43504D01*
X37302Y43502D01*
X37312Y43499D01*
X37323Y43496D01*
X37334Y43490D01*
X37335Y43490D01*
X37338Y43488D01*
X37343Y43485D01*
X37349Y43480D01*
X37357Y43474D01*
X37364Y43467D01*
X37372Y43459D01*
X37379Y43450D01*
X37380Y43448D01*
X37382Y43445D01*
X37386Y43439D01*
X37389Y43433D01*
X37394Y43423D01*
X37399Y43413D01*
X37403Y43401D01*
X37407Y43388D01*
Y43388D01*
X37408Y43387D01*
Y43385D01*
X37409Y43382D01*
X37410Y43375D01*
X37411Y43365D01*
X37414Y43354D01*
X37415Y43341D01*
X37416Y43327D01*
X37417Y43311D01*
Y43297D01*
X37416Y43289D01*
Y43285D01*
X37415Y43282D01*
X37414Y43274D01*
X37414Y43266D01*
Y43261D01*
X37413Y43258D01*
X37412Y43251D01*
X37411Y43243D01*
Y43240D01*
X37411Y43239D01*
Y43236D01*
X37409Y43229D01*
X37409Y43222D01*
X37337D01*
Y43223D01*
X37338Y43225D01*
X37339Y43229D01*
X37340Y43234D01*
X37342Y43240D01*
X37343Y43248D01*
X37344Y43256D01*
X37346Y43265D01*
Y43269D01*
X37346Y43274D01*
Y43280D01*
X37347Y43288D01*
Y43297D01*
X37348Y43315D01*
Y43323D01*
X37347Y43328D01*
Y43332D01*
X37346Y43343D01*
X37343Y43356D01*
X37340Y43368D01*
X37335Y43381D01*
X37329Y43391D01*
X37329Y43393D01*
X37326Y43396D01*
X37321Y43399D01*
X37315Y43405D01*
X37308Y43410D01*
X37299Y43414D01*
X37288Y43416D01*
X37276Y43418D01*
X37275D01*
X37275D01*
X37270D01*
X37264Y43416D01*
X37257Y43415D01*
X37248Y43412D01*
X37240Y43408D01*
X37232Y43402D01*
X37224Y43394D01*
X37224Y43392D01*
X37221Y43389D01*
X37218Y43383D01*
X37215Y43374D01*
X37212Y43364D01*
X37209Y43350D01*
X37207Y43334D01*
X37206Y43315D01*
Y43230D01*
X36975D01*
Y43482D01*
X37052D01*
Y43306D01*
X37140D01*
Y43349D01*
X37141Y43358D01*
X37141Y43368D01*
X37143Y43378D01*
X37147Y43401D01*
Y43402D01*
X37148Y43406D01*
X37150Y43412D01*
X37151Y43419D01*
X37154Y43428D01*
X37158Y43436D01*
X37162Y43445D01*
X37167Y43454D01*
X37168Y43455D01*
X37170Y43458D01*
X37173Y43462D01*
X37178Y43468D01*
X37184Y43473D01*
X37190Y43479D01*
X37198Y43485D01*
X37207Y43491D01*
X37209Y43492D01*
X37212Y43493D01*
X37217Y43496D01*
X37224Y43499D01*
X37234Y43501D01*
X37245Y43503D01*
X37257Y43505D01*
X37271Y43505D01*
X37272D01*
X37272D01*
X37277D01*
X37283Y43505D01*
D02*
G37*
G36*
X37127Y43141D02*
X37135Y43140D01*
X37144Y43139D01*
X37155Y43137D01*
X37166Y43134D01*
X37177Y43130D01*
X37178Y43129D01*
X37181Y43128D01*
X37187Y43126D01*
X37194Y43122D01*
X37201Y43117D01*
X37209Y43112D01*
X37218Y43105D01*
X37226Y43097D01*
X37227Y43096D01*
X37230Y43093D01*
X37234Y43088D01*
X37238Y43081D01*
X37243Y43074D01*
X37249Y43064D01*
X37254Y43053D01*
X37259Y43041D01*
X37260Y43040D01*
X37261Y43035D01*
X37263Y43029D01*
X37264Y43019D01*
X37266Y43008D01*
X37269Y42995D01*
X37269Y42980D01*
X37270Y42964D01*
Y42923D01*
X37410D01*
Y42840D01*
X36975D01*
Y42975D01*
X36976Y42982D01*
X36976Y42992D01*
X36977Y43004D01*
X36979Y43017D01*
X36982Y43029D01*
X36985Y43042D01*
Y43043D01*
X36985Y43043D01*
X36986Y43047D01*
X36988Y43053D01*
X36991Y43061D01*
X36995Y43069D01*
X36999Y43078D01*
X37005Y43088D01*
X37011Y43096D01*
X37012Y43097D01*
X37014Y43100D01*
X37018Y43103D01*
X37023Y43109D01*
X37030Y43114D01*
X37037Y43120D01*
X37045Y43125D01*
X37055Y43130D01*
X37056Y43131D01*
X37059Y43132D01*
X37064Y43134D01*
X37072Y43136D01*
X37081Y43138D01*
X37090Y43140D01*
X37102Y43141D01*
X37114Y43142D01*
X37115D01*
X37120D01*
X37127Y43141D01*
D02*
G37*
%LPC*%
G36*
X28119Y43056D02*
X28118D01*
X28116D01*
X28113D01*
X28109Y43055D01*
X28099Y43054D01*
X28088Y43050D01*
X28087D01*
X28086Y43049D01*
X28083Y43048D01*
X28080Y43046D01*
X28072Y43041D01*
X28064Y43034D01*
X28064Y43033D01*
X28063Y43032D01*
X28061Y43029D01*
X28059Y43026D01*
X28056Y43022D01*
X28053Y43018D01*
X28049Y43006D01*
Y43005D01*
X28048Y43003D01*
X28047Y42999D01*
X28046Y42995D01*
X28044Y42988D01*
X28044Y42981D01*
X28043Y42974D01*
Y42923D01*
X28202D01*
Y42975D01*
X28201Y42981D01*
X28201Y42987D01*
X28200Y42993D01*
X28197Y43006D01*
Y43007D01*
X28195Y43009D01*
X28195Y43012D01*
X28192Y43015D01*
X28187Y43024D01*
X28180Y43033D01*
X28179Y43034D01*
X28178Y43035D01*
X28175Y43037D01*
X28172Y43040D01*
X28164Y43045D01*
X28154Y43050D01*
X28153D01*
X28151Y43051D01*
X28148Y43052D01*
X28144Y43053D01*
X28138Y43055D01*
X28133Y43055D01*
X28119Y43056D01*
D02*
G37*
G36*
X28609Y17806D02*
X28608D01*
X28606D01*
X28603D01*
X28599Y17805D01*
X28589Y17804D01*
X28578Y17800D01*
X28577D01*
X28576Y17799D01*
X28573Y17798D01*
X28570Y17796D01*
X28562Y17791D01*
X28554Y17784D01*
X28554Y17783D01*
X28553Y17782D01*
X28551Y17779D01*
X28549Y17776D01*
X28546Y17772D01*
X28543Y17768D01*
X28539Y17756D01*
Y17755D01*
X28538Y17753D01*
X28537Y17749D01*
X28536Y17745D01*
X28534Y17738D01*
X28534Y17731D01*
X28533Y17724D01*
Y17673D01*
X28692D01*
Y17725D01*
X28691Y17731D01*
X28691Y17737D01*
X28690Y17743D01*
X28687Y17756D01*
Y17757D01*
X28685Y17759D01*
X28685Y17762D01*
X28682Y17765D01*
X28677Y17774D01*
X28670Y17783D01*
X28669Y17784D01*
X28668Y17785D01*
X28665Y17787D01*
X28662Y17790D01*
X28654Y17795D01*
X28644Y17800D01*
X28643D01*
X28641Y17801D01*
X28638Y17802D01*
X28634Y17803D01*
X28628Y17805D01*
X28623Y17805D01*
X28609Y17806D01*
D02*
G37*
G36*
X37766Y18185D02*
X37765D01*
X37763D01*
X37760D01*
X37756Y18184D01*
X37748Y18183D01*
X37738Y18181D01*
X37737D01*
X37736Y18180D01*
X37734Y18179D01*
X37730Y18178D01*
X37723Y18174D01*
X37716Y18168D01*
X37715D01*
X37714Y18166D01*
X37711Y18162D01*
X37705Y18155D01*
X37701Y18146D01*
Y18146D01*
X37700Y18144D01*
X37699Y18141D01*
X37698Y18138D01*
X37697Y18133D01*
X37696Y18127D01*
X37696Y18115D01*
Y18108D01*
X37696Y18101D01*
X37698Y18093D01*
Y18092D01*
X37699Y18087D01*
X37701Y18081D01*
X37703Y18073D01*
Y18072D01*
X37704Y18072D01*
X37705Y18067D01*
X37707Y18061D01*
X37710Y18055D01*
Y18054D01*
X37711Y18053D01*
X37712Y18050D01*
X37714Y18044D01*
X37717Y18039D01*
X37719D01*
X37723D01*
X37729D01*
X37737Y18040D01*
X37746D01*
X37756Y18041D01*
X37765Y18042D01*
X37774Y18044D01*
X37775D01*
X37778Y18044D01*
X37782Y18046D01*
X37788Y18047D01*
X37800Y18052D01*
X37806Y18054D01*
X37812Y18058D01*
X37813Y18058D01*
X37814Y18059D01*
X37817Y18061D01*
X37820Y18064D01*
X37827Y18072D01*
X37830Y18076D01*
X37833Y18081D01*
Y18082D01*
X37834Y18084D01*
X37835Y18087D01*
X37836Y18091D01*
X37837Y18095D01*
X37839Y18101D01*
X37839Y18114D01*
Y18120D01*
X37839Y18124D01*
X37837Y18133D01*
X37834Y18143D01*
Y18144D01*
X37833Y18145D01*
X37832Y18147D01*
X37830Y18151D01*
X37826Y18158D01*
X37819Y18165D01*
X37819Y18166D01*
X37817Y18166D01*
X37816Y18169D01*
X37813Y18170D01*
X37805Y18175D01*
X37796Y18180D01*
X37795D01*
X37793Y18181D01*
X37790Y18181D01*
X37787Y18183D01*
X37782Y18183D01*
X37777Y18184D01*
X37766Y18185D01*
D02*
G37*
G36*
X37609Y17806D02*
X37608D01*
X37606D01*
X37603D01*
X37599Y17805D01*
X37589Y17804D01*
X37578Y17800D01*
X37577D01*
X37576Y17799D01*
X37573Y17798D01*
X37570Y17796D01*
X37562Y17791D01*
X37554Y17784D01*
X37554Y17783D01*
X37553Y17782D01*
X37551Y17779D01*
X37548Y17776D01*
X37546Y17772D01*
X37543Y17768D01*
X37539Y17756D01*
Y17755D01*
X37538Y17753D01*
X37537Y17749D01*
X37536Y17745D01*
X37534Y17738D01*
X37534Y17731D01*
X37533Y17724D01*
Y17673D01*
X37692D01*
Y17725D01*
X37691Y17731D01*
X37691Y17737D01*
X37690Y17743D01*
X37687Y17756D01*
Y17757D01*
X37685Y17759D01*
X37685Y17762D01*
X37682Y17765D01*
X37677Y17774D01*
X37670Y17783D01*
X37669Y17784D01*
X37668Y17785D01*
X37665Y17787D01*
X37662Y17790D01*
X37654Y17795D01*
X37644Y17800D01*
X37643D01*
X37641Y17801D01*
X37638Y17802D01*
X37634Y17803D01*
X37628Y17805D01*
X37622Y17805D01*
X37609Y17806D01*
D02*
G37*
G36*
X37119Y43056D02*
X37118D01*
X37116D01*
X37113D01*
X37109Y43055D01*
X37099Y43054D01*
X37088Y43050D01*
X37087D01*
X37086Y43049D01*
X37083Y43048D01*
X37080Y43046D01*
X37072Y43041D01*
X37064Y43034D01*
X37064Y43033D01*
X37063Y43032D01*
X37061Y43029D01*
X37058Y43026D01*
X37056Y43022D01*
X37053Y43018D01*
X37049Y43006D01*
Y43005D01*
X37048Y43003D01*
X37047Y42999D01*
X37046Y42995D01*
X37044Y42988D01*
X37044Y42981D01*
X37043Y42974D01*
Y42923D01*
X37202D01*
Y42975D01*
X37201Y42981D01*
X37201Y42987D01*
X37200Y42993D01*
X37197Y43006D01*
Y43007D01*
X37195Y43009D01*
X37195Y43012D01*
X37192Y43015D01*
X37187Y43024D01*
X37180Y43033D01*
X37179Y43034D01*
X37178Y43035D01*
X37175Y43037D01*
X37172Y43040D01*
X37164Y43045D01*
X37154Y43050D01*
X37153D01*
X37151Y43051D01*
X37148Y43052D01*
X37144Y43053D01*
X37138Y43055D01*
X37132Y43055D01*
X37119Y43056D01*
D02*
G37*
%LPD*%
D101*
X34700Y26770D02*
X35400D01*
X34700Y26430D02*
Y26770D01*
X35400Y26430D02*
Y26770D01*
X34700Y26430D02*
X35400D01*
X42120Y25650D02*
Y26350D01*
X41780Y25650D02*
X42120D01*
X41780Y26350D02*
X42120D01*
X41780Y25650D02*
Y26350D01*
X40300Y26230D02*
X41000D01*
X40300D02*
Y26570D01*
X41000Y26230D02*
Y26570D01*
X40300D02*
X41000D01*
X40300Y27580D02*
X41000D01*
X40300D02*
Y27920D01*
X41000Y27580D02*
Y27920D01*
X40300D02*
X41000D01*
X29930Y26500D02*
Y27200D01*
X30270D01*
X29930Y26500D02*
X30270D01*
Y27200D01*
X31570Y26050D02*
Y26750D01*
X31230Y26050D02*
X31570D01*
X31230Y26750D02*
X31570D01*
X31230Y26050D02*
Y26750D01*
X29000Y27420D02*
X29700D01*
Y27080D02*
Y27420D01*
X29000Y27080D02*
Y27420D01*
Y27080D02*
X29700D01*
X25300Y26720D02*
X26000D01*
X25300Y26380D02*
Y26720D01*
X26000Y26380D02*
Y26720D01*
X25300Y26380D02*
X26000D01*
X20320Y20050D02*
Y20750D01*
X19980Y20050D02*
X20320D01*
X19980Y20750D02*
X20320D01*
X19980Y20050D02*
Y20750D01*
X21020Y20050D02*
Y20750D01*
X20680Y20050D02*
X21020D01*
X20680Y20750D02*
X21020D01*
X20680Y20050D02*
Y20750D01*
X40300Y29080D02*
X41000D01*
X40300D02*
Y29420D01*
X41000Y29080D02*
Y29420D01*
X40300D02*
X41000D01*
X40300Y28280D02*
X41000D01*
X40300D02*
Y28620D01*
X41000Y28280D02*
Y28620D01*
X40300D02*
X41000D01*
X27430Y39550D02*
Y40250D01*
Y39550D02*
X27770D01*
X27430Y40250D02*
X27770D01*
Y39550D02*
Y40250D01*
X26380Y39550D02*
Y40250D01*
Y39550D02*
X26720D01*
X26380Y40250D02*
X26720D01*
Y39550D02*
Y40250D01*
X29000Y30020D02*
X29700D01*
Y29680D02*
Y30020D01*
X29000Y29680D02*
Y30020D01*
Y29680D02*
X29700D01*
X29000Y27980D02*
X29700D01*
X29000D02*
Y28320D01*
X29700Y27980D02*
Y28320D01*
X29000D02*
X29700D01*
X29000Y30580D02*
X29700D01*
X29000D02*
Y30920D01*
X29700Y30580D02*
Y30920D01*
X29000D02*
X29700D01*
X29000Y28830D02*
X29700D01*
X29000D02*
Y29170D01*
X29700Y28830D02*
Y29170D01*
X29000D02*
X29700D01*
X29000Y25070D02*
X29700D01*
Y24730D02*
Y25070D01*
X29000Y24730D02*
Y25070D01*
Y24730D02*
X29700D01*
X29000Y25580D02*
X29700D01*
X29000D02*
Y25920D01*
X29700Y25580D02*
Y25920D01*
X29000D02*
X29700D01*
X29000Y26330D02*
X29700D01*
X29000D02*
Y26670D01*
X29700Y26330D02*
Y26670D01*
X29000D02*
X29700D01*
X43180Y26050D02*
X45280D01*
Y24750D02*
Y26050D01*
X43180Y24750D02*
Y26050D01*
Y24750D02*
X45280D01*
X31890Y34170D02*
X32590D01*
X31890Y33830D02*
Y34170D01*
X32590Y33830D02*
Y34170D01*
X31890Y33830D02*
X32590D01*
X30000Y34120D02*
X30700D01*
X30000Y33780D02*
Y34120D01*
X30700Y33780D02*
Y34120D01*
X30000Y33780D02*
X30700D01*
X40050Y36370D02*
X40750D01*
X40050Y36030D02*
Y36370D01*
X40750Y36030D02*
Y36370D01*
X40050Y36030D02*
X40750D01*
X40050Y35570D02*
X40750D01*
X40050Y35230D02*
Y35570D01*
X40750Y35230D02*
Y35570D01*
X40050Y35230D02*
X40750D01*
X40050Y34720D02*
X40750D01*
X40050Y34380D02*
Y34720D01*
X40750Y34380D02*
Y34720D01*
X40050Y34380D02*
X40750D01*
X40050Y33970D02*
X40750D01*
X40050Y33630D02*
Y33970D01*
X40750Y33630D02*
Y33970D01*
X40050Y33630D02*
X40750D01*
X38300Y28670D02*
X39000D01*
X38300Y28330D02*
Y28670D01*
X39000Y28330D02*
Y28670D01*
X38300Y28330D02*
X39000D01*
X30000Y31630D02*
X30700D01*
Y31970D01*
X30000Y31630D02*
Y31970D01*
X30700D01*
X30000Y28980D02*
X30700D01*
Y29320D01*
X30000Y28980D02*
Y29320D01*
X30700D01*
X30000Y31080D02*
X30700D01*
Y31420D01*
X30000Y31080D02*
Y31420D01*
X30700D01*
X30000Y28130D02*
X30700D01*
Y28470D01*
X30000Y28130D02*
Y28470D01*
X30700D01*
X30000Y32180D02*
X30700D01*
Y32520D01*
X30000Y32180D02*
Y32520D01*
X30700D01*
X28450Y29220D02*
X29150D01*
X28450Y28880D02*
Y29220D01*
X29150Y28880D02*
Y29220D01*
X28450Y28880D02*
X29150D01*
X28450Y28670D02*
X29150D01*
X28450Y28330D02*
Y28670D01*
X29150Y28330D02*
Y28670D01*
X28450Y28330D02*
X29150D01*
X38300Y30880D02*
X39000D01*
Y31220D01*
X38300Y30880D02*
Y31220D01*
X39000D01*
X38300Y31670D02*
X39000D01*
X38300Y31330D02*
Y31670D01*
X39000Y31330D02*
Y31670D01*
X38300Y31330D02*
X39000D01*
X38300Y29680D02*
X39000D01*
Y30020D01*
X38300Y29680D02*
Y30020D01*
X39000D01*
X38300Y29170D02*
X39000D01*
X38300Y28830D02*
Y29170D01*
X39000Y28830D02*
Y29170D01*
X38300Y28830D02*
X39000D01*
X33200Y34670D02*
X33900D01*
X33200Y34330D02*
Y34670D01*
X33900Y34330D02*
Y34670D01*
X33200Y34330D02*
X33900D01*
X30000Y30330D02*
X30700D01*
Y30670D01*
X30000Y30330D02*
Y30670D01*
X30700D01*
X33200Y34120D02*
X33900D01*
X33200Y33780D02*
Y34120D01*
X33900Y33780D02*
Y34120D01*
X33200Y33780D02*
X33900D01*
X38300Y30130D02*
X39000D01*
Y30470D01*
X38300Y30130D02*
Y30470D01*
X39000D01*
X35980Y33850D02*
Y34550D01*
Y33850D02*
X36320D01*
X35980Y34550D02*
X36320D01*
Y33850D02*
Y34550D01*
X24850Y20230D02*
X25550D01*
Y20570D01*
X24850Y20230D02*
Y20570D01*
X25550D01*
X40050Y33170D02*
X40750D01*
X40050Y32830D02*
Y33170D01*
X40750Y32830D02*
Y33170D01*
X40050Y32830D02*
X40750D01*
X22770Y32150D02*
Y32850D01*
X22430D02*
X22770D01*
X22430Y32150D02*
X22770D01*
X22430D02*
Y32850D01*
X28020Y35300D02*
Y36000D01*
X27680D02*
X28020D01*
X27680Y35300D02*
X28020D01*
X27680D02*
Y36000D01*
X22220Y32150D02*
Y32850D01*
X21880D02*
X22220D01*
X21880Y32150D02*
X22220D01*
X21880D02*
Y32850D01*
X18700Y35130D02*
X19400D01*
Y35470D01*
X18700Y35130D02*
Y35470D01*
X19400D01*
X28670Y39550D02*
Y40250D01*
X28330D02*
X28670D01*
X28330Y39550D02*
X28670D01*
X28330D02*
Y40250D01*
X29170Y39550D02*
Y40250D01*
X28830D02*
X29170D01*
X28830Y39550D02*
X29170D01*
X28830D02*
Y40250D01*
X27470Y35300D02*
Y36000D01*
X27130D02*
X27470D01*
X27130Y35300D02*
X27470D01*
X27130D02*
Y36000D01*
X26920Y35300D02*
Y36000D01*
X26580D02*
X26920D01*
X26580Y35300D02*
X26920D01*
X26580D02*
Y36000D01*
X26550Y34330D02*
X27250D01*
Y34670D01*
X26550Y34330D02*
Y34670D01*
X27250D01*
X27730Y36900D02*
Y37600D01*
Y36900D02*
X28070D01*
X27730Y37600D02*
X28070D01*
Y36900D02*
Y37600D01*
X21920Y38000D02*
Y38700D01*
X21580D02*
X21920D01*
X21580Y38000D02*
X21920D01*
X21580D02*
Y38700D01*
X19480Y38050D02*
Y38750D01*
Y38050D02*
X19820D01*
X19480Y38750D02*
X19820D01*
Y38050D02*
Y38750D01*
X18880Y38050D02*
Y38750D01*
Y38050D02*
X19220D01*
X18880Y38750D02*
X19220D01*
Y38050D02*
Y38750D01*
X20350Y38070D02*
X21050D01*
X20350Y37730D02*
Y38070D01*
X21050Y37730D02*
Y38070D01*
X20350Y37730D02*
X21050D01*
X20350Y38530D02*
X21050D01*
Y38870D01*
X20350Y38530D02*
Y38870D01*
X21050D01*
X33200Y17400D02*
Y18400D01*
Y17400D02*
X42200D01*
X33200Y18400D02*
X42200D01*
Y17400D02*
Y18400D01*
X40300Y27320D02*
X41000D01*
Y26980D02*
Y27320D01*
X40300Y26980D02*
Y27320D01*
Y26980D02*
X41000D01*
X40080Y31300D02*
Y32000D01*
X40420D01*
X40080Y31300D02*
X40420D01*
Y32000D01*
X28800Y33720D02*
X29500D01*
Y33380D02*
Y33720D01*
X28800Y33380D02*
Y33720D01*
Y33380D02*
X29500D01*
X41820Y27500D02*
Y28200D01*
X41480Y27500D02*
X41820D01*
X41480Y28200D02*
X41820D01*
X41480Y27500D02*
Y28200D01*
X22280Y31300D02*
Y32000D01*
X22620D01*
X22280Y31300D02*
X22620D01*
Y32000D01*
X24200Y17400D02*
Y18400D01*
Y17400D02*
X33200D01*
X24200Y18400D02*
X33200D01*
Y17400D02*
Y18400D01*
X23710Y42650D02*
Y43650D01*
Y42650D02*
X32710D01*
X23710Y43650D02*
X32710D01*
Y42650D02*
Y43650D01*
X19850Y31800D02*
X20850D01*
X19850Y29800D02*
Y31800D01*
Y29800D02*
X20850D01*
Y31800D01*
X43200Y23600D02*
X45300D01*
Y22300D02*
Y23600D01*
X43200Y22300D02*
Y23600D01*
Y22300D02*
X45300D01*
X22330Y29800D02*
Y30500D01*
X22670D01*
X22330Y29800D02*
X22670D01*
Y30500D01*
X28800Y32920D02*
X29500D01*
Y32580D02*
Y32920D01*
X28800Y32580D02*
Y32920D01*
Y32580D02*
X29500D01*
X28750Y35420D02*
X29450D01*
Y35080D02*
Y35420D01*
X28750Y35080D02*
Y35420D01*
Y35080D02*
X29450D01*
X28750Y34230D02*
X29450D01*
X28750D02*
Y34570D01*
X29450Y34230D02*
Y34570D01*
X28750D02*
X29450D01*
X23300Y31280D02*
X24000D01*
X23300D02*
Y31620D01*
X24000Y31280D02*
Y31620D01*
X23300D02*
X24000D01*
X41710Y42650D02*
Y43650D01*
X32710D02*
X41710D01*
X32710Y42650D02*
X41710D01*
X32710Y42650D02*
Y43650D01*
M02*
