G04*
G04 #@! TF.GenerationSoftware,Altium Limited,Altium Designer,20.2.6 (244)*
G04*
G04 Layer_Physical_Order=3*
G04 Layer_Color=16440176*
%FSLAX24Y24*%
%MOIN*%
G70*
G04*
G04 #@! TF.SameCoordinates,497DB355-11F3-479B-B1E2-BDA1D3AC948B*
G04*
G04*
G04 #@! TF.FilePolarity,Positive*
G04*
G01*
G75*
%ADD50C,0.0500*%
%ADD51O,0.0827X0.0394*%
%ADD52O,0.0630X0.0394*%
%ADD53C,0.0256*%
%ADD54C,0.0236*%
%ADD55C,0.0177*%
G36*
X46242Y44943D02*
X46531Y44894D01*
X46812Y44813D01*
X47082Y44701D01*
X47338Y44559D01*
X47577Y44390D01*
X47795Y44195D01*
X47990Y43977D01*
X48159Y43738D01*
X48301Y43482D01*
X48413Y43212D01*
X48494Y42931D01*
X48543Y42642D01*
X48559Y42353D01*
X48558Y42350D01*
Y17900D01*
X48559Y17897D01*
X48543Y17657D01*
X48496Y17419D01*
X48417Y17189D01*
X48310Y16971D01*
X48175Y16768D01*
X48014Y16586D01*
X47832Y16425D01*
X47629Y16290D01*
X47411Y16183D01*
X47181Y16104D01*
X46943Y16057D01*
X46703Y16041D01*
X46700Y16042D01*
X18450D01*
X18447Y16041D01*
X18158Y16057D01*
X17869Y16106D01*
X17588Y16187D01*
X17318Y16299D01*
X17062Y16441D01*
X16823Y16610D01*
X16605Y16805D01*
X16410Y17023D01*
X16241Y17262D01*
X16099Y17518D01*
X15987Y17788D01*
X15906Y18069D01*
X15857Y18358D01*
X15841Y18647D01*
X15842Y18650D01*
Y41650D01*
X15841Y41653D01*
X15857Y41974D01*
X15905Y42296D01*
X15984Y42611D01*
X16093Y42916D01*
X16232Y43210D01*
X16399Y43488D01*
X16592Y43749D01*
X16810Y43990D01*
X17051Y44208D01*
X17312Y44401D01*
X17590Y44568D01*
X17884Y44707D01*
X18189Y44816D01*
X18504Y44895D01*
X18826Y44943D01*
X19101Y44957D01*
X19150Y44958D01*
D01*
X19200Y44958D01*
X19200Y44958D01*
X45950D01*
X45953Y44959D01*
X46242Y44943D01*
D02*
G37*
%LPC*%
G36*
X41210Y43443D02*
X41134Y43433D01*
X41064Y43403D01*
X41003Y43357D01*
X40957Y43296D01*
X40927Y43226D01*
X40918Y43150D01*
X40927Y43074D01*
X40957Y43004D01*
X41003Y42943D01*
X41064Y42897D01*
X41134Y42867D01*
X41210Y42857D01*
X41286Y42867D01*
X41356Y42897D01*
X41417Y42943D01*
X41463Y43004D01*
X41493Y43074D01*
X41502Y43150D01*
X41493Y43226D01*
X41463Y43296D01*
X41417Y43357D01*
X41356Y43403D01*
X41286Y43433D01*
X41210Y43443D01*
D02*
G37*
G36*
X40210D02*
X40134Y43433D01*
X40064Y43403D01*
X40003Y43357D01*
X39957Y43296D01*
X39927Y43226D01*
X39918Y43150D01*
X39927Y43074D01*
X39957Y43004D01*
X40003Y42943D01*
X40064Y42897D01*
X40134Y42867D01*
X40210Y42857D01*
X40286Y42867D01*
X40356Y42897D01*
X40417Y42943D01*
X40463Y43004D01*
X40493Y43074D01*
X40503Y43150D01*
X40493Y43226D01*
X40463Y43296D01*
X40417Y43357D01*
X40356Y43403D01*
X40286Y43433D01*
X40210Y43443D01*
D02*
G37*
G36*
X39210D02*
X39134Y43433D01*
X39064Y43403D01*
X39003Y43357D01*
X38957Y43296D01*
X38927Y43226D01*
X38918Y43150D01*
X38927Y43074D01*
X38957Y43004D01*
X39003Y42943D01*
X39064Y42897D01*
X39134Y42867D01*
X39210Y42857D01*
X39286Y42867D01*
X39356Y42897D01*
X39417Y42943D01*
X39463Y43004D01*
X39493Y43074D01*
X39502Y43150D01*
X39493Y43226D01*
X39463Y43296D01*
X39417Y43357D01*
X39356Y43403D01*
X39286Y43433D01*
X39210Y43443D01*
D02*
G37*
G36*
X38210D02*
X38134Y43433D01*
X38064Y43403D01*
X38003Y43357D01*
X37957Y43296D01*
X37927Y43226D01*
X37917Y43150D01*
X37927Y43074D01*
X37957Y43004D01*
X38003Y42943D01*
X38064Y42897D01*
X38134Y42867D01*
X38210Y42857D01*
X38286Y42867D01*
X38356Y42897D01*
X38417Y42943D01*
X38463Y43004D01*
X38493Y43074D01*
X38503Y43150D01*
X38493Y43226D01*
X38463Y43296D01*
X38417Y43357D01*
X38356Y43403D01*
X38286Y43433D01*
X38210Y43443D01*
D02*
G37*
G36*
X37210D02*
X37134Y43433D01*
X37064Y43403D01*
X37003Y43357D01*
X36957Y43296D01*
X36927Y43226D01*
X36918Y43150D01*
X36927Y43074D01*
X36957Y43004D01*
X37003Y42943D01*
X37064Y42897D01*
X37134Y42867D01*
X37210Y42857D01*
X37286Y42867D01*
X37356Y42897D01*
X37417Y42943D01*
X37463Y43004D01*
X37493Y43074D01*
X37503Y43150D01*
X37493Y43226D01*
X37463Y43296D01*
X37417Y43357D01*
X37356Y43403D01*
X37286Y43433D01*
X37210Y43443D01*
D02*
G37*
G36*
X36210D02*
X36134Y43433D01*
X36064Y43403D01*
X36003Y43357D01*
X35957Y43296D01*
X35927Y43226D01*
X35917Y43150D01*
X35927Y43074D01*
X35957Y43004D01*
X36003Y42943D01*
X36064Y42897D01*
X36134Y42867D01*
X36210Y42857D01*
X36286Y42867D01*
X36356Y42897D01*
X36417Y42943D01*
X36463Y43004D01*
X36493Y43074D01*
X36502Y43150D01*
X36493Y43226D01*
X36463Y43296D01*
X36417Y43357D01*
X36356Y43403D01*
X36286Y43433D01*
X36210Y43443D01*
D02*
G37*
G36*
X35210D02*
X35134Y43433D01*
X35064Y43403D01*
X35003Y43357D01*
X34957Y43296D01*
X34927Y43226D01*
X34918Y43150D01*
X34927Y43074D01*
X34957Y43004D01*
X35003Y42943D01*
X35064Y42897D01*
X35134Y42867D01*
X35210Y42857D01*
X35286Y42867D01*
X35356Y42897D01*
X35417Y42943D01*
X35463Y43004D01*
X35493Y43074D01*
X35503Y43150D01*
X35493Y43226D01*
X35463Y43296D01*
X35417Y43357D01*
X35356Y43403D01*
X35286Y43433D01*
X35210Y43443D01*
D02*
G37*
G36*
X34210D02*
X34134Y43433D01*
X34064Y43403D01*
X34003Y43357D01*
X33957Y43296D01*
X33927Y43226D01*
X33918Y43150D01*
X33927Y43074D01*
X33957Y43004D01*
X34003Y42943D01*
X34064Y42897D01*
X34134Y42867D01*
X34210Y42857D01*
X34286Y42867D01*
X34356Y42897D01*
X34417Y42943D01*
X34463Y43004D01*
X34493Y43074D01*
X34502Y43150D01*
X34493Y43226D01*
X34463Y43296D01*
X34417Y43357D01*
X34356Y43403D01*
X34286Y43433D01*
X34210Y43443D01*
D02*
G37*
G36*
X33210D02*
X33134Y43433D01*
X33064Y43403D01*
X33003Y43357D01*
X32957Y43296D01*
X32927Y43226D01*
X32917Y43150D01*
X32927Y43074D01*
X32957Y43004D01*
X33003Y42943D01*
X33064Y42897D01*
X33134Y42867D01*
X33210Y42857D01*
X33286Y42867D01*
X33356Y42897D01*
X33417Y42943D01*
X33463Y43004D01*
X33493Y43074D01*
X33503Y43150D01*
X33493Y43226D01*
X33463Y43296D01*
X33417Y43357D01*
X33356Y43403D01*
X33286Y43433D01*
X33210Y43443D01*
D02*
G37*
G36*
X32210D02*
X32134Y43433D01*
X32064Y43403D01*
X32003Y43357D01*
X31957Y43296D01*
X31927Y43226D01*
X31918Y43150D01*
X31927Y43074D01*
X31957Y43004D01*
X32003Y42943D01*
X32064Y42897D01*
X32134Y42867D01*
X32210Y42857D01*
X32286Y42867D01*
X32356Y42897D01*
X32417Y42943D01*
X32463Y43004D01*
X32493Y43074D01*
X32503Y43150D01*
X32493Y43226D01*
X32463Y43296D01*
X32417Y43357D01*
X32356Y43403D01*
X32286Y43433D01*
X32210Y43443D01*
D02*
G37*
G36*
X31210D02*
X31134Y43433D01*
X31064Y43403D01*
X31003Y43357D01*
X30957Y43296D01*
X30927Y43226D01*
X30917Y43150D01*
X30927Y43074D01*
X30957Y43004D01*
X31003Y42943D01*
X31064Y42897D01*
X31134Y42867D01*
X31210Y42857D01*
X31286Y42867D01*
X31356Y42897D01*
X31417Y42943D01*
X31463Y43004D01*
X31493Y43074D01*
X31502Y43150D01*
X31493Y43226D01*
X31463Y43296D01*
X31417Y43357D01*
X31356Y43403D01*
X31286Y43433D01*
X31210Y43443D01*
D02*
G37*
G36*
X30210D02*
X30134Y43433D01*
X30064Y43403D01*
X30003Y43357D01*
X29957Y43296D01*
X29927Y43226D01*
X29918Y43150D01*
X29927Y43074D01*
X29957Y43004D01*
X30003Y42943D01*
X30064Y42897D01*
X30134Y42867D01*
X30210Y42857D01*
X30286Y42867D01*
X30356Y42897D01*
X30417Y42943D01*
X30463Y43004D01*
X30493Y43074D01*
X30503Y43150D01*
X30493Y43226D01*
X30463Y43296D01*
X30417Y43357D01*
X30356Y43403D01*
X30286Y43433D01*
X30210Y43443D01*
D02*
G37*
G36*
X29210D02*
X29134Y43433D01*
X29064Y43403D01*
X29003Y43357D01*
X28957Y43296D01*
X28927Y43226D01*
X28918Y43150D01*
X28927Y43074D01*
X28957Y43004D01*
X29003Y42943D01*
X29064Y42897D01*
X29134Y42867D01*
X29210Y42857D01*
X29286Y42867D01*
X29356Y42897D01*
X29417Y42943D01*
X29463Y43004D01*
X29493Y43074D01*
X29502Y43150D01*
X29493Y43226D01*
X29463Y43296D01*
X29417Y43357D01*
X29356Y43403D01*
X29286Y43433D01*
X29210Y43443D01*
D02*
G37*
G36*
X28210D02*
X28134Y43433D01*
X28064Y43403D01*
X28003Y43357D01*
X27957Y43296D01*
X27927Y43226D01*
X27917Y43150D01*
X27927Y43074D01*
X27957Y43004D01*
X28003Y42943D01*
X28064Y42897D01*
X28134Y42867D01*
X28210Y42857D01*
X28286Y42867D01*
X28356Y42897D01*
X28417Y42943D01*
X28463Y43004D01*
X28493Y43074D01*
X28503Y43150D01*
X28493Y43226D01*
X28463Y43296D01*
X28417Y43357D01*
X28356Y43403D01*
X28286Y43433D01*
X28210Y43443D01*
D02*
G37*
G36*
X27210D02*
X27134Y43433D01*
X27064Y43403D01*
X27003Y43357D01*
X26957Y43296D01*
X26927Y43226D01*
X26918Y43150D01*
X26927Y43074D01*
X26957Y43004D01*
X27003Y42943D01*
X27064Y42897D01*
X27134Y42867D01*
X27210Y42857D01*
X27286Y42867D01*
X27356Y42897D01*
X27417Y42943D01*
X27463Y43004D01*
X27493Y43074D01*
X27503Y43150D01*
X27493Y43226D01*
X27463Y43296D01*
X27417Y43357D01*
X27356Y43403D01*
X27286Y43433D01*
X27210Y43443D01*
D02*
G37*
G36*
X26210D02*
X26134Y43433D01*
X26064Y43403D01*
X26003Y43357D01*
X25957Y43296D01*
X25927Y43226D01*
X25917Y43150D01*
X25927Y43074D01*
X25957Y43004D01*
X26003Y42943D01*
X26064Y42897D01*
X26134Y42867D01*
X26210Y42857D01*
X26286Y42867D01*
X26356Y42897D01*
X26417Y42943D01*
X26463Y43004D01*
X26493Y43074D01*
X26502Y43150D01*
X26493Y43226D01*
X26463Y43296D01*
X26417Y43357D01*
X26356Y43403D01*
X26286Y43433D01*
X26210Y43443D01*
D02*
G37*
G36*
X25210D02*
X25134Y43433D01*
X25064Y43403D01*
X25003Y43357D01*
X24957Y43296D01*
X24927Y43226D01*
X24918Y43150D01*
X24927Y43074D01*
X24957Y43004D01*
X25003Y42943D01*
X25064Y42897D01*
X25134Y42867D01*
X25210Y42857D01*
X25286Y42867D01*
X25356Y42897D01*
X25417Y42943D01*
X25463Y43004D01*
X25493Y43074D01*
X25503Y43150D01*
X25493Y43226D01*
X25463Y43296D01*
X25417Y43357D01*
X25356Y43403D01*
X25286Y43433D01*
X25210Y43443D01*
D02*
G37*
G36*
X24210D02*
X24134Y43433D01*
X24064Y43403D01*
X24003Y43357D01*
X23957Y43296D01*
X23927Y43226D01*
X23918Y43150D01*
X23927Y43074D01*
X23957Y43004D01*
X24003Y42943D01*
X24064Y42897D01*
X24134Y42867D01*
X24210Y42857D01*
X24286Y42867D01*
X24356Y42897D01*
X24417Y42943D01*
X24463Y43004D01*
X24493Y43074D01*
X24502Y43150D01*
X24493Y43226D01*
X24463Y43296D01*
X24417Y43357D01*
X24356Y43403D01*
X24286Y43433D01*
X24210Y43443D01*
D02*
G37*
G36*
X21950Y40131D02*
X21900Y40121D01*
X21857Y40093D01*
X21829Y40050D01*
X21819Y40000D01*
X21829Y39950D01*
X21857Y39907D01*
X21900Y39879D01*
X21950Y39869D01*
X22000Y39879D01*
X22043Y39907D01*
X22071Y39950D01*
X22081Y40000D01*
X22071Y40050D01*
X22043Y40093D01*
X22000Y40121D01*
X21950Y40131D01*
D02*
G37*
G36*
X28000Y39531D02*
X27950Y39521D01*
X27907Y39493D01*
X27879Y39450D01*
X27869Y39400D01*
X27879Y39350D01*
X27907Y39307D01*
X27950Y39279D01*
X28000Y39269D01*
X28050Y39279D01*
X28093Y39307D01*
X28121Y39350D01*
X28131Y39400D01*
X28121Y39450D01*
X28093Y39493D01*
X28050Y39521D01*
X28000Y39531D01*
D02*
G37*
G36*
X28750Y39381D02*
X28700Y39371D01*
X28657Y39343D01*
X28629Y39300D01*
X28619Y39250D01*
X28629Y39200D01*
X28657Y39157D01*
X28700Y39129D01*
X28750Y39119D01*
X28800Y39129D01*
X28843Y39157D01*
X28871Y39200D01*
X28881Y39250D01*
X28871Y39300D01*
X28843Y39343D01*
X28800Y39371D01*
X28750Y39381D01*
D02*
G37*
G36*
X28400D02*
X28350Y39371D01*
X28307Y39343D01*
X28279Y39300D01*
X28269Y39250D01*
X28279Y39200D01*
X28307Y39157D01*
X28350Y39129D01*
X28400Y39119D01*
X28450Y39129D01*
X28493Y39157D01*
X28521Y39200D01*
X28531Y39250D01*
X28521Y39300D01*
X28493Y39343D01*
X28450Y39371D01*
X28400Y39381D01*
D02*
G37*
G36*
X19650Y39231D02*
X19600Y39221D01*
X19557Y39193D01*
X19529Y39150D01*
X19519Y39100D01*
X19529Y39050D01*
X19557Y39007D01*
X19600Y38979D01*
X19650Y38969D01*
X19700Y38979D01*
X19743Y39007D01*
X19771Y39050D01*
X19781Y39100D01*
X19771Y39150D01*
X19743Y39193D01*
X19700Y39221D01*
X19650Y39231D01*
D02*
G37*
G36*
X19200Y39081D02*
X19150Y39071D01*
X19107Y39043D01*
X19079Y39000D01*
X19069Y38950D01*
X19079Y38900D01*
X19107Y38857D01*
X19150Y38829D01*
X19200Y38819D01*
X19250Y38829D01*
X19293Y38857D01*
X19321Y38900D01*
X19331Y38950D01*
X19321Y39000D01*
X19293Y39043D01*
X19250Y39071D01*
X19200Y39081D01*
D02*
G37*
G36*
X20100Y38781D02*
X20050Y38771D01*
X20007Y38743D01*
X19979Y38700D01*
X19969Y38650D01*
X19979Y38600D01*
X20007Y38557D01*
X20050Y38529D01*
X20100Y38519D01*
X20150Y38529D01*
X20193Y38557D01*
X20221Y38600D01*
X20231Y38650D01*
X20221Y38700D01*
X20193Y38743D01*
X20150Y38771D01*
X20100Y38781D01*
D02*
G37*
G36*
X23850Y38581D02*
X23800Y38571D01*
X23757Y38543D01*
X23729Y38500D01*
X23719Y38450D01*
X23729Y38400D01*
X23757Y38357D01*
X23800Y38329D01*
X23850Y38319D01*
X23900Y38329D01*
X23943Y38357D01*
X23971Y38400D01*
X23981Y38450D01*
X23971Y38500D01*
X23943Y38543D01*
X23900Y38571D01*
X23850Y38581D01*
D02*
G37*
G36*
X22300Y38331D02*
X22250Y38321D01*
X22207Y38293D01*
X22179Y38250D01*
X22169Y38200D01*
X22179Y38150D01*
X22207Y38107D01*
X22250Y38079D01*
X22300Y38069D01*
X22350Y38079D01*
X22393Y38107D01*
X22421Y38150D01*
X22431Y38200D01*
X22421Y38250D01*
X22393Y38293D01*
X22350Y38321D01*
X22300Y38331D01*
D02*
G37*
G36*
X24550Y37782D02*
Y37650D01*
X24682D01*
X24678Y37674D01*
X24636Y37736D01*
X24574Y37778D01*
X24550Y37782D01*
D02*
G37*
G36*
X24450D02*
X24426Y37778D01*
X24364Y37736D01*
X24322Y37674D01*
X24318Y37650D01*
X24450D01*
Y37782D01*
D02*
G37*
G36*
X24682Y37550D02*
X24318D01*
X24322Y37526D01*
X24364Y37464D01*
Y37436D01*
X24322Y37374D01*
X24318Y37350D01*
X24682D01*
X24678Y37374D01*
X24636Y37436D01*
Y37464D01*
X24678Y37526D01*
X24682Y37550D01*
D02*
G37*
G36*
Y37250D02*
X24550D01*
Y37118D01*
X24574Y37122D01*
X24636Y37164D01*
X24678Y37226D01*
X24682Y37250D01*
D02*
G37*
G36*
X24450D02*
X24318D01*
X24322Y37226D01*
X24364Y37164D01*
X24426Y37122D01*
X24450Y37118D01*
Y37250D01*
D02*
G37*
G36*
X24350Y36731D02*
X24300Y36721D01*
X24257Y36693D01*
X24255Y36689D01*
X24195D01*
X24193Y36693D01*
X24150Y36721D01*
X24100Y36731D01*
X24050Y36721D01*
X24007Y36693D01*
X23979Y36650D01*
X23969Y36600D01*
X23979Y36550D01*
X24007Y36507D01*
X24050Y36479D01*
X24100Y36469D01*
X24150Y36479D01*
X24193Y36507D01*
X24195Y36511D01*
X24255D01*
X24257Y36507D01*
X24300Y36479D01*
X24350Y36469D01*
X24400Y36479D01*
X24443Y36507D01*
X24471Y36550D01*
X24481Y36600D01*
X24471Y36650D01*
X24443Y36693D01*
X24400Y36721D01*
X24350Y36731D01*
D02*
G37*
G36*
X41250Y36331D02*
X41200Y36321D01*
X41157Y36293D01*
X41129Y36250D01*
X41119Y36200D01*
X41129Y36150D01*
X41157Y36107D01*
X41200Y36079D01*
X41250Y36069D01*
X41300Y36079D01*
X41343Y36107D01*
X41371Y36150D01*
X41381Y36200D01*
X41371Y36250D01*
X41343Y36293D01*
X41300Y36321D01*
X41250Y36331D01*
D02*
G37*
G36*
X31250Y36081D02*
X31200Y36071D01*
X31157Y36043D01*
X31129Y36000D01*
X31119Y35950D01*
X31129Y35900D01*
X31157Y35857D01*
X31200Y35829D01*
X31250Y35819D01*
X31300Y35829D01*
X31343Y35857D01*
X31371Y35900D01*
X31381Y35950D01*
X31371Y36000D01*
X31343Y36043D01*
X31300Y36071D01*
X31250Y36081D01*
D02*
G37*
G36*
X46634Y36022D02*
X46584Y36012D01*
X46541Y35984D01*
X46513Y35941D01*
X46503Y35891D01*
X46513Y35841D01*
X46541Y35798D01*
X46584Y35770D01*
X46634Y35760D01*
X46684Y35770D01*
X46727Y35798D01*
X46755Y35841D01*
X46765Y35891D01*
X46755Y35941D01*
X46727Y35984D01*
X46684Y36012D01*
X46634Y36022D01*
D02*
G37*
G36*
X29800Y35981D02*
X29750Y35971D01*
X29707Y35943D01*
X29679Y35900D01*
X29669Y35850D01*
X29679Y35800D01*
X29707Y35757D01*
X29750Y35729D01*
X29800Y35719D01*
X29850Y35729D01*
X29893Y35757D01*
X29921Y35800D01*
X29931Y35850D01*
X29921Y35900D01*
X29893Y35943D01*
X29850Y35971D01*
X29800Y35981D01*
D02*
G37*
G36*
X23000D02*
X22950Y35971D01*
X22907Y35943D01*
X22879Y35900D01*
X22869Y35850D01*
X22879Y35800D01*
X22907Y35757D01*
X22950Y35729D01*
X23000Y35719D01*
X23050Y35729D01*
X23093Y35757D01*
X23121Y35800D01*
X23131Y35850D01*
X23121Y35900D01*
X23093Y35943D01*
X23050Y35971D01*
X23000Y35981D01*
D02*
G37*
G36*
X41200Y35781D02*
X41150Y35771D01*
X41107Y35743D01*
X41079Y35700D01*
X41069Y35650D01*
X41079Y35600D01*
X41107Y35557D01*
X41150Y35529D01*
X41200Y35519D01*
X41250Y35529D01*
X41293Y35557D01*
X41321Y35600D01*
X41331Y35650D01*
X41321Y35700D01*
X41293Y35743D01*
X41250Y35771D01*
X41200Y35781D01*
D02*
G37*
G36*
X30800Y35731D02*
X30750Y35721D01*
X30707Y35693D01*
X30679Y35650D01*
X30669Y35600D01*
X30679Y35550D01*
X30707Y35507D01*
X30750Y35479D01*
X30800Y35469D01*
X30850Y35479D01*
X30893Y35507D01*
X30921Y35550D01*
X30931Y35600D01*
X30921Y35650D01*
X30893Y35693D01*
X30850Y35721D01*
X30800Y35731D01*
D02*
G37*
G36*
X32200Y35681D02*
X32150Y35671D01*
X32107Y35643D01*
X32079Y35600D01*
X32069Y35550D01*
X32079Y35500D01*
X32107Y35457D01*
X32150Y35429D01*
X32200Y35419D01*
X32250Y35429D01*
X32293Y35457D01*
X32321Y35500D01*
X32331Y35550D01*
X32321Y35600D01*
X32293Y35643D01*
X32250Y35671D01*
X32200Y35681D01*
D02*
G37*
G36*
X27850Y35331D02*
X27800Y35321D01*
X27757Y35293D01*
X27729Y35250D01*
X27719Y35200D01*
X27729Y35150D01*
X27757Y35107D01*
X27800Y35079D01*
X27850Y35069D01*
X27900Y35079D01*
X27943Y35107D01*
X27971Y35150D01*
X27981Y35200D01*
X27971Y35250D01*
X27943Y35293D01*
X27900Y35321D01*
X27850Y35331D01*
D02*
G37*
G36*
X27500D02*
X27450Y35321D01*
X27407Y35293D01*
X27379Y35250D01*
X27369Y35200D01*
X27379Y35150D01*
X27407Y35107D01*
X27450Y35079D01*
X27500Y35069D01*
X27550Y35079D01*
X27593Y35107D01*
X27621Y35150D01*
X27631Y35200D01*
X27621Y35250D01*
X27593Y35293D01*
X27550Y35321D01*
X27500Y35331D01*
D02*
G37*
G36*
X27100D02*
X27050Y35321D01*
X27007Y35293D01*
X26979Y35250D01*
X26969Y35200D01*
X26979Y35150D01*
X27007Y35107D01*
X27050Y35079D01*
X27100Y35069D01*
X27150Y35079D01*
X27193Y35107D01*
X27221Y35150D01*
X27231Y35200D01*
X27221Y35250D01*
X27193Y35293D01*
X27150Y35321D01*
X27100Y35331D01*
D02*
G37*
G36*
X22600Y35231D02*
X22550Y35221D01*
X22507Y35193D01*
X22479Y35150D01*
X22469Y35100D01*
X22479Y35050D01*
X22507Y35007D01*
X22550Y34979D01*
X22600Y34969D01*
X22650Y34979D01*
X22693Y35007D01*
X22721Y35050D01*
X22731Y35100D01*
X22721Y35150D01*
X22693Y35193D01*
X22650Y35221D01*
X22600Y35231D01*
D02*
G37*
G36*
X21500D02*
X21450Y35221D01*
X21407Y35193D01*
X21379Y35150D01*
X21369Y35100D01*
X21379Y35050D01*
X21407Y35007D01*
X21450Y34979D01*
X21500Y34969D01*
X21550Y34979D01*
X21593Y35007D01*
X21621Y35050D01*
X21631Y35100D01*
X21621Y35150D01*
X21593Y35193D01*
X21550Y35221D01*
X21500Y35231D01*
D02*
G37*
G36*
X32100Y35031D02*
X32050Y35021D01*
X32007Y34993D01*
X31979Y34950D01*
X31969Y34900D01*
X31926Y34899D01*
X31897Y34936D01*
X31893Y34943D01*
X31850Y34971D01*
X31800Y34981D01*
X31750Y34971D01*
X31707Y34943D01*
X31679Y34900D01*
X31669Y34850D01*
X31679Y34800D01*
X31707Y34757D01*
X31711Y34755D01*
Y34695D01*
X31707Y34693D01*
X31679Y34650D01*
X31669Y34600D01*
X31679Y34550D01*
X31707Y34507D01*
X31750Y34479D01*
X31800Y34469D01*
X31850Y34479D01*
X31893Y34507D01*
X31897Y34514D01*
X31926Y34551D01*
X31969Y34550D01*
X31979Y34500D01*
X32007Y34457D01*
X32050Y34429D01*
X32100Y34419D01*
X32150Y34429D01*
X32193Y34457D01*
X32221Y34500D01*
X32231Y34550D01*
X32221Y34600D01*
X32193Y34643D01*
X32150Y34671D01*
X32100Y34681D01*
X32050Y34671D01*
X32007Y34643D01*
X32003Y34636D01*
X31974Y34599D01*
X31931Y34600D01*
X31921Y34650D01*
X31893Y34693D01*
X31889Y34695D01*
Y34755D01*
X31893Y34757D01*
X31921Y34800D01*
X31931Y34850D01*
X31974Y34851D01*
X32003Y34814D01*
X32007Y34807D01*
X32050Y34779D01*
X32100Y34769D01*
X32150Y34779D01*
X32193Y34807D01*
X32221Y34850D01*
X32231Y34900D01*
X32221Y34950D01*
X32193Y34993D01*
X32150Y35021D01*
X32100Y35031D01*
D02*
G37*
G36*
X45161Y35359D02*
X45068Y35341D01*
X44988Y35288D01*
X44935Y35208D01*
X44917Y35115D01*
X44935Y35021D01*
X44988Y34942D01*
X45068Y34888D01*
X45161Y34870D01*
X45255Y34888D01*
X45334Y34942D01*
X45387Y35021D01*
X45406Y35115D01*
X45387Y35208D01*
X45334Y35288D01*
X45255Y35341D01*
X45161Y35359D01*
D02*
G37*
G36*
X29750Y35131D02*
X29700Y35121D01*
X29657Y35093D01*
X29629Y35050D01*
X29619Y35000D01*
X29629Y34950D01*
X29657Y34907D01*
X29700Y34879D01*
X29750Y34869D01*
X29800Y34879D01*
X29843Y34907D01*
X29871Y34950D01*
X29881Y35000D01*
X29871Y35050D01*
X29843Y35093D01*
X29800Y35121D01*
X29750Y35131D01*
D02*
G37*
G36*
X41600Y34981D02*
X41550Y34971D01*
X41507Y34943D01*
X41479Y34900D01*
X41469Y34850D01*
X41479Y34800D01*
X41507Y34757D01*
X41550Y34729D01*
X41600Y34719D01*
X41650Y34729D01*
X41693Y34757D01*
X41721Y34800D01*
X41731Y34850D01*
X41721Y34900D01*
X41693Y34943D01*
X41650Y34971D01*
X41600Y34981D01*
D02*
G37*
G36*
X23750Y34631D02*
X23700Y34621D01*
X23657Y34593D01*
X23629Y34550D01*
X23619Y34500D01*
X23629Y34450D01*
X23657Y34407D01*
X23700Y34379D01*
X23750Y34369D01*
X23800Y34379D01*
X23843Y34407D01*
X23871Y34450D01*
X23881Y34500D01*
X23871Y34550D01*
X23843Y34593D01*
X23800Y34621D01*
X23750Y34631D01*
D02*
G37*
G36*
X26150Y34281D02*
X26100Y34271D01*
X26057Y34243D01*
X26029Y34200D01*
X26019Y34150D01*
X26023Y34131D01*
X25977Y34103D01*
X25950Y34121D01*
X25900Y34131D01*
X25850Y34121D01*
X25807Y34093D01*
X25779Y34050D01*
X25769Y34000D01*
X25779Y33950D01*
X25807Y33907D01*
X25850Y33879D01*
X25900Y33869D01*
X25950Y33879D01*
X25993Y33907D01*
X26021Y33950D01*
X26031Y34000D01*
X26027Y34019D01*
X26073Y34047D01*
X26100Y34029D01*
X26150Y34019D01*
X26200Y34029D01*
X26243Y34057D01*
X26271Y34100D01*
X26281Y34150D01*
X26271Y34200D01*
X26243Y34243D01*
X26200Y34271D01*
X26150Y34281D01*
D02*
G37*
G36*
X25550D02*
X25500Y34271D01*
X25457Y34243D01*
X25429Y34200D01*
X25419Y34150D01*
X25429Y34100D01*
X25457Y34057D01*
X25500Y34029D01*
X25550Y34019D01*
X25600Y34029D01*
X25643Y34057D01*
X25671Y34100D01*
X25681Y34150D01*
X25671Y34200D01*
X25643Y34243D01*
X25600Y34271D01*
X25550Y34281D01*
D02*
G37*
G36*
X41150Y33631D02*
X41100Y33621D01*
X41057Y33593D01*
X41029Y33550D01*
X41019Y33500D01*
X41029Y33450D01*
X41057Y33407D01*
X41100Y33379D01*
X41150Y33369D01*
X41200Y33379D01*
X41243Y33407D01*
X41271Y33450D01*
X41281Y33500D01*
X41271Y33550D01*
X41243Y33593D01*
X41200Y33621D01*
X41150Y33631D01*
D02*
G37*
G36*
X34750Y33381D02*
X34700Y33371D01*
X34657Y33343D01*
X34629Y33300D01*
X34619Y33250D01*
X34629Y33200D01*
X34647Y33173D01*
X34619Y33127D01*
X34600Y33131D01*
X34550Y33121D01*
X34507Y33093D01*
X34479Y33050D01*
X34469Y33000D01*
X34479Y32950D01*
X34507Y32907D01*
X34550Y32879D01*
X34600Y32869D01*
X34650Y32879D01*
X34693Y32907D01*
X34721Y32950D01*
X34731Y33000D01*
X34721Y33050D01*
X34703Y33077D01*
X34731Y33123D01*
X34750Y33119D01*
X34800Y33129D01*
X34843Y33157D01*
X34871Y33200D01*
X34881Y33250D01*
X34871Y33300D01*
X34843Y33343D01*
X34800Y33371D01*
X34750Y33381D01*
D02*
G37*
G36*
X33800Y33231D02*
X33750Y33221D01*
X33707Y33193D01*
X33679Y33150D01*
X33669Y33100D01*
X33679Y33050D01*
X33707Y33007D01*
X33750Y32979D01*
X33800Y32969D01*
X33850Y32979D01*
X33893Y33007D01*
X33921Y33050D01*
X33931Y33100D01*
X33921Y33150D01*
X33893Y33193D01*
X33850Y33221D01*
X33800Y33231D01*
D02*
G37*
G36*
X45161Y33430D02*
X45068Y33412D01*
X44988Y33358D01*
X44935Y33279D01*
X44917Y33185D01*
X44935Y33092D01*
X44988Y33012D01*
X45068Y32959D01*
X45161Y32941D01*
X45255Y32959D01*
X45334Y33012D01*
X45387Y33092D01*
X45406Y33185D01*
X45387Y33279D01*
X45334Y33358D01*
X45255Y33412D01*
X45161Y33430D01*
D02*
G37*
G36*
X41150Y33131D02*
X41100Y33121D01*
X41057Y33093D01*
X41029Y33050D01*
X41019Y33000D01*
X41029Y32950D01*
X41057Y32907D01*
X41100Y32879D01*
X41150Y32869D01*
X41200Y32879D01*
X41243Y32907D01*
X41271Y32950D01*
X41281Y33000D01*
X41271Y33050D01*
X41243Y33093D01*
X41200Y33121D01*
X41150Y33131D01*
D02*
G37*
G36*
X34250Y33031D02*
X34200Y33021D01*
X34157Y32993D01*
X34129Y32950D01*
X34119Y32900D01*
X34129Y32850D01*
X34157Y32807D01*
X34200Y32779D01*
X34250Y32769D01*
X34300Y32779D01*
X34343Y32807D01*
X34371Y32850D01*
X34381Y32900D01*
X34371Y32950D01*
X34343Y32993D01*
X34300Y33021D01*
X34250Y33031D01*
D02*
G37*
G36*
X21300Y32981D02*
X21250Y32971D01*
X21207Y32943D01*
X21179Y32900D01*
X21169Y32850D01*
X21179Y32800D01*
X21207Y32757D01*
X21250Y32729D01*
X21300Y32719D01*
X21350Y32729D01*
X21393Y32757D01*
X21421Y32800D01*
X21431Y32850D01*
X21421Y32900D01*
X21393Y32943D01*
X21350Y32971D01*
X21300Y32981D01*
D02*
G37*
G36*
X44650Y32881D02*
X44600Y32871D01*
X44557Y32843D01*
X44529Y32800D01*
X44519Y32750D01*
X44529Y32700D01*
X44557Y32657D01*
X44600Y32629D01*
X44650Y32619D01*
X44700Y32629D01*
X44743Y32657D01*
X44771Y32700D01*
X44781Y32750D01*
X44771Y32800D01*
X44743Y32843D01*
X44700Y32871D01*
X44650Y32881D01*
D02*
G37*
G36*
X32350D02*
X32300Y32871D01*
X32257Y32843D01*
X32229Y32800D01*
X32219Y32750D01*
X32229Y32700D01*
X32257Y32657D01*
X32300Y32629D01*
X32350Y32619D01*
X32400Y32629D01*
X32443Y32657D01*
X32471Y32700D01*
X32481Y32750D01*
X32471Y32800D01*
X32443Y32843D01*
X32400Y32871D01*
X32350Y32881D01*
D02*
G37*
G36*
X46634Y32880D02*
X46584Y32870D01*
X46541Y32842D01*
X46513Y32799D01*
X46503Y32749D01*
X46513Y32699D01*
X46541Y32657D01*
X46584Y32628D01*
X46634Y32618D01*
X46684Y32628D01*
X46727Y32657D01*
X46755Y32699D01*
X46765Y32749D01*
X46755Y32799D01*
X46727Y32842D01*
X46684Y32870D01*
X46634Y32880D01*
D02*
G37*
G36*
X34000Y32831D02*
X33950Y32821D01*
X33907Y32793D01*
X33879Y32750D01*
X33869Y32700D01*
X33879Y32650D01*
X33907Y32607D01*
X33950Y32579D01*
X34000Y32569D01*
X34050Y32579D01*
X34093Y32607D01*
X34121Y32650D01*
X34131Y32700D01*
X34121Y32750D01*
X34093Y32793D01*
X34050Y32821D01*
X34000Y32831D01*
D02*
G37*
G36*
X32800D02*
X32750Y32821D01*
X32707Y32793D01*
X32679Y32750D01*
X32669Y32700D01*
X32679Y32650D01*
X32707Y32607D01*
X32750Y32579D01*
X32800Y32569D01*
X32850Y32579D01*
X32893Y32607D01*
X32921Y32650D01*
X32931Y32700D01*
X32921Y32750D01*
X32893Y32793D01*
X32850Y32821D01*
X32800Y32831D01*
D02*
G37*
G36*
X36050Y32581D02*
X36000Y32571D01*
X35957Y32543D01*
X35929Y32500D01*
X35925Y32483D01*
X35875D01*
X35871Y32500D01*
X35843Y32543D01*
X35800Y32571D01*
X35750Y32581D01*
X35700Y32571D01*
X35657Y32543D01*
X35655Y32539D01*
X35595D01*
X35593Y32543D01*
X35550Y32571D01*
X35500Y32581D01*
X35450Y32571D01*
X35407Y32543D01*
X35379Y32500D01*
X35369Y32450D01*
X35379Y32400D01*
X35407Y32357D01*
X35450Y32329D01*
X35500Y32319D01*
X35550Y32329D01*
X35593Y32357D01*
X35595Y32361D01*
X35655D01*
X35657Y32357D01*
X35700Y32329D01*
X35750Y32319D01*
X35800Y32329D01*
X35843Y32357D01*
X35871Y32400D01*
X35875Y32417D01*
X35925D01*
X35929Y32400D01*
X35957Y32357D01*
X36000Y32329D01*
X36050Y32319D01*
X36100Y32329D01*
X36143Y32357D01*
X36171Y32400D01*
X36181Y32450D01*
X36171Y32500D01*
X36143Y32543D01*
X36100Y32571D01*
X36050Y32581D01*
D02*
G37*
G36*
X35050Y32731D02*
X35000Y32721D01*
X34957Y32693D01*
X34929Y32650D01*
X34919Y32600D01*
X34929Y32550D01*
X34957Y32507D01*
X35000Y32479D01*
X35050Y32469D01*
X35100Y32479D01*
X35143Y32507D01*
X35171Y32550D01*
X35181Y32600D01*
X35171Y32650D01*
X35143Y32693D01*
X35100Y32721D01*
X35050Y32731D01*
D02*
G37*
G36*
X33600D02*
X33550Y32721D01*
X33507Y32693D01*
X33479Y32650D01*
X33469Y32600D01*
X33479Y32550D01*
X33507Y32507D01*
X33550Y32479D01*
X33600Y32469D01*
X33650Y32479D01*
X33693Y32507D01*
X33721Y32550D01*
X33731Y32600D01*
X33721Y32650D01*
X33693Y32693D01*
X33650Y32721D01*
X33600Y32731D01*
D02*
G37*
G36*
X25650Y32631D02*
X25600Y32621D01*
X25557Y32593D01*
X25529Y32550D01*
X25519Y32500D01*
X25529Y32450D01*
X25557Y32407D01*
X25600Y32379D01*
X25650Y32369D01*
X25700Y32379D01*
X25743Y32407D01*
X25771Y32450D01*
X25781Y32500D01*
X25771Y32550D01*
X25743Y32593D01*
X25700Y32621D01*
X25650Y32631D01*
D02*
G37*
G36*
X26550Y32531D02*
X26500Y32521D01*
X26457Y32493D01*
X26429Y32450D01*
X26419Y32400D01*
X26429Y32350D01*
X26457Y32307D01*
X26500Y32279D01*
X26550Y32269D01*
X26600Y32279D01*
X26643Y32307D01*
X26671Y32350D01*
X26681Y32400D01*
X26671Y32450D01*
X26643Y32493D01*
X26600Y32521D01*
X26550Y32531D01*
D02*
G37*
G36*
X24400Y32231D02*
X24350Y32221D01*
X24307Y32193D01*
X24279Y32150D01*
X24269Y32100D01*
X24279Y32050D01*
X24307Y32007D01*
X24350Y31979D01*
X24400Y31969D01*
X24450Y31979D01*
X24493Y32007D01*
X24521Y32050D01*
X24531Y32100D01*
X24521Y32150D01*
X24493Y32193D01*
X24450Y32221D01*
X24400Y32231D01*
D02*
G37*
G36*
X32050Y32081D02*
X32000Y32071D01*
X31957Y32043D01*
X31929Y32000D01*
X31919Y31950D01*
X31929Y31900D01*
X31957Y31857D01*
X32000Y31829D01*
X32050Y31819D01*
X32100Y31829D01*
X32143Y31857D01*
X32171Y31900D01*
X32181Y31950D01*
X32171Y32000D01*
X32143Y32043D01*
X32100Y32071D01*
X32050Y32081D01*
D02*
G37*
G36*
X37060Y31997D02*
X37010Y31987D01*
X36967Y31959D01*
X36939Y31916D01*
X36929Y31866D01*
X36939Y31816D01*
X36967Y31773D01*
X37010Y31745D01*
X37060Y31735D01*
X37110Y31745D01*
X37153Y31773D01*
X37181Y31816D01*
X37191Y31866D01*
X37181Y31916D01*
X37153Y31959D01*
X37110Y31987D01*
X37060Y31997D01*
D02*
G37*
G36*
X32150Y31781D02*
X32100Y31771D01*
X32057Y31743D01*
X32029Y31700D01*
X32019Y31650D01*
X32029Y31600D01*
X32057Y31557D01*
X32100Y31529D01*
X32150Y31519D01*
X32200Y31529D01*
X32243Y31557D01*
X32271Y31600D01*
X32281Y31650D01*
X32271Y31700D01*
X32243Y31743D01*
X32200Y31771D01*
X32150Y31781D01*
D02*
G37*
G36*
X37050Y31681D02*
X37000Y31671D01*
X36957Y31643D01*
X36929Y31600D01*
X36919Y31550D01*
X36929Y31500D01*
X36957Y31457D01*
X37000Y31429D01*
X37050Y31419D01*
X37100Y31429D01*
X37143Y31457D01*
X37171Y31500D01*
X37181Y31550D01*
X37171Y31600D01*
X37143Y31643D01*
X37100Y31671D01*
X37050Y31681D01*
D02*
G37*
G36*
X37475Y31660D02*
X37425Y31650D01*
X37382Y31622D01*
X37354Y31579D01*
X37344Y31529D01*
X37354Y31479D01*
X37382Y31437D01*
X37425Y31408D01*
X37475Y31398D01*
X37525Y31408D01*
X37568Y31437D01*
X37596Y31479D01*
X37606Y31529D01*
X37596Y31579D01*
X37568Y31622D01*
X37525Y31650D01*
X37475Y31660D01*
D02*
G37*
G36*
X34150Y31482D02*
Y31350D01*
X34282D01*
X34278Y31374D01*
X34236Y31436D01*
X34174Y31478D01*
X34150Y31482D01*
D02*
G37*
G36*
X34050D02*
X34026Y31478D01*
X33964Y31436D01*
X33922Y31374D01*
X33918Y31350D01*
X34050D01*
Y31482D01*
D02*
G37*
G36*
X24200Y31581D02*
X24150Y31571D01*
X24107Y31543D01*
X24079Y31500D01*
X24069Y31450D01*
X24079Y31400D01*
X24107Y31357D01*
X24150Y31329D01*
X24200Y31319D01*
X24250Y31329D01*
X24293Y31357D01*
X24321Y31400D01*
X24331Y31450D01*
X24321Y31500D01*
X24293Y31543D01*
X24250Y31571D01*
X24200Y31581D01*
D02*
G37*
G36*
X34800Y31432D02*
Y31300D01*
X34932D01*
X34928Y31324D01*
X34886Y31386D01*
X34824Y31428D01*
X34800Y31432D01*
D02*
G37*
G36*
X34700D02*
X34676Y31428D01*
X34614Y31386D01*
X34572Y31324D01*
X34568Y31300D01*
X34700D01*
Y31432D01*
D02*
G37*
G36*
X35550Y31382D02*
Y31250D01*
X35682D01*
X35678Y31274D01*
X35636Y31336D01*
X35574Y31378D01*
X35550Y31382D01*
D02*
G37*
G36*
X35450D02*
X35426Y31378D01*
X35364Y31336D01*
X35322Y31274D01*
X35313Y31228D01*
X35260Y31203D01*
X35224Y31228D01*
X35200Y31232D01*
Y31050D01*
X35150D01*
Y31000D01*
X34968D01*
X34972Y30976D01*
X35009Y30922D01*
X35013Y30911D01*
X35002Y30862D01*
X34964Y30836D01*
X34940Y30799D01*
X34937Y30799D01*
X34889Y30814D01*
X34878Y30874D01*
X34836Y30936D01*
X34774Y30978D01*
X34750Y30982D01*
Y30800D01*
Y30618D01*
X34774Y30622D01*
X34836Y30664D01*
X34860Y30701D01*
X34863Y30701D01*
X34911Y30686D01*
X34922Y30626D01*
X34964Y30564D01*
X35026Y30522D01*
X35050Y30518D01*
Y30700D01*
X35150D01*
Y30518D01*
X35174Y30522D01*
X35236Y30564D01*
X35266Y30608D01*
X35270Y30614D01*
X35304Y30600D01*
X35682D01*
X35678Y30624D01*
X35651Y30664D01*
X35640Y30700D01*
X35651Y30736D01*
X35678Y30776D01*
X35682Y30800D01*
X35500D01*
Y30900D01*
X35682D01*
X35678Y30924D01*
X35636Y30986D01*
X35615Y31000D01*
Y31050D01*
X35636Y31064D01*
X35678Y31126D01*
X35682Y31150D01*
X35500D01*
Y31200D01*
X35450D01*
Y31382D01*
D02*
G37*
G36*
X33600Y31332D02*
Y31200D01*
X33732D01*
X33728Y31224D01*
X33686Y31286D01*
X33624Y31328D01*
X33600Y31332D01*
D02*
G37*
G36*
X33500D02*
X33476Y31328D01*
X33414Y31286D01*
X33372Y31224D01*
X33368Y31200D01*
X33500D01*
Y31332D01*
D02*
G37*
G36*
X34282Y31250D02*
X34150D01*
Y31118D01*
X34174Y31122D01*
X34236Y31164D01*
X34278Y31226D01*
X34282Y31250D01*
D02*
G37*
G36*
X34050D02*
X33918D01*
X33922Y31226D01*
X33964Y31164D01*
X34026Y31122D01*
X34050Y31118D01*
Y31250D01*
D02*
G37*
G36*
X35100Y31232D02*
X35076Y31228D01*
X35014Y31186D01*
X34972Y31124D01*
X34968Y31100D01*
X35100D01*
Y31232D01*
D02*
G37*
G36*
X34932Y31200D02*
X34800D01*
Y31068D01*
X34824Y31072D01*
X34886Y31114D01*
X34928Y31176D01*
X34932Y31200D01*
D02*
G37*
G36*
X34700D02*
X34568D01*
X34572Y31176D01*
X34614Y31114D01*
X34676Y31072D01*
X34700Y31068D01*
Y31200D01*
D02*
G37*
G36*
X37550Y31281D02*
X37500Y31271D01*
X37457Y31243D01*
X37429Y31200D01*
X37419Y31150D01*
X37429Y31100D01*
X37457Y31057D01*
X37500Y31029D01*
X37550Y31019D01*
X37600Y31029D01*
X37643Y31057D01*
X37671Y31100D01*
X37681Y31150D01*
X37671Y31200D01*
X37643Y31243D01*
X37600Y31271D01*
X37550Y31281D01*
D02*
G37*
G36*
X37050D02*
X37000Y31271D01*
X36957Y31243D01*
X36929Y31200D01*
X36919Y31150D01*
X36929Y31100D01*
X36957Y31057D01*
X37000Y31029D01*
X37050Y31019D01*
X37100Y31029D01*
X37143Y31057D01*
X37171Y31100D01*
X37181Y31150D01*
X37171Y31200D01*
X37143Y31243D01*
X37100Y31271D01*
X37050Y31281D01*
D02*
G37*
G36*
X26200D02*
X26150Y31271D01*
X26107Y31243D01*
X26079Y31200D01*
X26069Y31150D01*
X26079Y31100D01*
X26107Y31057D01*
X26150Y31029D01*
X26200Y31019D01*
X26250Y31029D01*
X26293Y31057D01*
X26321Y31100D01*
X26331Y31150D01*
X26321Y31200D01*
X26293Y31243D01*
X26250Y31271D01*
X26200Y31281D01*
D02*
G37*
G36*
X20350Y31593D02*
X20274Y31583D01*
X20204Y31553D01*
X20143Y31507D01*
X20097Y31446D01*
X20067Y31376D01*
X20057Y31300D01*
X20067Y31224D01*
X20097Y31154D01*
X20143Y31093D01*
X20204Y31047D01*
X20274Y31017D01*
X20350Y31007D01*
X20426Y31017D01*
X20496Y31047D01*
X20557Y31093D01*
X20603Y31154D01*
X20633Y31224D01*
X20642Y31300D01*
X20633Y31376D01*
X20603Y31446D01*
X20557Y31507D01*
X20496Y31553D01*
X20426Y31583D01*
X20350Y31593D01*
D02*
G37*
G36*
X33250Y31082D02*
X33226Y31078D01*
X33164Y31036D01*
X33122Y30974D01*
X33118Y30950D01*
X33250D01*
Y31082D01*
D02*
G37*
G36*
X34650Y30982D02*
X34626Y30978D01*
X34564Y30936D01*
X34522Y30874D01*
X34518Y30850D01*
X34650D01*
Y30982D01*
D02*
G37*
G36*
X34050D02*
Y30850D01*
X34182D01*
X34178Y30874D01*
X34136Y30936D01*
X34074Y30978D01*
X34050Y30982D01*
D02*
G37*
G36*
X33250Y30850D02*
X33118D01*
X33122Y30826D01*
X33164Y30764D01*
X33226Y30722D01*
X33250Y30718D01*
Y30850D01*
D02*
G37*
G36*
X34650Y30750D02*
X34518D01*
X34522Y30726D01*
X34564Y30664D01*
X34626Y30622D01*
X34650Y30618D01*
Y30750D01*
D02*
G37*
G36*
X34182D02*
X34050D01*
Y30618D01*
X34074Y30622D01*
X34136Y30664D01*
X34178Y30726D01*
X34182Y30750D01*
D02*
G37*
G36*
X37050Y30831D02*
X37000Y30821D01*
X36957Y30793D01*
X36929Y30750D01*
X36919Y30700D01*
X36929Y30650D01*
X36957Y30607D01*
X37000Y30579D01*
X37050Y30569D01*
X37100Y30579D01*
X37143Y30607D01*
X37171Y30650D01*
X37181Y30700D01*
X37171Y30750D01*
X37143Y30793D01*
X37100Y30821D01*
X37050Y30831D01*
D02*
G37*
G36*
X33732Y31100D02*
X33350D01*
Y30900D01*
Y30718D01*
X33374Y30722D01*
X33410Y30747D01*
X33463Y30722D01*
X33472Y30676D01*
X33514Y30614D01*
X33576Y30572D01*
X33604Y30567D01*
X33622Y30523D01*
X33618Y30500D01*
X33982D01*
X33978Y30524D01*
X33949Y30567D01*
X33950Y30569D01*
Y30800D01*
Y30982D01*
X33926Y30978D01*
X33864Y30936D01*
X33838Y30898D01*
X33789Y30887D01*
X33778Y30891D01*
X33724Y30928D01*
X33664Y30939D01*
X33649Y30987D01*
X33649Y30990D01*
X33686Y31014D01*
X33728Y31076D01*
X33732Y31100D01*
D02*
G37*
G36*
X34450Y30582D02*
Y30450D01*
X34582D01*
X34578Y30474D01*
X34536Y30536D01*
X34474Y30578D01*
X34450Y30582D01*
D02*
G37*
G36*
X34350D02*
X34326Y30578D01*
X34264Y30536D01*
X34222Y30474D01*
X34218Y30450D01*
X34350D01*
Y30582D01*
D02*
G37*
G36*
X20400Y30646D02*
Y30350D01*
X20696D01*
X20691Y30391D01*
X20656Y30477D01*
X20600Y30550D01*
X20527Y30606D01*
X20441Y30641D01*
X20400Y30646D01*
D02*
G37*
G36*
X35682Y30500D02*
X35280D01*
X35269Y30486D01*
X35226Y30478D01*
X35164Y30436D01*
X35122Y30374D01*
X35118Y30350D01*
X35520D01*
X35531Y30364D01*
X35574Y30372D01*
X35636Y30414D01*
X35678Y30476D01*
X35682Y30500D01*
D02*
G37*
G36*
X20300Y30646D02*
X20259Y30641D01*
X20173Y30606D01*
X20100Y30550D01*
X20044Y30477D01*
X20009Y30391D01*
X20004Y30350D01*
X20300D01*
Y30646D01*
D02*
G37*
G36*
X33982Y30400D02*
X33850D01*
Y30268D01*
X33874Y30272D01*
X33936Y30314D01*
X33978Y30376D01*
X33982Y30400D01*
D02*
G37*
G36*
X33750D02*
X33618D01*
X33622Y30376D01*
X33664Y30314D01*
X33726Y30272D01*
X33750Y30268D01*
Y30400D01*
D02*
G37*
G36*
X33500Y30382D02*
Y30250D01*
X33632D01*
X33628Y30274D01*
X33586Y30336D01*
X33524Y30378D01*
X33500Y30382D01*
D02*
G37*
G36*
X33400D02*
X33376Y30378D01*
X33314Y30336D01*
X33272Y30274D01*
X33268Y30250D01*
X33400D01*
Y30382D01*
D02*
G37*
G36*
X32150Y30481D02*
X32100Y30471D01*
X32057Y30443D01*
X32029Y30400D01*
X32019Y30350D01*
X32029Y30300D01*
X32057Y30257D01*
X32100Y30229D01*
X32150Y30219D01*
X32200Y30229D01*
X32243Y30257D01*
X32271Y30300D01*
X32281Y30350D01*
X32271Y30400D01*
X32243Y30443D01*
X32200Y30471D01*
X32150Y30481D01*
D02*
G37*
G36*
X34582Y30350D02*
X34450D01*
Y30218D01*
X34474Y30222D01*
X34536Y30264D01*
X34578Y30326D01*
X34582Y30350D01*
D02*
G37*
G36*
X34350D02*
X34218D01*
X34222Y30326D01*
X34264Y30264D01*
X34326Y30222D01*
X34350Y30218D01*
Y30350D01*
D02*
G37*
G36*
X37000Y30381D02*
X36950Y30371D01*
X36907Y30343D01*
X36879Y30300D01*
X36869Y30250D01*
X36879Y30200D01*
X36907Y30157D01*
X36950Y30129D01*
X37000Y30119D01*
X37050Y30129D01*
X37093Y30157D01*
X37121Y30200D01*
X37131Y30250D01*
X37121Y30300D01*
X37093Y30343D01*
X37050Y30371D01*
X37000Y30381D01*
D02*
G37*
G36*
X35482Y30250D02*
X35350D01*
Y30118D01*
X35374Y30122D01*
X35436Y30164D01*
X35478Y30226D01*
X35482Y30250D01*
D02*
G37*
G36*
X35250D02*
X35118D01*
X35122Y30226D01*
X35164Y30164D01*
X35226Y30122D01*
X35250Y30118D01*
Y30250D01*
D02*
G37*
G36*
X33400Y30150D02*
X33268D01*
X33272Y30126D01*
X33314Y30064D01*
X33376Y30022D01*
X33400Y30018D01*
Y30150D01*
D02*
G37*
G36*
X20696Y30250D02*
X20400D01*
Y29954D01*
X20441Y29959D01*
X20527Y29994D01*
X20600Y30050D01*
X20656Y30123D01*
X20691Y30209D01*
X20696Y30250D01*
D02*
G37*
G36*
X20300D02*
X20004D01*
X20009Y30209D01*
X20044Y30123D01*
X20100Y30050D01*
X20173Y29994D01*
X20259Y29959D01*
X20300Y29954D01*
Y30250D01*
D02*
G37*
G36*
X35100Y30082D02*
Y29950D01*
X35232D01*
X35228Y29974D01*
X35186Y30036D01*
X35124Y30078D01*
X35100Y30082D01*
D02*
G37*
G36*
X33750D02*
Y29950D01*
X33882D01*
X33878Y29974D01*
X33836Y30036D01*
X33774Y30078D01*
X33750Y30082D01*
D02*
G37*
G36*
X33632Y30150D02*
X33500D01*
Y30003D01*
X33522Y29974D01*
X33518Y29950D01*
X33650D01*
Y30097D01*
X33628Y30126D01*
X33632Y30150D01*
D02*
G37*
G36*
X35000Y30082D02*
X34976Y30078D01*
X34914Y30036D01*
X34872Y29974D01*
X34871Y29967D01*
X34816Y29949D01*
X34774Y29978D01*
X34750Y29982D01*
Y29800D01*
Y29618D01*
X34774Y29622D01*
X34836Y29664D01*
X34878Y29726D01*
X34879Y29733D01*
X34934Y29751D01*
X34976Y29722D01*
X35000Y29718D01*
Y29900D01*
Y30082D01*
D02*
G37*
G36*
X40350Y30181D02*
X40300Y30171D01*
X40257Y30143D01*
X40229Y30100D01*
X40219Y30050D01*
X40229Y30000D01*
X40257Y29957D01*
X40300Y29929D01*
X40350Y29919D01*
X40400Y29929D01*
X40443Y29957D01*
X40471Y30000D01*
X40481Y30050D01*
X40471Y30100D01*
X40443Y30143D01*
X40400Y30171D01*
X40350Y30181D01*
D02*
G37*
G36*
X34650Y29982D02*
X34626Y29978D01*
X34564Y29936D01*
X34522Y29874D01*
X34518Y29850D01*
X34650D01*
Y29982D01*
D02*
G37*
G36*
X35232Y29850D02*
X35100D01*
Y29718D01*
X35124Y29722D01*
X35186Y29764D01*
X35228Y29826D01*
X35232Y29850D01*
D02*
G37*
G36*
X33882D02*
X33750D01*
Y29718D01*
X33774Y29722D01*
X33836Y29764D01*
X33878Y29826D01*
X33882Y29850D01*
D02*
G37*
G36*
X33650D02*
X33518D01*
X33522Y29826D01*
X33564Y29764D01*
X33626Y29722D01*
X33650Y29718D01*
Y29850D01*
D02*
G37*
G36*
X36100Y29931D02*
X36050Y29921D01*
X36007Y29893D01*
X35979Y29850D01*
X35969Y29800D01*
X35979Y29750D01*
X36007Y29707D01*
X36050Y29679D01*
X36100Y29669D01*
X36150Y29679D01*
X36193Y29707D01*
X36221Y29750D01*
X36231Y29800D01*
X36221Y29850D01*
X36193Y29893D01*
X36150Y29921D01*
X36100Y29931D01*
D02*
G37*
G36*
X34650Y29750D02*
X34518D01*
X34522Y29726D01*
X34564Y29664D01*
X34626Y29622D01*
X34650Y29618D01*
Y29750D01*
D02*
G37*
G36*
X40050Y29831D02*
X40000Y29821D01*
X39957Y29793D01*
X39929Y29750D01*
X39919Y29700D01*
X39929Y29650D01*
X39957Y29607D01*
X40000Y29579D01*
X40050Y29569D01*
X40100Y29579D01*
X40143Y29607D01*
X40171Y29650D01*
X40181Y29700D01*
X40171Y29750D01*
X40143Y29793D01*
X40100Y29821D01*
X40050Y29831D01*
D02*
G37*
G36*
X38700Y29731D02*
X38650Y29721D01*
X38607Y29693D01*
X38579Y29650D01*
X38569Y29600D01*
X38579Y29550D01*
X38607Y29507D01*
X38650Y29479D01*
X38700Y29469D01*
X38750Y29479D01*
X38793Y29507D01*
X38821Y29550D01*
X38831Y29600D01*
X38821Y29650D01*
X38793Y29693D01*
X38750Y29721D01*
X38700Y29731D01*
D02*
G37*
G36*
X38150D02*
X38100Y29721D01*
X38057Y29693D01*
X38029Y29650D01*
X38019Y29600D01*
X38029Y29550D01*
X38057Y29507D01*
X38100Y29479D01*
X38150Y29469D01*
X38200Y29479D01*
X38243Y29507D01*
X38271Y29550D01*
X38281Y29600D01*
X38271Y29650D01*
X38243Y29693D01*
X38200Y29721D01*
X38150Y29731D01*
D02*
G37*
G36*
X37100D02*
X37050Y29721D01*
X37007Y29693D01*
X36979Y29650D01*
X36969Y29600D01*
X36979Y29550D01*
X37007Y29507D01*
X37050Y29479D01*
X37100Y29469D01*
X37150Y29479D01*
X37193Y29507D01*
X37221Y29550D01*
X37231Y29600D01*
X37221Y29650D01*
X37193Y29693D01*
X37150Y29721D01*
X37100Y29731D01*
D02*
G37*
G36*
X22500D02*
X22450Y29721D01*
X22407Y29693D01*
X22379Y29650D01*
X22369Y29600D01*
X22379Y29550D01*
X22407Y29507D01*
X22450Y29479D01*
X22500Y29469D01*
X22550Y29479D01*
X22593Y29507D01*
X22621Y29550D01*
X22631Y29600D01*
X22621Y29650D01*
X22593Y29693D01*
X22550Y29721D01*
X22500Y29731D01*
D02*
G37*
G36*
X37700Y29681D02*
X37650Y29671D01*
X37607Y29643D01*
X37579Y29600D01*
X37569Y29550D01*
X37579Y29500D01*
X37607Y29457D01*
X37650Y29429D01*
X37700Y29419D01*
X37750Y29429D01*
X37793Y29457D01*
X37821Y29500D01*
X37831Y29550D01*
X37821Y29600D01*
X37793Y29643D01*
X37750Y29671D01*
X37700Y29681D01*
D02*
G37*
G36*
X33050Y29581D02*
X33000Y29571D01*
X32957Y29543D01*
X32929Y29500D01*
X32919Y29450D01*
X32929Y29400D01*
X32957Y29357D01*
X33000Y29329D01*
X33050Y29319D01*
X33100Y29329D01*
X33143Y29357D01*
X33171Y29400D01*
X33181Y29450D01*
X33171Y29500D01*
X33143Y29543D01*
X33100Y29571D01*
X33050Y29581D01*
D02*
G37*
G36*
X29000D02*
X28950Y29571D01*
X28907Y29543D01*
X28879Y29500D01*
X28869Y29450D01*
X28879Y29400D01*
X28907Y29357D01*
X28950Y29329D01*
X29000Y29319D01*
X29050Y29329D01*
X29093Y29357D01*
X29121Y29400D01*
X29131Y29450D01*
X29121Y29500D01*
X29093Y29543D01*
X29050Y29571D01*
X29000Y29581D01*
D02*
G37*
G36*
X25150Y29431D02*
X25100Y29421D01*
X25057Y29393D01*
X25029Y29350D01*
X25019Y29300D01*
X25029Y29250D01*
X25057Y29207D01*
X25100Y29179D01*
X25150Y29169D01*
X25200Y29179D01*
X25243Y29207D01*
X25271Y29250D01*
X25281Y29300D01*
X25271Y29350D01*
X25243Y29393D01*
X25200Y29421D01*
X25150Y29431D01*
D02*
G37*
G36*
X37100Y29381D02*
X37050Y29371D01*
X37007Y29343D01*
X36979Y29300D01*
X36969Y29250D01*
X36979Y29200D01*
X37007Y29157D01*
X37050Y29129D01*
X37100Y29119D01*
X37150Y29129D01*
X37193Y29157D01*
X37221Y29200D01*
X37231Y29250D01*
X37221Y29300D01*
X37193Y29343D01*
X37150Y29371D01*
X37100Y29381D01*
D02*
G37*
G36*
X37650Y29206D02*
X37600Y29196D01*
X37557Y29168D01*
X37529Y29125D01*
X37519Y29075D01*
X37529Y29025D01*
X37557Y28982D01*
X37600Y28954D01*
X37650Y28944D01*
X37700Y28954D01*
X37743Y28982D01*
X37771Y29025D01*
X37781Y29075D01*
X37771Y29125D01*
X37743Y29168D01*
X37700Y29196D01*
X37650Y29206D01*
D02*
G37*
G36*
X21800Y29181D02*
X21750Y29171D01*
X21707Y29143D01*
X21679Y29100D01*
X21669Y29050D01*
X21679Y29000D01*
X21707Y28957D01*
X21750Y28929D01*
X21800Y28919D01*
X21850Y28929D01*
X21893Y28957D01*
X21921Y29000D01*
X21931Y29050D01*
X21921Y29100D01*
X21893Y29143D01*
X21850Y29171D01*
X21800Y29181D01*
D02*
G37*
G36*
X33900Y29032D02*
Y28900D01*
X34032D01*
X34028Y28924D01*
X33986Y28986D01*
X33924Y29028D01*
X33900Y29032D01*
D02*
G37*
G36*
X33800D02*
X33776Y29028D01*
X33714Y28986D01*
X33672Y28924D01*
X33668Y28900D01*
X33800D01*
Y29032D01*
D02*
G37*
G36*
X32100Y29131D02*
X32050Y29121D01*
X32007Y29093D01*
X31979Y29050D01*
X31969Y29000D01*
X31979Y28950D01*
X32007Y28907D01*
X32050Y28879D01*
X32100Y28869D01*
X32150Y28879D01*
X32193Y28907D01*
X32221Y28950D01*
X32231Y29000D01*
X32221Y29050D01*
X32193Y29093D01*
X32150Y29121D01*
X32100Y29131D01*
D02*
G37*
G36*
X33050Y29081D02*
X33000Y29071D01*
X32957Y29043D01*
X32929Y29000D01*
X32919Y28950D01*
X32929Y28900D01*
X32957Y28857D01*
X33000Y28829D01*
X33050Y28819D01*
X33100Y28829D01*
X33143Y28857D01*
X33171Y28900D01*
X33181Y28950D01*
X33171Y29000D01*
X33143Y29043D01*
X33100Y29071D01*
X33050Y29081D01*
D02*
G37*
G36*
X23200Y29031D02*
X23150Y29021D01*
X23107Y28993D01*
X23079Y28950D01*
X23069Y28900D01*
X23079Y28850D01*
X23107Y28807D01*
X23150Y28779D01*
X23200Y28769D01*
X23250Y28779D01*
X23293Y28807D01*
X23321Y28850D01*
X23331Y28900D01*
X23321Y28950D01*
X23293Y28993D01*
X23250Y29021D01*
X23200Y29031D01*
D02*
G37*
G36*
X37100Y28981D02*
X37050Y28971D01*
X37007Y28943D01*
X36979Y28900D01*
X36969Y28850D01*
X36979Y28800D01*
X37007Y28757D01*
X37050Y28729D01*
X37100Y28719D01*
X37150Y28729D01*
X37193Y28757D01*
X37221Y28800D01*
X37231Y28850D01*
X37221Y28900D01*
X37193Y28943D01*
X37150Y28971D01*
X37100Y28981D01*
D02*
G37*
G36*
X39650Y28931D02*
X39600Y28921D01*
X39557Y28893D01*
X39529Y28850D01*
X39519Y28800D01*
X39529Y28750D01*
X39557Y28707D01*
X39600Y28679D01*
X39650Y28669D01*
X39700Y28679D01*
X39743Y28707D01*
X39771Y28750D01*
X39781Y28800D01*
X39771Y28850D01*
X39743Y28893D01*
X39700Y28921D01*
X39650Y28931D01*
D02*
G37*
G36*
X30300D02*
X30250Y28921D01*
X30207Y28893D01*
X30179Y28850D01*
X30169Y28800D01*
X30179Y28750D01*
X30207Y28707D01*
X30250Y28679D01*
X30300Y28669D01*
X30350Y28679D01*
X30393Y28707D01*
X30421Y28750D01*
X30431Y28800D01*
X30421Y28850D01*
X30393Y28893D01*
X30350Y28921D01*
X30300Y28931D01*
D02*
G37*
G36*
X34032Y28800D02*
X33900D01*
Y28668D01*
X33924Y28672D01*
X33986Y28714D01*
X34028Y28776D01*
X34032Y28800D01*
D02*
G37*
G36*
X33800D02*
X33668D01*
X33672Y28776D01*
X33714Y28714D01*
X33776Y28672D01*
X33800Y28668D01*
Y28800D01*
D02*
G37*
G36*
X35150Y28731D02*
X35100Y28721D01*
X35057Y28693D01*
X35029Y28650D01*
X35025Y28633D01*
X34975D01*
X34971Y28650D01*
X34943Y28693D01*
X34900Y28721D01*
X34850Y28731D01*
X34800Y28721D01*
X34757Y28693D01*
X34729Y28650D01*
X34725Y28633D01*
X34675D01*
X34671Y28650D01*
X34643Y28693D01*
X34600Y28721D01*
X34550Y28731D01*
X34500Y28721D01*
X34457Y28693D01*
X34429Y28650D01*
X34419Y28600D01*
X34429Y28550D01*
X34457Y28507D01*
X34500Y28479D01*
X34550Y28469D01*
X34600Y28479D01*
X34643Y28507D01*
X34671Y28550D01*
X34675Y28567D01*
X34725D01*
X34729Y28550D01*
X34757Y28507D01*
X34800Y28479D01*
X34850Y28469D01*
X34900Y28479D01*
X34943Y28507D01*
X34971Y28550D01*
X34975Y28567D01*
X35025D01*
X35029Y28550D01*
X35057Y28507D01*
X35100Y28479D01*
X35150Y28469D01*
X35200Y28479D01*
X35243Y28507D01*
X35271Y28550D01*
X35281Y28600D01*
X35271Y28650D01*
X35243Y28693D01*
X35200Y28721D01*
X35150Y28731D01*
D02*
G37*
G36*
X35525Y28781D02*
X35475Y28771D01*
X35432Y28743D01*
X35404Y28700D01*
X35394Y28650D01*
X35404Y28600D01*
X35432Y28557D01*
X35475Y28529D01*
X35525Y28519D01*
X35575Y28529D01*
X35618Y28557D01*
X35646Y28600D01*
X35656Y28650D01*
X35646Y28700D01*
X35618Y28743D01*
X35575Y28771D01*
X35525Y28781D01*
D02*
G37*
G36*
X37400Y28731D02*
X37350Y28721D01*
X37307Y28693D01*
X37279Y28650D01*
X37269Y28600D01*
X37279Y28550D01*
X37307Y28507D01*
X37350Y28479D01*
X37400Y28469D01*
X37450Y28479D01*
X37493Y28507D01*
X37521Y28550D01*
X37531Y28600D01*
X37521Y28650D01*
X37493Y28693D01*
X37450Y28721D01*
X37400Y28731D01*
D02*
G37*
G36*
X36050D02*
X36000Y28721D01*
X35957Y28693D01*
X35929Y28650D01*
X35919Y28600D01*
X35929Y28550D01*
X35957Y28507D01*
X36000Y28479D01*
X36050Y28469D01*
X36100Y28479D01*
X36143Y28507D01*
X36171Y28550D01*
X36181Y28600D01*
X36171Y28650D01*
X36143Y28693D01*
X36100Y28721D01*
X36050Y28731D01*
D02*
G37*
G36*
X34200D02*
X34150Y28721D01*
X34107Y28693D01*
X34079Y28650D01*
X34069Y28600D01*
X34079Y28550D01*
X34107Y28507D01*
X34150Y28479D01*
X34200Y28469D01*
X34250Y28479D01*
X34293Y28507D01*
X34321Y28550D01*
X34331Y28600D01*
X34321Y28650D01*
X34293Y28693D01*
X34250Y28721D01*
X34200Y28731D01*
D02*
G37*
G36*
X33100D02*
X33050Y28721D01*
X33007Y28693D01*
X32979Y28650D01*
X32969Y28600D01*
X32979Y28550D01*
X33007Y28507D01*
X33050Y28479D01*
X33100Y28469D01*
X33150Y28479D01*
X33193Y28507D01*
X33221Y28550D01*
X33231Y28600D01*
X33221Y28650D01*
X33193Y28693D01*
X33150Y28721D01*
X33100Y28731D01*
D02*
G37*
G36*
X33500Y28681D02*
X33450Y28671D01*
X33407Y28643D01*
X33379Y28600D01*
X33369Y28550D01*
X33379Y28500D01*
X33407Y28457D01*
X33450Y28429D01*
X33500Y28419D01*
X33550Y28429D01*
X33593Y28457D01*
X33621Y28500D01*
X33631Y28550D01*
X33621Y28600D01*
X33593Y28643D01*
X33550Y28671D01*
X33500Y28681D01*
D02*
G37*
G36*
X29350Y28631D02*
X29300Y28621D01*
X29257Y28593D01*
X29229Y28550D01*
X29219Y28500D01*
X29229Y28450D01*
X29257Y28407D01*
X29300Y28379D01*
X29350Y28369D01*
X29400Y28379D01*
X29443Y28407D01*
X29471Y28450D01*
X29481Y28500D01*
X29471Y28550D01*
X29443Y28593D01*
X29400Y28621D01*
X29350Y28631D01*
D02*
G37*
G36*
X37100Y28531D02*
X37050Y28521D01*
X37007Y28493D01*
X36979Y28450D01*
X36969Y28400D01*
X36979Y28350D01*
X37007Y28307D01*
X37050Y28279D01*
X37100Y28269D01*
X37150Y28279D01*
X37193Y28307D01*
X37221Y28350D01*
X37231Y28400D01*
X37221Y28450D01*
X37193Y28493D01*
X37150Y28521D01*
X37100Y28531D01*
D02*
G37*
G36*
X39300Y28281D02*
X39250Y28271D01*
X39207Y28243D01*
X39179Y28200D01*
X39169Y28150D01*
X39179Y28100D01*
X39207Y28057D01*
X39250Y28029D01*
X39300Y28019D01*
X39350Y28029D01*
X39393Y28057D01*
X39421Y28100D01*
X39431Y28150D01*
X39421Y28200D01*
X39393Y28243D01*
X39350Y28271D01*
X39300Y28281D01*
D02*
G37*
G36*
X32300Y28581D02*
X32250Y28571D01*
X32207Y28543D01*
X32179Y28500D01*
X32169Y28450D01*
X32179Y28400D01*
X32207Y28357D01*
X32250Y28329D01*
X32267Y28325D01*
Y28275D01*
X32250Y28271D01*
X32207Y28243D01*
X32179Y28200D01*
X32169Y28150D01*
X32179Y28100D01*
X32207Y28057D01*
X32250Y28029D01*
X32300Y28019D01*
X32350Y28029D01*
X32393Y28057D01*
X32421Y28100D01*
X32431Y28150D01*
X32421Y28200D01*
X32393Y28243D01*
X32350Y28271D01*
X32333Y28275D01*
Y28325D01*
X32350Y28329D01*
X32393Y28357D01*
X32421Y28400D01*
X32431Y28450D01*
X32421Y28500D01*
X32393Y28543D01*
X32350Y28571D01*
X32300Y28581D01*
D02*
G37*
G36*
X34650Y27981D02*
X34600Y27971D01*
X34557Y27943D01*
X34529Y27900D01*
X34525Y27883D01*
X34475D01*
X34471Y27900D01*
X34443Y27943D01*
X34400Y27971D01*
X34350Y27981D01*
X34300Y27971D01*
X34257Y27943D01*
X34229Y27900D01*
X34219Y27850D01*
X34229Y27800D01*
X34257Y27757D01*
X34300Y27729D01*
X34350Y27719D01*
X34400Y27729D01*
X34443Y27757D01*
X34471Y27800D01*
X34475Y27817D01*
X34525D01*
X34529Y27800D01*
X34557Y27757D01*
X34600Y27729D01*
X34650Y27719D01*
X34700Y27729D01*
X34743Y27757D01*
X34771Y27800D01*
X34781Y27850D01*
X34771Y27900D01*
X34743Y27943D01*
X34700Y27971D01*
X34650Y27981D01*
D02*
G37*
G36*
X39950Y28031D02*
X39900Y28021D01*
X39857Y27993D01*
X39829Y27950D01*
X39819Y27900D01*
X39829Y27850D01*
X39857Y27807D01*
X39900Y27779D01*
X39950Y27769D01*
X40000Y27779D01*
X40043Y27807D01*
X40071Y27850D01*
X40081Y27900D01*
X40071Y27950D01*
X40043Y27993D01*
X40000Y28021D01*
X39950Y28031D01*
D02*
G37*
G36*
X36750D02*
X36700Y28021D01*
X36657Y27993D01*
X36629Y27950D01*
X36619Y27900D01*
X36629Y27850D01*
X36657Y27807D01*
X36700Y27779D01*
X36750Y27769D01*
X36800Y27779D01*
X36843Y27807D01*
X36871Y27850D01*
X36881Y27900D01*
X36871Y27950D01*
X36843Y27993D01*
X36800Y28021D01*
X36750Y28031D01*
D02*
G37*
G36*
X35750Y27981D02*
X35700Y27971D01*
X35657Y27943D01*
X35629Y27900D01*
X35619Y27850D01*
X35629Y27800D01*
X35657Y27757D01*
X35700Y27729D01*
X35750Y27719D01*
X35800Y27729D01*
X35843Y27757D01*
X35871Y27800D01*
X35881Y27850D01*
X35871Y27900D01*
X35843Y27943D01*
X35800Y27971D01*
X35750Y27981D01*
D02*
G37*
G36*
X36200Y27831D02*
X36150Y27821D01*
X36107Y27793D01*
X36079Y27750D01*
X36069Y27700D01*
X36079Y27650D01*
X36107Y27607D01*
X36150Y27579D01*
X36200Y27569D01*
X36250Y27579D01*
X36293Y27607D01*
X36321Y27650D01*
X36331Y27700D01*
X36321Y27750D01*
X36293Y27793D01*
X36250Y27821D01*
X36200Y27831D01*
D02*
G37*
G36*
X34900Y27482D02*
Y27350D01*
X35032D01*
X35028Y27374D01*
X34986Y27436D01*
X34924Y27478D01*
X34900Y27482D01*
D02*
G37*
G36*
X34800D02*
X34776Y27478D01*
X34714Y27436D01*
X34672Y27374D01*
X34668Y27350D01*
X34800D01*
Y27482D01*
D02*
G37*
G36*
X35550Y27581D02*
X35500Y27571D01*
X35457Y27543D01*
X35429Y27500D01*
X35419Y27450D01*
X35429Y27400D01*
X35457Y27357D01*
X35500Y27329D01*
X35550Y27319D01*
X35600Y27329D01*
X35643Y27357D01*
X35671Y27400D01*
X35681Y27450D01*
X35671Y27500D01*
X35643Y27543D01*
X35600Y27571D01*
X35550Y27581D01*
D02*
G37*
G36*
X32750D02*
X32700Y27571D01*
X32657Y27543D01*
X32629Y27500D01*
X32619Y27450D01*
X32629Y27400D01*
X32657Y27357D01*
X32700Y27329D01*
X32750Y27319D01*
X32800Y27329D01*
X32843Y27357D01*
X32871Y27400D01*
X32881Y27450D01*
X32871Y27500D01*
X32843Y27543D01*
X32800Y27571D01*
X32750Y27581D01*
D02*
G37*
G36*
X33163Y27579D02*
X33112Y27569D01*
X33070Y27541D01*
X33041Y27498D01*
X33031Y27448D01*
X33041Y27398D01*
X33070Y27356D01*
X33112Y27327D01*
X33163Y27317D01*
X33213Y27327D01*
X33255Y27356D01*
X33284Y27398D01*
X33294Y27448D01*
X33284Y27498D01*
X33255Y27541D01*
X33213Y27569D01*
X33163Y27579D01*
D02*
G37*
G36*
X33600Y27431D02*
X33550Y27421D01*
X33507Y27393D01*
X33479Y27350D01*
X33469Y27300D01*
X33479Y27250D01*
X33507Y27207D01*
X33550Y27179D01*
X33600Y27169D01*
X33650Y27179D01*
X33693Y27207D01*
X33721Y27250D01*
X33731Y27300D01*
X33721Y27350D01*
X33693Y27393D01*
X33650Y27421D01*
X33600Y27431D01*
D02*
G37*
G36*
X35032Y27250D02*
X34900D01*
Y27118D01*
X34924Y27122D01*
X34986Y27164D01*
X35028Y27226D01*
X35032Y27250D01*
D02*
G37*
G36*
X34800D02*
X34668D01*
X34672Y27226D01*
X34714Y27164D01*
X34776Y27122D01*
X34800Y27118D01*
Y27250D01*
D02*
G37*
G36*
X32950Y27331D02*
X32900Y27321D01*
X32857Y27293D01*
X32829Y27250D01*
X32819Y27200D01*
X32829Y27150D01*
X32857Y27107D01*
X32900Y27079D01*
X32950Y27069D01*
X33000Y27079D01*
X33043Y27107D01*
X33071Y27150D01*
X33081Y27200D01*
X33071Y27250D01*
X33043Y27293D01*
X33000Y27321D01*
X32950Y27331D01*
D02*
G37*
G36*
X31400Y27274D02*
X31350Y27264D01*
X31307Y27236D01*
X31279Y27193D01*
X31269Y27143D01*
X31279Y27093D01*
X31307Y27050D01*
X31350Y27022D01*
X31400Y27012D01*
X31450Y27022D01*
X31493Y27050D01*
X31521Y27093D01*
X31531Y27143D01*
X31521Y27193D01*
X31493Y27236D01*
X31450Y27264D01*
X31400Y27274D01*
D02*
G37*
G36*
X34250Y27231D02*
X34200Y27221D01*
X34157Y27193D01*
X34129Y27150D01*
X34119Y27100D01*
X34129Y27050D01*
X34157Y27007D01*
X34200Y26979D01*
X34250Y26969D01*
X34300Y26979D01*
X34343Y27007D01*
X34371Y27050D01*
X34381Y27100D01*
X34371Y27150D01*
X34343Y27193D01*
X34300Y27221D01*
X34250Y27231D01*
D02*
G37*
G36*
X33325D02*
X33275Y27221D01*
X33232Y27193D01*
X33204Y27150D01*
X33194Y27100D01*
X33204Y27050D01*
X33232Y27007D01*
X33275Y26979D01*
X33325Y26969D01*
X33375Y26979D01*
X33418Y27007D01*
X33446Y27050D01*
X33456Y27100D01*
X33446Y27150D01*
X33418Y27193D01*
X33375Y27221D01*
X33325Y27231D01*
D02*
G37*
G36*
X34650Y27032D02*
Y26900D01*
X34782D01*
X34778Y26924D01*
X34736Y26986D01*
X34674Y27028D01*
X34650Y27032D01*
D02*
G37*
G36*
X36850Y27131D02*
X36800Y27121D01*
X36757Y27093D01*
X36729Y27050D01*
X36719Y27000D01*
X36729Y26950D01*
X36757Y26907D01*
X36800Y26879D01*
X36850Y26869D01*
X36900Y26879D01*
X36943Y26907D01*
X36971Y26950D01*
X36981Y27000D01*
X36971Y27050D01*
X36943Y27093D01*
X36900Y27121D01*
X36850Y27131D01*
D02*
G37*
G36*
X25050D02*
X25000Y27121D01*
X24957Y27093D01*
X24929Y27050D01*
X24919Y27000D01*
X24929Y26950D01*
X24957Y26907D01*
X25000Y26879D01*
X25050Y26869D01*
X25100Y26879D01*
X25143Y26907D01*
X25171Y26950D01*
X25181Y27000D01*
X25171Y27050D01*
X25143Y27093D01*
X25100Y27121D01*
X25050Y27131D01*
D02*
G37*
G36*
X34050Y26981D02*
X34000Y26971D01*
X33957Y26943D01*
X33929Y26900D01*
X33919Y26850D01*
X33929Y26800D01*
X33957Y26757D01*
X34000Y26729D01*
X34050Y26719D01*
X34100Y26729D01*
X34143Y26757D01*
X34171Y26800D01*
X34181Y26850D01*
X34171Y26900D01*
X34143Y26943D01*
X34100Y26971D01*
X34050Y26981D01*
D02*
G37*
G36*
X35550Y26832D02*
X35526Y26828D01*
X35464Y26786D01*
X35422Y26724D01*
X35418Y26700D01*
X35550D01*
Y26832D01*
D02*
G37*
G36*
X32900Y26931D02*
X32850Y26921D01*
X32807Y26893D01*
X32779Y26850D01*
X32769Y26800D01*
X32779Y26750D01*
X32807Y26707D01*
X32850Y26679D01*
X32900Y26669D01*
X32950Y26679D01*
X32993Y26707D01*
X33021Y26750D01*
X33031Y26800D01*
X33021Y26850D01*
X32993Y26893D01*
X32950Y26921D01*
X32900Y26931D01*
D02*
G37*
G36*
X29200Y26881D02*
X29150Y26871D01*
X29107Y26843D01*
X29079Y26800D01*
X29069Y26750D01*
X29079Y26700D01*
X29107Y26657D01*
X29150Y26629D01*
X29200Y26619D01*
X29250Y26629D01*
X29293Y26657D01*
X29321Y26700D01*
X29331Y26750D01*
X29321Y26800D01*
X29293Y26843D01*
X29250Y26871D01*
X29200Y26881D01*
D02*
G37*
G36*
X29694Y26875D02*
X29644Y26865D01*
X29601Y26837D01*
X29573Y26794D01*
X29563Y26744D01*
X29573Y26694D01*
X29601Y26651D01*
X29644Y26623D01*
X29694Y26613D01*
X29744Y26623D01*
X29787Y26651D01*
X29815Y26694D01*
X29825Y26744D01*
X29815Y26794D01*
X29787Y26837D01*
X29744Y26865D01*
X29694Y26875D01*
D02*
G37*
G36*
X35900Y26632D02*
Y26500D01*
X36032D01*
X36028Y26524D01*
X35986Y26586D01*
X35924Y26628D01*
X35900Y26632D01*
D02*
G37*
G36*
X35550Y26600D02*
X35418D01*
X35422Y26576D01*
X35464Y26514D01*
X35526Y26472D01*
X35550Y26468D01*
Y26600D01*
D02*
G37*
G36*
X34550Y27032D02*
X34526Y27028D01*
X34464Y26986D01*
X34422Y26924D01*
X34408Y26850D01*
X34411Y26834D01*
X34376Y26828D01*
X34314Y26786D01*
X34272Y26724D01*
X34268Y26700D01*
X34450D01*
Y26600D01*
X34268D01*
X34272Y26576D01*
X34311Y26519D01*
X34272Y26461D01*
X34268Y26438D01*
X34632D01*
X34628Y26461D01*
X34589Y26519D01*
X34628Y26576D01*
X34642Y26650D01*
X34639Y26666D01*
X34674Y26672D01*
X34736Y26714D01*
X34778Y26776D01*
X34782Y26800D01*
X34600D01*
Y26850D01*
X34550D01*
Y27032D01*
D02*
G37*
G36*
X33850Y26681D02*
X33800Y26671D01*
X33757Y26643D01*
X33729Y26600D01*
X33719Y26550D01*
X33729Y26500D01*
X33757Y26457D01*
X33800Y26429D01*
X33850Y26419D01*
X33900Y26429D01*
X33943Y26457D01*
X33971Y26500D01*
X33981Y26550D01*
X33971Y26600D01*
X33943Y26643D01*
X33900Y26671D01*
X33850Y26681D01*
D02*
G37*
G36*
X35650Y26832D02*
Y26650D01*
Y26430D01*
X35664Y26419D01*
X35672Y26376D01*
X35714Y26314D01*
X35773Y26275D01*
X35772Y26274D01*
X35768Y26250D01*
X36132D01*
X36128Y26274D01*
X36086Y26336D01*
X36027Y26375D01*
X36028Y26376D01*
X36032Y26400D01*
X35850D01*
Y26450D01*
X35800D01*
Y26670D01*
X35786Y26681D01*
X35778Y26724D01*
X35736Y26786D01*
X35674Y26828D01*
X35650Y26832D01*
D02*
G37*
G36*
X34632Y26338D02*
X34268D01*
X34272Y26314D01*
X34314Y26252D01*
X34343Y26232D01*
X34363Y26187D01*
X34353Y26170D01*
X34322Y26124D01*
X34318Y26100D01*
X34682D01*
X34678Y26124D01*
X34636Y26186D01*
X34607Y26206D01*
X34587Y26250D01*
X34597Y26268D01*
X34628Y26314D01*
X34632Y26338D01*
D02*
G37*
G36*
X36132Y26150D02*
X35768D01*
X35772Y26126D01*
X35814Y26064D01*
X35838Y26048D01*
X35822Y26024D01*
X35818Y26000D01*
X36182D01*
X36178Y26024D01*
X36136Y26086D01*
X36112Y26102D01*
X36128Y26126D01*
X36132Y26150D01*
D02*
G37*
G36*
X37850Y26131D02*
X37800Y26121D01*
X37757Y26093D01*
X37729Y26050D01*
X37719Y26000D01*
X37729Y25950D01*
X37757Y25907D01*
X37800Y25879D01*
X37850Y25869D01*
X37900Y25879D01*
X37943Y25907D01*
X37971Y25950D01*
X37981Y26000D01*
X37971Y26050D01*
X37943Y26093D01*
X37900Y26121D01*
X37850Y26131D01*
D02*
G37*
G36*
X29700D02*
X29650Y26121D01*
X29607Y26093D01*
X29579Y26050D01*
X29569Y26000D01*
X29579Y25950D01*
X29607Y25907D01*
X29650Y25879D01*
X29700Y25869D01*
X29750Y25879D01*
X29793Y25907D01*
X29821Y25950D01*
X29831Y26000D01*
X29821Y26050D01*
X29793Y26093D01*
X29750Y26121D01*
X29700Y26131D01*
D02*
G37*
G36*
X36182Y25900D02*
X35818D01*
X35822Y25876D01*
X35840Y25850D01*
X35822Y25824D01*
X35818Y25800D01*
X36182D01*
X36178Y25824D01*
X36160Y25850D01*
X36178Y25876D01*
X36182Y25900D01*
D02*
G37*
G36*
X34682Y26000D02*
X34318D01*
X34322Y25976D01*
X34351Y25934D01*
X34333Y25879D01*
X34326Y25878D01*
X34264Y25836D01*
X34222Y25774D01*
X34218Y25750D01*
X34582D01*
X34578Y25774D01*
X34549Y25816D01*
X34567Y25871D01*
X34574Y25872D01*
X34636Y25914D01*
X34678Y25976D01*
X34682Y26000D01*
D02*
G37*
G36*
X25000Y25931D02*
X24950Y25921D01*
X24907Y25893D01*
X24879Y25850D01*
X24869Y25800D01*
X24879Y25750D01*
X24907Y25707D01*
X24950Y25679D01*
X25000Y25669D01*
X25050Y25679D01*
X25093Y25707D01*
X25121Y25750D01*
X25131Y25800D01*
X25121Y25850D01*
X25093Y25893D01*
X25050Y25921D01*
X25000Y25931D01*
D02*
G37*
G36*
X18249Y25902D02*
X18083D01*
Y25653D01*
X18542D01*
X18538Y25680D01*
X18509Y25752D01*
X18461Y25814D01*
X18399Y25862D01*
X18327Y25892D01*
X18249Y25902D01*
D02*
G37*
G36*
X17983D02*
X17816D01*
X17739Y25892D01*
X17666Y25862D01*
X17604Y25814D01*
X17557Y25752D01*
X17527Y25680D01*
X17523Y25653D01*
X17983D01*
Y25902D01*
D02*
G37*
G36*
X16576D02*
X16508D01*
Y25653D01*
X16869D01*
X16865Y25680D01*
X16835Y25752D01*
X16788Y25814D01*
X16726Y25862D01*
X16653Y25892D01*
X16576Y25902D01*
D02*
G37*
G36*
X16408D02*
X16340D01*
X16262Y25892D01*
X16190Y25862D01*
X16128Y25814D01*
X16080Y25752D01*
X16051Y25680D01*
X16047Y25653D01*
X16408D01*
Y25902D01*
D02*
G37*
G36*
X36182Y25700D02*
X35818D01*
X35820Y25686D01*
X35776Y25678D01*
X35714Y25636D01*
X35710Y25630D01*
X35700Y25632D01*
Y25450D01*
Y25268D01*
X35724Y25272D01*
X35786Y25314D01*
X35790Y25320D01*
X35800Y25318D01*
Y25500D01*
X35850D01*
Y25550D01*
X36032D01*
X36030Y25564D01*
X36074Y25572D01*
X36136Y25614D01*
X36178Y25676D01*
X36182Y25700D01*
D02*
G37*
G36*
X35600Y25632D02*
X35576Y25628D01*
X35563Y25618D01*
X35549Y25628D01*
X35525Y25632D01*
Y25450D01*
Y25268D01*
X35549Y25272D01*
X35563Y25282D01*
X35576Y25272D01*
X35600Y25268D01*
Y25450D01*
Y25632D01*
D02*
G37*
G36*
X35425D02*
X35401Y25628D01*
X35387Y25618D01*
X35374Y25628D01*
X35350Y25632D01*
Y25450D01*
Y25268D01*
X35374Y25272D01*
X35387Y25282D01*
X35401Y25272D01*
X35425Y25268D01*
Y25450D01*
Y25632D01*
D02*
G37*
G36*
X35250D02*
X35226Y25628D01*
X35175Y25593D01*
X35124Y25628D01*
X35100Y25632D01*
Y25450D01*
Y25268D01*
X35124Y25272D01*
X35175Y25307D01*
X35226Y25272D01*
X35250Y25268D01*
Y25450D01*
Y25632D01*
D02*
G37*
G36*
X35000D02*
X34976Y25628D01*
X34925Y25593D01*
X34874Y25628D01*
X34850Y25632D01*
Y25450D01*
Y25268D01*
X34874Y25272D01*
X34925Y25307D01*
X34976Y25272D01*
X35000Y25268D01*
Y25450D01*
Y25632D01*
D02*
G37*
G36*
X41550Y25781D02*
X41500Y25771D01*
X41457Y25743D01*
X41429Y25700D01*
X41419Y25650D01*
X41429Y25600D01*
X41457Y25557D01*
X41500Y25529D01*
X41550Y25519D01*
X41600Y25529D01*
X41643Y25557D01*
X41671Y25600D01*
X41681Y25650D01*
X41671Y25700D01*
X41643Y25743D01*
X41600Y25771D01*
X41550Y25781D01*
D02*
G37*
G36*
X29750Y25581D02*
X29700Y25571D01*
X29657Y25543D01*
X29629Y25500D01*
X29619Y25450D01*
X29629Y25400D01*
X29657Y25357D01*
X29700Y25329D01*
X29750Y25319D01*
X29800Y25329D01*
X29843Y25357D01*
X29871Y25400D01*
X29881Y25450D01*
X29871Y25500D01*
X29843Y25543D01*
X29800Y25571D01*
X29750Y25581D01*
D02*
G37*
G36*
X36032Y25450D02*
X35900D01*
Y25318D01*
X35924Y25322D01*
X35986Y25364D01*
X36028Y25426D01*
X36032Y25450D01*
D02*
G37*
G36*
X18542Y25553D02*
X18083D01*
Y25303D01*
X18249D01*
X18327Y25314D01*
X18399Y25343D01*
X18461Y25391D01*
X18509Y25453D01*
X18538Y25525D01*
X18542Y25553D01*
D02*
G37*
G36*
X17983D02*
X17523D01*
X17527Y25525D01*
X17557Y25453D01*
X17604Y25391D01*
X17666Y25343D01*
X17739Y25314D01*
X17816Y25303D01*
X17983D01*
Y25553D01*
D02*
G37*
G36*
X16869D02*
X16508D01*
Y25303D01*
X16576D01*
X16653Y25314D01*
X16726Y25343D01*
X16788Y25391D01*
X16835Y25453D01*
X16865Y25525D01*
X16869Y25553D01*
D02*
G37*
G36*
X16408D02*
X16047D01*
X16051Y25525D01*
X16080Y25453D01*
X16128Y25391D01*
X16190Y25343D01*
X16262Y25314D01*
X16340Y25303D01*
X16408D01*
Y25553D01*
D02*
G37*
G36*
X29150Y25531D02*
X29100Y25521D01*
X29057Y25493D01*
X29029Y25450D01*
X29019Y25400D01*
X29029Y25350D01*
X29057Y25307D01*
X29100Y25279D01*
X29150Y25269D01*
X29200Y25279D01*
X29243Y25307D01*
X29271Y25350D01*
X29281Y25400D01*
X29271Y25450D01*
X29243Y25493D01*
X29200Y25521D01*
X29150Y25531D01*
D02*
G37*
G36*
X34582Y25650D02*
X34218D01*
X34222Y25626D01*
X34264Y25564D01*
X34323Y25525D01*
X34322Y25524D01*
X34318Y25500D01*
X34500D01*
Y25450D01*
X34550D01*
Y25268D01*
X34574Y25272D01*
X34636Y25314D01*
X34664D01*
X34726Y25272D01*
X34750Y25268D01*
Y25450D01*
Y25632D01*
X34726Y25628D01*
X34664Y25586D01*
X34636D01*
X34577Y25625D01*
X34578Y25626D01*
X34582Y25650D01*
D02*
G37*
G36*
X34450Y25400D02*
X34318D01*
X34322Y25376D01*
X34364Y25314D01*
X34426Y25272D01*
X34450Y25268D01*
Y25400D01*
D02*
G37*
G36*
X19400Y25131D02*
X19350Y25121D01*
X19307Y25093D01*
X19279Y25050D01*
X19269Y25000D01*
X19279Y24950D01*
X19307Y24907D01*
X19350Y24879D01*
X19400Y24869D01*
X19450Y24879D01*
X19493Y24907D01*
X19521Y24950D01*
X19531Y25000D01*
X19521Y25050D01*
X19493Y25093D01*
X19450Y25121D01*
X19400Y25131D01*
D02*
G37*
G36*
X17836Y25209D02*
X17770Y25196D01*
X17715Y25159D01*
X17678Y25103D01*
X17665Y25038D01*
X17678Y24972D01*
X17715Y24917D01*
X17770Y24880D01*
X17836Y24867D01*
X17901Y24880D01*
X17957Y24917D01*
X17994Y24972D01*
X18007Y25038D01*
X17994Y25103D01*
X17957Y25159D01*
X17901Y25196D01*
X17836Y25209D01*
D02*
G37*
G36*
X35950Y24981D02*
X35900Y24971D01*
X35857Y24943D01*
X35829Y24900D01*
X35819Y24850D01*
X35829Y24800D01*
X35857Y24757D01*
X35900Y24729D01*
X35950Y24719D01*
X36000Y24729D01*
X36043Y24757D01*
X36071Y24800D01*
X36081Y24850D01*
X36071Y24900D01*
X36043Y24943D01*
X36000Y24971D01*
X35950Y24981D01*
D02*
G37*
G36*
X19600Y24731D02*
X19550Y24721D01*
X19507Y24693D01*
X19479Y24650D01*
X19469Y24600D01*
X19479Y24550D01*
X19507Y24507D01*
X19550Y24479D01*
X19600Y24469D01*
X19650Y24479D01*
X19693Y24507D01*
X19721Y24550D01*
X19731Y24600D01*
X19721Y24650D01*
X19693Y24693D01*
X19650Y24721D01*
X19600Y24731D01*
D02*
G37*
G36*
X20500Y24431D02*
X20450Y24421D01*
X20407Y24393D01*
X20379Y24350D01*
X20369Y24300D01*
X20379Y24250D01*
X20407Y24207D01*
X20450Y24179D01*
X20500Y24169D01*
X20550Y24179D01*
X20593Y24207D01*
X20621Y24250D01*
X20631Y24300D01*
X20621Y24350D01*
X20593Y24393D01*
X20550Y24421D01*
X20500Y24431D01*
D02*
G37*
G36*
X25300Y24132D02*
Y24000D01*
X25432D01*
X25428Y24024D01*
X25386Y24086D01*
X25324Y24128D01*
X25300Y24132D01*
D02*
G37*
G36*
X25200D02*
X25176Y24128D01*
X25114Y24086D01*
X25072Y24024D01*
X25068Y24000D01*
X25200D01*
Y24132D01*
D02*
G37*
G36*
X24800D02*
Y24000D01*
X24932D01*
X24928Y24024D01*
X24886Y24086D01*
X24824Y24128D01*
X24800Y24132D01*
D02*
G37*
G36*
X24700D02*
X24676Y24128D01*
X24614Y24086D01*
X24572Y24024D01*
X24568Y24000D01*
X24700D01*
Y24132D01*
D02*
G37*
G36*
X20250Y24156D02*
X20200Y24146D01*
X20157Y24118D01*
X20129Y24075D01*
X20119Y24025D01*
X20129Y23975D01*
X20157Y23932D01*
X20200Y23904D01*
X20250Y23894D01*
X20300Y23904D01*
X20343Y23932D01*
X20371Y23975D01*
X20381Y24025D01*
X20371Y24075D01*
X20343Y24118D01*
X20300Y24146D01*
X20250Y24156D01*
D02*
G37*
G36*
X27350Y23981D02*
X27300Y23971D01*
X27257Y23943D01*
X27229Y23900D01*
X27219Y23850D01*
X27229Y23800D01*
X27257Y23757D01*
X27300Y23729D01*
X27350Y23719D01*
X27400Y23729D01*
X27443Y23757D01*
X27471Y23800D01*
X27481Y23850D01*
X27471Y23900D01*
X27443Y23943D01*
X27400Y23971D01*
X27350Y23981D01*
D02*
G37*
G36*
X20600D02*
X20550Y23971D01*
X20507Y23943D01*
X20479Y23900D01*
X20469Y23850D01*
X20479Y23800D01*
X20507Y23757D01*
X20550Y23729D01*
X20600Y23719D01*
X20650Y23729D01*
X20693Y23757D01*
X20721Y23800D01*
X20731Y23850D01*
X20721Y23900D01*
X20693Y23943D01*
X20650Y23971D01*
X20600Y23981D01*
D02*
G37*
G36*
X25432Y23900D02*
X25068D01*
X25072Y23876D01*
X25050Y23847D01*
Y23650D01*
X24950D01*
Y23847D01*
X24928Y23876D01*
X24932Y23900D01*
X24568D01*
X24572Y23876D01*
X24612Y23818D01*
X24564Y23786D01*
X24522Y23724D01*
X24518Y23700D01*
X24700D01*
Y23600D01*
X24518D01*
X24522Y23576D01*
X24562Y23518D01*
X24514Y23486D01*
X24472Y23424D01*
X24468Y23400D01*
X24650D01*
Y23350D01*
X24700D01*
Y23168D01*
X24724Y23172D01*
X24786Y23214D01*
X24814D01*
X24876Y23172D01*
X24900Y23168D01*
Y23350D01*
X25000D01*
Y23168D01*
X25024Y23172D01*
X25086Y23214D01*
X25100Y23235D01*
X25150D01*
X25164Y23214D01*
X25226Y23172D01*
X25250Y23168D01*
Y23350D01*
X25300D01*
Y23400D01*
X25482D01*
X25478Y23424D01*
X25436Y23486D01*
Y23514D01*
X25478Y23576D01*
X25482Y23600D01*
X25300D01*
Y23700D01*
X25482D01*
X25478Y23724D01*
X25436Y23786D01*
X25388Y23818D01*
X25428Y23876D01*
X25432Y23900D01*
D02*
G37*
G36*
X19650Y23481D02*
X19600Y23471D01*
X19557Y23443D01*
X19529Y23400D01*
X19519Y23350D01*
X19529Y23300D01*
X19557Y23257D01*
X19600Y23229D01*
X19650Y23219D01*
X19700Y23229D01*
X19743Y23257D01*
X19771Y23300D01*
X19781Y23350D01*
X19771Y23400D01*
X19743Y23443D01*
X19700Y23471D01*
X19650Y23481D01*
D02*
G37*
G36*
X25482Y23300D02*
X25350D01*
Y23168D01*
X25374Y23172D01*
X25436Y23214D01*
X25478Y23276D01*
X25482Y23300D01*
D02*
G37*
G36*
X24600D02*
X24468D01*
X24472Y23276D01*
X24514Y23214D01*
X24576Y23172D01*
X24600Y23168D01*
Y23300D01*
D02*
G37*
G36*
X27200Y23381D02*
X27150Y23371D01*
X27107Y23343D01*
X27079Y23300D01*
X27069Y23250D01*
X27079Y23200D01*
X27107Y23157D01*
X27150Y23129D01*
X27200Y23119D01*
X27250Y23129D01*
X27293Y23157D01*
X27321Y23200D01*
X27331Y23250D01*
X27321Y23300D01*
X27293Y23343D01*
X27250Y23371D01*
X27200Y23381D01*
D02*
G37*
G36*
X21350Y22931D02*
X21300Y22921D01*
X21257Y22893D01*
X21229Y22850D01*
X21219Y22800D01*
X21229Y22750D01*
X21257Y22707D01*
X21300Y22679D01*
X21350Y22669D01*
X21400Y22679D01*
X21443Y22707D01*
X21471Y22750D01*
X21481Y22800D01*
X21471Y22850D01*
X21443Y22893D01*
X21400Y22921D01*
X21350Y22931D01*
D02*
G37*
G36*
X17836Y22933D02*
X17770Y22920D01*
X17715Y22883D01*
X17678Y22828D01*
X17665Y22762D01*
X17678Y22697D01*
X17715Y22641D01*
X17770Y22604D01*
X17836Y22591D01*
X17901Y22604D01*
X17957Y22641D01*
X17994Y22697D01*
X18007Y22762D01*
X17994Y22828D01*
X17957Y22883D01*
X17901Y22920D01*
X17836Y22933D01*
D02*
G37*
G36*
X18249Y22497D02*
X18083D01*
Y22247D01*
X18542D01*
X18538Y22275D01*
X18509Y22347D01*
X18461Y22409D01*
X18399Y22457D01*
X18327Y22486D01*
X18249Y22497D01*
D02*
G37*
G36*
X17983D02*
X17816D01*
X17739Y22486D01*
X17666Y22457D01*
X17604Y22409D01*
X17557Y22347D01*
X17527Y22275D01*
X17523Y22247D01*
X17983D01*
Y22497D01*
D02*
G37*
G36*
X16576D02*
X16508D01*
Y22247D01*
X16869D01*
X16865Y22275D01*
X16835Y22347D01*
X16788Y22409D01*
X16726Y22457D01*
X16653Y22486D01*
X16576Y22497D01*
D02*
G37*
G36*
X16408D02*
X16340D01*
X16262Y22486D01*
X16190Y22457D01*
X16128Y22409D01*
X16080Y22347D01*
X16051Y22275D01*
X16047Y22247D01*
X16408D01*
Y22497D01*
D02*
G37*
G36*
X18542Y22147D02*
X18083D01*
Y21898D01*
X18249D01*
X18327Y21908D01*
X18399Y21938D01*
X18461Y21986D01*
X18509Y22048D01*
X18538Y22120D01*
X18542Y22147D01*
D02*
G37*
G36*
X17983D02*
X17523D01*
X17527Y22120D01*
X17557Y22048D01*
X17604Y21986D01*
X17666Y21938D01*
X17739Y21908D01*
X17816Y21898D01*
X17983D01*
Y22147D01*
D02*
G37*
G36*
X16869D02*
X16508D01*
Y21898D01*
X16576D01*
X16653Y21908D01*
X16726Y21938D01*
X16788Y21986D01*
X16835Y22048D01*
X16865Y22120D01*
X16869Y22147D01*
D02*
G37*
G36*
X16408D02*
X16047D01*
X16051Y22120D01*
X16080Y22048D01*
X16128Y21986D01*
X16190Y21938D01*
X16262Y21908D01*
X16340Y21898D01*
X16408D01*
Y22147D01*
D02*
G37*
G36*
X34001Y21381D02*
X33951Y21371D01*
X33908Y21343D01*
X33880Y21300D01*
X33870Y21250D01*
X33880Y21200D01*
X33908Y21157D01*
X33951Y21129D01*
X34001Y21119D01*
X34051Y21129D01*
X34094Y21157D01*
X34122Y21200D01*
X34132Y21250D01*
X34122Y21300D01*
X34094Y21343D01*
X34051Y21371D01*
X34001Y21381D01*
D02*
G37*
G36*
X33600Y21331D02*
X33550Y21321D01*
X33507Y21293D01*
X33479Y21250D01*
X33469Y21200D01*
X33479Y21150D01*
X33507Y21107D01*
X33550Y21079D01*
X33600Y21069D01*
X33650Y21079D01*
X33693Y21107D01*
X33721Y21150D01*
X33731Y21200D01*
X33721Y21250D01*
X33693Y21293D01*
X33650Y21321D01*
X33600Y21331D01*
D02*
G37*
G36*
X32950D02*
X32900Y21321D01*
X32857Y21293D01*
X32829Y21250D01*
X32819Y21200D01*
X32829Y21150D01*
X32857Y21107D01*
X32900Y21079D01*
X32950Y21069D01*
X33000Y21079D01*
X33043Y21107D01*
X33071Y21150D01*
X33081Y21200D01*
X33071Y21250D01*
X33043Y21293D01*
X33000Y21321D01*
X32950Y21331D01*
D02*
G37*
G36*
X32250Y21281D02*
X32200Y21271D01*
X32157Y21243D01*
X32129Y21200D01*
X32119Y21150D01*
X32129Y21100D01*
X32157Y21057D01*
X32200Y21029D01*
X32250Y21019D01*
X32300Y21029D01*
X32343Y21057D01*
X32371Y21100D01*
X32381Y21150D01*
X32371Y21200D01*
X32343Y21243D01*
X32300Y21271D01*
X32250Y21281D01*
D02*
G37*
G36*
X34700Y21031D02*
X34650Y21021D01*
X34607Y20993D01*
X34579Y20950D01*
X34569Y20900D01*
X34579Y20850D01*
X34607Y20807D01*
X34650Y20779D01*
X34700Y20769D01*
X34750Y20779D01*
X34793Y20807D01*
X34821Y20850D01*
X34831Y20900D01*
X34821Y20950D01*
X34793Y20993D01*
X34750Y21021D01*
X34700Y21031D01*
D02*
G37*
G36*
X33350Y20931D02*
X33300Y20921D01*
X33257Y20893D01*
X33229Y20850D01*
X33219Y20800D01*
X33229Y20750D01*
X33257Y20707D01*
X33300Y20679D01*
X33350Y20669D01*
X33400Y20679D01*
X33443Y20707D01*
X33471Y20750D01*
X33481Y20800D01*
X33471Y20850D01*
X33443Y20893D01*
X33400Y20921D01*
X33350Y20931D01*
D02*
G37*
G36*
X32650Y20881D02*
X32600Y20871D01*
X32557Y20843D01*
X32529Y20800D01*
X32519Y20750D01*
X32529Y20700D01*
X32557Y20657D01*
X32600Y20629D01*
X32650Y20619D01*
X32700Y20629D01*
X32743Y20657D01*
X32771Y20700D01*
X32781Y20750D01*
X32771Y20800D01*
X32743Y20843D01*
X32700Y20871D01*
X32650Y20881D01*
D02*
G37*
G36*
X25750Y18246D02*
Y17950D01*
X26046D01*
X26041Y17991D01*
X26006Y18077D01*
X25950Y18150D01*
X25877Y18206D01*
X25791Y18241D01*
X25750Y18246D01*
D02*
G37*
G36*
X24750D02*
Y17950D01*
X25046D01*
X25041Y17991D01*
X25006Y18077D01*
X24950Y18150D01*
X24877Y18206D01*
X24791Y18241D01*
X24750Y18246D01*
D02*
G37*
G36*
X25650D02*
X25609Y18241D01*
X25523Y18206D01*
X25450Y18150D01*
X25394Y18077D01*
X25359Y17991D01*
X25354Y17950D01*
X25650D01*
Y18246D01*
D02*
G37*
G36*
X24650D02*
X24609Y18241D01*
X24523Y18206D01*
X24450Y18150D01*
X24394Y18077D01*
X24359Y17991D01*
X24354Y17950D01*
X24650D01*
Y18246D01*
D02*
G37*
G36*
X41700Y18192D02*
X41624Y18183D01*
X41554Y18153D01*
X41493Y18107D01*
X41447Y18046D01*
X41417Y17976D01*
X41407Y17900D01*
X41417Y17824D01*
X41447Y17754D01*
X41493Y17693D01*
X41554Y17647D01*
X41624Y17617D01*
X41700Y17608D01*
X41776Y17617D01*
X41846Y17647D01*
X41907Y17693D01*
X41953Y17754D01*
X41983Y17824D01*
X41993Y17900D01*
X41983Y17976D01*
X41953Y18046D01*
X41907Y18107D01*
X41846Y18153D01*
X41776Y18183D01*
X41700Y18192D01*
D02*
G37*
G36*
X40700D02*
X40624Y18183D01*
X40554Y18153D01*
X40493Y18107D01*
X40447Y18046D01*
X40417Y17976D01*
X40408Y17900D01*
X40417Y17824D01*
X40447Y17754D01*
X40493Y17693D01*
X40554Y17647D01*
X40624Y17617D01*
X40700Y17608D01*
X40776Y17617D01*
X40846Y17647D01*
X40907Y17693D01*
X40953Y17754D01*
X40983Y17824D01*
X40992Y17900D01*
X40983Y17976D01*
X40953Y18046D01*
X40907Y18107D01*
X40846Y18153D01*
X40776Y18183D01*
X40700Y18192D01*
D02*
G37*
G36*
X39700D02*
X39624Y18183D01*
X39554Y18153D01*
X39493Y18107D01*
X39447Y18046D01*
X39417Y17976D01*
X39407Y17900D01*
X39417Y17824D01*
X39447Y17754D01*
X39493Y17693D01*
X39554Y17647D01*
X39624Y17617D01*
X39700Y17608D01*
X39776Y17617D01*
X39846Y17647D01*
X39907Y17693D01*
X39953Y17754D01*
X39983Y17824D01*
X39992Y17900D01*
X39983Y17976D01*
X39953Y18046D01*
X39907Y18107D01*
X39846Y18153D01*
X39776Y18183D01*
X39700Y18192D01*
D02*
G37*
G36*
X38700D02*
X38624Y18183D01*
X38554Y18153D01*
X38493Y18107D01*
X38447Y18046D01*
X38417Y17976D01*
X38407Y17900D01*
X38417Y17824D01*
X38447Y17754D01*
X38493Y17693D01*
X38554Y17647D01*
X38624Y17617D01*
X38700Y17608D01*
X38776Y17617D01*
X38846Y17647D01*
X38907Y17693D01*
X38953Y17754D01*
X38983Y17824D01*
X38993Y17900D01*
X38983Y17976D01*
X38953Y18046D01*
X38907Y18107D01*
X38846Y18153D01*
X38776Y18183D01*
X38700Y18192D01*
D02*
G37*
G36*
X37700D02*
X37624Y18183D01*
X37554Y18153D01*
X37493Y18107D01*
X37447Y18046D01*
X37417Y17976D01*
X37408Y17900D01*
X37417Y17824D01*
X37447Y17754D01*
X37493Y17693D01*
X37554Y17647D01*
X37624Y17617D01*
X37700Y17608D01*
X37776Y17617D01*
X37846Y17647D01*
X37907Y17693D01*
X37953Y17754D01*
X37983Y17824D01*
X37992Y17900D01*
X37983Y17976D01*
X37953Y18046D01*
X37907Y18107D01*
X37846Y18153D01*
X37776Y18183D01*
X37700Y18192D01*
D02*
G37*
G36*
X36700D02*
X36624Y18183D01*
X36554Y18153D01*
X36493Y18107D01*
X36447Y18046D01*
X36417Y17976D01*
X36407Y17900D01*
X36417Y17824D01*
X36447Y17754D01*
X36493Y17693D01*
X36554Y17647D01*
X36624Y17617D01*
X36700Y17608D01*
X36776Y17617D01*
X36846Y17647D01*
X36907Y17693D01*
X36953Y17754D01*
X36983Y17824D01*
X36992Y17900D01*
X36983Y17976D01*
X36953Y18046D01*
X36907Y18107D01*
X36846Y18153D01*
X36776Y18183D01*
X36700Y18192D01*
D02*
G37*
G36*
X35700D02*
X35624Y18183D01*
X35554Y18153D01*
X35493Y18107D01*
X35447Y18046D01*
X35417Y17976D01*
X35408Y17900D01*
X35417Y17824D01*
X35447Y17754D01*
X35493Y17693D01*
X35554Y17647D01*
X35624Y17617D01*
X35700Y17608D01*
X35776Y17617D01*
X35846Y17647D01*
X35907Y17693D01*
X35953Y17754D01*
X35983Y17824D01*
X35993Y17900D01*
X35983Y17976D01*
X35953Y18046D01*
X35907Y18107D01*
X35846Y18153D01*
X35776Y18183D01*
X35700Y18192D01*
D02*
G37*
G36*
X34700D02*
X34624Y18183D01*
X34554Y18153D01*
X34493Y18107D01*
X34447Y18046D01*
X34417Y17976D01*
X34407Y17900D01*
X34417Y17824D01*
X34447Y17754D01*
X34493Y17693D01*
X34554Y17647D01*
X34624Y17617D01*
X34700Y17608D01*
X34776Y17617D01*
X34846Y17647D01*
X34907Y17693D01*
X34953Y17754D01*
X34983Y17824D01*
X34992Y17900D01*
X34983Y17976D01*
X34953Y18046D01*
X34907Y18107D01*
X34846Y18153D01*
X34776Y18183D01*
X34700Y18192D01*
D02*
G37*
G36*
X33700D02*
X33624Y18183D01*
X33554Y18153D01*
X33493Y18107D01*
X33447Y18046D01*
X33417Y17976D01*
X33407Y17900D01*
X33417Y17824D01*
X33447Y17754D01*
X33493Y17693D01*
X33554Y17647D01*
X33624Y17617D01*
X33700Y17608D01*
X33776Y17617D01*
X33846Y17647D01*
X33907Y17693D01*
X33953Y17754D01*
X33983Y17824D01*
X33993Y17900D01*
X33983Y17976D01*
X33953Y18046D01*
X33907Y18107D01*
X33846Y18153D01*
X33776Y18183D01*
X33700Y18192D01*
D02*
G37*
G36*
X32700D02*
X32624Y18183D01*
X32554Y18153D01*
X32493Y18107D01*
X32447Y18046D01*
X32417Y17976D01*
X32408Y17900D01*
X32417Y17824D01*
X32447Y17754D01*
X32493Y17693D01*
X32554Y17647D01*
X32624Y17617D01*
X32700Y17608D01*
X32776Y17617D01*
X32846Y17647D01*
X32907Y17693D01*
X32953Y17754D01*
X32983Y17824D01*
X32992Y17900D01*
X32983Y17976D01*
X32953Y18046D01*
X32907Y18107D01*
X32846Y18153D01*
X32776Y18183D01*
X32700Y18192D01*
D02*
G37*
G36*
X31700D02*
X31624Y18183D01*
X31554Y18153D01*
X31493Y18107D01*
X31447Y18046D01*
X31417Y17976D01*
X31407Y17900D01*
X31417Y17824D01*
X31447Y17754D01*
X31493Y17693D01*
X31554Y17647D01*
X31624Y17617D01*
X31700Y17608D01*
X31776Y17617D01*
X31846Y17647D01*
X31907Y17693D01*
X31953Y17754D01*
X31983Y17824D01*
X31992Y17900D01*
X31983Y17976D01*
X31953Y18046D01*
X31907Y18107D01*
X31846Y18153D01*
X31776Y18183D01*
X31700Y18192D01*
D02*
G37*
G36*
X30700D02*
X30624Y18183D01*
X30554Y18153D01*
X30493Y18107D01*
X30447Y18046D01*
X30417Y17976D01*
X30408Y17900D01*
X30417Y17824D01*
X30447Y17754D01*
X30493Y17693D01*
X30554Y17647D01*
X30624Y17617D01*
X30700Y17608D01*
X30776Y17617D01*
X30846Y17647D01*
X30907Y17693D01*
X30953Y17754D01*
X30983Y17824D01*
X30993Y17900D01*
X30983Y17976D01*
X30953Y18046D01*
X30907Y18107D01*
X30846Y18153D01*
X30776Y18183D01*
X30700Y18192D01*
D02*
G37*
G36*
X29700D02*
X29624Y18183D01*
X29554Y18153D01*
X29493Y18107D01*
X29447Y18046D01*
X29417Y17976D01*
X29407Y17900D01*
X29417Y17824D01*
X29447Y17754D01*
X29493Y17693D01*
X29554Y17647D01*
X29624Y17617D01*
X29700Y17608D01*
X29776Y17617D01*
X29846Y17647D01*
X29907Y17693D01*
X29953Y17754D01*
X29983Y17824D01*
X29992Y17900D01*
X29983Y17976D01*
X29953Y18046D01*
X29907Y18107D01*
X29846Y18153D01*
X29776Y18183D01*
X29700Y18192D01*
D02*
G37*
G36*
X28700D02*
X28624Y18183D01*
X28554Y18153D01*
X28493Y18107D01*
X28447Y18046D01*
X28417Y17976D01*
X28407Y17900D01*
X28417Y17824D01*
X28447Y17754D01*
X28493Y17693D01*
X28554Y17647D01*
X28624Y17617D01*
X28700Y17608D01*
X28776Y17617D01*
X28846Y17647D01*
X28907Y17693D01*
X28953Y17754D01*
X28983Y17824D01*
X28993Y17900D01*
X28983Y17976D01*
X28953Y18046D01*
X28907Y18107D01*
X28846Y18153D01*
X28776Y18183D01*
X28700Y18192D01*
D02*
G37*
G36*
X27700D02*
X27624Y18183D01*
X27554Y18153D01*
X27493Y18107D01*
X27447Y18046D01*
X27417Y17976D01*
X27408Y17900D01*
X27417Y17824D01*
X27447Y17754D01*
X27493Y17693D01*
X27554Y17647D01*
X27624Y17617D01*
X27700Y17608D01*
X27776Y17617D01*
X27846Y17647D01*
X27907Y17693D01*
X27953Y17754D01*
X27983Y17824D01*
X27992Y17900D01*
X27983Y17976D01*
X27953Y18046D01*
X27907Y18107D01*
X27846Y18153D01*
X27776Y18183D01*
X27700Y18192D01*
D02*
G37*
G36*
X26700D02*
X26624Y18183D01*
X26554Y18153D01*
X26493Y18107D01*
X26447Y18046D01*
X26417Y17976D01*
X26407Y17900D01*
X26417Y17824D01*
X26447Y17754D01*
X26493Y17693D01*
X26554Y17647D01*
X26624Y17617D01*
X26700Y17608D01*
X26776Y17617D01*
X26846Y17647D01*
X26907Y17693D01*
X26953Y17754D01*
X26983Y17824D01*
X26992Y17900D01*
X26983Y17976D01*
X26953Y18046D01*
X26907Y18107D01*
X26846Y18153D01*
X26776Y18183D01*
X26700Y18192D01*
D02*
G37*
G36*
X25046Y17850D02*
X24750D01*
Y17554D01*
X24791Y17559D01*
X24877Y17594D01*
X24950Y17650D01*
X25006Y17723D01*
X25041Y17809D01*
X25046Y17850D01*
D02*
G37*
G36*
X26046D02*
X25750D01*
Y17554D01*
X25791Y17559D01*
X25877Y17594D01*
X25950Y17650D01*
X26006Y17723D01*
X26041Y17809D01*
X26046Y17850D01*
D02*
G37*
G36*
X25650D02*
X25354D01*
X25359Y17809D01*
X25394Y17723D01*
X25450Y17650D01*
X25523Y17594D01*
X25609Y17559D01*
X25650Y17554D01*
Y17850D01*
D02*
G37*
G36*
X24650D02*
X24354D01*
X24359Y17809D01*
X24394Y17723D01*
X24450Y17650D01*
X24523Y17594D01*
X24609Y17559D01*
X24650Y17554D01*
Y17850D01*
D02*
G37*
%LPD*%
D50*
X26700Y17900D02*
D03*
X20350Y30300D02*
D03*
X25700Y17900D02*
D03*
X24700D02*
D03*
X27700D02*
D03*
X38700D02*
D03*
X40700D02*
D03*
X39700D02*
D03*
X20350Y31300D02*
D03*
X32210Y43150D02*
D03*
X27210D02*
D03*
X28210D02*
D03*
X26210D02*
D03*
X24210D02*
D03*
X25210D02*
D03*
X29210D02*
D03*
X31210D02*
D03*
X30210D02*
D03*
X32700Y17900D02*
D03*
X28700D02*
D03*
X29700D02*
D03*
X31700D02*
D03*
X30700D02*
D03*
X39210Y43150D02*
D03*
X40210D02*
D03*
X38210D02*
D03*
X41700Y17900D02*
D03*
X36700D02*
D03*
X37700D02*
D03*
X35700D02*
D03*
X33700D02*
D03*
X34700D02*
D03*
X34210Y43150D02*
D03*
X33210D02*
D03*
X35210D02*
D03*
X37210D02*
D03*
X36210D02*
D03*
X41210D02*
D03*
D51*
X18033Y25603D02*
D03*
Y22197D02*
D03*
D52*
X16458Y25603D02*
D03*
Y22197D02*
D03*
D53*
X17836Y22762D02*
D03*
Y25038D02*
D03*
D54*
X45161Y33185D02*
D03*
Y35115D02*
D03*
D55*
X37100Y28400D02*
D03*
X33050Y28950D02*
D03*
X24500Y37600D02*
D03*
Y37300D02*
D03*
X34500Y26050D02*
D03*
X34800Y25450D02*
D03*
X34500D02*
D03*
X35050D02*
D03*
X34400Y25700D02*
D03*
X29694Y26744D02*
D03*
X29200Y26750D02*
D03*
X35525Y28650D02*
D03*
X33050Y29450D02*
D03*
X23000Y35850D02*
D03*
X28750Y39250D02*
D03*
X39950Y27900D02*
D03*
X33850Y28850D02*
D03*
X33300Y30900D02*
D03*
X34000Y30800D02*
D03*
X34100Y31300D02*
D03*
X32950Y27200D02*
D03*
X33325Y27100D02*
D03*
X33850Y26550D02*
D03*
X37100Y28850D02*
D03*
X37400Y28600D02*
D03*
X37650Y29075D02*
D03*
X37700Y29550D02*
D03*
X37475Y31529D02*
D03*
X37050Y31550D02*
D03*
X37060Y31866D02*
D03*
X37050Y31150D02*
D03*
Y30700D02*
D03*
X37550Y31150D02*
D03*
X34000Y32700D02*
D03*
X33800Y33100D02*
D03*
X35050Y32600D02*
D03*
X34600Y33000D02*
D03*
X34250Y32900D02*
D03*
X34750Y33250D02*
D03*
X32900Y26800D02*
D03*
X21300Y32850D02*
D03*
X21350Y22800D02*
D03*
X19400Y25000D02*
D03*
X19600Y24600D02*
D03*
X19650Y23350D02*
D03*
X22600Y35100D02*
D03*
X22300Y38200D02*
D03*
X29150Y25400D02*
D03*
X29700Y26000D02*
D03*
X29750Y25450D02*
D03*
X34850Y27300D02*
D03*
X34450Y26650D02*
D03*
X35850Y26450D02*
D03*
X34600Y26850D02*
D03*
X35850Y25500D02*
D03*
X36000Y25750D02*
D03*
X19200Y38950D02*
D03*
X19650Y39100D02*
D03*
X28000Y39400D02*
D03*
X28400Y39250D02*
D03*
X23850Y38450D02*
D03*
X32100Y29000D02*
D03*
X35300Y30300D02*
D03*
X34400Y30400D02*
D03*
X33800Y30450D02*
D03*
X33450Y30200D02*
D03*
X35050Y29900D02*
D03*
X35500Y30550D02*
D03*
X35100Y30700D02*
D03*
X35500Y30850D02*
D03*
X37000Y30250D02*
D03*
X33163Y27448D02*
D03*
X39650Y28800D02*
D03*
X34750Y31250D02*
D03*
X34700Y30800D02*
D03*
X35150Y31050D02*
D03*
X35500Y31200D02*
D03*
X21500Y35100D02*
D03*
X34450Y26388D02*
D03*
X35600Y26650D02*
D03*
X35300Y25450D02*
D03*
X35650D02*
D03*
X35475D02*
D03*
X35950Y26200D02*
D03*
X36000Y25950D02*
D03*
X35550Y27450D02*
D03*
X35750Y27850D02*
D03*
X25650Y32500D02*
D03*
X26200Y31150D02*
D03*
X26550Y32400D02*
D03*
X25150Y29300D02*
D03*
X34050Y26850D02*
D03*
X35950Y24850D02*
D03*
X29800Y35850D02*
D03*
X41600Y34850D02*
D03*
X24650Y23350D02*
D03*
X25300D02*
D03*
X24950D02*
D03*
X24700Y23650D02*
D03*
X25000D02*
D03*
X25300D02*
D03*
X24750Y23950D02*
D03*
X25250D02*
D03*
X34700Y29800D02*
D03*
X36100D02*
D03*
X38150Y29600D02*
D03*
X38700D02*
D03*
X33700Y29900D02*
D03*
X33650Y30750D02*
D03*
X33550Y31150D02*
D03*
X37850Y26000D02*
D03*
X40050Y29700D02*
D03*
X36850Y27000D02*
D03*
X32750Y27450D02*
D03*
X31400Y27143D02*
D03*
X40350Y30050D02*
D03*
X32800Y32700D02*
D03*
X32350Y32750D02*
D03*
X32100Y34550D02*
D03*
X33600Y32600D02*
D03*
X30800Y35600D02*
D03*
X21800Y29050D02*
D03*
X24200Y31450D02*
D03*
X24400Y32100D02*
D03*
X32300Y28450D02*
D03*
Y28150D02*
D03*
X30300Y28800D02*
D03*
X35150Y28600D02*
D03*
X33600Y27300D02*
D03*
X22500Y29600D02*
D03*
X23200Y28900D02*
D03*
X25050Y27000D02*
D03*
X34250Y27100D02*
D03*
X29350Y28500D02*
D03*
X33100Y28600D02*
D03*
X33500Y28550D02*
D03*
X32200Y35550D02*
D03*
X31250Y35950D02*
D03*
X32100Y34900D02*
D03*
X31800Y34850D02*
D03*
X44650Y32750D02*
D03*
X37100Y29250D02*
D03*
X33350Y20800D02*
D03*
X34001Y21250D02*
D03*
X33600Y21200D02*
D03*
X32950D02*
D03*
X32650Y20750D02*
D03*
X32250Y21150D02*
D03*
X34700Y20900D02*
D03*
X34550Y28600D02*
D03*
X36050D02*
D03*
X34200D02*
D03*
X37100Y29600D02*
D03*
X36050Y32450D02*
D03*
X34350Y27850D02*
D03*
X35750Y32450D02*
D03*
X32150Y30350D02*
D03*
X36750Y27900D02*
D03*
X35500Y32450D02*
D03*
X34850Y28600D02*
D03*
X32050Y31950D02*
D03*
X32150Y31650D02*
D03*
X34650Y27850D02*
D03*
X36200Y27700D02*
D03*
X41200Y35650D02*
D03*
X41250Y36200D02*
D03*
X41150Y33500D02*
D03*
Y33000D02*
D03*
X39300Y28150D02*
D03*
X41550Y25650D02*
D03*
X24350Y36600D02*
D03*
X24100D02*
D03*
X31800Y34600D02*
D03*
X27850Y35200D02*
D03*
X27500D02*
D03*
X27100D02*
D03*
X26150Y34150D02*
D03*
X25900Y34000D02*
D03*
X23750Y34500D02*
D03*
X21950Y40000D02*
D03*
X25550Y34150D02*
D03*
X29000Y29450D02*
D03*
X20250Y24025D02*
D03*
X20600Y23850D02*
D03*
X25000Y25800D02*
D03*
X27200Y23250D02*
D03*
X27350Y23850D02*
D03*
X29750Y35000D02*
D03*
X20100Y38650D02*
D03*
X20500Y24300D02*
D03*
X46634Y35891D02*
D03*
Y32749D02*
D03*
M02*
