G04*
G04 #@! TF.GenerationSoftware,Altium Limited,Altium Designer,20.2.6 (244)*
G04*
G04 Layer_Physical_Order=1*
G04 Layer_Color=255*
%FSLAX24Y24*%
%MOIN*%
G70*
G04*
G04 #@! TF.SameCoordinates,497DB355-11F3-479B-B1E2-BDA1D3AC948B*
G04*
G04*
G04 #@! TF.FilePolarity,Positive*
G04*
G01*
G75*
G04:AMPARAMS|DCode=16|XSize=15.7mil|YSize=137.8mil|CornerRadius=3.9mil|HoleSize=0mil|Usage=FLASHONLY|Rotation=270.000|XOffset=0mil|YOffset=0mil|HoleType=Round|Shape=RoundedRectangle|*
%AMROUNDEDRECTD16*
21,1,0.0157,0.1299,0,0,270.0*
21,1,0.0079,0.1378,0,0,270.0*
1,1,0.0079,-0.0650,-0.0039*
1,1,0.0079,-0.0650,0.0039*
1,1,0.0079,0.0650,0.0039*
1,1,0.0079,0.0650,-0.0039*
%
%ADD16ROUNDEDRECTD16*%
G04:AMPARAMS|DCode=17|XSize=20mil|YSize=20mil|CornerRadius=5mil|HoleSize=0mil|Usage=FLASHONLY|Rotation=0.000|XOffset=0mil|YOffset=0mil|HoleType=Round|Shape=RoundedRectangle|*
%AMROUNDEDRECTD17*
21,1,0.0200,0.0100,0,0,0.0*
21,1,0.0100,0.0200,0,0,0.0*
1,1,0.0100,0.0050,-0.0050*
1,1,0.0100,-0.0050,-0.0050*
1,1,0.0100,-0.0050,0.0050*
1,1,0.0100,0.0050,0.0050*
%
%ADD17ROUNDEDRECTD17*%
G04:AMPARAMS|DCode=18|XSize=20mil|YSize=20mil|CornerRadius=5mil|HoleSize=0mil|Usage=FLASHONLY|Rotation=270.000|XOffset=0mil|YOffset=0mil|HoleType=Round|Shape=RoundedRectangle|*
%AMROUNDEDRECTD18*
21,1,0.0200,0.0100,0,0,270.0*
21,1,0.0100,0.0200,0,0,270.0*
1,1,0.0100,-0.0050,-0.0050*
1,1,0.0100,-0.0050,0.0050*
1,1,0.0100,0.0050,0.0050*
1,1,0.0100,0.0050,-0.0050*
%
%ADD18ROUNDEDRECTD18*%
%ADD19R,0.0197X0.0197*%
G04:AMPARAMS|DCode=20|XSize=50mil|YSize=70.9mil|CornerRadius=12.5mil|HoleSize=0mil|Usage=FLASHONLY|Rotation=90.000|XOffset=0mil|YOffset=0mil|HoleType=Round|Shape=RoundedRectangle|*
%AMROUNDEDRECTD20*
21,1,0.0500,0.0459,0,0,90.0*
21,1,0.0250,0.0709,0,0,90.0*
1,1,0.0250,0.0229,0.0125*
1,1,0.0250,0.0229,-0.0125*
1,1,0.0250,-0.0229,-0.0125*
1,1,0.0250,-0.0229,0.0125*
%
%ADD20ROUNDEDRECTD20*%
G04:AMPARAMS|DCode=21|XSize=40mil|YSize=74mil|CornerRadius=10mil|HoleSize=0mil|Usage=FLASHONLY|Rotation=180.000|XOffset=0mil|YOffset=0mil|HoleType=Round|Shape=RoundedRectangle|*
%AMROUNDEDRECTD21*
21,1,0.0400,0.0540,0,0,180.0*
21,1,0.0200,0.0740,0,0,180.0*
1,1,0.0200,-0.0100,0.0270*
1,1,0.0200,0.0100,0.0270*
1,1,0.0200,0.0100,-0.0270*
1,1,0.0200,-0.0100,-0.0270*
%
%ADD21ROUNDEDRECTD21*%
G04:AMPARAMS|DCode=22|XSize=27.6mil|YSize=51.2mil|CornerRadius=6.9mil|HoleSize=0mil|Usage=FLASHONLY|Rotation=90.000|XOffset=0mil|YOffset=0mil|HoleType=Round|Shape=RoundedRectangle|*
%AMROUNDEDRECTD22*
21,1,0.0276,0.0374,0,0,90.0*
21,1,0.0138,0.0512,0,0,90.0*
1,1,0.0138,0.0187,0.0069*
1,1,0.0138,0.0187,-0.0069*
1,1,0.0138,-0.0187,-0.0069*
1,1,0.0138,-0.0187,0.0069*
%
%ADD22ROUNDEDRECTD22*%
G04:AMPARAMS|DCode=23|XSize=80mil|YSize=80mil|CornerRadius=20mil|HoleSize=0mil|Usage=FLASHONLY|Rotation=90.000|XOffset=0mil|YOffset=0mil|HoleType=Round|Shape=RoundedRectangle|*
%AMROUNDEDRECTD23*
21,1,0.0800,0.0400,0,0,90.0*
21,1,0.0400,0.0800,0,0,90.0*
1,1,0.0400,0.0200,0.0200*
1,1,0.0400,0.0200,-0.0200*
1,1,0.0400,-0.0200,-0.0200*
1,1,0.0400,-0.0200,0.0200*
%
%ADD23ROUNDEDRECTD23*%
%ADD24C,0.0354*%
G04:AMPARAMS|DCode=25|XSize=17.7mil|YSize=29.5mil|CornerRadius=4.4mil|HoleSize=0mil|Usage=FLASHONLY|Rotation=90.000|XOffset=0mil|YOffset=0mil|HoleType=Round|Shape=RoundedRectangle|*
%AMROUNDEDRECTD25*
21,1,0.0177,0.0207,0,0,90.0*
21,1,0.0089,0.0295,0,0,90.0*
1,1,0.0089,0.0103,0.0044*
1,1,0.0089,0.0103,-0.0044*
1,1,0.0089,-0.0103,-0.0044*
1,1,0.0089,-0.0103,0.0044*
%
%ADD25ROUNDEDRECTD25*%
G04:AMPARAMS|DCode=26|XSize=17.7mil|YSize=29.5mil|CornerRadius=4.4mil|HoleSize=0mil|Usage=FLASHONLY|Rotation=180.000|XOffset=0mil|YOffset=0mil|HoleType=Round|Shape=RoundedRectangle|*
%AMROUNDEDRECTD26*
21,1,0.0177,0.0207,0,0,180.0*
21,1,0.0089,0.0295,0,0,180.0*
1,1,0.0089,-0.0044,0.0103*
1,1,0.0089,0.0044,0.0103*
1,1,0.0089,0.0044,-0.0103*
1,1,0.0089,-0.0044,-0.0103*
%
%ADD26ROUNDEDRECTD26*%
%ADD44C,0.0050*%
%ADD45C,0.0065*%
%ADD46C,0.0060*%
%ADD47C,0.0150*%
%ADD48C,0.0050*%
%ADD49C,0.0065*%
%ADD50C,0.0500*%
%ADD51O,0.0827X0.0394*%
%ADD52O,0.0630X0.0394*%
%ADD53C,0.0256*%
%ADD54C,0.0236*%
%ADD55C,0.0177*%
G36*
X46242Y44943D02*
X46531Y44894D01*
X46812Y44813D01*
X47082Y44701D01*
X47338Y44559D01*
X47577Y44390D01*
X47795Y44195D01*
X47990Y43977D01*
X48159Y43738D01*
X48301Y43482D01*
X48413Y43212D01*
X48494Y42931D01*
X48543Y42642D01*
X48559Y42353D01*
X48558Y42350D01*
Y17900D01*
X48559Y17897D01*
X48543Y17657D01*
X48496Y17419D01*
X48417Y17189D01*
X48310Y16971D01*
X48175Y16768D01*
X48014Y16586D01*
X47832Y16425D01*
X47629Y16290D01*
X47411Y16183D01*
X47181Y16104D01*
X46943Y16057D01*
X46703Y16041D01*
X46700Y16042D01*
X18450D01*
X18447Y16041D01*
X18158Y16057D01*
X17869Y16106D01*
X17588Y16187D01*
X17318Y16299D01*
X17062Y16441D01*
X16823Y16610D01*
X16605Y16805D01*
X16410Y17023D01*
X16241Y17262D01*
X16099Y17518D01*
X15987Y17788D01*
X15906Y18069D01*
X15857Y18358D01*
X15841Y18647D01*
X15842Y18650D01*
Y41650D01*
X15841Y41653D01*
X15857Y41974D01*
X15905Y42296D01*
X15984Y42611D01*
X16093Y42916D01*
X16232Y43210D01*
X16399Y43488D01*
X16592Y43749D01*
X16810Y43990D01*
X17051Y44208D01*
X17312Y44401D01*
X17590Y44568D01*
X17884Y44707D01*
X18189Y44816D01*
X18504Y44895D01*
X18826Y44943D01*
X19101Y44957D01*
X19150Y44958D01*
D01*
X19200Y44958D01*
X19200Y44958D01*
X45950D01*
X45953Y44959D01*
X46242Y44943D01*
D02*
G37*
%LPC*%
G36*
X38210Y43443D02*
X38134Y43433D01*
X38064Y43403D01*
X38003Y43357D01*
X37957Y43296D01*
X37927Y43226D01*
X37917Y43150D01*
X37927Y43074D01*
X37957Y43004D01*
X37962Y42996D01*
X37546Y42580D01*
X37545Y42581D01*
X37436Y42454D01*
X37348Y42311D01*
X37284Y42156D01*
X37245Y41993D01*
X37232Y41826D01*
X37234D01*
Y31908D01*
X37184Y31903D01*
X37181Y31916D01*
X37153Y31959D01*
X37126Y31976D01*
Y42822D01*
X37171Y42863D01*
X37210Y42857D01*
X37286Y42867D01*
X37356Y42897D01*
X37417Y42943D01*
X37463Y43004D01*
X37493Y43074D01*
X37503Y43150D01*
X37493Y43226D01*
X37463Y43296D01*
X37417Y43357D01*
X37356Y43403D01*
X37286Y43433D01*
X37210Y43443D01*
X37134Y43433D01*
X37064Y43403D01*
X37003Y43357D01*
X36957Y43296D01*
X36927Y43226D01*
X36918Y43150D01*
X36927Y43074D01*
X36957Y43004D01*
X37003Y42943D01*
X37012Y42936D01*
X37013Y42925D01*
X36999Y42904D01*
X36994Y42878D01*
Y32002D01*
X36971Y31983D01*
X36936Y31994D01*
X36921Y32008D01*
Y38409D01*
X36917Y38430D01*
X36903Y38605D01*
X36857Y38797D01*
X36782Y38978D01*
X36679Y39146D01*
X36552Y39295D01*
X36552Y39295D01*
X36518Y39331D01*
X36433Y39435D01*
X36347Y39597D01*
X36293Y39772D01*
X36276Y39952D01*
X36276Y39954D01*
Y42866D01*
X36286Y42867D01*
X36356Y42897D01*
X36417Y42943D01*
X36463Y43004D01*
X36493Y43074D01*
X36502Y43150D01*
X36493Y43226D01*
X36463Y43296D01*
X36417Y43357D01*
X36356Y43403D01*
X36286Y43433D01*
X36210Y43443D01*
X36134Y43433D01*
X36064Y43403D01*
X36003Y43357D01*
X35957Y43296D01*
X35927Y43226D01*
X35917Y43150D01*
X35927Y43074D01*
X35957Y43004D01*
X36003Y42943D01*
X36064Y42897D01*
X36134Y42867D01*
X36144Y42866D01*
Y39954D01*
X36142D01*
X36155Y39787D01*
X36194Y39624D01*
X36258Y39469D01*
X36346Y39326D01*
X36454Y39199D01*
X36454Y39199D01*
X36487Y39163D01*
X36570Y39067D01*
X36662Y38917D01*
X36729Y38755D01*
X36770Y38584D01*
X36782Y38426D01*
X36779Y38409D01*
Y31633D01*
X36776D01*
X36791Y31485D01*
X36834Y31343D01*
X36904Y31213D01*
X36926Y31186D01*
X36919Y31150D01*
X36929Y31100D01*
X36957Y31057D01*
X37000Y31029D01*
X37050Y31019D01*
X37100Y31029D01*
X37143Y31057D01*
X37171Y31100D01*
X37181Y31150D01*
X37171Y31200D01*
X37143Y31243D01*
X37100Y31271D01*
X37050Y31281D01*
X37037Y31279D01*
X37025Y31294D01*
X36975Y31387D01*
X36987Y31406D01*
X36996Y31416D01*
X37013Y31426D01*
X37050Y31419D01*
X37100Y31429D01*
X37143Y31457D01*
X37171Y31500D01*
X37178Y31534D01*
X37247Y31603D01*
X37248Y31602D01*
X37314Y31686D01*
X37355Y31785D01*
X37369Y31891D01*
X37366Y31891D01*
Y41826D01*
X37366Y41828D01*
X37383Y42008D01*
X37437Y42183D01*
X37523Y42345D01*
X37638Y42485D01*
X37640Y42486D01*
X38056Y42902D01*
X38064Y42897D01*
X38134Y42867D01*
X38210Y42857D01*
X38286Y42867D01*
X38356Y42897D01*
X38417Y42943D01*
X38463Y43004D01*
X38493Y43074D01*
X38503Y43150D01*
X38493Y43226D01*
X38463Y43296D01*
X38417Y43357D01*
X38356Y43403D01*
X38286Y43433D01*
X38210Y43443D01*
D02*
G37*
G36*
X34210D02*
X34134Y43433D01*
X34064Y43403D01*
X34003Y43357D01*
X33957Y43296D01*
X33927Y43226D01*
X33918Y43150D01*
X33927Y43074D01*
X33957Y43004D01*
X34003Y42943D01*
X34064Y42897D01*
X34134Y42867D01*
X34210Y42857D01*
X34286Y42867D01*
X34356Y42897D01*
X34417Y42943D01*
X34463Y43004D01*
X34493Y43074D01*
X34502Y43150D01*
X34493Y43226D01*
X34463Y43296D01*
X34417Y43357D01*
X34356Y43403D01*
X34286Y43433D01*
X34210Y43443D01*
D02*
G37*
G36*
X33210D02*
X33134Y43433D01*
X33064Y43403D01*
X33003Y43357D01*
X32957Y43296D01*
X32927Y43226D01*
X32917Y43150D01*
X32927Y43074D01*
X32957Y43004D01*
X33003Y42943D01*
X33064Y42897D01*
X33134Y42867D01*
X33210Y42857D01*
X33286Y42867D01*
X33356Y42897D01*
X33417Y42943D01*
X33463Y43004D01*
X33493Y43074D01*
X33503Y43150D01*
X33493Y43226D01*
X33463Y43296D01*
X33417Y43357D01*
X33356Y43403D01*
X33286Y43433D01*
X33210Y43443D01*
D02*
G37*
G36*
X30210D02*
X30134Y43433D01*
X30064Y43403D01*
X30003Y43357D01*
X29957Y43296D01*
X29927Y43226D01*
X29918Y43150D01*
X29927Y43074D01*
X29957Y43004D01*
X30003Y42943D01*
X30064Y42897D01*
X30134Y42867D01*
X30210Y42857D01*
X30286Y42867D01*
X30356Y42897D01*
X30417Y42943D01*
X30463Y43004D01*
X30493Y43074D01*
X30503Y43150D01*
X30493Y43226D01*
X30463Y43296D01*
X30417Y43357D01*
X30356Y43403D01*
X30286Y43433D01*
X30210Y43443D01*
D02*
G37*
G36*
X24210D02*
X24134Y43433D01*
X24064Y43403D01*
X24003Y43357D01*
X23957Y43296D01*
X23927Y43226D01*
X23918Y43150D01*
X23927Y43074D01*
X23957Y43004D01*
X24003Y42943D01*
X24064Y42897D01*
X24134Y42867D01*
X24210Y42857D01*
X24286Y42867D01*
X24356Y42897D01*
X24417Y42943D01*
X24463Y43004D01*
X24493Y43074D01*
X24502Y43150D01*
X24493Y43226D01*
X24463Y43296D01*
X24417Y43357D01*
X24356Y43403D01*
X24286Y43433D01*
X24210Y43443D01*
D02*
G37*
G36*
X41210D02*
X41134Y43433D01*
X41064Y43403D01*
X41003Y43357D01*
X40957Y43296D01*
X40927Y43226D01*
X40918Y43150D01*
X40927Y43074D01*
X40957Y43004D01*
X40962Y42996D01*
X38246Y40280D01*
X38245Y40281D01*
X38136Y40154D01*
X38048Y40011D01*
X37984Y39856D01*
X37945Y39693D01*
X37932Y39526D01*
X37934D01*
Y31664D01*
X37934Y31662D01*
X37917Y31482D01*
X37863Y31307D01*
X37777Y31145D01*
X37693Y31043D01*
X37658Y31069D01*
X37661Y31077D01*
X37667Y31094D01*
X37671Y31100D01*
X37681Y31150D01*
X37675Y31181D01*
X37797Y31303D01*
X37811Y31325D01*
X37816Y31350D01*
Y39936D01*
X37816Y39938D01*
X37833Y40118D01*
X37887Y40293D01*
X37973Y40455D01*
X38088Y40595D01*
X38090Y40596D01*
X40016Y42523D01*
X40016Y42523D01*
X40019Y42521D01*
X40129Y42655D01*
X40212Y42809D01*
X40227Y42860D01*
X40286Y42867D01*
X40356Y42897D01*
X40417Y42943D01*
X40463Y43004D01*
X40493Y43074D01*
X40503Y43150D01*
X40493Y43226D01*
X40463Y43296D01*
X40417Y43357D01*
X40356Y43403D01*
X40286Y43433D01*
X40210Y43443D01*
X40134Y43433D01*
X40064Y43403D01*
X40003Y43357D01*
X39957Y43296D01*
X39927Y43226D01*
X39918Y43150D01*
X39927Y43074D01*
X39957Y43004D01*
X40003Y42943D01*
X40064Y42897D01*
X40074Y42838D01*
X40016Y42731D01*
X39923Y42617D01*
X39923Y42616D01*
X37996Y40690D01*
X37995Y40691D01*
X37886Y40564D01*
X37798Y40421D01*
X37734Y40266D01*
X37695Y40103D01*
X37682Y39936D01*
X37684D01*
Y31377D01*
X37581Y31275D01*
X37550Y31281D01*
X37500Y31271D01*
X37457Y31243D01*
X37429Y31200D01*
X37419Y31150D01*
X37429Y31100D01*
X37457Y31057D01*
X37500Y31029D01*
X37550Y31019D01*
X37600Y31029D01*
X37647Y31000D01*
X37646Y30990D01*
X37603Y30947D01*
X37602Y30948D01*
X37569Y30926D01*
X37529Y30918D01*
Y30916D01*
X37504Y30911D01*
X37482Y30897D01*
X37352Y30766D01*
X37160D01*
X37143Y30793D01*
X37100Y30821D01*
X37050Y30831D01*
X37000Y30821D01*
X36957Y30793D01*
X36929Y30750D01*
X36919Y30700D01*
X36929Y30650D01*
X36957Y30607D01*
X37000Y30579D01*
X37050Y30569D01*
X37100Y30579D01*
X37143Y30607D01*
X37160Y30634D01*
X37379D01*
X37405Y30639D01*
X37426Y30653D01*
X37559Y30786D01*
X37621Y30799D01*
X37652Y30819D01*
X37684Y30780D01*
X37177Y30274D01*
X37123Y30290D01*
X37121Y30300D01*
X37093Y30343D01*
X37050Y30371D01*
X37000Y30381D01*
X36950Y30371D01*
X36907Y30343D01*
X36879Y30300D01*
X36869Y30250D01*
X36873Y30231D01*
X36844Y30208D01*
X36719Y30141D01*
X36584Y30100D01*
X36444Y30086D01*
Y30086D01*
X35494D01*
X35492Y30085D01*
X35419Y30093D01*
X35406Y30144D01*
X35436Y30164D01*
X35478Y30226D01*
X35482Y30250D01*
X35300D01*
Y30350D01*
X35520D01*
X35531Y30364D01*
X35574Y30372D01*
X35636Y30414D01*
X35678Y30476D01*
X35682Y30500D01*
X35500D01*
Y30600D01*
X35682D01*
X35678Y30624D01*
X35636Y30686D01*
Y30714D01*
X35678Y30776D01*
X35682Y30800D01*
X35500D01*
Y30900D01*
X35682D01*
X35678Y30924D01*
X35636Y30986D01*
X35615Y31000D01*
Y31050D01*
X35636Y31064D01*
X35678Y31126D01*
X35682Y31150D01*
X35500D01*
Y31200D01*
X35450D01*
Y31382D01*
X35426Y31378D01*
X35364Y31336D01*
X35322Y31274D01*
X35313Y31228D01*
X35260Y31203D01*
X35224Y31228D01*
X35200Y31232D01*
Y31050D01*
X35150D01*
Y31000D01*
X34968D01*
X34972Y30976D01*
X35009Y30922D01*
X35013Y30911D01*
X35002Y30862D01*
X34964Y30836D01*
X34940Y30799D01*
X34937Y30799D01*
X34889Y30814D01*
X34878Y30874D01*
X34836Y30936D01*
X34774Y30978D01*
X34750Y30982D01*
Y30800D01*
X34700D01*
Y30750D01*
X34518D01*
X34518Y30746D01*
X34472Y30721D01*
X34131Y31063D01*
X34147Y31117D01*
X34174Y31122D01*
X34236Y31164D01*
X34278Y31226D01*
X34282Y31250D01*
X34100D01*
Y31300D01*
X34050D01*
Y31482D01*
X34026Y31478D01*
X33964Y31436D01*
X33922Y31374D01*
X33917Y31347D01*
X33863Y31331D01*
X32475Y32719D01*
X32481Y32750D01*
X32471Y32800D01*
X32443Y32843D01*
X32400Y32871D01*
X32350Y32881D01*
X32300Y32871D01*
X32257Y32843D01*
X32229Y32800D01*
X32219Y32750D01*
X32229Y32700D01*
X32257Y32657D01*
X32300Y32629D01*
X32350Y32619D01*
X32381Y32625D01*
X33629Y31378D01*
X33604Y31332D01*
X33600Y31332D01*
Y31150D01*
X33550D01*
Y31100D01*
X33350D01*
Y30900D01*
Y30718D01*
X33374Y30722D01*
X33410Y30747D01*
X33463Y30722D01*
X33472Y30676D01*
X33514Y30614D01*
X33576Y30572D01*
X33604Y30567D01*
X33622Y30523D01*
X33618Y30500D01*
X33982D01*
X33978Y30524D01*
X33949Y30567D01*
X33950Y30569D01*
Y30800D01*
X34050D01*
Y30618D01*
X34074Y30622D01*
X34136Y30664D01*
X34178Y30726D01*
X34183Y30753D01*
X34237Y30769D01*
X34369Y30637D01*
X34353Y30583D01*
X34326Y30578D01*
X34264Y30536D01*
X34222Y30474D01*
X34218Y30450D01*
X34400D01*
Y30400D01*
X34450D01*
Y30218D01*
X34474Y30222D01*
X34536Y30264D01*
X34578Y30326D01*
X34583Y30353D01*
X34637Y30369D01*
X34741Y30266D01*
X34739Y30264D01*
X34867Y30155D01*
X34938Y30112D01*
X34939Y30053D01*
X34914Y30036D01*
X34872Y29974D01*
X34871Y29967D01*
X34816Y29949D01*
X34774Y29978D01*
X34750Y29982D01*
Y29800D01*
X34700D01*
Y29750D01*
X34518D01*
X34522Y29726D01*
X34564Y29664D01*
X34596Y29643D01*
X34596Y29631D01*
X34582Y29592D01*
X33232D01*
Y29593D01*
X33148Y29582D01*
X33108Y29566D01*
X33100Y29571D01*
X33050Y29581D01*
X33000Y29571D01*
X32957Y29543D01*
X32929Y29500D01*
X32919Y29450D01*
X32929Y29400D01*
X32957Y29357D01*
X33000Y29329D01*
X33050Y29319D01*
X33100Y29329D01*
X33143Y29357D01*
X33171Y29400D01*
X33181Y29449D01*
X33232Y29459D01*
Y29459D01*
X34585D01*
X34586Y29459D01*
X34587Y29438D01*
D01*
X34587Y29438D01*
X34552Y29406D01*
X33956Y29346D01*
X33943Y29342D01*
X33930Y29339D01*
X33919Y29333D01*
X33910Y29326D01*
X33900Y29320D01*
X33870Y29289D01*
X33778Y29280D01*
X33768Y29277D01*
X33757Y29275D01*
X33754Y29273D01*
X33750Y29272D01*
X33743Y29266D01*
X33735D01*
X33732Y29265D01*
X33728Y29265D01*
X33718Y29262D01*
X33707Y29260D01*
X33704Y29258D01*
X33700Y29257D01*
X33267Y29024D01*
X33155D01*
X33143Y29043D01*
X33100Y29071D01*
X33050Y29081D01*
X33000Y29071D01*
X32957Y29043D01*
X32929Y29000D01*
X32919Y28950D01*
X32929Y28900D01*
X32957Y28857D01*
X33000Y28829D01*
X33050Y28819D01*
X33103Y28778D01*
X33104Y28771D01*
X33053Y28730D01*
X33051Y28727D01*
X33048Y28725D01*
X33042Y28716D01*
X33042Y28716D01*
X33007Y28693D01*
X32979Y28650D01*
X32969Y28600D01*
X32979Y28550D01*
X33007Y28507D01*
X33050Y28479D01*
X33100Y28469D01*
X33150Y28479D01*
X33193Y28507D01*
X33221Y28550D01*
X33231Y28600D01*
X33224Y28633D01*
X33229Y28662D01*
X33251Y28695D01*
X33274Y28707D01*
X33620Y28893D01*
X33660Y28863D01*
X33658Y28850D01*
X33672Y28776D01*
X33714Y28714D01*
X33776Y28672D01*
X33800Y28668D01*
Y28850D01*
X33850D01*
Y28900D01*
X34032D01*
X34028Y28924D01*
X33995Y28973D01*
X34011Y29025D01*
X36585Y29277D01*
X36593Y29279D01*
X36625Y29286D01*
X36670Y29315D01*
X36670Y29315D01*
X36670Y29315D01*
X36670Y29317D01*
X36924Y29571D01*
X36978Y29554D01*
X36979Y29550D01*
X37007Y29507D01*
X37050Y29479D01*
X37100Y29469D01*
X37150Y29479D01*
X37193Y29507D01*
X37221Y29550D01*
X37231Y29600D01*
X37225Y29631D01*
X37354Y29760D01*
X37355Y29762D01*
X37495Y29877D01*
X37657Y29963D01*
X37832Y30017D01*
X38012Y30034D01*
X38014Y30034D01*
X39262D01*
Y29962D01*
X39538D01*
Y30238D01*
X39262D01*
Y30166D01*
X38014D01*
Y30168D01*
X37847Y30155D01*
X37684Y30116D01*
X37529Y30052D01*
X37386Y29964D01*
X37356Y30003D01*
X41181Y33828D01*
X41181Y33828D01*
X41182Y33828D01*
X41283Y33911D01*
X41398Y33972D01*
X41523Y34010D01*
X41646Y34023D01*
X41646Y34023D01*
X41696Y34024D01*
X43558D01*
X43584Y33974D01*
X43566Y33946D01*
X43553Y33881D01*
Y33631D01*
X43566Y33567D01*
X43602Y33512D01*
X43657Y33476D01*
X43721Y33463D01*
X44180D01*
X44244Y33476D01*
X44299Y33512D01*
X44335Y33567D01*
X44348Y33631D01*
Y33881D01*
X44335Y33946D01*
X44299Y34000D01*
X44244Y34037D01*
X44180Y34050D01*
X43802D01*
X43735Y34117D01*
X43702Y34150D01*
X43735Y34183D01*
X43802Y34250D01*
X44180D01*
X44244Y34263D01*
X44299Y34300D01*
X44335Y34354D01*
X44348Y34419D01*
Y34669D01*
X44335Y34733D01*
X44299Y34788D01*
X44244Y34824D01*
X44180Y34837D01*
X43721D01*
X43657Y34824D01*
X43602Y34788D01*
X43566Y34733D01*
X43553Y34669D01*
Y34419D01*
X43566Y34354D01*
X43584Y34326D01*
X43558Y34276D01*
X41653D01*
Y34279D01*
X41474Y34264D01*
X41299Y34223D01*
X41134Y34154D01*
X40981Y34060D01*
X40882Y33976D01*
X40844Y33944D01*
X40846Y33942D01*
X40846Y33942D01*
X37873Y30969D01*
X37836Y31003D01*
X37864Y31036D01*
X37952Y31179D01*
X38016Y31334D01*
X38055Y31497D01*
X38068Y31664D01*
X38066D01*
Y39526D01*
X38066Y39528D01*
X38083Y39708D01*
X38137Y39883D01*
X38223Y40045D01*
X38338Y40185D01*
X38340Y40186D01*
X41056Y42902D01*
X41064Y42897D01*
X41134Y42867D01*
X41210Y42857D01*
X41286Y42867D01*
X41356Y42897D01*
X41417Y42943D01*
X41463Y43004D01*
X41493Y43074D01*
X41502Y43150D01*
X41493Y43226D01*
X41463Y43296D01*
X41417Y43357D01*
X41356Y43403D01*
X41286Y43433D01*
X41210Y43443D01*
D02*
G37*
G36*
X39210D02*
X39134Y43433D01*
X39064Y43403D01*
X39003Y43357D01*
X38957Y43296D01*
X38927Y43226D01*
X38918Y43150D01*
X38927Y43074D01*
X38957Y43004D01*
X39003Y42943D01*
X39064Y42897D01*
X39107Y42879D01*
X39073Y42767D01*
X38987Y42605D01*
X38872Y42465D01*
X38870Y42464D01*
X37746Y41340D01*
X37745Y41341D01*
X37636Y41214D01*
X37548Y41071D01*
X37484Y40916D01*
X37445Y40753D01*
X37432Y40586D01*
X37434D01*
Y31721D01*
X37432Y31718D01*
X37427Y31693D01*
Y31651D01*
X37425Y31650D01*
X37382Y31622D01*
X37354Y31579D01*
X37344Y31529D01*
X37354Y31479D01*
X37382Y31437D01*
X37425Y31408D01*
X37475Y31398D01*
X37525Y31408D01*
X37568Y31437D01*
X37596Y31479D01*
X37606Y31529D01*
X37596Y31579D01*
X37568Y31622D01*
X37559Y31628D01*
Y31672D01*
X37561Y31675D01*
X37566Y31700D01*
Y40586D01*
X37566Y40588D01*
X37583Y40768D01*
X37637Y40943D01*
X37723Y41105D01*
X37838Y41245D01*
X37840Y41246D01*
X38964Y42370D01*
X38965Y42369D01*
X39074Y42496D01*
X39162Y42639D01*
X39226Y42794D01*
X39242Y42862D01*
X39286Y42867D01*
X39356Y42897D01*
X39417Y42943D01*
X39463Y43004D01*
X39493Y43074D01*
X39502Y43150D01*
X39493Y43226D01*
X39463Y43296D01*
X39417Y43357D01*
X39356Y43403D01*
X39286Y43433D01*
X39210Y43443D01*
D02*
G37*
G36*
X28000Y39531D02*
X27950Y39521D01*
X27907Y39493D01*
X27879Y39450D01*
X27869Y39400D01*
X27879Y39350D01*
X27907Y39307D01*
X27950Y39279D01*
X28000Y39269D01*
X28050Y39279D01*
X28093Y39307D01*
X28121Y39350D01*
X28131Y39400D01*
X28121Y39450D01*
X28093Y39493D01*
X28050Y39521D01*
X28000Y39531D01*
D02*
G37*
G36*
X28750Y39381D02*
X28700Y39371D01*
X28657Y39343D01*
X28629Y39300D01*
X28619Y39250D01*
X28629Y39200D01*
X28657Y39157D01*
X28700Y39129D01*
X28750Y39119D01*
X28800Y39129D01*
X28843Y39157D01*
X28871Y39200D01*
X28881Y39250D01*
X28871Y39300D01*
X28843Y39343D01*
X28800Y39371D01*
X28750Y39381D01*
D02*
G37*
G36*
X28400D02*
X28350Y39371D01*
X28307Y39343D01*
X28279Y39300D01*
X28269Y39250D01*
X28279Y39200D01*
X28307Y39157D01*
X28350Y39129D01*
X28400Y39119D01*
X28450Y39129D01*
X28493Y39157D01*
X28521Y39200D01*
X28531Y39250D01*
X28521Y39300D01*
X28493Y39343D01*
X28450Y39371D01*
X28400Y39381D01*
D02*
G37*
G36*
X19650Y39231D02*
X19600Y39221D01*
X19557Y39193D01*
X19529Y39150D01*
X19519Y39100D01*
X19529Y39050D01*
X19557Y39007D01*
X19600Y38979D01*
X19650Y38969D01*
X19700Y38979D01*
X19743Y39007D01*
X19771Y39050D01*
X19781Y39100D01*
X19771Y39150D01*
X19743Y39193D01*
X19700Y39221D01*
X19650Y39231D01*
D02*
G37*
G36*
X19200Y39081D02*
X19150Y39071D01*
X19107Y39043D01*
X19079Y39000D01*
X19069Y38950D01*
X19079Y38900D01*
X19107Y38857D01*
X19150Y38829D01*
X19200Y38819D01*
X19250Y38829D01*
X19293Y38857D01*
X19321Y38900D01*
X19331Y38950D01*
X19321Y39000D01*
X19293Y39043D01*
X19250Y39071D01*
X19200Y39081D01*
D02*
G37*
G36*
X20100Y38781D02*
X20050Y38771D01*
X20007Y38743D01*
X19979Y38700D01*
X19969Y38650D01*
X19979Y38600D01*
X20007Y38557D01*
X20050Y38529D01*
X20100Y38519D01*
X20150Y38529D01*
X20193Y38557D01*
X20221Y38600D01*
X20231Y38650D01*
X20221Y38700D01*
X20193Y38743D01*
X20150Y38771D01*
X20100Y38781D01*
D02*
G37*
G36*
X24550Y37782D02*
Y37650D01*
X24682D01*
X24678Y37674D01*
X24636Y37736D01*
X24574Y37778D01*
X24550Y37782D01*
D02*
G37*
G36*
X24450D02*
X24426Y37778D01*
X24364Y37736D01*
X24322Y37674D01*
X24318Y37650D01*
X24450D01*
Y37782D01*
D02*
G37*
G36*
X24682Y37550D02*
X24318D01*
X24322Y37526D01*
X24364Y37464D01*
Y37436D01*
X24322Y37374D01*
X24318Y37350D01*
X24682D01*
X24678Y37374D01*
X24636Y37436D01*
Y37464D01*
X24678Y37526D01*
X24682Y37550D01*
D02*
G37*
G36*
Y37250D02*
X24550D01*
Y37118D01*
X24574Y37122D01*
X24636Y37164D01*
X24678Y37226D01*
X24682Y37250D01*
D02*
G37*
G36*
X24450D02*
X24318D01*
X24322Y37226D01*
X24364Y37164D01*
X24426Y37122D01*
X24450Y37118D01*
Y37250D01*
D02*
G37*
G36*
X47433Y37597D02*
X47033D01*
X46939Y37578D01*
X46860Y37525D01*
X46807Y37446D01*
X46788Y37352D01*
Y36952D01*
X46807Y36858D01*
X46860Y36779D01*
X46939Y36726D01*
X47033Y36707D01*
X47433D01*
X47527Y36726D01*
X47606Y36779D01*
X47659Y36858D01*
X47678Y36952D01*
Y37352D01*
X47659Y37446D01*
X47606Y37525D01*
X47527Y37578D01*
X47433Y37597D01*
D02*
G37*
G36*
X45228D02*
X44828D01*
X44735Y37578D01*
X44655Y37525D01*
X44602Y37446D01*
X44584Y37352D01*
Y36952D01*
X44602Y36858D01*
X44655Y36779D01*
X44735Y36726D01*
X44828Y36707D01*
X45228D01*
X45322Y36726D01*
X45401Y36779D01*
X45454Y36858D01*
X45473Y36952D01*
Y37352D01*
X45454Y37446D01*
X45401Y37525D01*
X45322Y37578D01*
X45228Y37597D01*
D02*
G37*
G36*
X41250Y36331D02*
X41200Y36321D01*
X41157Y36293D01*
X41129Y36250D01*
X41119Y36200D01*
X41129Y36150D01*
X41157Y36107D01*
X41200Y36079D01*
X41250Y36069D01*
X41300Y36079D01*
X41343Y36107D01*
X41371Y36150D01*
X41381Y36200D01*
X41371Y36250D01*
X41343Y36293D01*
X41300Y36321D01*
X41250Y36331D01*
D02*
G37*
G36*
X46634Y36022D02*
X46584Y36012D01*
X46541Y35984D01*
X46513Y35941D01*
X46503Y35891D01*
X46513Y35841D01*
X46541Y35798D01*
X46584Y35770D01*
X46634Y35760D01*
X46684Y35770D01*
X46727Y35798D01*
X46755Y35841D01*
X46765Y35891D01*
X46755Y35941D01*
X46727Y35984D01*
X46684Y36012D01*
X46634Y36022D01*
D02*
G37*
G36*
X29800Y35981D02*
X29750Y35971D01*
X29707Y35943D01*
X29684Y35907D01*
X29645Y35904D01*
X29497Y35858D01*
X29359Y35785D01*
X29239Y35687D01*
X29241Y35685D01*
X28948Y35392D01*
X28850D01*
X28815Y35385D01*
X28785Y35365D01*
X28765Y35335D01*
X28758Y35300D01*
Y35266D01*
X27960D01*
X27943Y35293D01*
X27900Y35321D01*
X27850Y35331D01*
X27800Y35321D01*
X27757Y35293D01*
X27729Y35250D01*
X27719Y35200D01*
X27729Y35150D01*
X27757Y35107D01*
X27800Y35079D01*
X27850Y35069D01*
X27900Y35079D01*
X27943Y35107D01*
X27960Y35134D01*
X28779D01*
Y35130D01*
X28789Y35132D01*
X28815Y35115D01*
X28850Y35108D01*
X28950D01*
X28985Y35115D01*
X29015Y35135D01*
X29035Y35165D01*
X29042Y35200D01*
Y35298D01*
X29335Y35591D01*
X29335Y35591D01*
X29435Y35672D01*
X29548Y35733D01*
X29672Y35771D01*
X29697Y35773D01*
X29707Y35757D01*
X29750Y35729D01*
X29800Y35719D01*
X29850Y35729D01*
X29893Y35757D01*
X29921Y35800D01*
X29931Y35850D01*
X29921Y35900D01*
X29893Y35943D01*
X29850Y35971D01*
X29800Y35981D01*
D02*
G37*
G36*
X23000D02*
X22950Y35971D01*
X22907Y35943D01*
X22879Y35900D01*
X22869Y35850D01*
X22879Y35800D01*
X22907Y35757D01*
X22950Y35729D01*
X23000Y35719D01*
X23050Y35729D01*
X23093Y35757D01*
X23121Y35800D01*
X23131Y35850D01*
X23121Y35900D01*
X23093Y35943D01*
X23050Y35971D01*
X23000Y35981D01*
D02*
G37*
G36*
X44180Y35882D02*
X44000D01*
Y35578D01*
X44409D01*
Y35653D01*
X44392Y35741D01*
X44342Y35815D01*
X44268Y35865D01*
X44180Y35882D01*
D02*
G37*
G36*
X43900D02*
X43721D01*
X43633Y35865D01*
X43559Y35815D01*
X43509Y35741D01*
X43492Y35653D01*
Y35578D01*
X43900D01*
Y35882D01*
D02*
G37*
G36*
X41200Y35781D02*
X41150Y35771D01*
X41107Y35743D01*
X41079Y35700D01*
X41069Y35650D01*
X41079Y35600D01*
X41107Y35557D01*
X41150Y35529D01*
X41200Y35519D01*
X41250Y35529D01*
X41293Y35557D01*
X41321Y35600D01*
X41331Y35650D01*
X41321Y35700D01*
X41293Y35743D01*
X41250Y35771D01*
X41200Y35781D01*
D02*
G37*
G36*
X30800Y35731D02*
X30750Y35721D01*
X30707Y35693D01*
X30679Y35650D01*
X30669Y35600D01*
X30679Y35550D01*
X30707Y35507D01*
X30750Y35479D01*
X30800Y35469D01*
X30850Y35479D01*
X30893Y35507D01*
X30921Y35550D01*
X30931Y35600D01*
X30921Y35650D01*
X30893Y35693D01*
X30850Y35721D01*
X30800Y35731D01*
D02*
G37*
G36*
X32200Y35681D02*
X32150Y35671D01*
X32107Y35643D01*
X32079Y35600D01*
X32069Y35550D01*
X32079Y35500D01*
X32107Y35457D01*
X32150Y35429D01*
X32200Y35419D01*
X32250Y35429D01*
X32293Y35457D01*
X32321Y35500D01*
X32331Y35550D01*
X32321Y35600D01*
X32293Y35643D01*
X32250Y35671D01*
X32200Y35681D01*
D02*
G37*
G36*
X21500Y35231D02*
X21450Y35221D01*
X21444Y35217D01*
X20714D01*
Y35218D01*
X20539Y35205D01*
X20369Y35164D01*
X20206Y35097D01*
X20057Y35005D01*
X19923Y34891D01*
X19924Y34890D01*
X19610Y34576D01*
X19609Y34577D01*
X19495Y34443D01*
X19403Y34294D01*
X19336Y34131D01*
X19295Y33961D01*
X19282Y33786D01*
X19283D01*
Y25056D01*
X19279Y25050D01*
X19269Y25000D01*
X19279Y24950D01*
X19307Y24907D01*
X19350Y24879D01*
X19400Y24869D01*
X19450Y24879D01*
X19493Y24907D01*
X19521Y24950D01*
X19531Y25000D01*
X19521Y25050D01*
X19517Y25056D01*
Y33786D01*
X19516Y33791D01*
X19533Y33958D01*
X19583Y34124D01*
X19665Y34277D01*
X19771Y34407D01*
X19776Y34410D01*
X20090Y34724D01*
X20093Y34729D01*
X20223Y34835D01*
X20376Y34917D01*
X20542Y34967D01*
X20709Y34984D01*
X20714Y34983D01*
X21444D01*
X21450Y34979D01*
X21500Y34969D01*
X21550Y34979D01*
X21593Y35007D01*
X21621Y35050D01*
X21631Y35100D01*
X21621Y35150D01*
X21593Y35193D01*
X21550Y35221D01*
X21500Y35231D01*
D02*
G37*
G36*
X44409Y35478D02*
X44000D01*
Y35174D01*
X44180D01*
X44268Y35191D01*
X44342Y35241D01*
X44392Y35315D01*
X44409Y35403D01*
Y35478D01*
D02*
G37*
G36*
X43900D02*
X43492D01*
Y35403D01*
X43509Y35315D01*
X43559Y35241D01*
X43633Y35191D01*
X43721Y35174D01*
X43900D01*
Y35478D01*
D02*
G37*
G36*
X27500Y35331D02*
X27450Y35321D01*
X27407Y35293D01*
X27379Y35250D01*
X27369Y35200D01*
X27379Y35150D01*
X27407Y35107D01*
X27450Y35079D01*
X27500Y35069D01*
X27550Y35079D01*
X27593Y35107D01*
X27621Y35150D01*
X27631Y35200D01*
X27621Y35250D01*
X27593Y35293D01*
X27550Y35321D01*
X27500Y35331D01*
D02*
G37*
G36*
X27100D02*
X27050Y35321D01*
X27007Y35293D01*
X26979Y35250D01*
X26969Y35200D01*
X26979Y35150D01*
X27007Y35107D01*
X27050Y35079D01*
X27100Y35069D01*
X27150Y35079D01*
X27193Y35107D01*
X27221Y35150D01*
X27231Y35200D01*
X27221Y35250D01*
X27193Y35293D01*
X27150Y35321D01*
X27100Y35331D01*
D02*
G37*
G36*
X25210Y43443D02*
X25134Y43433D01*
X25064Y43403D01*
X25003Y43357D01*
X24957Y43296D01*
X24927Y43226D01*
X24918Y43150D01*
X24927Y43074D01*
X24957Y43004D01*
X25003Y42943D01*
X25064Y42897D01*
X25134Y42867D01*
X25210Y42857D01*
X25286Y42867D01*
X25356Y42897D01*
X25364Y42902D01*
X29988Y38278D01*
X29990Y38277D01*
X30105Y38137D01*
X30191Y37976D01*
X30244Y37801D01*
X30262Y37621D01*
X30261Y37618D01*
Y35504D01*
X30141D01*
X30098Y35495D01*
X30062Y35471D01*
X30038Y35435D01*
X30030Y35393D01*
Y35255D01*
X30038Y35213D01*
X30062Y35177D01*
X30080Y35165D01*
Y35109D01*
X30062Y35097D01*
X30038Y35061D01*
X30030Y35019D01*
X29980Y35019D01*
X29875Y35029D01*
X29871Y35050D01*
X29843Y35093D01*
X29800Y35121D01*
X29750Y35131D01*
X29700Y35121D01*
X29657Y35093D01*
X29654Y35088D01*
X29495Y35173D01*
X29442Y35217D01*
Y35300D01*
X29435Y35335D01*
X29415Y35365D01*
X29385Y35385D01*
X29350Y35392D01*
X29250D01*
X29215Y35385D01*
X29185Y35365D01*
X29165Y35335D01*
X29158Y35300D01*
Y35200D01*
X29165Y35165D01*
X29185Y35135D01*
X29215Y35115D01*
X29250Y35108D01*
X29350D01*
X29358Y35110D01*
X29386Y35086D01*
X29529Y34998D01*
X29627Y34957D01*
X29629Y34950D01*
X29657Y34907D01*
X29700Y34879D01*
X29750Y34869D01*
X29800Y34879D01*
X29830Y34899D01*
X29847Y34895D01*
X30014Y34882D01*
X30037Y34841D01*
X30038Y34839D01*
X30062Y34803D01*
X30080Y34791D01*
Y34735D01*
X30062Y34723D01*
X30038Y34687D01*
X30030Y34645D01*
Y34642D01*
X29725D01*
Y34644D01*
X29594Y34631D01*
X29469Y34593D01*
X29366Y34539D01*
X29350Y34542D01*
X29250D01*
X29215Y34535D01*
X29185Y34515D01*
X29165Y34485D01*
X29158Y34450D01*
Y34350D01*
X29165Y34315D01*
X29185Y34285D01*
X29215Y34265D01*
X29250Y34258D01*
X29350D01*
X29385Y34265D01*
X29415Y34285D01*
X29435Y34315D01*
X29442Y34350D01*
Y34427D01*
X29457Y34439D01*
X29586Y34492D01*
X29722Y34510D01*
X29725Y34510D01*
X30030D01*
Y34507D01*
X30038Y34465D01*
X30062Y34429D01*
X30098Y34405D01*
X30141Y34396D01*
X30515D01*
X30557Y34405D01*
X30593Y34429D01*
X30617Y34465D01*
X30626Y34507D01*
Y34645D01*
X30617Y34687D01*
X30593Y34723D01*
X30576Y34735D01*
Y34791D01*
X30593Y34803D01*
X30617Y34839D01*
X30626Y34881D01*
Y35019D01*
X30617Y35061D01*
X30593Y35097D01*
X30576Y35109D01*
Y35165D01*
X30593Y35177D01*
X30617Y35213D01*
X30626Y35255D01*
Y35393D01*
X30617Y35435D01*
X30593Y35471D01*
X30557Y35495D01*
X30515Y35504D01*
X30394D01*
Y37618D01*
X30396D01*
X30383Y37785D01*
X30344Y37948D01*
X30279Y38103D01*
X30192Y38246D01*
X30083Y38374D01*
X30082Y38372D01*
X25458Y42996D01*
X25463Y43004D01*
X25493Y43074D01*
X25503Y43150D01*
X25493Y43226D01*
X25463Y43296D01*
X25417Y43357D01*
X25356Y43403D01*
X25286Y43433D01*
X25210Y43443D01*
D02*
G37*
G36*
X22300Y38331D02*
X22250Y38321D01*
X22207Y38293D01*
X22179Y38250D01*
X22169Y38200D01*
X22179Y38150D01*
X22207Y38107D01*
X22234Y38090D01*
Y35814D01*
X22232D01*
X22245Y35647D01*
X22284Y35484D01*
X22348Y35329D01*
X22436Y35186D01*
X22477Y35138D01*
X22469Y35100D01*
X22479Y35050D01*
X22507Y35007D01*
X22550Y34979D01*
X22600Y34969D01*
X22650Y34979D01*
X22693Y35007D01*
X22721Y35050D01*
X22731Y35100D01*
X22721Y35150D01*
X22693Y35193D01*
X22650Y35221D01*
X22600Y35231D01*
X22579Y35227D01*
X22523Y35295D01*
X22437Y35457D01*
X22383Y35632D01*
X22366Y35812D01*
X22366Y35814D01*
Y38090D01*
X22393Y38107D01*
X22421Y38150D01*
X22431Y38200D01*
X22421Y38250D01*
X22393Y38293D01*
X22350Y38321D01*
X22300Y38331D01*
D02*
G37*
G36*
X45161Y35359D02*
X45068Y35341D01*
X44988Y35288D01*
X44935Y35208D01*
X44917Y35115D01*
X44935Y35021D01*
X44988Y34942D01*
X45068Y34888D01*
X45161Y34870D01*
X45255Y34888D01*
X45334Y34942D01*
X45387Y35021D01*
X45406Y35115D01*
X45387Y35208D01*
X45334Y35288D01*
X45255Y35341D01*
X45161Y35359D01*
D02*
G37*
G36*
X41600Y34981D02*
X41550Y34971D01*
X41507Y34943D01*
X41479Y34900D01*
X41469Y34850D01*
X41479Y34800D01*
X41507Y34757D01*
X41550Y34729D01*
X41600Y34719D01*
X41650Y34729D01*
X41693Y34757D01*
X41721Y34800D01*
X41731Y34850D01*
X41721Y34900D01*
X41693Y34943D01*
X41650Y34971D01*
X41600Y34981D01*
D02*
G37*
G36*
X31250Y36081D02*
X31200Y36071D01*
X31157Y36043D01*
X31129Y36000D01*
X31119Y35950D01*
X31129Y35900D01*
X31157Y35857D01*
X31200Y35829D01*
X31206Y35828D01*
Y35504D01*
X31085D01*
X31043Y35495D01*
X31007Y35471D01*
X30983Y35435D01*
X30974Y35393D01*
Y35255D01*
X30983Y35213D01*
X31007Y35177D01*
X31024Y35165D01*
Y35109D01*
X31007Y35097D01*
X30983Y35061D01*
X30974Y35019D01*
Y34881D01*
X30983Y34839D01*
X31007Y34803D01*
Y34723D01*
X30983Y34687D01*
X30974Y34645D01*
Y34507D01*
X30983Y34465D01*
X31007Y34429D01*
X31019Y34421D01*
X31019Y34419D01*
X31023Y34418D01*
X31043Y34405D01*
X31085Y34396D01*
X31459D01*
X31502Y34405D01*
X31505Y34407D01*
X32250D01*
X32281Y34419D01*
X32293Y34450D01*
X32293Y35000D01*
X32290Y35007D01*
X32291Y35015D01*
X32284Y35022D01*
X32281Y35031D01*
X32274Y35034D01*
X32269Y35039D01*
X32259Y35040D01*
X32250Y35043D01*
X32243Y35040D01*
X32235Y35041D01*
X32220Y35035D01*
X32190Y35029D01*
X32160D01*
X32130Y35035D01*
X32115Y35041D01*
X32114Y35041D01*
X32114Y35041D01*
X32106Y35041D01*
X32098Y35043D01*
X31571Y35018D01*
X31570Y35019D01*
X31562Y35061D01*
X31538Y35097D01*
X31520Y35109D01*
Y35165D01*
X31538Y35177D01*
X31562Y35213D01*
X31570Y35255D01*
Y35393D01*
X31562Y35435D01*
X31538Y35471D01*
X31502Y35495D01*
X31459Y35504D01*
X31339D01*
Y35855D01*
X31343Y35857D01*
X31371Y35900D01*
X31381Y35950D01*
X31371Y36000D01*
X31343Y36043D01*
X31300Y36071D01*
X31250Y36081D01*
D02*
G37*
G36*
X23850Y38581D02*
X23800Y38571D01*
X23757Y38543D01*
X23729Y38500D01*
X23719Y38450D01*
X23729Y38400D01*
X23757Y38357D01*
X23784Y38340D01*
Y38250D01*
X23789Y38225D01*
X23803Y38203D01*
X24034Y37973D01*
Y36710D01*
X24007Y36693D01*
X23979Y36650D01*
X23969Y36600D01*
X23979Y36550D01*
X24007Y36507D01*
X24050Y36479D01*
X24100Y36469D01*
X24150Y36479D01*
X24193Y36507D01*
X24195Y36511D01*
X24255D01*
X24257Y36507D01*
X24300Y36479D01*
X24350Y36469D01*
X24400Y36479D01*
X24443Y36507D01*
X24460Y36534D01*
X24725D01*
X24726Y36534D01*
X24726Y36533D01*
X24804Y36522D01*
X24877Y36492D01*
X24940Y36444D01*
X24940Y36444D01*
X24971Y36406D01*
X25019Y36344D01*
X25068Y36226D01*
X25084Y36101D01*
X25084Y36100D01*
Y35864D01*
X25082D01*
X25095Y35697D01*
X25134Y35534D01*
X25198Y35379D01*
X25286Y35236D01*
X25395Y35109D01*
X25396Y35110D01*
X26180Y34326D01*
X26156Y34280D01*
X26150Y34281D01*
X26100Y34271D01*
X26057Y34243D01*
X26029Y34200D01*
X26019Y34150D01*
X26023Y34131D01*
X25977Y34103D01*
X25950Y34121D01*
X25900Y34131D01*
X25850Y34121D01*
X25807Y34093D01*
X25779Y34050D01*
X25769Y34000D01*
X25779Y33950D01*
X25807Y33907D01*
X25834Y33890D01*
Y33104D01*
X25834Y33103D01*
X25819Y32950D01*
X25774Y32802D01*
X25701Y32666D01*
X25669Y32627D01*
X25650Y32631D01*
X25600Y32621D01*
X25557Y32593D01*
X25529Y32550D01*
X25519Y32500D01*
X25529Y32450D01*
X25557Y32407D01*
X25584Y32390D01*
Y32114D01*
X25582D01*
X25584Y32089D01*
Y30864D01*
X25584Y30862D01*
X25567Y30682D01*
X25513Y30507D01*
X25427Y30345D01*
X25312Y30205D01*
X25310Y30204D01*
X25103Y29997D01*
X25101Y29999D01*
X24986Y29859D01*
X24901Y29700D01*
X24848Y29527D01*
X24831Y29346D01*
X24834D01*
Y28900D01*
X24839Y28875D01*
X24853Y28853D01*
X24852Y28852D01*
X24941Y28779D01*
X25042Y28725D01*
X25151Y28692D01*
X25265Y28681D01*
Y28683D01*
X25325D01*
X25326Y28678D01*
X25343Y28652D01*
X25365Y28637D01*
X25368Y28611D01*
X25365Y28585D01*
X25343Y28570D01*
X25326Y28544D01*
X25319Y28513D01*
Y28434D01*
X25326Y28403D01*
X25343Y28377D01*
X25365Y28362D01*
X25368Y28335D01*
X25365Y28309D01*
X25343Y28294D01*
X25326Y28268D01*
X25319Y28237D01*
Y28158D01*
X25326Y28127D01*
X25309Y28068D01*
X25300Y28062D01*
X25269Y28016D01*
X25260Y27972D01*
X26050D01*
X26840D01*
X26831Y28016D01*
X26800Y28062D01*
X26809Y28112D01*
X26823Y28131D01*
X27303D01*
Y28129D01*
X27411Y28143D01*
X27512Y28185D01*
X27598Y28252D01*
X27597Y28253D01*
X28004Y28660D01*
X28005Y28662D01*
X28145Y28777D01*
X28307Y28863D01*
X28482Y28917D01*
X28662Y28934D01*
X28664Y28934D01*
X29011D01*
X29015Y28915D01*
X29035Y28885D01*
X29065Y28865D01*
X29100Y28858D01*
X29200D01*
X29235Y28865D01*
X29265Y28885D01*
X29285Y28915D01*
X29292Y28950D01*
Y29050D01*
X29285Y29085D01*
X29265Y29115D01*
X29235Y29135D01*
X29200Y29142D01*
X29172D01*
X29125Y29144D01*
X29125Y29145D01*
X29127Y29192D01*
X29164Y29196D01*
X29305Y29239D01*
X29435Y29308D01*
X29549Y29401D01*
X29549Y29401D01*
X29601Y29479D01*
X29620Y29571D01*
X29616D01*
Y29711D01*
X29635Y29715D01*
X29665Y29735D01*
X29685Y29765D01*
X29692Y29800D01*
Y29900D01*
X29685Y29935D01*
X29665Y29965D01*
X29635Y29985D01*
X29600Y29992D01*
X29500D01*
X29465Y29985D01*
X29435Y29965D01*
X29415Y29935D01*
X29408Y29900D01*
Y29800D01*
X29415Y29765D01*
X29435Y29735D01*
X29465Y29715D01*
X29484Y29711D01*
Y29571D01*
X29482D01*
X29476Y29538D01*
X29452Y29498D01*
X29416Y29468D01*
X29359Y29421D01*
X29253Y29364D01*
X29137Y29329D01*
X29133Y29328D01*
X29105Y29376D01*
X29121Y29400D01*
X29131Y29450D01*
X29121Y29500D01*
X29093Y29543D01*
X29075Y29555D01*
X29081Y29603D01*
X29125Y29708D01*
X29200D01*
X29235Y29715D01*
X29265Y29735D01*
X29285Y29765D01*
X29292Y29800D01*
Y29900D01*
X29285Y29935D01*
X29265Y29965D01*
X29235Y29985D01*
X29200Y29992D01*
X29100D01*
X29065Y29985D01*
X29035Y29965D01*
X29015Y29935D01*
X29008Y29900D01*
Y29800D01*
X29012Y29783D01*
X29008Y29779D01*
X28950Y29639D01*
X28940Y29565D01*
X28907Y29543D01*
X28879Y29500D01*
X28869Y29450D01*
X28879Y29400D01*
X28901Y29366D01*
X28891Y29334D01*
X28879Y29316D01*
X28350D01*
Y29320D01*
X28207Y29301D01*
X28074Y29246D01*
X27959Y29158D01*
X27962Y29155D01*
X27962Y29155D01*
X27553Y28747D01*
X27553Y28747D01*
X27446Y28659D01*
X27323Y28594D01*
X27191Y28553D01*
X27053Y28540D01*
Y28540D01*
X26775D01*
X26774Y28544D01*
X26757Y28570D01*
X26735Y28585D01*
X26732Y28611D01*
X26735Y28637D01*
X26757Y28652D01*
X26774Y28678D01*
X26781Y28709D01*
Y28788D01*
X26774Y28819D01*
X26757Y28845D01*
X26735Y28860D01*
X26732Y28887D01*
X26735Y28913D01*
X26757Y28928D01*
X26774Y28954D01*
X26775Y28958D01*
X27010D01*
Y28956D01*
X27177Y28969D01*
X27340Y29008D01*
X27495Y29073D01*
X27638Y29160D01*
X27766Y29269D01*
X27764Y29270D01*
X29102Y30608D01*
X29200D01*
X29235Y30615D01*
X29265Y30635D01*
X29285Y30665D01*
X29292Y30700D01*
Y30800D01*
X29285Y30835D01*
X29265Y30865D01*
X29235Y30885D01*
X29200Y30892D01*
X29100D01*
X29065Y30885D01*
X29035Y30865D01*
X29015Y30835D01*
X29008Y30800D01*
Y30702D01*
X27670Y29364D01*
X27669Y29362D01*
X27529Y29247D01*
X27368Y29161D01*
X27193Y29108D01*
X27013Y29090D01*
X27010Y29091D01*
X26775D01*
X26774Y29095D01*
X26757Y29121D01*
X26735Y29136D01*
X26732Y29162D01*
X26735Y29189D01*
X26757Y29203D01*
X26774Y29230D01*
X26775Y29232D01*
X26914Y29246D01*
X27055Y29289D01*
X27185Y29358D01*
X27299Y29451D01*
X27299Y29451D01*
X27414Y29591D01*
X27499Y29750D01*
X27552Y29923D01*
X27569Y30104D01*
X27566D01*
Y32686D01*
X27568D01*
X27555Y32853D01*
X27516Y33016D01*
X27452Y33171D01*
X27364Y33314D01*
X27255Y33441D01*
X27254Y33440D01*
X25490Y35204D01*
X25488Y35205D01*
X25373Y35345D01*
X25287Y35507D01*
X25233Y35682D01*
X25216Y35862D01*
X25216Y35864D01*
Y36100D01*
X25218D01*
X25206Y36221D01*
X25171Y36338D01*
X25113Y36445D01*
X25036Y36539D01*
X25037Y36540D01*
X25036Y36540D01*
X24999Y36569D01*
X24946Y36610D01*
X24840Y36654D01*
X24726Y36669D01*
X24726Y36666D01*
X24460D01*
X24443Y36693D01*
X24400Y36721D01*
X24350Y36731D01*
X24300Y36721D01*
X24257Y36693D01*
X24255Y36689D01*
X24208D01*
X24166Y36727D01*
Y38000D01*
X24161Y38025D01*
X24147Y38047D01*
X23916Y38277D01*
Y38340D01*
X23943Y38357D01*
X23971Y38400D01*
X23981Y38450D01*
X23971Y38500D01*
X23943Y38543D01*
X23900Y38571D01*
X23850Y38581D01*
D02*
G37*
G36*
X25550Y34281D02*
X25500Y34271D01*
X25457Y34243D01*
X25429Y34200D01*
X25419Y34150D01*
X25429Y34100D01*
X25457Y34057D01*
X25500Y34029D01*
X25550Y34019D01*
X25600Y34029D01*
X25643Y34057D01*
X25671Y34100D01*
X25681Y34150D01*
X25671Y34200D01*
X25643Y34243D01*
X25600Y34271D01*
X25550Y34281D01*
D02*
G37*
G36*
X21950Y40131D02*
X21900Y40121D01*
X21857Y40093D01*
X21829Y40050D01*
X21819Y40000D01*
X21829Y39950D01*
X21857Y39907D01*
X21900Y39879D01*
X21907Y39878D01*
X23233Y38551D01*
Y34900D01*
X23242Y34855D01*
X23267Y34817D01*
X23584Y34500D01*
X23310Y34226D01*
X23307Y34221D01*
X23177Y34115D01*
X23024Y34033D01*
X22858Y33983D01*
X22691Y33966D01*
X22686Y33967D01*
X22014D01*
Y33968D01*
X21839Y33955D01*
X21669Y33914D01*
X21506Y33847D01*
X21357Y33755D01*
X21223Y33641D01*
X21224Y33640D01*
X21224Y33640D01*
X21010Y33426D01*
X21009Y33427D01*
X20895Y33293D01*
X20803Y33144D01*
X20736Y32981D01*
X20695Y32811D01*
X20682Y32636D01*
X20683D01*
Y32114D01*
X20682D01*
X20695Y31939D01*
X20736Y31769D01*
X20791Y31636D01*
X20792Y31633D01*
X20793Y31631D01*
X20803Y31606D01*
X20837Y31552D01*
X20845Y31447D01*
X20884Y31284D01*
X20948Y31129D01*
X21036Y30986D01*
X21145Y30859D01*
X21146Y30860D01*
X21410Y30596D01*
X21409Y30595D01*
X21536Y30486D01*
X21679Y30398D01*
X21834Y30334D01*
X21997Y30295D01*
X22164Y30282D01*
Y30282D01*
X22213Y30279D01*
X22312Y30249D01*
X22380Y30242D01*
X22385Y30235D01*
X22415Y30215D01*
X22450Y30208D01*
X22550D01*
X22585Y30215D01*
X22615Y30235D01*
X22635Y30265D01*
X22642Y30300D01*
Y30400D01*
X22635Y30435D01*
X22615Y30465D01*
X22585Y30485D01*
X22550Y30492D01*
X22450D01*
X22415Y30485D01*
X22402Y30476D01*
X22358Y30480D01*
X22221Y30522D01*
X22095Y30589D01*
X21987Y30678D01*
X21985Y30680D01*
X21176Y31490D01*
X21172Y31493D01*
X21065Y31623D01*
X20983Y31776D01*
X20966Y31831D01*
Y32650D01*
X20966D01*
X20981Y32758D01*
X21022Y32858D01*
X21088Y32944D01*
X21088Y32945D01*
X21747Y33603D01*
X21747Y33603D01*
X21841Y33679D01*
X21928Y33726D01*
X22009Y33734D01*
X22014Y33733D01*
X22686D01*
Y33732D01*
X22861Y33745D01*
X23031Y33786D01*
X23194Y33853D01*
X23343Y33945D01*
X23477Y34059D01*
X23476Y34060D01*
X23793Y34378D01*
X23800Y34379D01*
X23843Y34407D01*
X23871Y34450D01*
X23881Y34500D01*
X23871Y34550D01*
X23843Y34593D01*
X23800Y34621D01*
X23793Y34622D01*
X23467Y34949D01*
Y38600D01*
X23458Y38645D01*
X23433Y38683D01*
X22072Y40043D01*
X22071Y40050D01*
X22043Y40093D01*
X22000Y40121D01*
X21950Y40131D01*
D02*
G37*
G36*
X41150Y33631D02*
X41100Y33621D01*
X41057Y33593D01*
X41029Y33550D01*
X41019Y33500D01*
X41029Y33450D01*
X41057Y33407D01*
X41100Y33379D01*
X41150Y33369D01*
X41200Y33379D01*
X41243Y33407D01*
X41271Y33450D01*
X41281Y33500D01*
X41271Y33550D01*
X41243Y33593D01*
X41200Y33621D01*
X41150Y33631D01*
D02*
G37*
G36*
X35210Y43443D02*
X35134Y43433D01*
X35064Y43403D01*
X35003Y43357D01*
X34957Y43296D01*
X34927Y43226D01*
X34918Y43150D01*
X34927Y43074D01*
X34957Y43004D01*
X35003Y42943D01*
X35064Y42897D01*
X35134Y42867D01*
X35144Y42866D01*
Y33298D01*
X35107Y33282D01*
X35094Y33281D01*
X35054Y33321D01*
X35009Y33429D01*
X34879Y33665D01*
X34723Y33884D01*
X34544Y34084D01*
X34544Y34084D01*
X34544D01*
X34508Y34117D01*
X34390Y34235D01*
X34388Y34237D01*
X34273Y34376D01*
X34187Y34538D01*
X34133Y34713D01*
X34116Y34893D01*
X34116Y34896D01*
Y37250D01*
X34118D01*
X34105Y37424D01*
X34064Y37593D01*
X33997Y37754D01*
X33906Y37902D01*
X33793Y38035D01*
X33792Y38033D01*
X33792Y38033D01*
X32550Y39275D01*
X32548Y39277D01*
X32433Y39416D01*
X32347Y39578D01*
X32293Y39753D01*
X32276Y39933D01*
X32276Y39936D01*
Y42866D01*
X32286Y42867D01*
X32356Y42897D01*
X32417Y42943D01*
X32463Y43004D01*
X32493Y43074D01*
X32503Y43150D01*
X32493Y43226D01*
X32463Y43296D01*
X32417Y43357D01*
X32356Y43403D01*
X32286Y43433D01*
X32210Y43443D01*
X32134Y43433D01*
X32064Y43403D01*
X32003Y43357D01*
X31957Y43296D01*
X31927Y43226D01*
X31918Y43150D01*
X31927Y43074D01*
X31957Y43004D01*
X32003Y42943D01*
X32064Y42897D01*
X32134Y42867D01*
X32144Y42866D01*
Y39936D01*
X32142D01*
X32155Y39768D01*
X32194Y39605D01*
X32258Y39451D01*
X32346Y39308D01*
X32455Y39180D01*
X32456Y39182D01*
X33663Y37974D01*
X33698Y37940D01*
X33730Y37903D01*
X33820Y37792D01*
X33910Y37624D01*
X33966Y37440D01*
X33984Y37253D01*
X33984Y37250D01*
Y34896D01*
X33982D01*
X33995Y34728D01*
X34034Y34565D01*
X34098Y34411D01*
X34186Y34268D01*
X34295Y34140D01*
X34295Y34140D01*
X34297Y34140D01*
X34448Y33990D01*
X34449Y33989D01*
X34449Y33989D01*
X34482Y33953D01*
X34644Y33767D01*
X34809Y33521D01*
X34883Y33371D01*
X34843Y33343D01*
X34800Y33371D01*
X34750Y33381D01*
X34700Y33371D01*
X34665Y33348D01*
X34633Y33355D01*
X34613Y33366D01*
X34603Y33468D01*
X34554Y33629D01*
X34474Y33778D01*
X34367Y33909D01*
X34365Y33906D01*
X34194Y34078D01*
X34194Y34078D01*
X34080Y34211D01*
X33988Y34361D01*
X33921Y34523D01*
X33880Y34694D01*
X33867Y34869D01*
X33866D01*
Y37250D01*
X33870D01*
X33850Y37452D01*
X33791Y37646D01*
X33695Y37825D01*
X33567Y37982D01*
X33564Y37980D01*
X32497Y39047D01*
X32463Y39083D01*
X32251Y39315D01*
X32029Y39603D01*
X31834Y39910D01*
X31666Y40232D01*
X31527Y40568D01*
X31418Y40915D01*
X31339Y41270D01*
X31292Y41630D01*
X31276Y41992D01*
X31276Y41993D01*
X31276Y41993D01*
X31276Y41993D01*
X31276Y41993D01*
Y42866D01*
X31286Y42867D01*
X31356Y42897D01*
X31417Y42943D01*
X31463Y43004D01*
X31493Y43074D01*
X31502Y43150D01*
X31493Y43226D01*
X31463Y43296D01*
X31417Y43357D01*
X31356Y43403D01*
X31286Y43433D01*
X31210Y43443D01*
X31134Y43433D01*
X31064Y43403D01*
X31003Y43357D01*
X30957Y43296D01*
X30927Y43226D01*
X30917Y43150D01*
X30927Y43074D01*
X30957Y43004D01*
X31003Y42943D01*
X31064Y42897D01*
X31134Y42867D01*
X31144Y42866D01*
Y42042D01*
X31141Y41993D01*
X31141Y41993D01*
X31157Y41618D01*
X31206Y41246D01*
X31287Y40880D01*
X31400Y40522D01*
X31544Y40175D01*
X31717Y39842D01*
X31919Y39526D01*
X32147Y39228D01*
X32367Y38988D01*
X32401Y38952D01*
X32401Y38951D01*
X32438Y38919D01*
X33470Y37886D01*
X33472Y37885D01*
X33583Y37750D01*
X33666Y37594D01*
X33717Y37426D01*
X33734Y37252D01*
X33734Y37250D01*
Y34869D01*
X33731D01*
X33747Y34673D01*
X33793Y34481D01*
X33868Y34299D01*
X33971Y34132D01*
X34098Y33982D01*
X34100Y33984D01*
X34100Y33984D01*
X34271Y33813D01*
X34271Y33813D01*
X34361Y33703D01*
X34428Y33577D01*
X34470Y33441D01*
X34480Y33334D01*
X34433Y33304D01*
X34420Y33311D01*
X34411Y33404D01*
X34366Y33552D01*
X34293Y33688D01*
X34195Y33807D01*
X34194Y33806D01*
X34056Y33944D01*
X34054Y33945D01*
X33923Y34099D01*
X33816Y34274D01*
X33737Y34463D01*
X33690Y34662D01*
X33674Y34864D01*
X33674Y34866D01*
Y37250D01*
X33676D01*
X33663Y37380D01*
X33625Y37505D01*
X33563Y37621D01*
X33480Y37722D01*
X33479Y37720D01*
X29555Y41644D01*
X29553Y41646D01*
X29439Y41784D01*
X29354Y41944D01*
X29301Y42118D01*
X29283Y42296D01*
X29284Y42299D01*
Y42867D01*
X29286Y42867D01*
X29356Y42897D01*
X29417Y42943D01*
X29463Y43004D01*
X29493Y43074D01*
X29502Y43150D01*
X29493Y43226D01*
X29463Y43296D01*
X29417Y43357D01*
X29356Y43403D01*
X29286Y43433D01*
X29210Y43443D01*
X29134Y43433D01*
X29064Y43403D01*
X29003Y43357D01*
X28957Y43296D01*
X28927Y43226D01*
X28918Y43150D01*
X28927Y43074D01*
X28957Y43004D01*
X29003Y42943D01*
X29064Y42897D01*
X29134Y42867D01*
X29136Y42867D01*
Y42299D01*
X29134D01*
X29147Y42131D01*
X29187Y41967D01*
X29251Y41811D01*
X29340Y41667D01*
X29449Y41538D01*
X29451Y41540D01*
X33375Y37616D01*
X33377Y37614D01*
X33457Y37509D01*
X33509Y37384D01*
X33527Y37253D01*
X33526Y37250D01*
Y34866D01*
X33523D01*
X33541Y34638D01*
X33594Y34416D01*
X33682Y34205D01*
X33801Y34011D01*
X33949Y33837D01*
X33949Y33837D01*
X33987Y33804D01*
X34089Y33701D01*
X34089Y33701D01*
X34168Y33604D01*
X34227Y33494D01*
X34263Y33374D01*
X34276Y33250D01*
X34276D01*
X34282Y33222D01*
X34298Y33198D01*
X34473Y33022D01*
X34469Y33000D01*
X34479Y32950D01*
X34507Y32907D01*
X34550Y32879D01*
X34600Y32869D01*
X34650Y32879D01*
X34693Y32907D01*
X34721Y32950D01*
X34731Y33000D01*
X34721Y33050D01*
X34703Y33077D01*
X34731Y33123D01*
X34750Y33119D01*
X34800Y33129D01*
X34843Y33157D01*
X34871Y33200D01*
X34877Y33230D01*
X34920Y33258D01*
X34930Y33260D01*
X34939Y33256D01*
X34939Y33256D01*
X34939Y33256D01*
X34953Y33234D01*
X34968Y33219D01*
X34984Y33204D01*
Y32710D01*
X34957Y32693D01*
X34929Y32650D01*
X34919Y32600D01*
X34929Y32550D01*
X34957Y32507D01*
X35000Y32479D01*
X35050Y32469D01*
X35100Y32479D01*
X35143Y32507D01*
X35171Y32550D01*
X35181Y32600D01*
X35171Y32650D01*
X35143Y32693D01*
X35116Y32710D01*
Y32931D01*
X35166Y32937D01*
X35194Y32823D01*
X35257Y32670D01*
X35344Y32528D01*
X35377Y32490D01*
X35369Y32450D01*
X35379Y32400D01*
X35407Y32357D01*
X35450Y32329D01*
X35500Y32319D01*
X35550Y32329D01*
X35593Y32357D01*
X35595Y32361D01*
X35655D01*
X35657Y32357D01*
X35700Y32329D01*
X35750Y32319D01*
X35800Y32329D01*
X35843Y32357D01*
X35871Y32400D01*
X35875Y32417D01*
X35925D01*
X35929Y32400D01*
X35957Y32357D01*
X36000Y32329D01*
X36050Y32319D01*
X36100Y32329D01*
X36143Y32357D01*
X36171Y32400D01*
X36181Y32450D01*
X36171Y32500D01*
X36143Y32543D01*
X36100Y32571D01*
X36050Y32581D01*
X36000Y32571D01*
X35957Y32543D01*
X35929Y32500D01*
X35925Y32483D01*
X35875D01*
X35871Y32500D01*
X35843Y32543D01*
X35800Y32571D01*
X35750Y32581D01*
X35700Y32571D01*
X35657Y32543D01*
X35655Y32539D01*
X35595D01*
X35593Y32543D01*
X35550Y32571D01*
X35500Y32581D01*
X35480Y32577D01*
X35431Y32636D01*
X35346Y32796D01*
X35293Y32970D01*
X35276Y33148D01*
X35276Y33150D01*
Y42866D01*
X35286Y42867D01*
X35356Y42897D01*
X35417Y42943D01*
X35463Y43004D01*
X35493Y43074D01*
X35503Y43150D01*
X35493Y43226D01*
X35463Y43296D01*
X35417Y43357D01*
X35356Y43403D01*
X35286Y43433D01*
X35210Y43443D01*
D02*
G37*
G36*
X28210D02*
X28134Y43433D01*
X28064Y43403D01*
X28003Y43357D01*
X27957Y43296D01*
X27927Y43226D01*
X27917Y43150D01*
X27927Y43074D01*
X27957Y43004D01*
X28003Y42943D01*
X28064Y42897D01*
X28134Y42867D01*
X28144Y42866D01*
Y42804D01*
X28142D01*
X28155Y42637D01*
X28194Y42474D01*
X28258Y42319D01*
X28346Y42176D01*
X28455Y42049D01*
X28456Y42050D01*
X33132Y37374D01*
X33132Y37374D01*
X33132Y37374D01*
X33170Y37317D01*
X33183Y37250D01*
X33184D01*
Y34883D01*
X33181D01*
X33197Y34643D01*
X33244Y34407D01*
X33321Y34179D01*
X33427Y33964D01*
X33561Y33764D01*
X33720Y33583D01*
X33721Y33585D01*
X33847Y33459D01*
X33846Y33458D01*
X33893Y33397D01*
X33922Y33326D01*
X33933Y33250D01*
X33913Y33208D01*
X33898Y33203D01*
X33853Y33222D01*
X33807Y33290D01*
X33805Y33288D01*
X33805Y33288D01*
X33190Y33904D01*
X33188Y33905D01*
X33073Y34045D01*
X32987Y34207D01*
X32933Y34382D01*
X32916Y34562D01*
X32916Y34564D01*
Y37100D01*
X32911Y37125D01*
X32897Y37147D01*
X27312Y42732D01*
Y42878D01*
X27356Y42897D01*
X27417Y42943D01*
X27463Y43004D01*
X27493Y43074D01*
X27503Y43150D01*
X27493Y43226D01*
X27463Y43296D01*
X27417Y43357D01*
X27356Y43403D01*
X27286Y43433D01*
X27210Y43443D01*
X27134Y43433D01*
X27064Y43403D01*
X27003Y43357D01*
X26957Y43296D01*
X26927Y43226D01*
X26918Y43150D01*
X26927Y43074D01*
X26957Y43004D01*
X27003Y42943D01*
X27064Y42897D01*
X27134Y42867D01*
X27179Y42862D01*
Y42704D01*
X27184Y42679D01*
X27199Y42657D01*
X32784Y37073D01*
Y34614D01*
X32782Y34564D01*
X32782Y34564D01*
X32786Y34515D01*
X32795Y34397D01*
X32834Y34234D01*
X32898Y34079D01*
X32986Y33936D01*
X33063Y33846D01*
X33095Y33809D01*
X33095D01*
X33131Y33775D01*
X33708Y33198D01*
X33707Y33193D01*
X33679Y33150D01*
X33669Y33100D01*
X33679Y33050D01*
X33707Y33007D01*
X33750Y32979D01*
X33800Y32969D01*
X33850Y32979D01*
X33884Y33001D01*
X33916Y32991D01*
X33934Y32979D01*
Y32810D01*
X33907Y32793D01*
X33879Y32750D01*
X33869Y32700D01*
X33879Y32650D01*
X33907Y32607D01*
X33950Y32579D01*
X34000Y32569D01*
X34050Y32579D01*
X34093Y32607D01*
X34121Y32650D01*
X34131Y32700D01*
X34121Y32750D01*
X34093Y32793D01*
X34066Y32810D01*
Y33250D01*
X34069D01*
X34054Y33361D01*
X34011Y33465D01*
X33942Y33555D01*
X33941Y33553D01*
X33815Y33679D01*
X33815Y33679D01*
X33668Y33846D01*
X33545Y34031D01*
X33446Y34231D01*
X33374Y34442D01*
X33331Y34661D01*
X33316Y34883D01*
X33316D01*
Y37250D01*
X33318D01*
X33307Y37330D01*
X33276Y37405D01*
X33227Y37469D01*
X33226Y37468D01*
X33226Y37468D01*
X28550Y42144D01*
X28548Y42145D01*
X28433Y42285D01*
X28347Y42447D01*
X28293Y42622D01*
X28276Y42802D01*
X28276Y42804D01*
Y42866D01*
X28286Y42867D01*
X28356Y42897D01*
X28417Y42943D01*
X28463Y43004D01*
X28493Y43074D01*
X28503Y43150D01*
X28493Y43226D01*
X28463Y43296D01*
X28417Y43357D01*
X28356Y43403D01*
X28286Y43433D01*
X28210Y43443D01*
D02*
G37*
G36*
X45161Y33430D02*
X45068Y33412D01*
X44988Y33358D01*
X44935Y33279D01*
X44917Y33185D01*
X44935Y33092D01*
X44988Y33012D01*
X45068Y32959D01*
X45161Y32941D01*
X45255Y32959D01*
X45334Y33012D01*
X45387Y33092D01*
X45406Y33185D01*
X45387Y33279D01*
X45334Y33358D01*
X45255Y33412D01*
X45161Y33430D01*
D02*
G37*
G36*
X41150Y33131D02*
X41100Y33121D01*
X41057Y33093D01*
X41029Y33050D01*
X41019Y33000D01*
X41029Y32950D01*
X41057Y32907D01*
X41100Y32879D01*
X41150Y32869D01*
X41200Y32879D01*
X41243Y32907D01*
X41271Y32950D01*
X41281Y33000D01*
X41271Y33050D01*
X41243Y33093D01*
X41200Y33121D01*
X41150Y33131D01*
D02*
G37*
G36*
X44180Y33065D02*
X43721D01*
X43657Y33052D01*
X43602Y33016D01*
X43566Y32961D01*
X43553Y32897D01*
Y32838D01*
X41586D01*
Y32840D01*
X41419Y32827D01*
X41256Y32788D01*
X41101Y32724D01*
X40958Y32636D01*
X40831Y32527D01*
X40832Y32526D01*
X40298Y31992D01*
X40200D01*
X40165Y31985D01*
X40135Y31965D01*
X40115Y31935D01*
X40108Y31900D01*
Y31800D01*
X40115Y31765D01*
X40135Y31735D01*
X40165Y31715D01*
X40200Y31708D01*
X40300D01*
X40335Y31715D01*
X40361Y31733D01*
X42614D01*
Y31732D01*
X42789Y31745D01*
X42960Y31786D01*
X43122Y31853D01*
X43272Y31945D01*
X43405Y32059D01*
X43404Y32060D01*
X43823Y32479D01*
X44180D01*
X44244Y32492D01*
X44299Y32528D01*
X44335Y32583D01*
X44348Y32647D01*
Y32655D01*
X44561D01*
X44600Y32629D01*
X44650Y32619D01*
X44700Y32629D01*
X44743Y32657D01*
X44771Y32700D01*
X44781Y32750D01*
X44771Y32800D01*
X44743Y32843D01*
X44700Y32871D01*
X44650Y32881D01*
X44648Y32881D01*
X44597Y32891D01*
Y32889D01*
X44348D01*
Y32897D01*
X44335Y32961D01*
X44299Y33016D01*
X44244Y33052D01*
X44180Y33065D01*
D02*
G37*
G36*
X34250Y33031D02*
X34200Y33021D01*
X34157Y32993D01*
X34129Y32950D01*
X34119Y32900D01*
X34129Y32850D01*
X34157Y32807D01*
X34200Y32779D01*
X34250Y32769D01*
X34300Y32779D01*
X34343Y32807D01*
X34371Y32850D01*
X34381Y32900D01*
X34371Y32950D01*
X34343Y32993D01*
X34300Y33021D01*
X34250Y33031D01*
D02*
G37*
G36*
X46634Y32880D02*
X46584Y32870D01*
X46541Y32842D01*
X46513Y32799D01*
X46503Y32749D01*
X46513Y32699D01*
X46541Y32657D01*
X46584Y32628D01*
X46634Y32618D01*
X46684Y32628D01*
X46727Y32657D01*
X46755Y32699D01*
X46765Y32749D01*
X46755Y32799D01*
X46727Y32842D01*
X46684Y32870D01*
X46634Y32880D01*
D02*
G37*
G36*
X28950Y34542D02*
X28850D01*
X28815Y34535D01*
X28785Y34515D01*
X28765Y34485D01*
X28758Y34450D01*
Y34350D01*
X28765Y34315D01*
X28785Y34285D01*
X28815Y34265D01*
X28834Y34261D01*
Y33671D01*
X28830D01*
X28832Y33661D01*
X28815Y33635D01*
X28808Y33600D01*
Y33500D01*
X28815Y33465D01*
X28835Y33435D01*
X28865Y33415D01*
X28884Y33411D01*
Y32889D01*
X28865Y32885D01*
X28835Y32865D01*
X28815Y32835D01*
X28808Y32800D01*
Y32700D01*
X28815Y32665D01*
X28835Y32635D01*
X28865Y32615D01*
X28900Y32608D01*
X29000D01*
X29035Y32615D01*
X29065Y32635D01*
X29085Y32665D01*
X29092Y32700D01*
Y32800D01*
X29085Y32835D01*
X29065Y32865D01*
X29035Y32885D01*
X29016Y32889D01*
Y33411D01*
X29035Y33415D01*
X29065Y33435D01*
X29085Y33465D01*
X29092Y33500D01*
Y33600D01*
X29085Y33635D01*
X29065Y33665D01*
X29035Y33685D01*
X29000Y33692D01*
X28966D01*
Y34261D01*
X28985Y34265D01*
X29015Y34285D01*
X29035Y34315D01*
X29042Y34350D01*
Y34450D01*
X29035Y34485D01*
X29015Y34515D01*
X28985Y34535D01*
X28950Y34542D01*
D02*
G37*
G36*
X29400Y33692D02*
X29300D01*
X29265Y33685D01*
X29235Y33665D01*
X29215Y33635D01*
X29208Y33600D01*
Y33500D01*
X29215Y33465D01*
X29235Y33435D01*
X29265Y33415D01*
X29300Y33408D01*
X29400D01*
X29435Y33415D01*
X29465Y33435D01*
X29485Y33465D01*
X29489Y33484D01*
X31536D01*
X31538Y33484D01*
X31718Y33467D01*
X31893Y33413D01*
X32055Y33327D01*
X32195Y33212D01*
X32196Y33210D01*
X32675Y32731D01*
X32669Y32700D01*
X32679Y32650D01*
X32707Y32607D01*
X32750Y32579D01*
X32800Y32569D01*
X32850Y32579D01*
X32893Y32607D01*
X32921Y32650D01*
X32931Y32700D01*
X32921Y32750D01*
X32893Y32793D01*
X32850Y32821D01*
X32800Y32831D01*
X32769Y32825D01*
X32290Y33304D01*
X32291Y33305D01*
X32164Y33414D01*
X32021Y33502D01*
X31866Y33566D01*
X31703Y33605D01*
X31536Y33618D01*
Y33616D01*
X29489D01*
X29485Y33635D01*
X29465Y33665D01*
X29435Y33685D01*
X29400Y33692D01*
D02*
G37*
G36*
X26210Y43443D02*
X26134Y43433D01*
X26064Y43403D01*
X26003Y43357D01*
X25957Y43296D01*
X25927Y43226D01*
X25917Y43150D01*
X25927Y43074D01*
X25957Y43004D01*
X26003Y42943D01*
X26064Y42897D01*
X26134Y42867D01*
X26210Y42857D01*
X26286Y42867D01*
X26356Y42897D01*
X26364Y42902D01*
X32210Y37056D01*
X32212Y37055D01*
X32327Y36915D01*
X32413Y36753D01*
X32467Y36578D01*
X32484Y36398D01*
X32484Y36396D01*
Y34564D01*
X32482D01*
X32495Y34397D01*
X32534Y34234D01*
X32598Y34079D01*
X32686Y33936D01*
X32795Y33809D01*
X32795Y33809D01*
X32797Y33809D01*
X33292Y33315D01*
X33326Y33280D01*
Y33280D01*
X33357Y33242D01*
X33411Y33176D01*
X33474Y33058D01*
X33513Y32930D01*
X33526Y32797D01*
X33526D01*
Y32705D01*
X33507Y32693D01*
X33479Y32650D01*
X33469Y32600D01*
X33479Y32550D01*
X33507Y32507D01*
X33550Y32479D01*
X33600Y32469D01*
X33650Y32479D01*
X33693Y32507D01*
X33721Y32550D01*
X33731Y32600D01*
X33721Y32650D01*
X33693Y32693D01*
X33659Y32715D01*
Y32797D01*
X33662D01*
X33646Y32957D01*
X33599Y33110D01*
X33524Y33252D01*
X33453Y33338D01*
X33422Y33375D01*
X33422Y33376D01*
X33385Y33409D01*
X32890Y33904D01*
X32888Y33905D01*
X32773Y34045D01*
X32687Y34207D01*
X32633Y34382D01*
X32616Y34562D01*
X32616Y34564D01*
Y36396D01*
X32618D01*
X32605Y36563D01*
X32566Y36726D01*
X32502Y36881D01*
X32414Y37024D01*
X32305Y37151D01*
X32304Y37150D01*
X26458Y42996D01*
X26463Y43004D01*
X26493Y43074D01*
X26502Y43150D01*
X26493Y43226D01*
X26463Y43296D01*
X26417Y43357D01*
X26356Y43403D01*
X26286Y43433D01*
X26210Y43443D01*
D02*
G37*
G36*
X24400Y32231D02*
X24350Y32221D01*
X24307Y32193D01*
X24279Y32150D01*
X24269Y32100D01*
X24279Y32050D01*
X24307Y32007D01*
X24350Y31979D01*
X24400Y31969D01*
X24450Y31979D01*
X24493Y32007D01*
X24521Y32050D01*
X24531Y32100D01*
X24521Y32150D01*
X24493Y32193D01*
X24450Y32221D01*
X24400Y32231D01*
D02*
G37*
G36*
X29400Y32892D02*
X29300D01*
X29265Y32885D01*
X29235Y32865D01*
X29215Y32835D01*
X29208Y32800D01*
Y32700D01*
X29215Y32665D01*
X29235Y32635D01*
X29265Y32615D01*
X29300Y32608D01*
X29400D01*
X29435Y32615D01*
X29465Y32635D01*
X29485Y32665D01*
X29489Y32684D01*
X30836D01*
X30838Y32684D01*
X31018Y32667D01*
X31193Y32613D01*
X31355Y32527D01*
X31495Y32412D01*
X31496Y32410D01*
X31925Y31981D01*
X31919Y31950D01*
X31929Y31900D01*
X31957Y31857D01*
X32000Y31829D01*
X32050Y31819D01*
X32100Y31829D01*
X32143Y31857D01*
X32171Y31900D01*
X32181Y31950D01*
X32171Y32000D01*
X32143Y32043D01*
X32100Y32071D01*
X32050Y32081D01*
X32019Y32075D01*
X31590Y32504D01*
X31591Y32505D01*
X31464Y32614D01*
X31321Y32702D01*
X31166Y32766D01*
X31003Y32805D01*
X30836Y32818D01*
Y32816D01*
X29489D01*
X29485Y32835D01*
X29465Y32865D01*
X29435Y32885D01*
X29400Y32892D01*
D02*
G37*
G36*
X21300Y32981D02*
X21250Y32971D01*
X21207Y32943D01*
X21179Y32900D01*
X21169Y32850D01*
X21179Y32800D01*
X21199Y32770D01*
X21192Y32759D01*
X21183Y32714D01*
X21182D01*
X21195Y32539D01*
X21236Y32369D01*
X21303Y32206D01*
X21326Y32170D01*
X21403Y32026D01*
X21530Y31871D01*
X21531Y31873D01*
X21595Y31824D01*
X21670Y31793D01*
X21705Y31788D01*
X21721Y31780D01*
X21839Y31744D01*
X21962Y31732D01*
Y31733D01*
X22007Y31742D01*
X22045Y31767D01*
X22056Y31784D01*
X22311D01*
X22315Y31765D01*
X22335Y31735D01*
X22365Y31715D01*
X22400Y31708D01*
X22500D01*
X22535Y31715D01*
X22565Y31735D01*
X22585Y31765D01*
X22592Y31800D01*
Y31900D01*
X22585Y31935D01*
X22565Y31965D01*
X22535Y31985D01*
X22500Y31992D01*
X22400D01*
X22365Y31985D01*
X22335Y31965D01*
X22315Y31935D01*
X22311Y31916D01*
X22056D01*
X22045Y31933D01*
X22008Y31957D01*
X22007Y31958D01*
X21962Y31967D01*
X21914Y31973D01*
X21860Y31980D01*
X21764Y32020D01*
X21684Y32081D01*
X21683Y32083D01*
X21676Y32090D01*
X21672Y32093D01*
X21565Y32223D01*
X21483Y32376D01*
X21433Y32542D01*
X21421Y32666D01*
X21417Y32714D01*
X21408Y32759D01*
X21408Y32760D01*
X21401Y32770D01*
X21421Y32800D01*
X21431Y32850D01*
X21421Y32900D01*
X21393Y32943D01*
X21350Y32971D01*
X21300Y32981D01*
D02*
G37*
G36*
X32150Y31781D02*
X32100Y31771D01*
X32057Y31743D01*
X32029Y31700D01*
X32019Y31650D01*
X32029Y31600D01*
X32057Y31557D01*
X32100Y31529D01*
X32150Y31519D01*
X32200Y31529D01*
X32243Y31557D01*
X32271Y31600D01*
X32281Y31650D01*
X32271Y31700D01*
X32243Y31743D01*
X32200Y31771D01*
X32150Y31781D01*
D02*
G37*
G36*
X23500Y31592D02*
X23400D01*
X23365Y31585D01*
X23335Y31565D01*
X23315Y31535D01*
X23311Y31516D01*
X22589D01*
X22585Y31535D01*
X22565Y31565D01*
X22535Y31585D01*
X22500Y31592D01*
X22400D01*
X22365Y31585D01*
X22335Y31565D01*
X22315Y31535D01*
X22308Y31500D01*
Y31400D01*
X22315Y31365D01*
X22335Y31335D01*
X22365Y31315D01*
X22400Y31308D01*
X22498D01*
X22868Y30938D01*
X22868Y30938D01*
X22884Y30901D01*
X22884Y30900D01*
Y29664D01*
X22884Y29662D01*
X22867Y29482D01*
X22813Y29307D01*
X22727Y29145D01*
X22612Y29005D01*
X22610Y29004D01*
X21900Y28294D01*
X21885Y28305D01*
X21800Y28321D01*
X21715Y28305D01*
X21643Y28257D01*
X21595Y28185D01*
X21579Y28100D01*
X21595Y28015D01*
X21643Y27943D01*
X21715Y27895D01*
X21800Y27879D01*
X21885Y27895D01*
X21957Y27943D01*
X22005Y28015D01*
X22021Y28100D01*
X22005Y28185D01*
X21994Y28200D01*
X22704Y28910D01*
X22705Y28909D01*
X22814Y29036D01*
X22902Y29179D01*
X22966Y29334D01*
X23005Y29497D01*
X23018Y29664D01*
X23016D01*
Y30900D01*
X23019D01*
X23004Y30972D01*
X22963Y31034D01*
X22962Y31032D01*
X22961Y31032D01*
X22656Y31338D01*
X22675Y31384D01*
X23311D01*
X23315Y31365D01*
X23335Y31335D01*
X23365Y31315D01*
X23400Y31308D01*
X23500D01*
X23535Y31315D01*
X23565Y31335D01*
X23585Y31365D01*
X23592Y31400D01*
Y31500D01*
X23585Y31535D01*
X23565Y31565D01*
X23535Y31585D01*
X23500Y31592D01*
D02*
G37*
G36*
X40300Y31653D02*
D01*
Y31500D01*
X40453D01*
X40441Y31559D01*
X40408Y31608D01*
X40359Y31641D01*
X40300Y31653D01*
D02*
G37*
G36*
X40200D02*
X40141Y31641D01*
X40092Y31608D01*
X40059Y31559D01*
X40047Y31500D01*
D01*
X40200D01*
Y31653D01*
D02*
G37*
G36*
X34150Y31482D02*
Y31350D01*
X34282D01*
X34278Y31374D01*
X34236Y31436D01*
X34174Y31478D01*
X34150Y31482D01*
D02*
G37*
G36*
X23900Y31592D02*
X23800D01*
X23765Y31585D01*
X23735Y31565D01*
X23715Y31535D01*
X23708Y31500D01*
Y31400D01*
X23715Y31365D01*
X23735Y31335D01*
X23765Y31315D01*
X23800Y31308D01*
X23900D01*
X23935Y31315D01*
X23965Y31335D01*
X23985Y31365D01*
X23989Y31384D01*
X24090D01*
X24107Y31357D01*
X24150Y31329D01*
X24200Y31319D01*
X24250Y31329D01*
X24293Y31357D01*
X24321Y31400D01*
X24331Y31450D01*
X24321Y31500D01*
X24293Y31543D01*
X24250Y31571D01*
X24200Y31581D01*
X24150Y31571D01*
X24107Y31543D01*
X24090Y31516D01*
X23989D01*
X23985Y31535D01*
X23965Y31565D01*
X23935Y31585D01*
X23900Y31592D01*
D02*
G37*
G36*
X34800Y31432D02*
Y31300D01*
X34932D01*
X34928Y31324D01*
X34886Y31386D01*
X34824Y31428D01*
X34800Y31432D01*
D02*
G37*
G36*
X34700D02*
X34676Y31428D01*
X34614Y31386D01*
X34572Y31324D01*
X34568Y31300D01*
X34700D01*
Y31432D01*
D02*
G37*
G36*
X35550Y31382D02*
Y31250D01*
X35682D01*
X35678Y31274D01*
X35636Y31336D01*
X35574Y31378D01*
X35550Y31382D01*
D02*
G37*
G36*
X40453Y31400D02*
X40300D01*
Y31247D01*
X40359Y31259D01*
X40408Y31292D01*
X40441Y31341D01*
X40453Y31400D01*
D01*
D02*
G37*
G36*
X40200D02*
X40047D01*
X40059Y31341D01*
X40092Y31292D01*
X40141Y31259D01*
X40200Y31247D01*
D01*
Y31400D01*
D02*
G37*
G36*
X33500Y31332D02*
X33476Y31328D01*
X33414Y31286D01*
X33372Y31224D01*
X33368Y31200D01*
X33500D01*
Y31332D01*
D02*
G37*
G36*
X35100Y31232D02*
X35076Y31228D01*
X35014Y31186D01*
X34972Y31124D01*
X34968Y31100D01*
X35100D01*
Y31232D01*
D02*
G37*
G36*
X34932Y31200D02*
X34800D01*
Y31068D01*
X34824Y31072D01*
X34886Y31114D01*
X34928Y31176D01*
X34932Y31200D01*
D02*
G37*
G36*
X34700D02*
X34568D01*
X34572Y31176D01*
X34614Y31114D01*
X34676Y31072D01*
X34700Y31068D01*
Y31200D01*
D02*
G37*
G36*
X33250Y31082D02*
X33226Y31078D01*
X33164Y31036D01*
X33122Y30974D01*
X33118Y30950D01*
X33250D01*
Y31082D01*
D02*
G37*
G36*
X34650Y30982D02*
X34626Y30978D01*
X34564Y30936D01*
X34522Y30874D01*
X34518Y30850D01*
X34650D01*
Y30982D01*
D02*
G37*
G36*
X29600Y30953D02*
D01*
Y30800D01*
X29753D01*
X29741Y30859D01*
X29708Y30908D01*
X29659Y30941D01*
X29600Y30953D01*
D02*
G37*
G36*
X29500D02*
X29441Y30941D01*
X29392Y30908D01*
X29359Y30859D01*
X29347Y30800D01*
D01*
X29500D01*
Y30953D01*
D02*
G37*
G36*
X33250Y30850D02*
X33118D01*
X33122Y30826D01*
X33164Y30764D01*
X33226Y30722D01*
X33250Y30718D01*
Y30850D01*
D02*
G37*
G36*
X47433Y31593D02*
X47033D01*
X46939Y31574D01*
X46860Y31521D01*
X46807Y31442D01*
X46788Y31348D01*
Y30948D01*
X46807Y30854D01*
X46860Y30775D01*
X46939Y30722D01*
X47033Y30703D01*
X47433D01*
X47527Y30722D01*
X47606Y30775D01*
X47659Y30854D01*
X47678Y30948D01*
Y31348D01*
X47659Y31442D01*
X47606Y31521D01*
X47527Y31574D01*
X47433Y31593D01*
D02*
G37*
G36*
X45228D02*
X44828D01*
X44735Y31574D01*
X44655Y31521D01*
X44602Y31442D01*
X44584Y31348D01*
Y30948D01*
X44602Y30854D01*
X44655Y30775D01*
X44735Y30722D01*
X44828Y30703D01*
X45228D01*
X45322Y30722D01*
X45401Y30775D01*
X45454Y30854D01*
X45473Y30948D01*
Y31348D01*
X45454Y31442D01*
X45401Y31521D01*
X45322Y31574D01*
X45228Y31593D01*
D02*
G37*
G36*
X29753Y30700D02*
X29600D01*
Y30547D01*
X29659Y30559D01*
X29708Y30592D01*
X29741Y30641D01*
X29753Y30700D01*
D01*
D02*
G37*
G36*
X29500D02*
X29347D01*
X29359Y30641D01*
X29392Y30592D01*
X29441Y30559D01*
X29500Y30547D01*
D01*
Y30700D01*
D02*
G37*
G36*
X20400Y30646D02*
Y30350D01*
X20696D01*
X20691Y30391D01*
X20656Y30477D01*
X20600Y30550D01*
X20527Y30606D01*
X20441Y30641D01*
X20400Y30646D01*
D02*
G37*
G36*
X20300D02*
X20259Y30641D01*
X20173Y30606D01*
X20100Y30550D01*
X20044Y30477D01*
X20009Y30391D01*
X20004Y30350D01*
X20300D01*
Y30646D01*
D02*
G37*
G36*
X33982Y30400D02*
X33850D01*
Y30268D01*
X33874Y30272D01*
X33936Y30314D01*
X33978Y30376D01*
X33982Y30400D01*
D02*
G37*
G36*
X33750D02*
X33618D01*
X33622Y30376D01*
X33664Y30314D01*
X33726Y30272D01*
X33750Y30268D01*
Y30400D01*
D02*
G37*
G36*
X33500Y30382D02*
Y30250D01*
X33632D01*
X33628Y30274D01*
X33586Y30336D01*
X33524Y30378D01*
X33500Y30382D01*
D02*
G37*
G36*
X33400D02*
X33376Y30378D01*
X33314Y30336D01*
X33272Y30274D01*
X33268Y30250D01*
X33400D01*
Y30382D01*
D02*
G37*
G36*
X34350Y30350D02*
X34218D01*
X34222Y30326D01*
X34264Y30264D01*
X34326Y30222D01*
X34350Y30218D01*
Y30350D01*
D02*
G37*
G36*
X33400Y30150D02*
X33268D01*
X33272Y30126D01*
X33314Y30064D01*
X33376Y30022D01*
X33400Y30018D01*
Y30150D01*
D02*
G37*
G36*
X20696Y30250D02*
X20400D01*
Y29954D01*
X20441Y29959D01*
X20527Y29994D01*
X20600Y30050D01*
X20656Y30123D01*
X20691Y30209D01*
X20696Y30250D01*
D02*
G37*
G36*
X20300D02*
X20004D01*
X20009Y30209D01*
X20044Y30123D01*
X20100Y30050D01*
X20173Y29994D01*
X20259Y29959D01*
X20300Y29954D01*
Y30250D01*
D02*
G37*
G36*
X33750Y30082D02*
Y29950D01*
X33882D01*
X33878Y29974D01*
X33836Y30036D01*
X33774Y30078D01*
X33750Y30082D01*
D02*
G37*
G36*
X33632Y30150D02*
X33500D01*
Y30003D01*
X33522Y29974D01*
X33518Y29950D01*
X33650D01*
Y30097D01*
X33628Y30126D01*
X33632Y30150D01*
D02*
G37*
G36*
X34650Y29982D02*
X34626Y29978D01*
X34564Y29936D01*
X34522Y29874D01*
X34518Y29850D01*
X34650D01*
Y29982D01*
D02*
G37*
G36*
X33882Y29850D02*
X33750D01*
Y29718D01*
X33774Y29722D01*
X33836Y29764D01*
X33878Y29826D01*
X33882Y29850D01*
D02*
G37*
G36*
X33650D02*
X33518D01*
X33522Y29826D01*
X33564Y29764D01*
X33626Y29722D01*
X33650Y29718D01*
Y29850D01*
D02*
G37*
G36*
X38700Y29731D02*
X38650Y29721D01*
X38607Y29693D01*
X38590Y29666D01*
X38260D01*
X38243Y29693D01*
X38200Y29721D01*
X38150Y29731D01*
X38100Y29721D01*
X38057Y29693D01*
X38029Y29650D01*
X37983Y29616D01*
X37810D01*
X37793Y29643D01*
X37750Y29671D01*
X37700Y29681D01*
X37650Y29671D01*
X37607Y29643D01*
X37579Y29600D01*
X37569Y29550D01*
X37579Y29500D01*
X37607Y29457D01*
X37650Y29429D01*
X37700Y29419D01*
X37750Y29429D01*
X37793Y29457D01*
X37810Y29484D01*
X37955D01*
X38040Y29400D01*
X38061Y29385D01*
X38086Y29380D01*
X38823D01*
X38850Y29353D01*
X38872Y29339D01*
X38897Y29334D01*
Y29333D01*
X39017Y29321D01*
X39133Y29286D01*
X39239Y29229D01*
X39242Y29227D01*
Y29062D01*
X39518D01*
Y29338D01*
X39319D01*
X39315Y29342D01*
X39185Y29411D01*
X39044Y29454D01*
X38925Y29466D01*
X38898Y29493D01*
X38876Y29508D01*
X38856Y29512D01*
X38845Y29524D01*
X38824Y29563D01*
X38831Y29600D01*
X38821Y29650D01*
X38793Y29693D01*
X38750Y29721D01*
X38700Y29731D01*
D02*
G37*
G36*
X20350Y31593D02*
X20274Y31583D01*
X20204Y31553D01*
X20143Y31507D01*
X20097Y31446D01*
X20067Y31376D01*
X20057Y31300D01*
X20067Y31224D01*
X20097Y31154D01*
X20143Y31093D01*
X20204Y31047D01*
X20274Y31017D01*
X20350Y31007D01*
X20394Y31013D01*
X20408Y30995D01*
X20409Y30997D01*
X21210Y30196D01*
X21209Y30195D01*
X21336Y30086D01*
X21479Y29998D01*
X21634Y29934D01*
X21797Y29895D01*
X21964Y29882D01*
Y29884D01*
X22361D01*
X22365Y29865D01*
X22385Y29835D01*
X22415Y29815D01*
X22434Y29811D01*
Y29710D01*
X22407Y29693D01*
X22379Y29650D01*
X22369Y29600D01*
X22379Y29550D01*
X22407Y29507D01*
X22450Y29479D01*
X22500Y29469D01*
X22550Y29479D01*
X22593Y29507D01*
X22621Y29550D01*
X22631Y29600D01*
X22621Y29650D01*
X22593Y29693D01*
X22566Y29710D01*
Y29811D01*
X22585Y29815D01*
X22615Y29835D01*
X22635Y29865D01*
X22642Y29900D01*
Y30000D01*
X22635Y30035D01*
X22615Y30065D01*
X22585Y30085D01*
X22550Y30092D01*
X22450D01*
X22415Y30085D01*
X22385Y30065D01*
X22365Y30035D01*
X22361Y30016D01*
X21964D01*
X21962Y30016D01*
X21782Y30033D01*
X21607Y30087D01*
X21445Y30173D01*
X21305Y30288D01*
X21304Y30290D01*
X20552Y31042D01*
X20555Y31092D01*
X20557Y31093D01*
X20603Y31154D01*
X20633Y31224D01*
X20642Y31300D01*
X20633Y31376D01*
X20603Y31446D01*
X20557Y31507D01*
X20496Y31553D01*
X20426Y31583D01*
X20350Y31593D01*
D02*
G37*
G36*
X40900Y29453D02*
D01*
Y29300D01*
X41053D01*
X41041Y29359D01*
X41008Y29408D01*
X40959Y29441D01*
X40900Y29453D01*
D02*
G37*
G36*
X40800D02*
X40741Y29441D01*
X40692Y29408D01*
X40659Y29359D01*
X40647Y29300D01*
D01*
X40800D01*
Y29453D01*
D02*
G37*
G36*
X37100Y29381D02*
X37050Y29371D01*
X37007Y29343D01*
X36979Y29300D01*
X36969Y29250D01*
X36979Y29200D01*
X37007Y29157D01*
X37050Y29129D01*
X37100Y29119D01*
X37150Y29129D01*
X37193Y29157D01*
X37221Y29200D01*
X37231Y29250D01*
X37221Y29300D01*
X37193Y29343D01*
X37150Y29371D01*
X37100Y29381D01*
D02*
G37*
G36*
X29600Y29203D02*
D01*
Y29050D01*
X29753D01*
X29741Y29109D01*
X29708Y29158D01*
X29659Y29191D01*
X29600Y29203D01*
D02*
G37*
G36*
X29500D02*
X29441Y29191D01*
X29392Y29158D01*
X29359Y29109D01*
X29347Y29050D01*
D01*
X29500D01*
Y29203D01*
D02*
G37*
G36*
X41053Y29200D02*
X40900D01*
Y29047D01*
X40959Y29059D01*
X41008Y29092D01*
X41041Y29141D01*
X41053Y29200D01*
D01*
D02*
G37*
G36*
X40800D02*
X40647D01*
X40659Y29141D01*
X40692Y29092D01*
X40741Y29059D01*
X40800Y29047D01*
D01*
Y29200D01*
D02*
G37*
G36*
X37650Y29206D02*
X37600Y29196D01*
X37557Y29168D01*
X37529Y29125D01*
X37519Y29075D01*
X37529Y29025D01*
X37557Y28982D01*
X37600Y28954D01*
X37650Y28944D01*
X37700Y28954D01*
X37743Y28982D01*
X37771Y29025D01*
X37781Y29075D01*
X37771Y29125D01*
X37743Y29168D01*
X37700Y29196D01*
X37650Y29206D01*
D02*
G37*
G36*
X32100Y29131D02*
X32050Y29121D01*
X32007Y29093D01*
X31979Y29050D01*
X31969Y29000D01*
X31975Y28969D01*
X31646Y28640D01*
X31645Y28641D01*
X31536Y28514D01*
X31448Y28371D01*
X31384Y28216D01*
X31345Y28053D01*
X31332Y27886D01*
X31334D01*
Y27253D01*
X31307Y27236D01*
X31279Y27193D01*
X31269Y27143D01*
X31279Y27093D01*
X31307Y27050D01*
X31334Y27033D01*
Y26739D01*
X31315Y26735D01*
X31285Y26715D01*
X31265Y26685D01*
X31261Y26666D01*
X30242D01*
Y26700D01*
X30235Y26735D01*
X30215Y26765D01*
X30185Y26785D01*
X30150Y26792D01*
X30050D01*
X30015Y26785D01*
X29985Y26765D01*
X29965Y26735D01*
X29958Y26700D01*
Y26600D01*
X29965Y26565D01*
X29985Y26535D01*
X30015Y26515D01*
X30050Y26508D01*
X30150D01*
X30185Y26515D01*
X30211Y26532D01*
X30221Y26530D01*
Y26534D01*
X31261D01*
X31265Y26515D01*
X31285Y26485D01*
X31315Y26465D01*
X31350Y26458D01*
X31450D01*
X31485Y26465D01*
X31515Y26485D01*
X31535Y26515D01*
X31542Y26550D01*
Y26650D01*
X31535Y26685D01*
X31515Y26715D01*
X31485Y26735D01*
X31466Y26739D01*
Y27033D01*
X31493Y27050D01*
X31521Y27093D01*
X31531Y27143D01*
X31521Y27193D01*
X31493Y27236D01*
X31466Y27253D01*
Y27886D01*
X31466Y27888D01*
X31483Y28068D01*
X31537Y28243D01*
X31623Y28405D01*
X31738Y28545D01*
X31740Y28546D01*
X32069Y28875D01*
X32100Y28869D01*
X32150Y28879D01*
X32193Y28907D01*
X32221Y28950D01*
X32231Y29000D01*
X32221Y29050D01*
X32193Y29093D01*
X32150Y29121D01*
X32100Y29131D01*
D02*
G37*
G36*
X29753Y28950D02*
X29600D01*
Y28797D01*
X29659Y28809D01*
X29708Y28842D01*
X29741Y28891D01*
X29753Y28950D01*
D01*
D02*
G37*
G36*
X29500D02*
X29347D01*
X29359Y28891D01*
X29392Y28842D01*
X29441Y28809D01*
X29500Y28797D01*
D01*
Y28950D01*
D02*
G37*
G36*
X37100Y28981D02*
X37050Y28971D01*
X37007Y28943D01*
X36979Y28900D01*
X36969Y28850D01*
X36979Y28800D01*
X37007Y28757D01*
X37050Y28729D01*
X37100Y28719D01*
X37150Y28729D01*
X37193Y28757D01*
X37221Y28800D01*
X37231Y28850D01*
X37221Y28900D01*
X37193Y28943D01*
X37150Y28971D01*
X37100Y28981D01*
D02*
G37*
G36*
X39858Y29338D02*
X39582D01*
Y29062D01*
X39646D01*
Y28969D01*
X39646D01*
X39638Y28929D01*
X39600Y28921D01*
X39557Y28893D01*
X39529Y28850D01*
X39519Y28800D01*
X39529Y28750D01*
X39557Y28707D01*
X39600Y28679D01*
X39650Y28669D01*
X39700Y28679D01*
X39743Y28707D01*
X39771Y28750D01*
X39781Y28800D01*
X39771Y28850D01*
X39770Y28852D01*
X39784Y28888D01*
X39795Y28969D01*
X39794D01*
Y29062D01*
X39858D01*
Y29338D01*
D02*
G37*
G36*
X30300Y28931D02*
X30250Y28921D01*
X30207Y28893D01*
X30179Y28850D01*
X30169Y28800D01*
X30179Y28750D01*
X30207Y28707D01*
X30250Y28679D01*
X30300Y28669D01*
X30350Y28679D01*
X30393Y28707D01*
X30421Y28750D01*
X30431Y28800D01*
X30421Y28850D01*
X30393Y28893D01*
X30350Y28921D01*
X30300Y28931D01*
D02*
G37*
G36*
X34032Y28800D02*
X33900D01*
Y28668D01*
X33924Y28672D01*
X33986Y28714D01*
X34028Y28776D01*
X34032Y28800D01*
D02*
G37*
G36*
X35150Y28731D02*
X35100Y28721D01*
X35057Y28693D01*
X35029Y28650D01*
X35025Y28633D01*
X34975D01*
X34971Y28650D01*
X34943Y28693D01*
X34900Y28721D01*
X34850Y28731D01*
X34800Y28721D01*
X34757Y28693D01*
X34729Y28650D01*
X34725Y28633D01*
X34675D01*
X34671Y28650D01*
X34643Y28693D01*
X34600Y28721D01*
X34550Y28731D01*
X34500Y28721D01*
X34457Y28693D01*
X34429Y28650D01*
X34419Y28600D01*
X34429Y28550D01*
X34457Y28507D01*
X34500Y28479D01*
X34550Y28469D01*
X34600Y28479D01*
X34643Y28507D01*
X34671Y28550D01*
X34675Y28567D01*
X34725D01*
X34729Y28550D01*
X34757Y28507D01*
X34800Y28479D01*
X34850Y28469D01*
X34900Y28479D01*
X34943Y28507D01*
X34971Y28550D01*
X34975Y28567D01*
X35025D01*
X35029Y28550D01*
X35057Y28507D01*
X35100Y28479D01*
X35150Y28469D01*
X35200Y28479D01*
X35243Y28507D01*
X35271Y28550D01*
X35281Y28600D01*
X35271Y28650D01*
X35243Y28693D01*
X35200Y28721D01*
X35150Y28731D01*
D02*
G37*
G36*
X40900Y28653D02*
D01*
Y28500D01*
X41053D01*
X41041Y28559D01*
X41008Y28608D01*
X40959Y28641D01*
X40900Y28653D01*
D02*
G37*
G36*
X40800D02*
X40741Y28641D01*
X40692Y28608D01*
X40659Y28559D01*
X40647Y28500D01*
D01*
X40800D01*
Y28653D01*
D02*
G37*
G36*
X37400Y28731D02*
X37350Y28721D01*
X37307Y28693D01*
X37279Y28650D01*
X37269Y28600D01*
X37279Y28550D01*
X37307Y28507D01*
X37350Y28479D01*
X37400Y28469D01*
X37450Y28479D01*
X37493Y28507D01*
X37521Y28550D01*
X37531Y28600D01*
X37521Y28650D01*
X37493Y28693D01*
X37450Y28721D01*
X37400Y28731D01*
D02*
G37*
G36*
X35525Y28781D02*
X35475Y28771D01*
X35432Y28743D01*
X35404Y28700D01*
X35394Y28650D01*
X35404Y28600D01*
X35432Y28557D01*
X35475Y28529D01*
X35516Y28521D01*
X35527Y28492D01*
X35528Y28471D01*
X35289Y28372D01*
X35242Y28356D01*
X35183Y28332D01*
X35060Y28316D01*
X35059Y28316D01*
X34371D01*
Y28320D01*
X34279Y28301D01*
X34208Y28254D01*
X34201Y28249D01*
X34201Y28249D01*
X34173Y28219D01*
X34173Y28219D01*
X34168Y28213D01*
X34124Y28155D01*
X34093Y28080D01*
X34082Y28000D01*
X34084D01*
Y27691D01*
X34082D01*
X34073Y27621D01*
X34046Y27555D01*
X34002Y27498D01*
X33968Y27462D01*
X33776Y27270D01*
X33730Y27294D01*
X33731Y27300D01*
X33721Y27350D01*
X33693Y27393D01*
X33650Y27421D01*
X33600Y27431D01*
X33550Y27421D01*
X33507Y27393D01*
X33479Y27350D01*
X33469Y27300D01*
X33479Y27250D01*
X33507Y27207D01*
X33550Y27179D01*
X33600Y27169D01*
X33606Y27170D01*
X33630Y27124D01*
X33373Y26866D01*
X33010D01*
X32993Y26893D01*
X32950Y26921D01*
X32900Y26931D01*
X32850Y26921D01*
X32807Y26893D01*
X32779Y26850D01*
X32769Y26800D01*
X32779Y26750D01*
X32807Y26707D01*
X32850Y26679D01*
X32900Y26669D01*
X32950Y26679D01*
X32993Y26707D01*
X33010Y26734D01*
X33400D01*
X33425Y26739D01*
X33447Y26753D01*
X34097Y27403D01*
X34097Y27403D01*
X34098Y27402D01*
X34164Y27486D01*
X34205Y27585D01*
X34219Y27691D01*
X34219D01*
X34226Y27728D01*
X34274Y27746D01*
X34300Y27729D01*
X34350Y27719D01*
X34400Y27729D01*
X34443Y27757D01*
X34471Y27800D01*
X34475Y27817D01*
X34525D01*
X34529Y27800D01*
X34557Y27757D01*
X34600Y27729D01*
X34650Y27719D01*
X34700Y27729D01*
X34743Y27757D01*
X34771Y27800D01*
X34781Y27850D01*
X34777Y27871D01*
X34845Y27927D01*
X35007Y28013D01*
X35182Y28067D01*
X35362Y28084D01*
X35364Y28084D01*
X39190D01*
X39207Y28057D01*
X39250Y28029D01*
X39300Y28019D01*
X39350Y28029D01*
X39393Y28057D01*
X39421Y28100D01*
X39431Y28150D01*
X39421Y28200D01*
X39393Y28243D01*
X39350Y28271D01*
X39300Y28281D01*
X39250Y28271D01*
X39207Y28243D01*
X39190Y28216D01*
X35390D01*
X35380Y28266D01*
X35959Y28506D01*
X36000Y28479D01*
X36050Y28469D01*
X36100Y28479D01*
X36143Y28507D01*
X36171Y28550D01*
X36181Y28600D01*
X36171Y28650D01*
X36143Y28693D01*
X36100Y28721D01*
X36050Y28731D01*
X36000Y28721D01*
X35957Y28693D01*
X35929Y28650D01*
X35926Y28637D01*
X35649Y28522D01*
X35636Y28537D01*
X35623Y28565D01*
X35646Y28600D01*
X35656Y28650D01*
X35646Y28700D01*
X35618Y28743D01*
X35575Y28771D01*
X35525Y28781D01*
D02*
G37*
G36*
X34200Y28731D02*
X34150Y28721D01*
X34107Y28693D01*
X34079Y28650D01*
X34069Y28600D01*
X34079Y28550D01*
X34107Y28507D01*
X34150Y28479D01*
X34200Y28469D01*
X34250Y28479D01*
X34293Y28507D01*
X34321Y28550D01*
X34331Y28600D01*
X34321Y28650D01*
X34293Y28693D01*
X34250Y28721D01*
X34200Y28731D01*
D02*
G37*
G36*
X33500Y28681D02*
X33450Y28671D01*
X33407Y28643D01*
X33379Y28600D01*
X33369Y28550D01*
X33379Y28500D01*
X33407Y28457D01*
X33450Y28429D01*
X33500Y28419D01*
X33550Y28429D01*
X33593Y28457D01*
X33621Y28500D01*
X33631Y28550D01*
X33621Y28600D01*
X33593Y28643D01*
X33550Y28671D01*
X33500Y28681D01*
D02*
G37*
G36*
X21800Y29181D02*
X21750Y29171D01*
X21707Y29143D01*
X21679Y29100D01*
X21669Y29050D01*
X21679Y29000D01*
X21707Y28957D01*
X21734Y28940D01*
Y28712D01*
X21697D01*
X21664Y28705D01*
X21636Y28687D01*
X21617Y28659D01*
X21611Y28626D01*
Y28537D01*
X21617Y28504D01*
X21622Y28497D01*
X21403Y28278D01*
X21396Y28283D01*
X21363Y28289D01*
X21274D01*
X21241Y28283D01*
X21213Y28264D01*
X21195Y28236D01*
X21188Y28203D01*
Y27997D01*
X21195Y27964D01*
X21213Y27936D01*
X21241Y27917D01*
X21274Y27911D01*
X21363D01*
X21396Y27917D01*
X21403Y27922D01*
X21622Y27703D01*
X21617Y27696D01*
X21611Y27663D01*
Y27574D01*
X21617Y27541D01*
X21636Y27513D01*
X21664Y27495D01*
X21697Y27488D01*
X21903D01*
X21936Y27495D01*
X21964Y27513D01*
X21983Y27541D01*
X21989Y27574D01*
Y27663D01*
X21983Y27696D01*
X21978Y27703D01*
X22197Y27922D01*
X22204Y27917D01*
X22237Y27911D01*
X22326D01*
X22359Y27917D01*
X22387Y27936D01*
X22405Y27964D01*
X22412Y27997D01*
Y28203D01*
X22405Y28236D01*
X22387Y28264D01*
X22359Y28283D01*
X22326Y28289D01*
X22237D01*
X22204Y28283D01*
X22176Y28264D01*
X22158Y28236D01*
X22151Y28203D01*
Y28063D01*
X21837Y27749D01*
X21763D01*
X21449Y28064D01*
Y28136D01*
X21763Y28451D01*
X21903D01*
X21936Y28458D01*
X21964Y28476D01*
X21983Y28504D01*
X21989Y28537D01*
Y28626D01*
X21983Y28659D01*
X21964Y28687D01*
X21936Y28705D01*
X21903Y28712D01*
X21866D01*
Y28940D01*
X21893Y28957D01*
X21921Y29000D01*
X21931Y29050D01*
X21921Y29100D01*
X21893Y29143D01*
X21850Y29171D01*
X21800Y29181D01*
D02*
G37*
G36*
X37100Y28531D02*
X37050Y28521D01*
X37007Y28493D01*
X36979Y28450D01*
X36969Y28400D01*
X36979Y28350D01*
X37007Y28307D01*
X37050Y28279D01*
X37100Y28269D01*
X37150Y28279D01*
X37193Y28307D01*
X37221Y28350D01*
X37231Y28400D01*
X37221Y28450D01*
X37193Y28493D01*
X37150Y28521D01*
X37100Y28531D01*
D02*
G37*
G36*
X41053Y28400D02*
X40900D01*
Y28247D01*
X40959Y28259D01*
X41008Y28292D01*
X41041Y28341D01*
X41053Y28400D01*
D01*
D02*
G37*
G36*
X40800D02*
X40647D01*
X40659Y28341D01*
X40692Y28292D01*
X40741Y28259D01*
X40800Y28247D01*
D01*
Y28400D01*
D02*
G37*
G36*
X29600Y28353D02*
D01*
Y28200D01*
X29753D01*
X29741Y28259D01*
X29708Y28308D01*
X29659Y28341D01*
X29600Y28353D01*
D02*
G37*
G36*
X29500D02*
X29441Y28341D01*
X29392Y28308D01*
X29359Y28259D01*
X29347Y28200D01*
D01*
X29500D01*
Y28353D01*
D02*
G37*
G36*
X29753Y28100D02*
X29600D01*
Y27947D01*
X29659Y27959D01*
X29708Y27992D01*
X29741Y28041D01*
X29753Y28100D01*
D01*
D02*
G37*
G36*
X29500D02*
X29347D01*
X29359Y28041D01*
X29392Y27992D01*
X29441Y27959D01*
X29500Y27947D01*
D01*
Y28100D01*
D02*
G37*
G36*
X39878Y30238D02*
X39602D01*
Y29962D01*
X39774D01*
X39934Y29801D01*
X39934Y29801D01*
X39948Y29779D01*
X39929Y29750D01*
X39919Y29700D01*
X39929Y29650D01*
X39957Y29607D01*
X39976Y29595D01*
Y28141D01*
X39975D01*
X39966Y28073D01*
X39948Y28031D01*
X39900Y28021D01*
X39857Y27993D01*
X39829Y27950D01*
X39819Y27900D01*
X39829Y27850D01*
X39857Y27807D01*
X39900Y27779D01*
X39950Y27769D01*
X40000Y27779D01*
X40043Y27807D01*
X40071Y27850D01*
X40081Y27900D01*
X40073Y27940D01*
X40112Y28033D01*
X40126Y28141D01*
X40124D01*
Y29595D01*
X40143Y29607D01*
X40171Y29650D01*
X40181Y29700D01*
X40171Y29750D01*
X40143Y29793D01*
X40100Y29821D01*
X40096Y29822D01*
X40086Y29846D01*
X40039Y29907D01*
X40039Y29906D01*
X39878Y30066D01*
Y30238D01*
D02*
G37*
G36*
X35750Y27981D02*
X35700Y27971D01*
X35657Y27943D01*
X35629Y27900D01*
X35619Y27850D01*
X35629Y27800D01*
X35657Y27757D01*
X35700Y27729D01*
X35750Y27719D01*
X35800Y27729D01*
X35843Y27757D01*
X35871Y27800D01*
X35881Y27850D01*
X35871Y27900D01*
X35843Y27943D01*
X35800Y27971D01*
X35750Y27981D01*
D02*
G37*
G36*
X34900Y27482D02*
Y27350D01*
X35032D01*
X35028Y27374D01*
X34986Y27436D01*
X34924Y27478D01*
X34900Y27482D01*
D02*
G37*
G36*
X34800D02*
X34776Y27478D01*
X34714Y27436D01*
X34672Y27374D01*
X34668Y27350D01*
X34800D01*
Y27482D01*
D02*
G37*
G36*
X32150Y30481D02*
X32100Y30471D01*
X32057Y30443D01*
X32029Y30400D01*
X32019Y30350D01*
X32029Y30300D01*
X32057Y30257D01*
X32100Y30229D01*
X32150Y30219D01*
X32181Y30225D01*
X32260Y30146D01*
X32260Y30146D01*
X32260Y30146D01*
X32355Y30030D01*
X32426Y29898D01*
X32469Y29755D01*
X32484Y29606D01*
X32484D01*
Y27585D01*
X32481Y27535D01*
X32483Y27485D01*
X32498Y27059D01*
X32549Y26585D01*
X32633Y26117D01*
X32751Y25655D01*
X32901Y25203D01*
X33084Y24763D01*
X33297Y24337D01*
X33540Y23928D01*
X33812Y23537D01*
X34110Y23166D01*
X34435Y22817D01*
X34437Y22819D01*
X39301Y17956D01*
X39321Y17942D01*
X39322Y17941D01*
X39322Y17941D01*
X39329Y17940D01*
X39329Y17940D01*
X39348Y17936D01*
X39363Y17935D01*
X39375Y17930D01*
X39402Y17905D01*
X39409Y17889D01*
X39417Y17824D01*
X39447Y17754D01*
X39493Y17693D01*
X39554Y17647D01*
X39624Y17617D01*
X39700Y17608D01*
X39776Y17617D01*
X39846Y17647D01*
X39907Y17693D01*
X39953Y17754D01*
X39971Y17795D01*
X39983Y17825D01*
X40015Y17834D01*
X40385D01*
X40417Y17825D01*
X40429Y17795D01*
X40447Y17754D01*
X40493Y17693D01*
X40554Y17647D01*
X40624Y17617D01*
X40700Y17608D01*
X40776Y17617D01*
X40846Y17647D01*
X40907Y17693D01*
X40953Y17754D01*
X40971Y17795D01*
X40983Y17825D01*
X41015Y17834D01*
X41416D01*
X41417Y17824D01*
X41447Y17754D01*
X41493Y17693D01*
X41554Y17647D01*
X41624Y17617D01*
X41700Y17608D01*
X41776Y17617D01*
X41846Y17647D01*
X41907Y17693D01*
X41953Y17754D01*
X41983Y17824D01*
X41993Y17900D01*
X41983Y17976D01*
X41953Y18046D01*
X41907Y18107D01*
X41846Y18153D01*
X41776Y18183D01*
X41700Y18192D01*
X41624Y18183D01*
X41554Y18153D01*
X41493Y18107D01*
X41447Y18046D01*
X41417Y17976D01*
X41416Y17966D01*
X41075D01*
X41070Y17999D01*
X41032Y18092D01*
X40971Y18171D01*
X40892Y18232D01*
X40799Y18270D01*
X40700Y18283D01*
X40601Y18270D01*
X40508Y18232D01*
X40429Y18171D01*
X40368Y18092D01*
X40330Y17999D01*
X40325Y17966D01*
X40075D01*
X40070Y17999D01*
X40032Y18092D01*
X39971Y18171D01*
X39892Y18232D01*
X39799Y18270D01*
X39700Y18283D01*
X39601Y18270D01*
X39508Y18232D01*
X39429Y18171D01*
X39392Y18123D01*
X39327Y18117D01*
X34530Y22913D01*
X34529Y22914D01*
X34212Y23254D01*
X33920Y23618D01*
X33654Y24001D01*
X33415Y24402D01*
X33207Y24819D01*
X33028Y25251D01*
X32881Y25693D01*
X32765Y26145D01*
X32682Y26605D01*
X32632Y27069D01*
X32623Y27324D01*
X32624Y27325D01*
X32673Y27347D01*
X32700Y27329D01*
X32750Y27319D01*
X32800Y27329D01*
X32843Y27357D01*
X32871Y27400D01*
X32881Y27450D01*
X32871Y27500D01*
X32843Y27543D01*
X32800Y27571D01*
X32750Y27581D01*
X32700Y27571D01*
X32666Y27549D01*
X32634Y27559D01*
X32616Y27571D01*
Y29606D01*
X32619D01*
X32602Y29782D01*
X32551Y29950D01*
X32468Y30106D01*
X32356Y30242D01*
X32354Y30240D01*
X32275Y30319D01*
X32281Y30350D01*
X32271Y30400D01*
X32243Y30443D01*
X32200Y30471D01*
X32150Y30481D01*
D02*
G37*
G36*
X33163Y27579D02*
X33112Y27569D01*
X33070Y27541D01*
X33041Y27498D01*
X33031Y27448D01*
X33041Y27398D01*
X33070Y27356D01*
X33112Y27327D01*
X33163Y27317D01*
X33213Y27327D01*
X33255Y27356D01*
X33284Y27398D01*
X33294Y27448D01*
X33284Y27498D01*
X33255Y27541D01*
X33213Y27569D01*
X33163Y27579D01*
D02*
G37*
G36*
X35032Y27250D02*
X34900D01*
Y27118D01*
X34924Y27122D01*
X34986Y27164D01*
X35028Y27226D01*
X35032Y27250D01*
D02*
G37*
G36*
X34800D02*
X34668D01*
X34672Y27226D01*
X34714Y27164D01*
X34776Y27122D01*
X34800Y27118D01*
Y27250D01*
D02*
G37*
G36*
X29200Y28292D02*
X29100D01*
X29065Y28285D01*
X29035Y28265D01*
X29015Y28235D01*
X29008Y28200D01*
Y28102D01*
X28892Y27986D01*
X28891Y27984D01*
X28751Y27869D01*
X28590Y27783D01*
X28415Y27730D01*
X28235Y27712D01*
X28232Y27713D01*
X26823D01*
X26809Y27732D01*
X26800Y27782D01*
X26831Y27828D01*
X26840Y27872D01*
X26050D01*
X25260D01*
X25269Y27828D01*
X25300Y27782D01*
X25309Y27776D01*
X25326Y27717D01*
X25319Y27686D01*
Y27607D01*
X25326Y27576D01*
X25309Y27517D01*
X25300Y27511D01*
X25269Y27465D01*
X25260Y27421D01*
X26050D01*
X26840D01*
X26831Y27465D01*
X26800Y27511D01*
X26809Y27560D01*
X26823Y27580D01*
X28232D01*
Y27578D01*
X28399Y27591D01*
X28562Y27630D01*
X28717Y27695D01*
X28860Y27782D01*
X28988Y27891D01*
X28986Y27892D01*
X29038Y27944D01*
X29084Y27925D01*
Y27389D01*
X29065Y27385D01*
X29035Y27365D01*
X29015Y27335D01*
X29008Y27300D01*
Y27200D01*
X29015Y27165D01*
X29035Y27135D01*
X29065Y27115D01*
X29100Y27108D01*
X29200D01*
X29235Y27115D01*
X29265Y27135D01*
X29285Y27165D01*
X29292Y27200D01*
Y27300D01*
X29285Y27335D01*
X29265Y27365D01*
X29235Y27385D01*
X29216Y27389D01*
Y28011D01*
X29235Y28015D01*
X29265Y28035D01*
X29285Y28065D01*
X29292Y28100D01*
Y28200D01*
X29285Y28235D01*
X29265Y28265D01*
X29235Y28285D01*
X29200Y28292D01*
D02*
G37*
G36*
X30150Y27253D02*
Y27100D01*
X30303D01*
X30291Y27159D01*
X30258Y27208D01*
X30209Y27241D01*
X30150Y27253D01*
D02*
G37*
G36*
X32950Y27331D02*
X32900Y27321D01*
X32857Y27293D01*
X32829Y27250D01*
X32819Y27200D01*
X32829Y27150D01*
X32857Y27107D01*
X32900Y27079D01*
X32950Y27069D01*
X33000Y27079D01*
X33043Y27107D01*
X33071Y27150D01*
X33081Y27200D01*
X33071Y27250D01*
X33043Y27293D01*
X33000Y27321D01*
X32950Y27331D01*
D02*
G37*
G36*
X36750Y28031D02*
X36700Y28021D01*
X36657Y27993D01*
X36629Y27950D01*
X36619Y27900D01*
X36629Y27850D01*
X36651Y27816D01*
X36641Y27784D01*
X36629Y27766D01*
X36310D01*
X36293Y27793D01*
X36250Y27821D01*
X36200Y27831D01*
X36150Y27821D01*
X36107Y27793D01*
X36079Y27750D01*
X36069Y27700D01*
X36079Y27650D01*
X36107Y27607D01*
X36150Y27579D01*
X36200Y27569D01*
X36250Y27579D01*
X36293Y27607D01*
X36310Y27634D01*
X38736D01*
X38738Y27634D01*
X38918Y27617D01*
X39093Y27563D01*
X39255Y27477D01*
X39395Y27362D01*
X39396Y27360D01*
X40308Y26448D01*
Y26350D01*
X40315Y26315D01*
X40335Y26285D01*
X40365Y26265D01*
X40400Y26258D01*
X40500D01*
X40535Y26265D01*
X40565Y26285D01*
X40585Y26315D01*
X40592Y26350D01*
Y26450D01*
X40585Y26485D01*
X40565Y26515D01*
X40535Y26535D01*
X40500Y26542D01*
X40402D01*
X39490Y27454D01*
X39491Y27455D01*
X39364Y27564D01*
X39221Y27652D01*
X39066Y27716D01*
X38903Y27755D01*
X38736Y27768D01*
Y27766D01*
X36907D01*
X36882Y27816D01*
X36894Y27834D01*
X38727D01*
X38728Y27834D01*
X38728Y27834D01*
X38777Y27832D01*
X39026Y27815D01*
X39318Y27757D01*
X39601Y27661D01*
X39869Y27529D01*
X40117Y27363D01*
X40308Y27196D01*
Y27100D01*
X40315Y27065D01*
X40335Y27035D01*
X40365Y27015D01*
X40400Y27008D01*
X40500D01*
X40535Y27015D01*
X40565Y27035D01*
X40585Y27065D01*
X40592Y27100D01*
Y27200D01*
X40585Y27235D01*
X40565Y27265D01*
X40535Y27285D01*
X40500Y27292D01*
X40402D01*
X40234Y27442D01*
X40013Y27599D01*
X39776Y27730D01*
X39526Y27833D01*
X39265Y27908D01*
X38998Y27954D01*
X38728Y27969D01*
X38727Y27966D01*
X36860D01*
X36843Y27993D01*
X36800Y28021D01*
X36750Y28031D01*
D02*
G37*
G36*
X34250Y27231D02*
X34200Y27221D01*
X34157Y27193D01*
X34129Y27150D01*
X34119Y27100D01*
X34129Y27050D01*
X34157Y27007D01*
X34200Y26979D01*
X34250Y26969D01*
X34300Y26979D01*
X34343Y27007D01*
X34371Y27050D01*
X34381Y27100D01*
X34371Y27150D01*
X34343Y27193D01*
X34300Y27221D01*
X34250Y27231D01*
D02*
G37*
G36*
X33325D02*
X33275Y27221D01*
X33232Y27193D01*
X33204Y27150D01*
X33194Y27100D01*
X33204Y27050D01*
X33232Y27007D01*
X33275Y26979D01*
X33325Y26969D01*
X33375Y26979D01*
X33418Y27007D01*
X33446Y27050D01*
X33456Y27100D01*
X33446Y27150D01*
X33418Y27193D01*
X33375Y27221D01*
X33325Y27231D01*
D02*
G37*
G36*
X34650Y27032D02*
Y26900D01*
X34782D01*
X34778Y26924D01*
X34736Y26986D01*
X34674Y27028D01*
X34650Y27032D01*
D02*
G37*
G36*
X36850Y27131D02*
X36800Y27121D01*
X36757Y27093D01*
X36729Y27050D01*
X36719Y27000D01*
X36729Y26950D01*
X36757Y26907D01*
X36800Y26879D01*
X36850Y26869D01*
X36900Y26879D01*
X36943Y26907D01*
X36971Y26950D01*
X36981Y27000D01*
X36971Y27050D01*
X36943Y27093D01*
X36900Y27121D01*
X36850Y27131D01*
D02*
G37*
G36*
X23200Y29031D02*
X23150Y29021D01*
X23107Y28993D01*
X23079Y28950D01*
X23069Y28900D01*
X23079Y28850D01*
X23107Y28807D01*
X23150Y28779D01*
X23183Y28772D01*
X23187Y28766D01*
X23188Y28768D01*
X23189Y28768D01*
X24925Y27031D01*
X24919Y27000D01*
X24929Y26950D01*
X24957Y26907D01*
X25000Y26879D01*
X25050Y26869D01*
X25100Y26879D01*
X25143Y26907D01*
X25171Y26950D01*
X25181Y27000D01*
X25171Y27050D01*
X25143Y27093D01*
X25100Y27121D01*
X25050Y27131D01*
X25019Y27125D01*
X23310Y28834D01*
X23321Y28850D01*
X23331Y28900D01*
X23321Y28950D01*
X23293Y28993D01*
X23250Y29021D01*
X23200Y29031D01*
D02*
G37*
G36*
X41700Y27792D02*
X41600D01*
X41565Y27785D01*
X41535Y27765D01*
X41515Y27735D01*
X41508Y27700D01*
Y27600D01*
X41515Y27565D01*
X41535Y27535D01*
X41565Y27515D01*
X41575Y27513D01*
X41567Y27432D01*
X41513Y27257D01*
X41427Y27095D01*
X41312Y26955D01*
X41310Y26954D01*
X40898Y26542D01*
X40800D01*
X40765Y26535D01*
X40735Y26515D01*
X40715Y26485D01*
X40708Y26450D01*
Y26350D01*
X40715Y26315D01*
X40735Y26285D01*
X40765Y26265D01*
X40800Y26258D01*
X40900D01*
X40935Y26265D01*
X40965Y26285D01*
X40985Y26315D01*
X40992Y26350D01*
Y26448D01*
X41404Y26860D01*
X41405Y26859D01*
X41514Y26986D01*
X41602Y27129D01*
X41666Y27284D01*
X41705Y27447D01*
X41710Y27510D01*
X41735Y27515D01*
X41765Y27535D01*
X41785Y27565D01*
X41792Y27600D01*
Y27700D01*
X41785Y27735D01*
X41765Y27765D01*
X41735Y27785D01*
X41700Y27792D01*
D02*
G37*
G36*
X30303Y27000D02*
X30150D01*
Y26847D01*
X30209Y26859D01*
X30258Y26892D01*
X30291Y26941D01*
X30303Y27000D01*
D02*
G37*
G36*
X29350Y28631D02*
X29300Y28621D01*
X29257Y28593D01*
X29229Y28550D01*
X29219Y28500D01*
X29229Y28450D01*
X29257Y28407D01*
X29300Y28379D01*
X29350Y28369D01*
X29400Y28379D01*
X29443Y28407D01*
X29460Y28434D01*
X29559D01*
Y28432D01*
X29629Y28423D01*
X29695Y28396D01*
X29752Y28352D01*
X29796Y28295D01*
X29823Y28229D01*
X29832Y28159D01*
X29834D01*
Y27550D01*
X29834Y27549D01*
X29818Y27512D01*
X29818Y27512D01*
X29700Y27393D01*
X29450D01*
X29419Y27381D01*
X29407Y27350D01*
Y24897D01*
X29403Y24895D01*
X29353Y24922D01*
Y24950D01*
X29341Y25009D01*
X29308Y25058D01*
X29259Y25091D01*
X29200Y25103D01*
D01*
Y24900D01*
Y24661D01*
X29205Y24651D01*
X29205Y24649D01*
X27946Y23390D01*
X27945Y23391D01*
X27836Y23264D01*
X27748Y23121D01*
X27684Y22966D01*
X27645Y22803D01*
X27632Y22636D01*
X27634D01*
Y18184D01*
X27624Y18183D01*
X27554Y18153D01*
X27493Y18107D01*
X27447Y18046D01*
X27417Y17976D01*
X27408Y17900D01*
X27417Y17824D01*
X27447Y17754D01*
X27493Y17693D01*
X27554Y17647D01*
X27624Y17617D01*
X27700Y17608D01*
X27776Y17617D01*
X27846Y17647D01*
X27907Y17693D01*
X27953Y17754D01*
X27983Y17824D01*
X27992Y17900D01*
X27983Y17976D01*
X27953Y18046D01*
X27907Y18107D01*
X27846Y18153D01*
X27776Y18183D01*
X27766Y18184D01*
Y22636D01*
X27766Y22638D01*
X27783Y22818D01*
X27837Y22993D01*
X27923Y23155D01*
X28038Y23295D01*
X28040Y23296D01*
X29414Y24670D01*
X29419Y24669D01*
X29450Y24657D01*
X29850D01*
X29881Y24669D01*
X29893Y24700D01*
Y26134D01*
X31261D01*
X31265Y26115D01*
X31285Y26085D01*
X31315Y26065D01*
X31350Y26058D01*
X31450D01*
X31485Y26065D01*
X31515Y26085D01*
X31535Y26115D01*
X31542Y26150D01*
Y26250D01*
X31535Y26285D01*
X31515Y26315D01*
X31485Y26335D01*
X31450Y26342D01*
X31350D01*
X31315Y26335D01*
X31285Y26315D01*
X31265Y26285D01*
X31261Y26266D01*
X29893D01*
Y26875D01*
X29934Y26889D01*
X29943Y26891D01*
X29991Y26859D01*
X30050Y26847D01*
Y27050D01*
Y27253D01*
X29991Y27241D01*
X29943Y27209D01*
X29934Y27211D01*
X29893Y27225D01*
Y27350D01*
X29881Y27381D01*
X29913Y27416D01*
X29913Y27416D01*
X29954Y27478D01*
X29969Y27550D01*
X29966D01*
Y28159D01*
X29969D01*
X29955Y28265D01*
X29914Y28364D01*
X29848Y28448D01*
X29764Y28514D01*
X29665Y28555D01*
X29559Y28569D01*
Y28566D01*
X29460D01*
X29443Y28593D01*
X29400Y28621D01*
X29350Y28631D01*
D02*
G37*
G36*
X34050Y26981D02*
X34000Y26971D01*
X33957Y26943D01*
X33929Y26900D01*
X33919Y26850D01*
X33929Y26800D01*
X33957Y26757D01*
X34000Y26729D01*
X34050Y26719D01*
X34100Y26729D01*
X34143Y26757D01*
X34171Y26800D01*
X34181Y26850D01*
X34171Y26900D01*
X34143Y26943D01*
X34100Y26971D01*
X34050Y26981D01*
D02*
G37*
G36*
X35550Y26832D02*
X35526Y26828D01*
X35464Y26786D01*
X35422Y26724D01*
X35418Y26700D01*
X35550D01*
Y26832D01*
D02*
G37*
G36*
X35900Y26632D02*
Y26500D01*
X36032D01*
X36028Y26524D01*
X35986Y26586D01*
X35924Y26628D01*
X35900Y26632D01*
D02*
G37*
G36*
X35550Y26600D02*
X35418D01*
X35422Y26576D01*
X35464Y26514D01*
X35526Y26472D01*
X35550Y26468D01*
Y26600D01*
D02*
G37*
G36*
X34550Y27032D02*
X34526Y27028D01*
X34464Y26986D01*
X34422Y26924D01*
X34408Y26850D01*
X34411Y26834D01*
X34376Y26828D01*
X34314Y26786D01*
X34272Y26724D01*
X34268Y26700D01*
X34450D01*
Y26600D01*
X34268D01*
X34272Y26576D01*
X34311Y26519D01*
X34272Y26461D01*
X34268Y26438D01*
X34632D01*
X34628Y26461D01*
X34589Y26519D01*
X34628Y26576D01*
X34642Y26650D01*
X34639Y26666D01*
X34674Y26672D01*
X34736Y26714D01*
X34778Y26776D01*
X34782Y26800D01*
X34600D01*
Y26850D01*
X34550D01*
Y27032D01*
D02*
G37*
G36*
X26840Y27321D02*
X26050D01*
X25260D01*
X25269Y27277D01*
X25300Y27231D01*
X25309Y27225D01*
X25326Y27166D01*
X25319Y27135D01*
Y27056D01*
X25326Y27025D01*
X25343Y26999D01*
X25365Y26984D01*
X25368Y26957D01*
X25365Y26931D01*
X25343Y26916D01*
X25326Y26890D01*
X25319Y26859D01*
Y26780D01*
X25326Y26749D01*
X25309Y26690D01*
X25300Y26684D01*
X25269Y26638D01*
X25260Y26594D01*
X26050D01*
X26840D01*
X26831Y26638D01*
X26800Y26684D01*
X26791Y26690D01*
X26787Y26700D01*
X26812Y26746D01*
X27666D01*
X27669Y26746D01*
X27847Y26729D01*
X28021Y26676D01*
X28181Y26590D01*
X28319Y26477D01*
X28321Y26475D01*
X29008Y25787D01*
Y25700D01*
X29015Y25665D01*
X29035Y25635D01*
X29065Y25615D01*
X29076Y25613D01*
Y25505D01*
X29057Y25493D01*
X29029Y25450D01*
X29019Y25400D01*
X29029Y25350D01*
X29057Y25307D01*
X29100Y25279D01*
X29150Y25269D01*
X29200Y25279D01*
X29243Y25307D01*
X29271Y25350D01*
X29281Y25400D01*
X29271Y25450D01*
X29243Y25493D01*
X29224Y25505D01*
Y25613D01*
X29235Y25615D01*
X29265Y25635D01*
X29285Y25665D01*
X29292Y25700D01*
Y25800D01*
X29285Y25835D01*
X29265Y25865D01*
X29235Y25885D01*
X29200Y25892D01*
X29113D01*
X28425Y26579D01*
X28427Y26580D01*
X28298Y26690D01*
X28155Y26778D01*
X27999Y26843D01*
X27834Y26882D01*
X27666Y26895D01*
Y26894D01*
X26772D01*
X26757Y26916D01*
X26756Y26917D01*
X26747Y26976D01*
X26762Y26997D01*
X28083Y26951D01*
X29008Y26488D01*
Y26450D01*
X29015Y26415D01*
X29035Y26385D01*
X29065Y26365D01*
X29100Y26358D01*
X29200D01*
X29235Y26365D01*
X29265Y26385D01*
X29285Y26415D01*
X29292Y26450D01*
Y26550D01*
X29285Y26585D01*
X29274Y26601D01*
Y26645D01*
X29293Y26657D01*
X29321Y26700D01*
X29331Y26750D01*
X29321Y26800D01*
X29293Y26843D01*
X29250Y26871D01*
X29200Y26881D01*
X29150Y26871D01*
X29107Y26843D01*
X29079Y26800D01*
X29069Y26750D01*
X29079Y26700D01*
X29047Y26660D01*
X29018Y26648D01*
X28123Y27096D01*
X28122Y27096D01*
X28121Y27097D01*
X28108Y27100D01*
X28095Y27104D01*
X28094Y27103D01*
X28093Y27104D01*
X26817Y27145D01*
X26783Y27196D01*
X26791Y27225D01*
X26800Y27231D01*
X26831Y27277D01*
X26840Y27321D01*
D02*
G37*
G36*
X35650Y26832D02*
Y26650D01*
Y26430D01*
X35664Y26419D01*
X35672Y26376D01*
X35714Y26314D01*
X35773Y26275D01*
X35772Y26274D01*
X35768Y26250D01*
X36132D01*
X36128Y26274D01*
X36086Y26336D01*
X36027Y26375D01*
X36028Y26376D01*
X36032Y26400D01*
X35850D01*
Y26450D01*
X35800D01*
Y26670D01*
X35786Y26681D01*
X35778Y26724D01*
X35736Y26786D01*
X35674Y26828D01*
X35650Y26832D01*
D02*
G37*
G36*
X26840Y26494D02*
X26050D01*
X25260D01*
X25269Y26450D01*
X25300Y26404D01*
X25309Y26398D01*
X25326Y26339D01*
X25319Y26308D01*
Y26229D01*
X25326Y26198D01*
X25343Y26172D01*
X25369Y26154D01*
X25400Y26148D01*
X26700D01*
X26731Y26154D01*
X26757Y26172D01*
X26774Y26198D01*
X26781Y26229D01*
Y26308D01*
X26774Y26339D01*
X26791Y26398D01*
X26800Y26404D01*
X26831Y26450D01*
X26840Y26494D01*
D02*
G37*
G36*
X34632Y26338D02*
X34268D01*
X34272Y26314D01*
X34314Y26252D01*
X34343Y26232D01*
X34363Y26187D01*
X34353Y26170D01*
X34322Y26124D01*
X34318Y26100D01*
X34682D01*
X34678Y26124D01*
X34636Y26186D01*
X34607Y26206D01*
X34587Y26250D01*
X34597Y26268D01*
X34628Y26314D01*
X34632Y26338D01*
D02*
G37*
G36*
X36132Y26150D02*
X35768D01*
X35772Y26126D01*
X35814Y26064D01*
X35838Y26048D01*
X35822Y26024D01*
X35818Y26000D01*
X36182D01*
X36178Y26024D01*
X36136Y26086D01*
X36112Y26102D01*
X36128Y26126D01*
X36132Y26150D01*
D02*
G37*
G36*
X42433Y26069D02*
X42286Y26054D01*
X42145Y26011D01*
X42015Y25942D01*
X42012Y25939D01*
X42000Y25942D01*
X41900D01*
X41865Y25935D01*
X41835Y25915D01*
X41815Y25885D01*
X41810Y25856D01*
X41761Y25850D01*
X41621Y25792D01*
X41595Y25772D01*
X41550Y25781D01*
X41500Y25771D01*
X41457Y25743D01*
X41429Y25700D01*
X41419Y25650D01*
X41429Y25600D01*
X41457Y25557D01*
X41500Y25529D01*
X41550Y25519D01*
X41600Y25529D01*
X41643Y25557D01*
X41671Y25600D01*
X41681Y25650D01*
X41678Y25666D01*
X41689Y25674D01*
X41766Y25706D01*
X41815Y25715D01*
X41835Y25685D01*
X41865Y25665D01*
X41900Y25658D01*
X42000D01*
X42035Y25665D01*
X42065Y25685D01*
X42085Y25715D01*
X42092Y25750D01*
Y25830D01*
X42197Y25886D01*
X42313Y25921D01*
X42433Y25933D01*
Y25934D01*
X43859D01*
Y25932D01*
X43929Y25923D01*
X43995Y25896D01*
X44052Y25852D01*
X44052Y25852D01*
X44052Y25852D01*
X44053Y25852D01*
X44129Y25759D01*
X44186Y25653D01*
X44221Y25537D01*
X44233Y25417D01*
X44234D01*
Y24194D01*
X44234Y24192D01*
X44217Y24012D01*
X44163Y23837D01*
X44077Y23675D01*
X43962Y23535D01*
X43960Y23534D01*
X43729Y23303D01*
X43680Y23308D01*
X43671Y23321D01*
X43625Y23352D01*
X43570Y23363D01*
X43370D01*
X43315Y23352D01*
X43269Y23321D01*
X43238Y23275D01*
X43227Y23220D01*
Y22680D01*
X43238Y22625D01*
X43269Y22579D01*
X43315Y22548D01*
X43370Y22537D01*
X43570D01*
X43625Y22548D01*
X43671Y22579D01*
X43702Y22625D01*
X43713Y22680D01*
Y23099D01*
X44054Y23440D01*
X44055Y23439D01*
X44164Y23566D01*
X44252Y23709D01*
X44316Y23864D01*
X44355Y24027D01*
X44368Y24194D01*
X44366D01*
Y25417D01*
X44369D01*
X44354Y25564D01*
X44311Y25705D01*
X44242Y25835D01*
X44149Y25949D01*
X44148Y25948D01*
X44064Y26014D01*
X43965Y26055D01*
X43859Y26069D01*
Y26066D01*
X42433D01*
Y26069D01*
D02*
G37*
G36*
X40350Y30181D02*
X40300Y30171D01*
X40257Y30143D01*
X40229Y30100D01*
X40219Y30050D01*
X40229Y30000D01*
X40257Y29957D01*
X40284Y29940D01*
Y29491D01*
X40281D01*
X40295Y29385D01*
X40316Y29336D01*
X40315Y29335D01*
X40308Y29300D01*
Y29200D01*
X40315Y29165D01*
X40335Y29135D01*
X40365Y29115D01*
X40384Y29111D01*
Y28589D01*
X40365Y28585D01*
X40335Y28565D01*
X40315Y28535D01*
X40308Y28500D01*
Y28400D01*
X40315Y28365D01*
X40335Y28335D01*
X40365Y28315D01*
X40384Y28311D01*
Y27889D01*
X40365Y27885D01*
X40335Y27865D01*
X40315Y27835D01*
X40308Y27800D01*
Y27700D01*
X40315Y27665D01*
X40335Y27635D01*
X40365Y27615D01*
X40400Y27608D01*
X40500D01*
X40535Y27615D01*
X40565Y27635D01*
X40585Y27665D01*
X40592Y27700D01*
Y27783D01*
X40645Y27827D01*
X40665Y27838D01*
X40709Y27805D01*
X40708Y27800D01*
Y27700D01*
X40715Y27665D01*
X40735Y27635D01*
X40765Y27615D01*
X40784Y27611D01*
Y27289D01*
X40765Y27285D01*
X40735Y27265D01*
X40715Y27235D01*
X40708Y27200D01*
Y27100D01*
X40715Y27065D01*
X40735Y27035D01*
X40765Y27015D01*
X40800Y27008D01*
X40900D01*
X40935Y27015D01*
X40965Y27035D01*
X40985Y27065D01*
X40992Y27100D01*
Y27200D01*
X40985Y27235D01*
X40965Y27265D01*
X40935Y27285D01*
X40916Y27289D01*
Y27611D01*
X40935Y27615D01*
X40965Y27635D01*
X40985Y27665D01*
X40992Y27700D01*
Y27800D01*
X40985Y27835D01*
X40965Y27865D01*
X40935Y27885D01*
X40905Y27891D01*
X40901Y27895D01*
X40910Y27945D01*
X40982Y27967D01*
X41162Y27984D01*
X41164Y27984D01*
X41511D01*
X41515Y27965D01*
X41535Y27935D01*
X41565Y27915D01*
X41600Y27908D01*
X41700D01*
X41735Y27915D01*
X41765Y27935D01*
X41818Y27927D01*
X41858Y27896D01*
X41859Y27897D01*
X41942Y27814D01*
X41976Y27780D01*
X42006Y27742D01*
X42063Y27669D01*
X42116Y27539D01*
X42134Y27403D01*
X42134Y27400D01*
Y26804D01*
X42134Y26803D01*
X42119Y26650D01*
X42074Y26502D01*
X42001Y26366D01*
X41981Y26342D01*
X41900D01*
X41865Y26335D01*
X41835Y26315D01*
X41815Y26285D01*
X41808Y26250D01*
Y26165D01*
X41743Y26110D01*
X41564Y26000D01*
X41370Y25920D01*
X41165Y25870D01*
X40957Y25854D01*
X40956Y25854D01*
X37953Y25854D01*
X37938Y25904D01*
X37943Y25907D01*
X37971Y25950D01*
X37981Y26000D01*
X37971Y26050D01*
X37943Y26093D01*
X37900Y26121D01*
X37850Y26131D01*
X37800Y26121D01*
X37757Y26093D01*
X37729Y26050D01*
X37719Y26000D01*
X37729Y25950D01*
X37757Y25907D01*
X37762Y25904D01*
X37747Y25854D01*
X37314D01*
Y25855D01*
X37245Y25868D01*
X37187Y25908D01*
X37186Y25907D01*
X35675Y27419D01*
X35681Y27450D01*
X35671Y27500D01*
X35643Y27543D01*
X35600Y27571D01*
X35550Y27581D01*
X35500Y27571D01*
X35457Y27543D01*
X35429Y27500D01*
X35419Y27450D01*
X35429Y27400D01*
X35457Y27357D01*
X35500Y27329D01*
X35550Y27319D01*
X35581Y27325D01*
X37057Y25849D01*
X37093Y25814D01*
X37092Y25813D01*
X37092Y25813D01*
X37157Y25763D01*
X37233Y25731D01*
X37314Y25720D01*
Y25722D01*
X40956Y25722D01*
X40956Y25722D01*
X40956Y25719D01*
X41186Y25737D01*
X41412Y25791D01*
X41626Y25879D01*
X41823Y26000D01*
X41893Y26060D01*
X41900Y26058D01*
X42000D01*
X42035Y26065D01*
X42065Y26085D01*
X42085Y26115D01*
X42092Y26150D01*
Y26250D01*
X42090Y26261D01*
X42114Y26291D01*
X42199Y26450D01*
X42252Y26623D01*
X42269Y26804D01*
X42266D01*
Y27400D01*
X42268D01*
X42255Y27531D01*
X42217Y27657D01*
X42155Y27773D01*
X42071Y27875D01*
X42070Y27874D01*
X42070Y27874D01*
X41953Y27991D01*
X41955Y27992D01*
X41865Y28061D01*
X41792Y28091D01*
Y28100D01*
X41785Y28135D01*
X41765Y28165D01*
X41735Y28185D01*
X41700Y28192D01*
X41600D01*
X41565Y28185D01*
X41535Y28165D01*
X41515Y28135D01*
X41511Y28116D01*
X41164D01*
Y28118D01*
X40997Y28105D01*
X40834Y28066D01*
X40679Y28002D01*
X40566Y27933D01*
X40516Y27961D01*
Y28311D01*
X40535Y28315D01*
X40565Y28335D01*
X40585Y28365D01*
X40592Y28400D01*
Y28500D01*
X40585Y28535D01*
X40565Y28565D01*
X40535Y28585D01*
X40516Y28589D01*
Y29111D01*
X40535Y29115D01*
X40565Y29135D01*
X40585Y29165D01*
X40592Y29200D01*
Y29300D01*
X40585Y29335D01*
X40565Y29365D01*
X40535Y29385D01*
X40500Y29392D01*
X40439D01*
X40427Y29421D01*
X40418Y29491D01*
X40416D01*
Y29940D01*
X40443Y29957D01*
X40471Y30000D01*
X40481Y30050D01*
X40471Y30100D01*
X40443Y30143D01*
X40400Y30171D01*
X40350Y30181D01*
D02*
G37*
G36*
X36182Y25900D02*
X35818D01*
X35822Y25876D01*
X35840Y25850D01*
X35822Y25824D01*
X35818Y25800D01*
X36182D01*
X36178Y25824D01*
X36160Y25850D01*
X36178Y25876D01*
X36182Y25900D01*
D02*
G37*
G36*
X34682Y26000D02*
X34318D01*
X34322Y25976D01*
X34351Y25934D01*
X34333Y25879D01*
X34326Y25878D01*
X34264Y25836D01*
X34222Y25774D01*
X34218Y25750D01*
X34582D01*
X34578Y25774D01*
X34549Y25816D01*
X34567Y25871D01*
X34574Y25872D01*
X34636Y25914D01*
X34678Y25976D01*
X34682Y26000D01*
D02*
G37*
G36*
X25000Y25931D02*
X24950Y25921D01*
X24907Y25893D01*
X24879Y25850D01*
X24869Y25800D01*
X24879Y25750D01*
X24907Y25707D01*
X24950Y25679D01*
X25000Y25669D01*
X25050Y25679D01*
X25093Y25707D01*
X25121Y25750D01*
X25131Y25800D01*
X25121Y25850D01*
X25093Y25893D01*
X25050Y25921D01*
X25000Y25931D01*
D02*
G37*
G36*
X18249Y25902D02*
X18083D01*
Y25653D01*
X18542D01*
X18538Y25680D01*
X18509Y25752D01*
X18461Y25814D01*
X18399Y25862D01*
X18327Y25892D01*
X18249Y25902D01*
D02*
G37*
G36*
X17983D02*
X17816D01*
X17739Y25892D01*
X17666Y25862D01*
X17604Y25814D01*
X17557Y25752D01*
X17527Y25680D01*
X17523Y25653D01*
X17983D01*
Y25902D01*
D02*
G37*
G36*
X16576D02*
X16508D01*
Y25653D01*
X16869D01*
X16865Y25680D01*
X16835Y25752D01*
X16788Y25814D01*
X16726Y25862D01*
X16653Y25892D01*
X16576Y25902D01*
D02*
G37*
G36*
X16408D02*
X16340D01*
X16262Y25892D01*
X16190Y25862D01*
X16128Y25814D01*
X16080Y25752D01*
X16051Y25680D01*
X16047Y25653D01*
X16408D01*
Y25902D01*
D02*
G37*
G36*
X36182Y25700D02*
X35818D01*
X35820Y25686D01*
X35776Y25678D01*
X35714Y25636D01*
X35710Y25630D01*
X35700Y25632D01*
Y25450D01*
Y25268D01*
X35724Y25272D01*
X35786Y25314D01*
X35790Y25320D01*
X35800Y25318D01*
Y25500D01*
X35850D01*
Y25550D01*
X36032D01*
X36030Y25564D01*
X36074Y25572D01*
X36136Y25614D01*
X36178Y25676D01*
X36182Y25700D01*
D02*
G37*
G36*
X35600Y25632D02*
X35576Y25628D01*
X35563Y25618D01*
X35549Y25628D01*
X35525Y25632D01*
Y25450D01*
Y25268D01*
X35549Y25272D01*
X35563Y25282D01*
X35576Y25272D01*
X35600Y25268D01*
Y25450D01*
Y25632D01*
D02*
G37*
G36*
X35425D02*
X35401Y25628D01*
X35387Y25618D01*
X35374Y25628D01*
X35350Y25632D01*
Y25450D01*
Y25268D01*
X35374Y25272D01*
X35387Y25282D01*
X35401Y25272D01*
X35425Y25268D01*
Y25450D01*
Y25632D01*
D02*
G37*
G36*
X35250D02*
X35226Y25628D01*
X35175Y25593D01*
X35124Y25628D01*
X35100Y25632D01*
Y25450D01*
Y25268D01*
X35124Y25272D01*
X35175Y25307D01*
X35226Y25272D01*
X35250Y25268D01*
Y25450D01*
Y25632D01*
D02*
G37*
G36*
X35000D02*
X34976Y25628D01*
X34925Y25593D01*
X34874Y25628D01*
X34850Y25632D01*
Y25450D01*
Y25268D01*
X34874Y25272D01*
X34925Y25307D01*
X34976Y25272D01*
X35000Y25268D01*
Y25450D01*
Y25632D01*
D02*
G37*
G36*
X45110Y25874D02*
X45060D01*
Y25450D01*
X45314D01*
Y25670D01*
X45298Y25748D01*
X45254Y25814D01*
X45188Y25858D01*
X45110Y25874D01*
D02*
G37*
G36*
X44960D02*
X44910D01*
X44832Y25858D01*
X44766Y25814D01*
X44722Y25748D01*
X44706Y25670D01*
Y25450D01*
X44960D01*
Y25874D01*
D02*
G37*
G36*
X36032Y25450D02*
X35900D01*
Y25318D01*
X35924Y25322D01*
X35986Y25364D01*
X36028Y25426D01*
X36032Y25450D01*
D02*
G37*
G36*
X18542Y25553D02*
X18083D01*
Y25303D01*
X18249D01*
X18327Y25314D01*
X18399Y25343D01*
X18461Y25391D01*
X18509Y25453D01*
X18538Y25525D01*
X18542Y25553D01*
D02*
G37*
G36*
X17983D02*
X17523D01*
X17527Y25525D01*
X17557Y25453D01*
X17604Y25391D01*
X17666Y25343D01*
X17739Y25314D01*
X17816Y25303D01*
X17983D01*
Y25553D01*
D02*
G37*
G36*
X16869D02*
X16508D01*
Y25303D01*
X16576D01*
X16653Y25314D01*
X16726Y25343D01*
X16788Y25391D01*
X16835Y25453D01*
X16865Y25525D01*
X16869Y25553D01*
D02*
G37*
G36*
X16408D02*
X16047D01*
X16051Y25525D01*
X16080Y25453D01*
X16128Y25391D01*
X16190Y25343D01*
X16262Y25314D01*
X16340Y25303D01*
X16408D01*
Y25553D01*
D02*
G37*
G36*
X34582Y25650D02*
X34218D01*
X34222Y25626D01*
X34264Y25564D01*
X34323Y25525D01*
X34322Y25524D01*
X34318Y25500D01*
X34500D01*
Y25450D01*
X34550D01*
Y25268D01*
X34574Y25272D01*
X34636Y25314D01*
X34664D01*
X34726Y25272D01*
X34750Y25268D01*
Y25450D01*
Y25632D01*
X34726Y25628D01*
X34664Y25586D01*
X34636D01*
X34577Y25625D01*
X34578Y25626D01*
X34582Y25650D01*
D02*
G37*
G36*
X34450Y25400D02*
X34318D01*
X34322Y25376D01*
X34364Y25314D01*
X34426Y25272D01*
X34450Y25268D01*
Y25400D01*
D02*
G37*
G36*
X32300Y28581D02*
X32250Y28571D01*
X32207Y28543D01*
X32179Y28500D01*
X32169Y28450D01*
X32179Y28400D01*
X32207Y28357D01*
X32250Y28329D01*
X32267Y28325D01*
Y28275D01*
X32250Y28271D01*
X32207Y28243D01*
X32179Y28200D01*
X32169Y28150D01*
X32179Y28100D01*
X32207Y28057D01*
X32234Y28040D01*
Y25892D01*
X32203Y25861D01*
X32189Y25840D01*
X32184Y25814D01*
X32184Y25812D01*
X32167Y25632D01*
X32113Y25457D01*
X32027Y25295D01*
X31912Y25155D01*
X31910Y25154D01*
X31646Y24890D01*
X31645Y24891D01*
X31536Y24764D01*
X31448Y24621D01*
X31384Y24466D01*
X31345Y24303D01*
X31332Y24136D01*
X31334D01*
Y21014D01*
X31334Y21012D01*
X31317Y20832D01*
X31263Y20657D01*
X31177Y20495D01*
X31062Y20355D01*
X31060Y20354D01*
X28854Y18148D01*
X28846Y18153D01*
X28776Y18183D01*
X28700Y18192D01*
X28624Y18183D01*
X28554Y18153D01*
X28493Y18107D01*
X28447Y18046D01*
X28417Y17976D01*
X28407Y17900D01*
X28417Y17824D01*
X28447Y17754D01*
X28493Y17693D01*
X28554Y17647D01*
X28624Y17617D01*
X28700Y17608D01*
X28776Y17617D01*
X28846Y17647D01*
X28907Y17693D01*
X28953Y17754D01*
X28983Y17824D01*
X28993Y17900D01*
X28983Y17976D01*
X28953Y18046D01*
X28948Y18054D01*
X31154Y20260D01*
X31155Y20259D01*
X31264Y20386D01*
X31352Y20529D01*
X31416Y20684D01*
X31455Y20847D01*
X31468Y21014D01*
X31466D01*
Y24136D01*
X31466Y24138D01*
X31483Y24318D01*
X31537Y24493D01*
X31623Y24655D01*
X31738Y24795D01*
X31740Y24796D01*
X32004Y25060D01*
X32005Y25059D01*
X32114Y25186D01*
X32202Y25329D01*
X32266Y25484D01*
X32305Y25647D01*
X32316Y25787D01*
X32347Y25817D01*
X32361Y25839D01*
X32366Y25864D01*
Y28040D01*
X32393Y28057D01*
X32421Y28100D01*
X32431Y28150D01*
X32421Y28200D01*
X32393Y28243D01*
X32350Y28271D01*
X32333Y28275D01*
Y28325D01*
X32350Y28329D01*
X32393Y28357D01*
X32421Y28400D01*
X32431Y28450D01*
X32421Y28500D01*
X32393Y28543D01*
X32350Y28571D01*
X32300Y28581D01*
D02*
G37*
G36*
X33850Y26681D02*
X33800Y26671D01*
X33757Y26643D01*
X33729Y26600D01*
X33719Y26550D01*
X33729Y26500D01*
X33744Y26478D01*
X33724Y26424D01*
X33705Y26420D01*
X33667Y26395D01*
X33642Y26357D01*
X33633Y26312D01*
Y25714D01*
X33632D01*
X33645Y25539D01*
X33686Y25369D01*
X33753Y25206D01*
X33845Y25057D01*
X33959Y24923D01*
X33959Y24923D01*
X33961Y24923D01*
X34004Y24880D01*
X34031Y24841D01*
X34045Y24735D01*
X34086Y24636D01*
X34152Y24552D01*
X34153Y24553D01*
X34710Y23996D01*
X34709Y23995D01*
X34836Y23886D01*
X34979Y23798D01*
X35134Y23734D01*
X35155Y23729D01*
X35167Y23717D01*
X35205Y23692D01*
X35250Y23683D01*
X35451D01*
X35464Y23682D01*
Y23683D01*
X41659D01*
Y23681D01*
X41679Y23684D01*
X41800D01*
X41825Y23689D01*
X41847Y23703D01*
X41885Y23741D01*
X41889Y23743D01*
X41984Y23816D01*
X41983Y23817D01*
X43200Y25034D01*
X43249Y25029D01*
X43295Y24998D01*
X43350Y24987D01*
X43550D01*
X43605Y24998D01*
X43651Y25029D01*
X43682Y25075D01*
X43693Y25130D01*
Y25670D01*
X43682Y25725D01*
X43651Y25771D01*
X43605Y25802D01*
X43550Y25813D01*
X43350D01*
X43295Y25802D01*
X43249Y25771D01*
X43218Y25725D01*
X43207Y25670D01*
Y25373D01*
X41817Y23983D01*
X41815Y23980D01*
X41745Y23933D01*
X41663Y23916D01*
X41659Y23917D01*
X35299D01*
X34183Y25033D01*
X34183Y25033D01*
X34166Y25050D01*
Y25467D01*
X34169D01*
X34154Y25614D01*
X34111Y25755D01*
X34042Y25885D01*
X33949Y25999D01*
X33949Y25999D01*
X33917Y26036D01*
X33876Y26089D01*
X33867Y26110D01*
Y26312D01*
X33863Y26332D01*
X33897Y26365D01*
X33911Y26387D01*
X33916Y26412D01*
Y26440D01*
X33943Y26457D01*
X33971Y26500D01*
X33981Y26550D01*
X33971Y26600D01*
X33943Y26643D01*
X33900Y26671D01*
X33850Y26681D01*
D02*
G37*
G36*
X29100Y25103D02*
X29041Y25091D01*
X28992Y25058D01*
X28959Y25009D01*
X28947Y24950D01*
D01*
X29100D01*
Y25103D01*
D02*
G37*
G36*
X45314Y25350D02*
X45060D01*
Y24926D01*
X45110D01*
X45188Y24942D01*
X45254Y24986D01*
X45298Y25052D01*
X45314Y25130D01*
Y25350D01*
D02*
G37*
G36*
X44960D02*
X44706D01*
Y25130D01*
X44722Y25052D01*
X44766Y24986D01*
X44832Y24942D01*
X44910Y24926D01*
X44960D01*
Y25350D01*
D02*
G37*
G36*
X17836Y25209D02*
X17770Y25196D01*
X17715Y25159D01*
X17678Y25103D01*
X17665Y25038D01*
X17678Y24972D01*
X17715Y24917D01*
X17770Y24880D01*
X17836Y24867D01*
X17901Y24880D01*
X17957Y24917D01*
X17994Y24972D01*
X18007Y25038D01*
X17994Y25103D01*
X17957Y25159D01*
X17901Y25196D01*
X17836Y25209D01*
D02*
G37*
G36*
X35950Y24981D02*
X35900Y24971D01*
X35857Y24943D01*
X35829Y24900D01*
X35819Y24850D01*
X35829Y24800D01*
X35857Y24757D01*
X35900Y24729D01*
X35950Y24719D01*
X36000Y24729D01*
X36043Y24757D01*
X36071Y24800D01*
X36081Y24850D01*
X36071Y24900D01*
X36043Y24943D01*
X36000Y24971D01*
X35950Y24981D01*
D02*
G37*
G36*
X29100Y24850D02*
X28947D01*
X28959Y24791D01*
X28992Y24742D01*
X29041Y24709D01*
X29100Y24697D01*
D01*
Y24850D01*
D02*
G37*
G36*
X25300Y24132D02*
Y24000D01*
X25432D01*
X25428Y24024D01*
X25386Y24086D01*
X25324Y24128D01*
X25300Y24132D01*
D02*
G37*
G36*
X25200D02*
X25176Y24128D01*
X25114Y24086D01*
X25072Y24024D01*
X25068Y24000D01*
X25200D01*
Y24132D01*
D02*
G37*
G36*
X24800D02*
Y24000D01*
X24932D01*
X24928Y24024D01*
X24886Y24086D01*
X24824Y24128D01*
X24800Y24132D01*
D02*
G37*
G36*
X24700D02*
X24676Y24128D01*
X24614Y24086D01*
X24572Y24024D01*
X24568Y24000D01*
X24700D01*
Y24132D01*
D02*
G37*
G36*
X20250Y24156D02*
X20200Y24146D01*
X20157Y24118D01*
X20129Y24075D01*
X20119Y24025D01*
X20129Y23975D01*
X20157Y23932D01*
X20200Y23904D01*
X20250Y23894D01*
X20300Y23904D01*
X20343Y23932D01*
X20371Y23975D01*
X20381Y24025D01*
X20371Y24075D01*
X20343Y24118D01*
X20300Y24146D01*
X20250Y24156D01*
D02*
G37*
G36*
X21764Y25226D02*
X21596Y25213D01*
X21432Y25173D01*
X21276Y25109D01*
X21132Y25020D01*
X21003Y24911D01*
X21005Y24909D01*
X21005Y24909D01*
X20522Y24427D01*
X20500Y24431D01*
X20450Y24421D01*
X20407Y24393D01*
X20379Y24350D01*
X20369Y24300D01*
X20379Y24250D01*
X20407Y24207D01*
X20450Y24179D01*
X20500Y24169D01*
X20550Y24179D01*
X20593Y24207D01*
X20621Y24250D01*
X20631Y24300D01*
X20627Y24322D01*
X21109Y24805D01*
X21111Y24807D01*
X21249Y24921D01*
X21409Y25006D01*
X21583Y25059D01*
X21761Y25077D01*
X21764Y25076D01*
X26600D01*
X26603Y25077D01*
X26737Y25059D01*
X26865Y25006D01*
X26937Y24951D01*
X26975Y24921D01*
X27005Y24891D01*
X27007Y24889D01*
X27121Y24751D01*
X27206Y24591D01*
X27259Y24417D01*
X27277Y24239D01*
X27276Y24236D01*
Y23955D01*
X27257Y23943D01*
X27229Y23900D01*
X27219Y23850D01*
X27229Y23800D01*
X27257Y23757D01*
X27300Y23729D01*
X27350Y23719D01*
X27400Y23729D01*
X27443Y23757D01*
X27471Y23800D01*
X27481Y23850D01*
X27471Y23900D01*
X27443Y23943D01*
X27424Y23955D01*
Y24236D01*
X27426D01*
X27413Y24404D01*
X27373Y24568D01*
X27309Y24724D01*
X27220Y24868D01*
X27115Y24991D01*
X27111Y24997D01*
X27080Y25027D01*
X27080Y25027D01*
X27075Y25031D01*
X26977Y25111D01*
X26860Y25174D01*
X26733Y25213D01*
X26600Y25226D01*
Y25224D01*
X21764D01*
Y25226D01*
D02*
G37*
G36*
X20600Y23981D02*
X20550Y23971D01*
X20507Y23943D01*
X20479Y23900D01*
X20469Y23850D01*
X20479Y23800D01*
X20507Y23757D01*
X20550Y23729D01*
X20600Y23719D01*
X20650Y23729D01*
X20693Y23757D01*
X20721Y23800D01*
X20731Y23850D01*
X20721Y23900D01*
X20693Y23943D01*
X20650Y23971D01*
X20600Y23981D01*
D02*
G37*
G36*
X25432Y23900D02*
X25068D01*
X25072Y23876D01*
X25050Y23847D01*
Y23650D01*
X24950D01*
Y23847D01*
X24928Y23876D01*
X24932Y23900D01*
X24568D01*
X24572Y23876D01*
X24612Y23818D01*
X24564Y23786D01*
X24522Y23724D01*
X24518Y23700D01*
X24700D01*
Y23600D01*
X24518D01*
X24522Y23576D01*
X24562Y23518D01*
X24514Y23486D01*
X24472Y23424D01*
X24468Y23400D01*
X24650D01*
Y23350D01*
X24700D01*
Y23168D01*
X24724Y23172D01*
X24786Y23214D01*
X24814D01*
X24876Y23172D01*
X24900Y23168D01*
Y23350D01*
X25000D01*
Y23168D01*
X25024Y23172D01*
X25086Y23214D01*
X25100Y23235D01*
X25150D01*
X25164Y23214D01*
X25226Y23172D01*
X25250Y23168D01*
Y23350D01*
X25300D01*
Y23400D01*
X25482D01*
X25478Y23424D01*
X25436Y23486D01*
Y23514D01*
X25478Y23576D01*
X25482Y23600D01*
X25300D01*
Y23700D01*
X25482D01*
X25478Y23724D01*
X25436Y23786D01*
X25388Y23818D01*
X25428Y23876D01*
X25432Y23900D01*
D02*
G37*
G36*
X25482Y23300D02*
X25350D01*
Y23168D01*
X25374Y23172D01*
X25436Y23214D01*
X25478Y23276D01*
X25482Y23300D01*
D02*
G37*
G36*
X24600D02*
X24468D01*
X24472Y23276D01*
X24514Y23214D01*
X24576Y23172D01*
X24600Y23168D01*
Y23300D01*
D02*
G37*
G36*
X45130Y23424D02*
X45080D01*
Y23000D01*
X45334D01*
Y23220D01*
X45318Y23298D01*
X45274Y23364D01*
X45208Y23408D01*
X45130Y23424D01*
D02*
G37*
G36*
X44980D02*
X44930D01*
X44852Y23408D01*
X44786Y23364D01*
X44742Y23298D01*
X44726Y23220D01*
Y23000D01*
X44980D01*
Y23424D01*
D02*
G37*
G36*
X17836Y22933D02*
X17770Y22920D01*
X17715Y22883D01*
X17678Y22828D01*
X17665Y22762D01*
X17678Y22697D01*
X17715Y22641D01*
X17770Y22604D01*
X17836Y22591D01*
X17901Y22604D01*
X17957Y22641D01*
X17994Y22697D01*
X18007Y22762D01*
X17994Y22828D01*
X17957Y22883D01*
X17901Y22920D01*
X17836Y22933D01*
D02*
G37*
G36*
X45334Y22900D02*
X45080D01*
Y22476D01*
X45130D01*
X45208Y22492D01*
X45274Y22536D01*
X45318Y22602D01*
X45334Y22680D01*
Y22900D01*
D02*
G37*
G36*
X44980D02*
X44726D01*
Y22680D01*
X44742Y22602D01*
X44786Y22536D01*
X44852Y22492D01*
X44930Y22476D01*
X44980D01*
Y22900D01*
D02*
G37*
G36*
X18249Y22497D02*
X18083D01*
Y22247D01*
X18542D01*
X18538Y22275D01*
X18509Y22347D01*
X18461Y22409D01*
X18399Y22457D01*
X18327Y22486D01*
X18249Y22497D01*
D02*
G37*
G36*
X17983D02*
X17816D01*
X17739Y22486D01*
X17666Y22457D01*
X17604Y22409D01*
X17557Y22347D01*
X17527Y22275D01*
X17523Y22247D01*
X17983D01*
Y22497D01*
D02*
G37*
G36*
X16576D02*
X16508D01*
Y22247D01*
X16869D01*
X16865Y22275D01*
X16835Y22347D01*
X16788Y22409D01*
X16726Y22457D01*
X16653Y22486D01*
X16576Y22497D01*
D02*
G37*
G36*
X16408D02*
X16340D01*
X16262Y22486D01*
X16190Y22457D01*
X16128Y22409D01*
X16080Y22347D01*
X16051Y22275D01*
X16047Y22247D01*
X16408D01*
Y22497D01*
D02*
G37*
G36*
X27200Y23381D02*
X27150Y23371D01*
X27107Y23343D01*
X27079Y23300D01*
X27069Y23250D01*
X27079Y23200D01*
X27107Y23157D01*
X27126Y23145D01*
Y22914D01*
X27127Y22911D01*
X27109Y22733D01*
X27056Y22559D01*
X26971Y22399D01*
X26857Y22261D01*
X26855Y22259D01*
X26719Y22124D01*
X26587D01*
X26587Y22125D01*
X26586Y22125D01*
X26577Y22166D01*
X26549Y22209D01*
X26506Y22237D01*
X26455Y22248D01*
X26404Y22237D01*
X26361Y22209D01*
X26333Y22166D01*
X26324Y22125D01*
X26323Y22125D01*
X26323Y22124D01*
X22514D01*
X22511Y22123D01*
X22333Y22141D01*
X22159Y22194D01*
X21999Y22279D01*
X21861Y22393D01*
X21859Y22395D01*
X21477Y22778D01*
X21481Y22800D01*
X21471Y22850D01*
X21443Y22893D01*
X21400Y22921D01*
X21350Y22931D01*
X21300Y22921D01*
X21257Y22893D01*
X21229Y22850D01*
X21219Y22800D01*
X21229Y22750D01*
X21257Y22707D01*
X21300Y22679D01*
X21350Y22669D01*
X21372Y22673D01*
X21755Y22291D01*
X21753Y22289D01*
X21882Y22180D01*
X22026Y22091D01*
X22182Y22027D01*
X22346Y21987D01*
X22514Y21974D01*
Y21976D01*
X26333D01*
Y21975D01*
X26386Y21985D01*
X26432Y22016D01*
X26478D01*
X26524Y21985D01*
X26578Y21975D01*
Y21976D01*
X26750D01*
X26778Y21982D01*
X26802Y21998D01*
X26959Y22155D01*
X26961Y22153D01*
X27070Y22282D01*
X27159Y22426D01*
X27223Y22582D01*
X27263Y22746D01*
X27276Y22914D01*
X27274D01*
Y23145D01*
X27293Y23157D01*
X27321Y23200D01*
X27331Y23250D01*
X27321Y23300D01*
X27293Y23343D01*
X27250Y23371D01*
X27200Y23381D01*
D02*
G37*
G36*
X18542Y22147D02*
X18083D01*
Y21898D01*
X18249D01*
X18327Y21908D01*
X18399Y21938D01*
X18461Y21986D01*
X18509Y22048D01*
X18538Y22120D01*
X18542Y22147D01*
D02*
G37*
G36*
X17983D02*
X17523D01*
X17527Y22120D01*
X17557Y22048D01*
X17604Y21986D01*
X17666Y21938D01*
X17739Y21908D01*
X17816Y21898D01*
X17983D01*
Y22147D01*
D02*
G37*
G36*
X16869D02*
X16508D01*
Y21898D01*
X16576D01*
X16653Y21908D01*
X16726Y21938D01*
X16788Y21986D01*
X16835Y22048D01*
X16865Y22120D01*
X16869Y22147D01*
D02*
G37*
G36*
X16408D02*
X16047D01*
X16051Y22120D01*
X16080Y22048D01*
X16128Y21986D01*
X16190Y21938D01*
X16262Y21908D01*
X16340Y21898D01*
X16408D01*
Y22147D01*
D02*
G37*
G36*
X32950Y21331D02*
X32900Y21321D01*
X32857Y21293D01*
X32829Y21250D01*
X32819Y21200D01*
X32829Y21150D01*
X32857Y21107D01*
X32900Y21079D01*
X32950Y21069D01*
X33000Y21079D01*
X33043Y21107D01*
X33071Y21150D01*
X33081Y21200D01*
X33071Y21250D01*
X33043Y21293D01*
X33000Y21321D01*
X32950Y21331D01*
D02*
G37*
G36*
X32250Y21281D02*
X32200Y21271D01*
X32157Y21243D01*
X32129Y21200D01*
X32119Y21150D01*
X32129Y21100D01*
X32157Y21057D01*
X32200Y21029D01*
X32250Y21019D01*
X32300Y21029D01*
X32343Y21057D01*
X32371Y21100D01*
X32381Y21150D01*
X32371Y21200D01*
X32343Y21243D01*
X32300Y21271D01*
X32250Y21281D01*
D02*
G37*
G36*
X33350Y20931D02*
X33300Y20921D01*
X33257Y20893D01*
X33229Y20850D01*
X33219Y20800D01*
X33229Y20750D01*
X33257Y20707D01*
X33300Y20679D01*
X33350Y20669D01*
X33400Y20679D01*
X33443Y20707D01*
X33471Y20750D01*
X33481Y20800D01*
X33471Y20850D01*
X33443Y20893D01*
X33400Y20921D01*
X33350Y20931D01*
D02*
G37*
G36*
X32650Y20881D02*
X32600Y20871D01*
X32557Y20843D01*
X32529Y20800D01*
X32519Y20750D01*
X32529Y20700D01*
X32557Y20657D01*
X32600Y20629D01*
X32650Y20619D01*
X32700Y20629D01*
X32743Y20657D01*
X32771Y20700D01*
X32781Y20750D01*
X32771Y20800D01*
X32743Y20843D01*
X32700Y20871D01*
X32650Y20881D01*
D02*
G37*
G36*
X19600Y24731D02*
X19550Y24721D01*
X19507Y24693D01*
X19479Y24650D01*
X19469Y24600D01*
X19479Y24550D01*
X19507Y24507D01*
X19550Y24479D01*
X19600Y24469D01*
X19624Y24474D01*
X19662Y24444D01*
X19728Y24358D01*
X19769Y24258D01*
X19783Y24154D01*
X19781Y24104D01*
X19781D01*
X19798Y23923D01*
X19851Y23750D01*
X19936Y23591D01*
X20051Y23451D01*
X20053Y23453D01*
X20210Y23296D01*
X20212Y23295D01*
X20327Y23155D01*
X20413Y22993D01*
X20467Y22818D01*
X20484Y22638D01*
X20484Y22636D01*
Y21314D01*
X20482D01*
X20495Y21147D01*
X20534Y20984D01*
X20598Y20829D01*
X20686Y20686D01*
X20710Y20658D01*
X20708Y20650D01*
Y20550D01*
X20715Y20515D01*
X20735Y20485D01*
X20765Y20465D01*
X20800Y20458D01*
X20900D01*
X20935Y20465D01*
X20965Y20485D01*
X20985Y20515D01*
X20992Y20550D01*
Y20650D01*
X20985Y20685D01*
X20965Y20715D01*
X20935Y20735D01*
X20900Y20742D01*
X20817D01*
X20773Y20795D01*
X20687Y20957D01*
X20633Y21132D01*
X20616Y21312D01*
X20616Y21314D01*
Y22636D01*
X20618D01*
X20605Y22803D01*
X20566Y22966D01*
X20502Y23121D01*
X20414Y23264D01*
X20305Y23391D01*
X20304Y23390D01*
X20147Y23547D01*
X20147Y23547D01*
X20049Y23666D01*
X19976Y23802D01*
X19931Y23950D01*
X19917Y24100D01*
X19920Y24150D01*
X19920D01*
X19901Y24293D01*
X19846Y24426D01*
X19758Y24541D01*
X19758Y24541D01*
X19727Y24578D01*
X19731Y24600D01*
X19721Y24650D01*
X19693Y24693D01*
X19650Y24721D01*
X19600Y24731D01*
D02*
G37*
G36*
X19650Y23481D02*
X19600Y23471D01*
X19557Y23443D01*
X19529Y23400D01*
X19519Y23350D01*
X19529Y23300D01*
X19557Y23257D01*
X19600Y23229D01*
X19650Y23219D01*
X19681Y23225D01*
X19810Y23096D01*
X19812Y23095D01*
X19927Y22955D01*
X20013Y22793D01*
X20067Y22618D01*
X20084Y22438D01*
X20084Y22436D01*
Y20739D01*
X20065Y20735D01*
X20035Y20715D01*
X20015Y20685D01*
X20008Y20650D01*
Y20550D01*
X20015Y20515D01*
X20035Y20485D01*
X20065Y20465D01*
X20100Y20458D01*
X20200D01*
X20235Y20465D01*
X20265Y20485D01*
X20285Y20515D01*
X20292Y20550D01*
Y20650D01*
X20285Y20685D01*
X20265Y20715D01*
X20235Y20735D01*
X20216Y20739D01*
Y22436D01*
X20218D01*
X20205Y22603D01*
X20166Y22766D01*
X20102Y22921D01*
X20014Y23064D01*
X19905Y23191D01*
X19904Y23190D01*
X19775Y23319D01*
X19781Y23350D01*
X19771Y23400D01*
X19743Y23443D01*
X19700Y23471D01*
X19650Y23481D01*
D02*
G37*
G36*
X34700Y21031D02*
X34650Y21021D01*
X34607Y20993D01*
X34579Y20950D01*
X34569Y20900D01*
X34579Y20850D01*
X34607Y20807D01*
X34634Y20790D01*
Y20641D01*
X34632D01*
X34623Y20571D01*
X34596Y20505D01*
X34552Y20448D01*
X34553Y20447D01*
X33314Y19208D01*
X33280Y19174D01*
X33242Y19144D01*
X33169Y19087D01*
X33039Y19034D01*
X32949Y19022D01*
X32900Y19019D01*
Y19019D01*
X32789Y19004D01*
X32685Y18961D01*
X32595Y18893D01*
X32597Y18891D01*
X31854Y18148D01*
X31846Y18153D01*
X31776Y18183D01*
X31700Y18192D01*
X31624Y18183D01*
X31554Y18153D01*
X31493Y18107D01*
X31447Y18046D01*
X31417Y17976D01*
X31407Y17900D01*
X31417Y17824D01*
X31447Y17754D01*
X31493Y17693D01*
X31554Y17647D01*
X31624Y17617D01*
X31700Y17608D01*
X31776Y17617D01*
X31846Y17647D01*
X31907Y17693D01*
X31953Y17754D01*
X31983Y17824D01*
X31992Y17900D01*
X31983Y17976D01*
X31953Y18046D01*
X31948Y18054D01*
X32691Y18797D01*
X32692Y18796D01*
X32753Y18843D01*
X32824Y18872D01*
X32899Y18882D01*
X32900Y18882D01*
Y18882D01*
X33031Y18895D01*
X33157Y18933D01*
X33273Y18995D01*
X33375Y19079D01*
X33374Y19080D01*
X33374Y19080D01*
X34647Y20353D01*
X34648Y20352D01*
X34714Y20436D01*
X34755Y20535D01*
X34769Y20641D01*
X34766D01*
Y20790D01*
X34793Y20807D01*
X34821Y20850D01*
X34831Y20900D01*
X34821Y20950D01*
X34793Y20993D01*
X34750Y21021D01*
X34700Y21031D01*
D02*
G37*
G36*
X20900Y20403D02*
Y20250D01*
X21053D01*
X21041Y20309D01*
X21008Y20358D01*
X20959Y20391D01*
X20900Y20403D01*
D02*
G37*
G36*
X20800D02*
X20741Y20391D01*
X20692Y20358D01*
X20659Y20309D01*
X20647Y20250D01*
X20800D01*
Y20403D01*
D02*
G37*
G36*
X20200D02*
Y20250D01*
X20353D01*
X20341Y20309D01*
X20308Y20358D01*
X20259Y20391D01*
X20200Y20403D01*
D02*
G37*
G36*
X20100D02*
X20041Y20391D01*
X19992Y20358D01*
X19959Y20309D01*
X19947Y20250D01*
X20100D01*
Y20403D01*
D02*
G37*
G36*
X33600Y21331D02*
X33550Y21321D01*
X33507Y21293D01*
X33479Y21250D01*
X33469Y21200D01*
X33479Y21150D01*
X33507Y21107D01*
X33534Y21090D01*
Y20733D01*
X33533D01*
X33521Y20613D01*
X33486Y20497D01*
X33429Y20391D01*
X33353Y20297D01*
X33353Y20297D01*
X32946Y19890D01*
X32945Y19888D01*
X32805Y19773D01*
X32643Y19687D01*
X32468Y19633D01*
X32288Y19616D01*
X32286Y19616D01*
X31764D01*
Y19618D01*
X31597Y19605D01*
X31434Y19566D01*
X31279Y19502D01*
X31136Y19414D01*
X31009Y19305D01*
X31010Y19304D01*
X29854Y18148D01*
X29846Y18153D01*
X29776Y18183D01*
X29700Y18192D01*
X29624Y18183D01*
X29554Y18153D01*
X29493Y18107D01*
X29447Y18046D01*
X29417Y17976D01*
X29407Y17900D01*
X29417Y17824D01*
X29447Y17754D01*
X29493Y17693D01*
X29554Y17647D01*
X29624Y17617D01*
X29700Y17608D01*
X29776Y17617D01*
X29846Y17647D01*
X29907Y17693D01*
X29953Y17754D01*
X29983Y17824D01*
X29992Y17900D01*
X29983Y17976D01*
X29953Y18046D01*
X29948Y18054D01*
X31104Y19210D01*
X31105Y19212D01*
X31245Y19327D01*
X31407Y19413D01*
X31582Y19467D01*
X31762Y19484D01*
X31764Y19484D01*
X32286D01*
Y19482D01*
X32453Y19495D01*
X32616Y19534D01*
X32771Y19598D01*
X32914Y19686D01*
X33041Y19795D01*
X33040Y19796D01*
X33447Y20203D01*
X33449Y20201D01*
X33542Y20315D01*
X33611Y20445D01*
X33654Y20586D01*
X33669Y20733D01*
X33666D01*
Y21090D01*
X33693Y21107D01*
X33721Y21150D01*
X33731Y21200D01*
X33721Y21250D01*
X33693Y21293D01*
X33650Y21321D01*
X33600Y21331D01*
D02*
G37*
G36*
X34001Y21381D02*
X33951Y21371D01*
X33908Y21343D01*
X33880Y21300D01*
X33870Y21250D01*
X33880Y21200D01*
X33908Y21157D01*
X33935Y21140D01*
Y20865D01*
X33935Y20863D01*
X33918Y20683D01*
X33864Y20508D01*
X33778Y20346D01*
X33663Y20206D01*
X33661Y20205D01*
X32953Y19497D01*
X32953Y19497D01*
X32859Y19421D01*
X32753Y19364D01*
X32637Y19329D01*
X32517Y19317D01*
Y19316D01*
X32450D01*
Y19320D01*
X32248Y19300D01*
X32054Y19241D01*
X31875Y19145D01*
X31718Y19017D01*
X31720Y19014D01*
X31720Y19014D01*
X30854Y18148D01*
X30846Y18153D01*
X30776Y18183D01*
X30700Y18192D01*
X30624Y18183D01*
X30554Y18153D01*
X30493Y18107D01*
X30447Y18046D01*
X30417Y17976D01*
X30408Y17900D01*
X30417Y17824D01*
X30447Y17754D01*
X30493Y17693D01*
X30554Y17647D01*
X30624Y17617D01*
X30700Y17608D01*
X30776Y17617D01*
X30846Y17647D01*
X30907Y17693D01*
X30953Y17754D01*
X30983Y17824D01*
X30993Y17900D01*
X30983Y17976D01*
X30953Y18046D01*
X30948Y18054D01*
X31779Y18886D01*
X31814Y18920D01*
X31851Y18951D01*
X31950Y19033D01*
X32106Y19116D01*
X32274Y19167D01*
X32448Y19184D01*
X32450Y19184D01*
X32517D01*
Y19181D01*
X32664Y19196D01*
X32805Y19239D01*
X32935Y19308D01*
X33049Y19401D01*
X33047Y19403D01*
X33755Y20111D01*
X33756Y20110D01*
X33865Y20237D01*
X33953Y20380D01*
X34017Y20535D01*
X34056Y20698D01*
X34069Y20865D01*
X34067D01*
Y21140D01*
X34094Y21157D01*
X34122Y21200D01*
X34132Y21250D01*
X34122Y21300D01*
X34094Y21343D01*
X34051Y21371D01*
X34001Y21381D01*
D02*
G37*
G36*
X21053Y20150D02*
X20900D01*
Y19997D01*
X20959Y20009D01*
X21008Y20042D01*
X21041Y20091D01*
X21053Y20150D01*
D02*
G37*
G36*
X20800D02*
X20647D01*
X20659Y20091D01*
X20692Y20042D01*
X20741Y20009D01*
X20800Y19997D01*
Y20150D01*
D02*
G37*
G36*
X20353D02*
X20200D01*
Y19997D01*
X20259Y20009D01*
X20308Y20042D01*
X20341Y20091D01*
X20353Y20150D01*
D02*
G37*
G36*
X20100D02*
X19947D01*
X19959Y20091D01*
X19992Y20042D01*
X20041Y20009D01*
X20100Y19997D01*
Y20150D01*
D02*
G37*
G36*
X25750Y18246D02*
Y17950D01*
X26046D01*
X26041Y17991D01*
X26006Y18077D01*
X25950Y18150D01*
X25877Y18206D01*
X25791Y18241D01*
X25750Y18246D01*
D02*
G37*
G36*
X24750D02*
Y17950D01*
X25046D01*
X25041Y17991D01*
X25006Y18077D01*
X24950Y18150D01*
X24877Y18206D01*
X24791Y18241D01*
X24750Y18246D01*
D02*
G37*
G36*
X25650D02*
X25609Y18241D01*
X25523Y18206D01*
X25450Y18150D01*
X25394Y18077D01*
X25359Y17991D01*
X25354Y17950D01*
X25650D01*
Y18246D01*
D02*
G37*
G36*
X24650D02*
X24609Y18241D01*
X24523Y18206D01*
X24450Y18150D01*
X24394Y18077D01*
X24359Y17991D01*
X24354Y17950D01*
X24650D01*
Y18246D01*
D02*
G37*
G36*
X38700Y18192D02*
X38624Y18183D01*
X38554Y18153D01*
X38493Y18107D01*
X38447Y18046D01*
X38417Y17976D01*
X38407Y17900D01*
X38417Y17824D01*
X38447Y17754D01*
X38493Y17693D01*
X38554Y17647D01*
X38624Y17617D01*
X38700Y17608D01*
X38776Y17617D01*
X38846Y17647D01*
X38907Y17693D01*
X38953Y17754D01*
X38983Y17824D01*
X38993Y17900D01*
X38983Y17976D01*
X38953Y18046D01*
X38907Y18107D01*
X38846Y18153D01*
X38776Y18183D01*
X38700Y18192D01*
D02*
G37*
G36*
X37700D02*
X37624Y18183D01*
X37554Y18153D01*
X37493Y18107D01*
X37447Y18046D01*
X37417Y17976D01*
X37408Y17900D01*
X37417Y17824D01*
X37447Y17754D01*
X37493Y17693D01*
X37554Y17647D01*
X37624Y17617D01*
X37700Y17608D01*
X37776Y17617D01*
X37846Y17647D01*
X37907Y17693D01*
X37953Y17754D01*
X37983Y17824D01*
X37992Y17900D01*
X37983Y17976D01*
X37953Y18046D01*
X37907Y18107D01*
X37846Y18153D01*
X37776Y18183D01*
X37700Y18192D01*
D02*
G37*
G36*
X36700D02*
X36624Y18183D01*
X36554Y18153D01*
X36493Y18107D01*
X36447Y18046D01*
X36417Y17976D01*
X36407Y17900D01*
X36417Y17824D01*
X36447Y17754D01*
X36493Y17693D01*
X36554Y17647D01*
X36624Y17617D01*
X36700Y17608D01*
X36776Y17617D01*
X36846Y17647D01*
X36907Y17693D01*
X36953Y17754D01*
X36983Y17824D01*
X36992Y17900D01*
X36983Y17976D01*
X36953Y18046D01*
X36907Y18107D01*
X36846Y18153D01*
X36776Y18183D01*
X36700Y18192D01*
D02*
G37*
G36*
X35700D02*
X35624Y18183D01*
X35554Y18153D01*
X35493Y18107D01*
X35447Y18046D01*
X35417Y17976D01*
X35408Y17900D01*
X35417Y17824D01*
X35447Y17754D01*
X35493Y17693D01*
X35554Y17647D01*
X35624Y17617D01*
X35700Y17608D01*
X35776Y17617D01*
X35846Y17647D01*
X35907Y17693D01*
X35953Y17754D01*
X35983Y17824D01*
X35993Y17900D01*
X35983Y17976D01*
X35953Y18046D01*
X35907Y18107D01*
X35846Y18153D01*
X35776Y18183D01*
X35700Y18192D01*
D02*
G37*
G36*
X34700D02*
X34624Y18183D01*
X34554Y18153D01*
X34493Y18107D01*
X34447Y18046D01*
X34417Y17976D01*
X34407Y17900D01*
X34417Y17824D01*
X34447Y17754D01*
X34493Y17693D01*
X34554Y17647D01*
X34624Y17617D01*
X34700Y17608D01*
X34776Y17617D01*
X34846Y17647D01*
X34907Y17693D01*
X34953Y17754D01*
X34983Y17824D01*
X34992Y17900D01*
X34983Y17976D01*
X34953Y18046D01*
X34907Y18107D01*
X34846Y18153D01*
X34776Y18183D01*
X34700Y18192D01*
D02*
G37*
G36*
X33700D02*
X33624Y18183D01*
X33554Y18153D01*
X33493Y18107D01*
X33447Y18046D01*
X33417Y17976D01*
X33407Y17900D01*
X33417Y17824D01*
X33447Y17754D01*
X33493Y17693D01*
X33554Y17647D01*
X33624Y17617D01*
X33700Y17608D01*
X33776Y17617D01*
X33846Y17647D01*
X33907Y17693D01*
X33953Y17754D01*
X33983Y17824D01*
X33993Y17900D01*
X33983Y17976D01*
X33953Y18046D01*
X33907Y18107D01*
X33846Y18153D01*
X33776Y18183D01*
X33700Y18192D01*
D02*
G37*
G36*
X32700D02*
X32624Y18183D01*
X32554Y18153D01*
X32493Y18107D01*
X32447Y18046D01*
X32417Y17976D01*
X32408Y17900D01*
X32417Y17824D01*
X32447Y17754D01*
X32493Y17693D01*
X32554Y17647D01*
X32624Y17617D01*
X32700Y17608D01*
X32776Y17617D01*
X32846Y17647D01*
X32907Y17693D01*
X32953Y17754D01*
X32983Y17824D01*
X32992Y17900D01*
X32983Y17976D01*
X32953Y18046D01*
X32907Y18107D01*
X32846Y18153D01*
X32776Y18183D01*
X32700Y18192D01*
D02*
G37*
G36*
X26700D02*
X26624Y18183D01*
X26554Y18153D01*
X26493Y18107D01*
X26447Y18046D01*
X26417Y17976D01*
X26407Y17900D01*
X26417Y17824D01*
X26447Y17754D01*
X26493Y17693D01*
X26554Y17647D01*
X26624Y17617D01*
X26700Y17608D01*
X26776Y17617D01*
X26846Y17647D01*
X26907Y17693D01*
X26953Y17754D01*
X26983Y17824D01*
X26992Y17900D01*
X26983Y17976D01*
X26953Y18046D01*
X26907Y18107D01*
X26846Y18153D01*
X26776Y18183D01*
X26700Y18192D01*
D02*
G37*
G36*
X26046Y17850D02*
X25750D01*
Y17554D01*
X25791Y17559D01*
X25877Y17594D01*
X25950Y17650D01*
X26006Y17723D01*
X26041Y17809D01*
X26046Y17850D01*
D02*
G37*
G36*
X25046D02*
X24750D01*
Y17554D01*
X24791Y17559D01*
X24877Y17594D01*
X24950Y17650D01*
X25006Y17723D01*
X25041Y17809D01*
X25046Y17850D01*
D02*
G37*
G36*
X25650D02*
X25354D01*
X25359Y17809D01*
X25394Y17723D01*
X25450Y17650D01*
X25523Y17594D01*
X25609Y17559D01*
X25650Y17554D01*
Y17850D01*
D02*
G37*
G36*
X24650D02*
X24354D01*
X24359Y17809D01*
X24394Y17723D01*
X24450Y17650D01*
X24523Y17594D01*
X24609Y17559D01*
X24650Y17554D01*
Y17850D01*
D02*
G37*
%LPD*%
G36*
X32100Y35000D02*
X32118Y34994D01*
X32156Y34986D01*
X32194D01*
X32232Y34994D01*
X32250Y35000D01*
X32250Y34450D01*
X31050D01*
Y34950D01*
X32100Y35000D01*
X32100Y35000D01*
D02*
G37*
G36*
X29850Y24700D02*
X29450D01*
Y27350D01*
X29850D01*
Y24700D01*
D02*
G37*
D16*
X26050Y28198D02*
D03*
Y28749D02*
D03*
Y27922D02*
D03*
Y29576D02*
D03*
Y29300D02*
D03*
Y26268D02*
D03*
Y27095D02*
D03*
Y26820D02*
D03*
Y29024D02*
D03*
Y28473D02*
D03*
Y27646D02*
D03*
Y27371D02*
D03*
Y26544D02*
D03*
D17*
X41950Y26200D02*
D03*
Y25800D02*
D03*
X30100Y27050D02*
D03*
Y26650D02*
D03*
X31400Y26600D02*
D03*
Y26200D02*
D03*
X40250Y31850D02*
D03*
Y31450D02*
D03*
X20850Y20200D02*
D03*
X20150D02*
D03*
X41650Y28050D02*
D03*
X22500Y30350D02*
D03*
X20150Y20600D02*
D03*
X20850D02*
D03*
X22450Y31450D02*
D03*
Y31850D02*
D03*
X41650Y27650D02*
D03*
X22500Y29950D02*
D03*
D18*
X40850Y26400D02*
D03*
X40450D02*
D03*
X40850Y27750D02*
D03*
X40450D02*
D03*
X29150Y27250D02*
D03*
X29550D02*
D03*
X29150Y28150D02*
D03*
X29550Y29850D02*
D03*
X29150Y30750D02*
D03*
Y25750D02*
D03*
Y26500D02*
D03*
Y29000D02*
D03*
X40850Y28450D02*
D03*
Y29250D02*
D03*
X29550Y30750D02*
D03*
Y29000D02*
D03*
Y28150D02*
D03*
X29150Y24900D02*
D03*
X40450Y28450D02*
D03*
Y29250D02*
D03*
X29550Y25750D02*
D03*
Y26500D02*
D03*
Y24900D02*
D03*
X28900Y35250D02*
D03*
X29150Y29850D02*
D03*
X28950Y32750D02*
D03*
X29350D02*
D03*
X29300Y35250D02*
D03*
X40450Y27150D02*
D03*
X40850D02*
D03*
X28950Y33550D02*
D03*
X29350D02*
D03*
X28900Y34400D02*
D03*
X29300D02*
D03*
X23450Y31450D02*
D03*
X23850D02*
D03*
D19*
X39740Y30100D02*
D03*
X39720Y29200D02*
D03*
X39380D02*
D03*
X39400Y30100D02*
D03*
D20*
X43950Y32772D02*
D03*
Y35528D02*
D03*
Y34544D02*
D03*
Y33756D02*
D03*
D21*
X45010Y25400D02*
D03*
X45030Y22950D02*
D03*
X43450Y25400D02*
D03*
X43470Y22950D02*
D03*
D22*
X31272Y34950D02*
D03*
Y34576D02*
D03*
Y35324D02*
D03*
X30328Y34576D02*
D03*
Y34950D02*
D03*
Y35324D02*
D03*
D23*
X45028Y37152D02*
D03*
X47233D02*
D03*
X45028Y31148D02*
D03*
X47233D02*
D03*
D24*
X21800Y28100D02*
D03*
D25*
X21800Y28582D02*
D03*
Y27619D02*
D03*
D26*
X22281Y28100D02*
D03*
X21318D02*
D03*
D44*
X34787Y30313D02*
G03*
X35494Y30020I707J707D01*
G01*
X36444D02*
G03*
X37000Y30250I0J786D01*
G01*
X33232Y29525D02*
G03*
X33050Y29450I0J-257D01*
G01*
X40388Y27212D02*
G03*
X38728Y27900I-1660J-1659D01*
G01*
X33800Y33141D02*
G03*
X33759Y33241I-141J0D01*
G01*
X35000Y33281D02*
G03*
X34496Y34036I-2154J-893D01*
G01*
X36850Y38409D02*
G03*
X36503Y39247I-1185J0D01*
G01*
X34757Y24043D02*
G03*
X35464Y23750I707J707D01*
G01*
X34100Y24841D02*
G03*
X34200Y24600I341J0D01*
G01*
X34100Y25467D02*
G03*
X33900Y25950I-683J0D01*
G01*
X33750Y26312D02*
G03*
X33900Y25950I512J0D01*
G01*
X32550Y27535D02*
G03*
X34484Y22866I6603J-0D01*
G01*
X21300Y32595D02*
G03*
X21579Y31921I954J0D01*
G01*
Y31921D02*
G03*
X21750Y31850I171J171D01*
G01*
X21457Y30643D02*
G03*
X22164Y30350I707J707D01*
G01*
X20900Y31614D02*
G03*
X21193Y30907I1000J0D01*
G01*
X21041Y32991D02*
G03*
X20900Y32650I341J-341D01*
G01*
X22183Y33850D02*
G03*
X21700Y33650I0J-683D01*
G01*
X19850Y24150D02*
G03*
X19709Y24491I-483J0D01*
G01*
X22300Y35814D02*
G03*
X22593Y35107I1000J0D01*
G01*
X25650Y32500D02*
G03*
X25900Y33104I-604J604D01*
G01*
X31693Y28593D02*
G03*
X31400Y27886I707J-707D01*
G01*
X37140Y25860D02*
G03*
X37314Y25788I175J175D01*
G01*
X37139Y25861D02*
G03*
X37140Y25860I175J175D01*
G01*
X25250Y29800D02*
G03*
X25150Y29559I241J-241D01*
G01*
Y29950D02*
G03*
X24900Y29346I604J-604D01*
G01*
X25250Y29800D02*
G03*
X25677Y29977I0J604D01*
G01*
X25650Y32114D02*
G03*
X25943Y31407I1000J0D01*
G01*
X25357Y30157D02*
G03*
X25650Y30864I-707J707D01*
G01*
X26257Y30557D02*
G03*
X26550Y31264I-707J707D01*
G01*
X24900Y28900D02*
G03*
X25265Y28749I365J365D01*
G01*
X41015Y17900D02*
G03*
X40385Y17900I-315J0D01*
G01*
X40015D02*
G03*
X39410Y18024I-315J0D01*
G01*
X28779Y35200D02*
G03*
X28900Y35250I0J171D01*
G01*
X29800Y35850D02*
G03*
X29288Y35638I0J-724D01*
G01*
X29307Y35243D02*
G03*
X30014Y34950I707J707D01*
G01*
X40956Y25788D02*
G03*
X41950Y26200I-0J1407D01*
G01*
X24988Y36491D02*
G03*
X24726Y36600I-262J-261D01*
G01*
X25150Y36100D02*
G03*
X24988Y36491I-554J-0D01*
G01*
X40350Y29491D02*
G03*
X40450Y29250I341J0D01*
G01*
X33593Y32618D02*
G03*
X33600Y32600I25J0D01*
G01*
X29150Y29850D02*
G03*
X29000Y29488I362J-362D01*
G01*
X36050Y28600D02*
G03*
X35975Y28585I0J-196D01*
G01*
X35059Y28250D02*
G03*
X35269Y28292I-0J548D01*
G01*
X22950Y30900D02*
G03*
X22915Y30985I-121J0D01*
G01*
X22657Y28957D02*
G03*
X22950Y29664I-707J707D01*
G01*
X23200Y28900D02*
G03*
X23235Y28815I121J0D01*
G01*
X34050Y27450D02*
G03*
X34150Y27691I-241J241D01*
G01*
X34371Y28250D02*
G03*
X34250Y28200I0J-171D01*
G01*
X34221Y28171D02*
G03*
X34150Y28000I171J-171D01*
G01*
X29865Y27465D02*
G03*
X29900Y27550I-85J85D01*
G01*
X31272Y35896D02*
G03*
X31250Y35950I-77J0D01*
G01*
X27500Y32686D02*
G03*
X27207Y33393I-1000J0D01*
G01*
X37707Y30957D02*
G03*
X38000Y31664I-707J707D01*
G01*
X37529Y30850D02*
G03*
X37650Y30900I0J171D01*
G01*
X31957Y25107D02*
G03*
X32250Y25814I-707J707D01*
G01*
X31693Y24843D02*
G03*
X31400Y24136I707J-707D01*
G01*
X31107Y20307D02*
G03*
X31400Y21014I-707J707D01*
G01*
X33400Y20250D02*
G03*
X33600Y20733I-483J483D01*
G01*
X32286Y19550D02*
G03*
X32993Y19843I0J1000D01*
G01*
X31764Y19550D02*
G03*
X31057Y19257I0J-1000D01*
G01*
X33708Y20158D02*
G03*
X34001Y20865I-707J707D01*
G01*
X32517Y19250D02*
G03*
X33000Y19450I0J683D01*
G01*
X32450Y19250D02*
G03*
X31767Y18967I0J-966D01*
G01*
X32900Y18950D02*
G03*
X33327Y19127I0J604D01*
G01*
X32900Y18950D02*
G03*
X32644Y18844I0J-362D01*
G01*
X34600Y20400D02*
G03*
X34700Y20641I-241J241D01*
G01*
X37200Y31650D02*
G03*
X37300Y31891I-241J241D01*
G01*
X39970Y42570D02*
G03*
X40210Y43150I-580J580D01*
G01*
X35210Y33150D02*
G03*
X35500Y32450I990J0D01*
G01*
X35364Y28150D02*
G03*
X34657Y27857I0J-1000D01*
G01*
X38014Y30100D02*
G03*
X37307Y29807I0J-1000D01*
G01*
X41906Y27944D02*
G03*
X41650Y28050I-256J-256D01*
G01*
X42200Y27400D02*
G03*
X42023Y27827I-604J0D01*
G01*
X41950Y26200D02*
G03*
X42200Y26804I-604J604D01*
G01*
X41912Y25800D02*
G03*
X41550Y25650I0J-512D01*
G01*
X42433Y26000D02*
G03*
X41950Y25800I0J-683D01*
G01*
X44100Y25900D02*
G03*
X43859Y26000I-241J-241D01*
G01*
X32550Y29606D02*
G03*
X32307Y30193I-829J-0D01*
G01*
X44300Y25417D02*
G03*
X44100Y25900I-683J0D01*
G01*
X44007Y23487D02*
G03*
X44300Y24194I-707J707D01*
G01*
X39443Y27407D02*
G03*
X38736Y27700I-707J-707D01*
G01*
X41357Y26907D02*
G03*
X41650Y27614I-707J707D01*
G01*
X41164Y28050D02*
G03*
X40457Y27757I0J-1000D01*
G01*
X39380Y29200D02*
G03*
X38897Y29400I-483J-483D01*
G01*
X38293Y40233D02*
G03*
X38000Y39526I707J-707D01*
G01*
X38043Y40643D02*
G03*
X37750Y39936I707J-707D01*
G01*
X38917Y42417D02*
G03*
X39210Y43124I-707J707D01*
G01*
X37793Y41293D02*
G03*
X37500Y40586I707J-707D01*
G01*
X37593Y42533D02*
G03*
X37300Y41826I707J-707D01*
G01*
X36210Y39954D02*
G03*
X36502Y39248I1000J0D01*
G01*
X28210Y42804D02*
G03*
X28503Y42097I1000J0D01*
G01*
X33800Y37250D02*
G03*
X33517Y37933I-966J-0D01*
G01*
X31210Y41993D02*
G03*
X32450Y39000I4232J-0D01*
G01*
X33250Y37250D02*
G03*
X33179Y37421I-241J0D01*
G01*
X34550Y33300D02*
G03*
X34318Y33860I-791J0D01*
G01*
X33800Y34869D02*
G03*
X34147Y34031I1185J0D01*
G01*
X32210Y39936D02*
G03*
X32503Y39228I1000J0D01*
G01*
X33250Y34883D02*
G03*
X33768Y33632I1770J0D01*
G01*
X34000Y33250D02*
G03*
X33894Y33506I-362J0D01*
G01*
X34050Y37250D02*
G03*
X33745Y37986I-1041J0D01*
G01*
X34050Y34896D02*
G03*
X34343Y34188I1000J0D01*
G01*
X33593Y32797D02*
G03*
X33373Y33327I-749J0D01*
G01*
X32850Y34564D02*
G03*
X33143Y33857I1000J-0D01*
G01*
X32550Y36396D02*
G03*
X32257Y37103I-1000J0D01*
G01*
X32550Y34564D02*
G03*
X32843Y33857I1000J0D01*
G01*
X25150Y35864D02*
G03*
X25443Y35157I1000J0D01*
G01*
X26767Y29300D02*
G03*
X27250Y29500I0J683D01*
G01*
D02*
G03*
X27500Y30104I-604J604D01*
G01*
X30100Y26650D02*
G03*
X30221Y26600I121J121D01*
G01*
X27993Y23343D02*
G03*
X27700Y22636I707J-707D01*
G01*
X29550Y27250D02*
G03*
X29721Y27321I0J241D01*
G01*
X29900Y28159D02*
G03*
X29800Y28400I-341J0D01*
G01*
D02*
G03*
X29559Y28500I-241J-241D01*
G01*
X28232Y27646D02*
G03*
X28939Y27939I0J1000D01*
G01*
X29500Y29450D02*
G03*
X29550Y29571I-121J121D01*
G01*
X29017Y29250D02*
G03*
X29500Y29450I0J683D01*
G01*
X28350Y29250D02*
G03*
X28009Y29109I0J-483D01*
G01*
X27053Y28473D02*
G03*
X27600Y28700I0J774D01*
G01*
X27010Y29024D02*
G03*
X27717Y29317I0J1000D01*
G01*
X41586Y32772D02*
G03*
X40879Y32479I0J-1000D01*
G01*
X28664Y29000D02*
G03*
X27957Y28707I0J-1000D01*
G01*
X27303Y28198D02*
G03*
X27550Y28300I0J349D01*
G01*
X31543Y32457D02*
G03*
X30836Y32750I-707J-707D01*
G01*
X20550Y22636D02*
G03*
X20257Y23343I-1000J0D01*
G01*
X20550Y21314D02*
G03*
X20843Y20607I1000J0D01*
G01*
X19850Y24104D02*
G03*
X20100Y23500I854J0D01*
G01*
X20150Y22436D02*
G03*
X19857Y23143I-1000J0D01*
G01*
X32243Y33257D02*
G03*
X31536Y33550I-707J-707D01*
G01*
X20350Y31300D02*
G03*
X20456Y31044I362J0D01*
G01*
X21257Y30243D02*
G03*
X21964Y29950I707J707D01*
G01*
X30328Y37618D02*
G03*
X30035Y38325I-1000J0D01*
G01*
X28900Y33671D02*
G03*
X28950Y33550I171J0D01*
G01*
X29725Y34576D02*
G03*
X29300Y34400I0J-601D01*
G01*
X35364Y28150D02*
X39300D01*
X35494Y30020D02*
X36444D01*
X34602Y29525D02*
X36100Y29800D01*
X33232Y29525D02*
X34602D01*
X37139Y25861D02*
X37140Y25860D01*
X40450Y27750D02*
Y28450D01*
X40388Y27212D02*
X40450Y27150D01*
X36750Y27900D02*
X38727D01*
X38728Y27900D01*
X33400Y26800D02*
X34050Y27450D01*
X32900Y26800D02*
X33400D01*
X33850Y26412D02*
Y26550D01*
X33750Y26312D02*
X33850Y26412D01*
X38086Y29446D02*
X38851D01*
X37983Y29550D02*
X38086Y29446D01*
X37700Y29550D02*
X37983D01*
X38851Y29446D02*
X38897Y29400D01*
X37500Y31700D02*
Y40586D01*
X37493Y31547D02*
Y31693D01*
X37475Y31529D02*
X37493Y31547D01*
Y31693D02*
X37500Y31700D01*
X37050Y31550D02*
X37100D01*
X37200Y31650D01*
X37060Y42878D02*
X37210Y43028D01*
X37060Y31866D02*
Y42878D01*
X37550Y31150D02*
X37750Y31350D01*
Y39936D01*
X37379Y30700D02*
X37529Y30850D01*
X37050Y30700D02*
X37379D01*
X34000Y32700D02*
Y33250D01*
X33800Y33100D02*
Y33141D01*
X35050Y32600D02*
Y33231D01*
X35000Y33281D02*
X35050Y33231D01*
X35000Y33281D02*
Y33281D01*
X34600Y33250D02*
X34750D01*
X34550Y33300D02*
X34600Y33250D01*
X34343Y34188D02*
X34495Y34037D01*
X34496Y34036D01*
X41800Y23750D02*
X43450Y25400D01*
X35464Y23750D02*
X41800D01*
X34200Y24600D02*
X34757Y24043D01*
X34100Y24950D02*
Y25467D01*
Y24841D02*
Y24950D01*
X32550Y29606D02*
Y29606D01*
Y27535D02*
Y29606D01*
X34484Y22866D02*
X39348Y18002D01*
X41586Y32772D02*
X43950D01*
X40250Y31850D02*
X40879Y32479D01*
X21962Y31850D02*
X22450D01*
X21750D02*
X21962D01*
X21300Y32714D02*
Y32850D01*
Y32595D02*
Y32714D01*
X22164Y30350D02*
X22500D01*
X21193Y30907D02*
X21457Y30643D01*
X20900Y31678D02*
Y32650D01*
Y31614D02*
Y31678D01*
X21041Y32991D02*
X21700Y33650D01*
X19600Y24600D02*
X19709Y24491D01*
X19650Y23350D02*
X19857Y23143D01*
X22593Y35107D02*
X22600Y35100D01*
X25650Y32114D02*
Y32500D01*
X22300Y35814D02*
Y38200D01*
X23850Y38250D02*
Y38450D01*
Y38250D02*
X24100Y38000D01*
X29550Y24900D02*
Y25750D01*
X29700Y26000D02*
Y26175D01*
X29650Y26225D02*
X29700Y26175D01*
X31400Y27143D02*
Y27886D01*
X31693Y28593D02*
X32100Y29000D01*
X37314Y25788D02*
X40956Y25788D01*
X35550Y27450D02*
X37139Y25861D01*
X26550Y31264D02*
Y32400D01*
X25150Y29300D02*
X26050D01*
X25150Y29950D02*
X25357Y30157D01*
X25677Y29977D02*
X26257Y30557D01*
X25650Y30864D02*
Y32114D01*
X25943Y31407D02*
X26200Y31150D01*
X25150Y29300D02*
Y29559D01*
X25265Y28749D02*
X26050D01*
X24900Y28900D02*
Y29346D01*
X39348Y18002D02*
X39368Y18002D01*
X40015Y17900D02*
X40385D01*
X39389Y18002D02*
X39404Y18017D01*
X39368Y18002D02*
X39389Y18002D01*
X39404Y18017D02*
X39410Y18024D01*
X41015Y17900D02*
X41700D01*
X28900Y35250D02*
X29288Y35638D01*
X29300Y35250D02*
X29307Y35243D01*
X30014Y34950D02*
X30328D01*
X24100Y36600D02*
Y38000D01*
X24350Y36600D02*
X24726D01*
X24726Y36600D01*
X38150Y29600D02*
X38700D01*
X31400Y26600D02*
Y27143D01*
X40450Y28450D02*
Y29250D01*
X40350Y29491D02*
Y30050D01*
X32350Y32750D02*
X34787Y30313D01*
X32243Y33257D02*
X32800Y32700D01*
X33593Y32618D02*
Y32797D01*
X31272Y35324D02*
Y35896D01*
X22281Y28100D02*
Y28100D01*
X21800Y27619D02*
X22281Y28100D01*
X21318Y28100D02*
X21800Y27619D01*
X21318Y28100D02*
X21319D01*
X21800Y28582D01*
Y29050D01*
X23850Y31450D02*
X24200D01*
X32300Y25864D02*
Y28150D01*
X29000Y29450D02*
Y29488D01*
X35269Y28292D02*
X35975Y28585D01*
X36050Y28600D02*
X36050D01*
X34371Y28250D02*
X35059D01*
X32250Y25814D02*
X32300Y25864D01*
X21964Y29950D02*
X22500D01*
Y29600D02*
Y29950D01*
X21800Y28100D02*
X22657Y28957D01*
X22450Y31450D02*
X22915Y30985D01*
X22950Y29664D02*
Y30900D01*
X23235Y28815D02*
X25050Y27000D01*
X34150Y27691D02*
Y28000D01*
X34221Y28171D02*
X34250Y28200D01*
X29721Y27321D02*
X29865Y27465D01*
X29350Y28500D02*
X29559D01*
X26050Y29300D02*
X26767D01*
X25443Y35157D02*
X27207Y33393D01*
X38000Y31664D02*
Y39526D01*
X37650Y30900D02*
X37707Y30957D01*
X26050Y29024D02*
X27010D01*
X31693Y24843D02*
X31957Y25107D01*
X31400Y21014D02*
Y24136D01*
X28700Y17900D02*
X31107Y20307D01*
X32993Y19843D02*
X33400Y20250D01*
X31764Y19550D02*
X32286D01*
X29700Y17900D02*
X31057Y19257D01*
X33600Y20733D02*
Y21200D01*
X33000Y19450D02*
X33708Y20158D01*
X32450Y19250D02*
X32517D01*
X30700Y17900D02*
X31767Y18967D01*
X34001Y20865D02*
Y21250D01*
X33327Y19127D02*
X34600Y20400D01*
X31700Y17900D02*
X32644Y18844D01*
X34700Y20641D02*
Y20900D01*
X38043Y40643D02*
X39970Y42570D01*
X34650Y27850D02*
X34657Y27857D01*
X37100Y29600D02*
X37307Y29807D01*
X29650Y26225D02*
X29771Y26200D01*
X41164Y28050D02*
X41650D01*
X41906Y27944D02*
X42023Y27827D01*
X42200Y26804D02*
Y27400D01*
X36200Y27700D02*
X38736D01*
X41912Y25800D02*
X41950D01*
X42433Y26000D02*
X43859D01*
X32150Y30350D02*
X32307Y30193D01*
X44300Y24194D02*
Y25417D01*
X43470Y22950D02*
X44007Y23487D01*
X39443Y27407D02*
X40450Y26400D01*
X40850D02*
X41357Y26907D01*
X41650Y27614D02*
Y27650D01*
X40450Y27750D02*
X40457Y27757D01*
X40850Y27150D02*
Y27750D01*
X38014Y30100D02*
X39400D01*
X38293Y40233D02*
X41210Y43150D01*
X37793Y41293D02*
X38917Y42417D01*
X39210Y43124D02*
Y43150D01*
X37210Y43028D02*
Y43150D01*
X37593Y42533D02*
X38210Y43150D01*
X37300Y31891D02*
Y41826D01*
X36502Y39248D02*
X36503Y39247D01*
X36210Y39954D02*
Y43150D01*
X28210Y42804D02*
Y43150D01*
X28503Y42097D02*
X33179Y37421D01*
X35210Y33150D02*
Y43150D01*
X31210Y41993D02*
Y43150D01*
X32450Y39000D02*
X33517Y37933D01*
X31210Y41993D02*
X31210Y41993D01*
X33250Y34883D02*
Y37250D01*
X34147Y34031D02*
X34318Y33860D01*
X33800Y34869D02*
Y37250D01*
X32210Y39936D02*
Y43150D01*
X32503Y39228D02*
X33745Y37986D01*
X33768Y33632D02*
X33894Y33506D01*
X34050Y34896D02*
Y37250D01*
X32850Y34564D02*
Y37100D01*
X27246Y42704D02*
X32850Y37100D01*
X33143Y33857D02*
X33759Y33241D01*
X27246Y42704D02*
Y43114D01*
X32843Y33857D02*
X33373Y33327D01*
X33373Y33327D01*
X32550Y34564D02*
Y36396D01*
X26210Y43150D02*
X32257Y37103D01*
X27210Y43150D02*
X27246Y43114D01*
X25150Y35864D02*
Y36100D01*
X27500Y30104D02*
Y32686D01*
X29771Y26200D02*
X31400D01*
X30221Y26600D02*
X31400D01*
X27993Y23343D02*
X29550Y24900D01*
X27700Y17900D02*
Y22636D01*
X29550Y26500D02*
Y27250D01*
Y25750D02*
Y26500D01*
X28939Y27939D02*
X29150Y28150D01*
Y27250D02*
Y28150D01*
X29900Y27550D02*
Y28159D01*
X26050Y27646D02*
X28232D01*
X29550Y29571D02*
Y29850D01*
X28350Y29250D02*
X29017D01*
X27600Y28700D02*
X28009Y29109D01*
X26050Y28473D02*
X27053D01*
X27717Y29317D02*
X29150Y30750D01*
X28664Y29000D02*
X29150D01*
X27550Y28300D02*
X27957Y28707D01*
X26050Y28198D02*
X27303D01*
X27850Y35200D02*
X28779D01*
X25900Y33104D02*
Y34000D01*
X31543Y32457D02*
X32050Y31950D01*
X29350Y32750D02*
X30836D01*
X20100Y23500D02*
X20257Y23343D01*
X20550Y21314D02*
Y22636D01*
X20843Y20607D02*
X20850Y20600D01*
X19850Y24104D02*
Y24150D01*
X20150Y20600D02*
Y22436D01*
X29350Y33550D02*
X31536D01*
X20456Y31044D02*
X21257Y30243D01*
X30328Y35324D02*
Y37618D01*
X25210Y43150D02*
X30035Y38325D01*
X28950Y32750D02*
Y33550D01*
X28900Y33671D02*
Y34400D01*
X29725Y34576D02*
X30328D01*
X22450Y31450D02*
X23450D01*
D45*
X39950Y27900D02*
G03*
X40050Y28141I-241J241D01*
G01*
X21807Y22343D02*
G03*
X22514Y22050I707J707D01*
G01*
X33837Y29082D02*
G03*
X33787Y29067I13J-132D01*
G01*
X33195Y28749D02*
G03*
X33185Y28742I31J-57D01*
G01*
X39650Y28800D02*
G03*
X39720Y28969I-169J169D01*
G01*
X43950Y33756D02*
G03*
X43922Y33825I-97J0D01*
G01*
X43950Y34544D02*
G03*
X43907Y34526I0J-61D01*
G01*
X43922Y34475D02*
G03*
X43950Y34544I-69J69D01*
G01*
X28373Y26527D02*
G03*
X27666Y26820I-707J-707D01*
G01*
X40050Y29700D02*
G03*
X39986Y29854I-217J0D01*
G01*
X41653Y34202D02*
G03*
X40898Y33890I0J-1068D01*
G01*
X36578Y29351D02*
G03*
X36617Y29369I-6J65D01*
G01*
X41646Y34097D02*
G03*
X41129Y33880I7J-741D01*
G01*
X41654Y34097D02*
G03*
X41646Y34097I0J-1000D01*
G01*
X29210Y42299D02*
G03*
X29503Y41592I1000J0D01*
G01*
X33600Y37250D02*
G03*
X33427Y37668I-591J0D01*
G01*
X33600Y34866D02*
G03*
X34003Y33892I1377J0D01*
G01*
X34350Y33250D02*
G03*
X34141Y33754I-712J0D01*
G01*
X26513Y22115D02*
G03*
X26578Y22050I65J0D01*
G01*
X26513Y22115D02*
G03*
X26398Y22115I-58J0D01*
G01*
X26333Y22050D02*
G03*
X26398Y22115I0J65D01*
G01*
X27027Y24973D02*
G03*
X26600Y25150I-427J-427D01*
G01*
X27350Y24236D02*
G03*
X27057Y24943I-1000J0D01*
G01*
X21764Y25150D02*
G03*
X21057Y24857I0J-1000D01*
G01*
X26907Y22207D02*
G03*
X27200Y22914I-707J707D01*
G01*
X33770Y29192D02*
X33785Y29207D01*
X33735Y29192D02*
X33770D01*
X33285Y28950D02*
X33735Y29192D01*
X33285Y28950D02*
X33285Y28950D01*
X33050Y28950D02*
X33285D01*
X33904Y29218D02*
X33952Y29267D01*
X33785Y29207D02*
X33904Y29218D01*
X29200Y26550D02*
Y26750D01*
X29150Y26500D02*
X29200Y26550D01*
X26050Y27095D02*
X28088Y27025D01*
X40050Y28141D02*
Y29700D01*
X34350Y33250D02*
X34600Y33000D01*
X21350Y22800D02*
X21807Y22343D01*
X28373Y26527D02*
X29150Y25750D01*
Y25400D02*
Y25750D01*
X33195Y28749D02*
X33787Y29067D01*
X28104Y27023D02*
X29150Y26500D01*
X41654Y34097D02*
X43650D01*
X43922Y33825D01*
X41653Y34202D02*
X43650D01*
X41653D02*
X41653D01*
X43650D02*
X43922Y34475D01*
X22514Y22050D02*
X26300D01*
X26050Y27095D02*
X28090Y27030D01*
X28104Y27023D01*
X26050Y26820D02*
X27666D01*
X39740Y30100D02*
X39986Y29854D01*
X33952Y29267D02*
X33963Y29273D01*
X36537Y29528D01*
X40898Y33890D01*
X36618Y29369D02*
X41129Y33880D01*
X33837Y29082D02*
X36578Y29351D01*
X33100Y28672D02*
X33185Y28742D01*
X36617Y29369D02*
X36618Y29369D01*
X39720Y28969D02*
Y29200D01*
X33100Y28600D02*
Y28672D01*
X41129Y33880D02*
X41129D01*
X41646Y34097D02*
X41646Y34097D01*
X29210Y42299D02*
Y43150D01*
X29503Y41592D02*
X33427Y37668D01*
X33600Y34866D02*
Y37250D01*
X34003Y33892D02*
X34141Y33754D01*
X21764Y25150D02*
X26600D01*
X26578Y22050D02*
X26750D01*
X26513Y22115D02*
Y22115D01*
X26398Y22115D02*
Y22115D01*
X26300Y22050D02*
X26333D01*
X27350Y23850D02*
Y24236D01*
X27027Y24973D02*
X27057Y24943D01*
X20500Y24300D02*
X21057Y24857D01*
X26750Y22050D02*
X26907Y22207D01*
X27200Y22914D02*
Y23250D01*
D46*
X36850Y31633D02*
G03*
X37050Y31150I683J0D01*
G01*
X36850Y38409D02*
Y38409D01*
Y31633D02*
Y38409D01*
D47*
X43450Y25400D02*
G03*
X43365Y25365I0J-121D01*
G01*
X41659Y23800D02*
G03*
X41900Y23900I0J341D01*
G01*
X33750Y25714D02*
G03*
X34043Y25007I1000J0D01*
G01*
X44650Y32750D02*
G03*
X44597Y32772I-53J-53D01*
G01*
X42614Y31850D02*
G03*
X43321Y32143I0J1000D01*
G01*
X21600Y32000D02*
G03*
X21962Y31850I362J362D01*
G01*
X21300Y32714D02*
G03*
X21593Y32007I1000J0D01*
G01*
X21903Y30597D02*
G03*
X22500Y30350I597J597D01*
G01*
X20900Y31678D02*
G03*
X21093Y31407I900J436D01*
G01*
X20800Y32114D02*
G03*
X20900Y31678I1000J0D01*
G01*
X21093Y33343D02*
G03*
X20800Y32636I707J-707D01*
G01*
X22014Y33850D02*
G03*
X21307Y33557I0J-1000D01*
G01*
X22686Y33850D02*
G03*
X23393Y34143I0J1000D01*
G01*
X20714Y35100D02*
G03*
X20007Y34807I0J-1000D01*
G01*
X19693Y34493D02*
G03*
X19400Y33786I707J-707D01*
G01*
X21950Y40000D02*
X23350Y38600D01*
Y34900D02*
X23750Y34500D01*
X23350Y34900D02*
Y38600D01*
X35250Y23800D02*
X41659D01*
X34100Y24950D02*
X35250Y23800D01*
X34043Y25007D02*
X34100Y24950D01*
X33750Y25714D02*
Y26312D01*
X41900Y23900D02*
X43365Y25365D01*
X43321Y32143D02*
X43950Y32772D01*
X44597D01*
X40250Y31850D02*
X42614D01*
X21593Y32007D02*
X21600Y32000D01*
X21093Y31407D02*
X21903Y30597D01*
X20800Y32114D02*
Y32636D01*
X21093Y33343D02*
X21307Y33557D01*
X22183Y33850D02*
X22686D01*
X22014D02*
X22183D01*
X23393Y34143D02*
X23750Y34500D01*
X19400Y25000D02*
Y33786D01*
X19693Y34493D02*
X20007Y34807D01*
X20714Y35100D02*
X21500D01*
D48*
X39404Y18017D02*
D03*
X39368Y18002D02*
D03*
D49*
X40898Y33890D02*
D03*
D50*
X26700Y17900D02*
D03*
X20350Y30300D02*
D03*
X25700Y17900D02*
D03*
X24700D02*
D03*
X27700D02*
D03*
X38700D02*
D03*
X40700D02*
D03*
X39700D02*
D03*
X20350Y31300D02*
D03*
X32210Y43150D02*
D03*
X27210D02*
D03*
X28210D02*
D03*
X26210D02*
D03*
X24210D02*
D03*
X25210D02*
D03*
X29210D02*
D03*
X31210D02*
D03*
X30210D02*
D03*
X32700Y17900D02*
D03*
X28700D02*
D03*
X29700D02*
D03*
X31700D02*
D03*
X30700D02*
D03*
X39210Y43150D02*
D03*
X40210D02*
D03*
X38210D02*
D03*
X41700Y17900D02*
D03*
X36700D02*
D03*
X37700D02*
D03*
X35700D02*
D03*
X33700D02*
D03*
X34700D02*
D03*
X34210Y43150D02*
D03*
X33210D02*
D03*
X35210D02*
D03*
X37210D02*
D03*
X36210D02*
D03*
X41210D02*
D03*
D51*
X18033Y25603D02*
D03*
Y22197D02*
D03*
D52*
X16458Y25603D02*
D03*
Y22197D02*
D03*
D53*
X17836Y22762D02*
D03*
Y25038D02*
D03*
D54*
X45161Y33185D02*
D03*
Y35115D02*
D03*
D55*
X37100Y28400D02*
D03*
X33050Y28950D02*
D03*
X24500Y37600D02*
D03*
Y37300D02*
D03*
X34500Y26050D02*
D03*
X34800Y25450D02*
D03*
X34500D02*
D03*
X35050D02*
D03*
X34400Y25700D02*
D03*
X29694Y26744D02*
D03*
X29200Y26750D02*
D03*
X35525Y28650D02*
D03*
X33050Y29450D02*
D03*
X23000Y35850D02*
D03*
X28750Y39250D02*
D03*
X39950Y27900D02*
D03*
X33850Y28850D02*
D03*
X33300Y30900D02*
D03*
X34000Y30800D02*
D03*
X34100Y31300D02*
D03*
X32950Y27200D02*
D03*
X33325Y27100D02*
D03*
X33850Y26550D02*
D03*
X37100Y28850D02*
D03*
X37400Y28600D02*
D03*
X37650Y29075D02*
D03*
X37700Y29550D02*
D03*
X37475Y31529D02*
D03*
X37050Y31550D02*
D03*
X37060Y31866D02*
D03*
X37050Y31150D02*
D03*
Y30700D02*
D03*
X37550Y31150D02*
D03*
X34000Y32700D02*
D03*
X33800Y33100D02*
D03*
X35050Y32600D02*
D03*
X34600Y33000D02*
D03*
X34250Y32900D02*
D03*
X34750Y33250D02*
D03*
X32900Y26800D02*
D03*
X21300Y32850D02*
D03*
X21350Y22800D02*
D03*
X19400Y25000D02*
D03*
X19600Y24600D02*
D03*
X19650Y23350D02*
D03*
X22600Y35100D02*
D03*
X22300Y38200D02*
D03*
X29150Y25400D02*
D03*
X29700Y26000D02*
D03*
X29750Y25450D02*
D03*
X34850Y27300D02*
D03*
X34450Y26650D02*
D03*
X35850Y26450D02*
D03*
X34600Y26850D02*
D03*
X35850Y25500D02*
D03*
X36000Y25750D02*
D03*
X19200Y38950D02*
D03*
X19650Y39100D02*
D03*
X28000Y39400D02*
D03*
X28400Y39250D02*
D03*
X23850Y38450D02*
D03*
X32100Y29000D02*
D03*
X35300Y30300D02*
D03*
X34400Y30400D02*
D03*
X33800Y30450D02*
D03*
X33450Y30200D02*
D03*
X35050Y29900D02*
D03*
X35500Y30550D02*
D03*
X35100Y30700D02*
D03*
X35500Y30850D02*
D03*
X37000Y30250D02*
D03*
X33163Y27448D02*
D03*
X39650Y28800D02*
D03*
X34750Y31250D02*
D03*
X34700Y30800D02*
D03*
X35150Y31050D02*
D03*
X35500Y31200D02*
D03*
X21500Y35100D02*
D03*
X34450Y26388D02*
D03*
X35600Y26650D02*
D03*
X35300Y25450D02*
D03*
X35650D02*
D03*
X35475D02*
D03*
X35950Y26200D02*
D03*
X36000Y25950D02*
D03*
X35550Y27450D02*
D03*
X35750Y27850D02*
D03*
X25650Y32500D02*
D03*
X26200Y31150D02*
D03*
X26550Y32400D02*
D03*
X25150Y29300D02*
D03*
X34050Y26850D02*
D03*
X35950Y24850D02*
D03*
X29800Y35850D02*
D03*
X41600Y34850D02*
D03*
X24650Y23350D02*
D03*
X25300D02*
D03*
X24950D02*
D03*
X24700Y23650D02*
D03*
X25000D02*
D03*
X25300D02*
D03*
X24750Y23950D02*
D03*
X25250D02*
D03*
X34700Y29800D02*
D03*
X36100D02*
D03*
X38150Y29600D02*
D03*
X38700D02*
D03*
X33700Y29900D02*
D03*
X33650Y30750D02*
D03*
X33550Y31150D02*
D03*
X37850Y26000D02*
D03*
X40050Y29700D02*
D03*
X36850Y27000D02*
D03*
X32750Y27450D02*
D03*
X31400Y27143D02*
D03*
X40350Y30050D02*
D03*
X32800Y32700D02*
D03*
X32350Y32750D02*
D03*
X32100Y34550D02*
D03*
X33600Y32600D02*
D03*
X30800Y35600D02*
D03*
X21800Y29050D02*
D03*
X24200Y31450D02*
D03*
X24400Y32100D02*
D03*
X32300Y28450D02*
D03*
Y28150D02*
D03*
X30300Y28800D02*
D03*
X35150Y28600D02*
D03*
X33600Y27300D02*
D03*
X22500Y29600D02*
D03*
X23200Y28900D02*
D03*
X25050Y27000D02*
D03*
X34250Y27100D02*
D03*
X29350Y28500D02*
D03*
X33100Y28600D02*
D03*
X33500Y28550D02*
D03*
X32200Y35550D02*
D03*
X31250Y35950D02*
D03*
X32100Y34900D02*
D03*
X31800Y34850D02*
D03*
X44650Y32750D02*
D03*
X37100Y29250D02*
D03*
X33350Y20800D02*
D03*
X34001Y21250D02*
D03*
X33600Y21200D02*
D03*
X32950D02*
D03*
X32650Y20750D02*
D03*
X32250Y21150D02*
D03*
X34700Y20900D02*
D03*
X34550Y28600D02*
D03*
X36050D02*
D03*
X34200D02*
D03*
X37100Y29600D02*
D03*
X36050Y32450D02*
D03*
X34350Y27850D02*
D03*
X35750Y32450D02*
D03*
X32150Y30350D02*
D03*
X36750Y27900D02*
D03*
X35500Y32450D02*
D03*
X34850Y28600D02*
D03*
X32050Y31950D02*
D03*
X32150Y31650D02*
D03*
X34650Y27850D02*
D03*
X36200Y27700D02*
D03*
X41200Y35650D02*
D03*
X41250Y36200D02*
D03*
X41150Y33500D02*
D03*
Y33000D02*
D03*
X39300Y28150D02*
D03*
X41550Y25650D02*
D03*
X24350Y36600D02*
D03*
X24100D02*
D03*
X31800Y34600D02*
D03*
X27850Y35200D02*
D03*
X27500D02*
D03*
X27100D02*
D03*
X26150Y34150D02*
D03*
X25900Y34000D02*
D03*
X23750Y34500D02*
D03*
X21950Y40000D02*
D03*
X25550Y34150D02*
D03*
X29000Y29450D02*
D03*
X20250Y24025D02*
D03*
X20600Y23850D02*
D03*
X25000Y25800D02*
D03*
X27200Y23250D02*
D03*
X27350Y23850D02*
D03*
X29750Y35000D02*
D03*
X20100Y38650D02*
D03*
X20500Y24300D02*
D03*
X46634Y35891D02*
D03*
Y32749D02*
D03*
M02*
