G04*
G04 #@! TF.GenerationSoftware,Altium Limited,Altium Designer,20.2.6 (244)*
G04*
G04 Layer_Color=16711935*
%FSLAX24Y24*%
%MOIN*%
G70*
G04*
G04 #@! TF.SameCoordinates,497DB355-11F3-479B-B1E2-BDA1D3AC948B*
G04*
G04*
G04 #@! TF.FilePolarity,Negative*
G04*
G01*
G75*
G04:AMPARAMS|DCode=28|XSize=28mil|YSize=28mil|CornerRadius=9mil|HoleSize=0mil|Usage=FLASHONLY|Rotation=0.000|XOffset=0mil|YOffset=0mil|HoleType=Round|Shape=RoundedRectangle|*
%AMROUNDEDRECTD28*
21,1,0.0280,0.0100,0,0,0.0*
21,1,0.0100,0.0280,0,0,0.0*
1,1,0.0180,0.0050,-0.0050*
1,1,0.0180,-0.0050,-0.0050*
1,1,0.0180,-0.0050,0.0050*
1,1,0.0180,0.0050,0.0050*
%
%ADD28ROUNDEDRECTD28*%
G04:AMPARAMS|DCode=29|XSize=28mil|YSize=28mil|CornerRadius=9mil|HoleSize=0mil|Usage=FLASHONLY|Rotation=270.000|XOffset=0mil|YOffset=0mil|HoleType=Round|Shape=RoundedRectangle|*
%AMROUNDEDRECTD29*
21,1,0.0280,0.0100,0,0,270.0*
21,1,0.0100,0.0280,0,0,270.0*
1,1,0.0180,-0.0050,-0.0050*
1,1,0.0180,-0.0050,0.0050*
1,1,0.0180,0.0050,0.0050*
1,1,0.0180,0.0050,-0.0050*
%
%ADD29ROUNDEDRECTD29*%
%ADD38C,0.0580*%
%ADD39O,0.0907X0.0474*%
%ADD40O,0.0710X0.0474*%
%ADD41C,0.0336*%
%ADD42C,0.0316*%
%ADD43C,0.0257*%
G04:AMPARAMS|DCode=79|XSize=29.7mil|YSize=65.1mil|CornerRadius=9.4mil|HoleSize=0mil|Usage=FLASHONLY|Rotation=0.000|XOffset=0mil|YOffset=0mil|HoleType=Round|Shape=RoundedRectangle|*
%AMROUNDEDRECTD79*
21,1,0.0297,0.0463,0,0,0.0*
21,1,0.0108,0.0651,0,0,0.0*
1,1,0.0188,0.0054,-0.0231*
1,1,0.0188,-0.0054,-0.0231*
1,1,0.0188,-0.0054,0.0231*
1,1,0.0188,0.0054,0.0231*
%
%ADD79ROUNDEDRECTD79*%
G04:AMPARAMS|DCode=80|XSize=29.7mil|YSize=65.1mil|CornerRadius=9.4mil|HoleSize=0mil|Usage=FLASHONLY|Rotation=0.000|XOffset=0mil|YOffset=0mil|HoleType=Round|Shape=RoundedRectangle|*
%AMROUNDEDRECTD80*
21,1,0.0297,0.0463,0,0,0.0*
21,1,0.0108,0.0651,0,0,0.0*
1,1,0.0188,0.0054,-0.0231*
1,1,0.0188,-0.0054,-0.0231*
1,1,0.0188,-0.0054,0.0231*
1,1,0.0188,0.0054,0.0231*
%
%ADD80ROUNDEDRECTD80*%
%ADD81O,0.0454X0.0159*%
%ADD82O,0.0159X0.0454*%
%ADD83R,0.2734X0.2734*%
G04:AMPARAMS|DCode=84|XSize=17.4mil|YSize=39.5mil|CornerRadius=6.4mil|HoleSize=0mil|Usage=FLASHONLY|Rotation=180.000|XOffset=0mil|YOffset=0mil|HoleType=Round|Shape=RoundedRectangle|*
%AMROUNDEDRECTD84*
21,1,0.0174,0.0268,0,0,180.0*
21,1,0.0047,0.0395,0,0,180.0*
1,1,0.0127,-0.0024,0.0134*
1,1,0.0127,0.0024,0.0134*
1,1,0.0127,0.0024,-0.0134*
1,1,0.0127,-0.0024,-0.0134*
%
%ADD84ROUNDEDRECTD84*%
G04:AMPARAMS|DCode=85|XSize=27.7mil|YSize=31.6mil|CornerRadius=8.9mil|HoleSize=0mil|Usage=FLASHONLY|Rotation=270.000|XOffset=0mil|YOffset=0mil|HoleType=Round|Shape=RoundedRectangle|*
%AMROUNDEDRECTD85*
21,1,0.0277,0.0138,0,0,270.0*
21,1,0.0098,0.0316,0,0,270.0*
1,1,0.0178,-0.0069,-0.0049*
1,1,0.0178,-0.0069,0.0049*
1,1,0.0178,0.0069,0.0049*
1,1,0.0178,0.0069,-0.0049*
%
%ADD85ROUNDEDRECTD85*%
G04:AMPARAMS|DCode=86|XSize=58mil|YSize=102.5mil|CornerRadius=16.5mil|HoleSize=0mil|Usage=FLASHONLY|Rotation=90.000|XOffset=0mil|YOffset=0mil|HoleType=Round|Shape=RoundedRectangle|*
%AMROUNDEDRECTD86*
21,1,0.0580,0.0695,0,0,90.0*
21,1,0.0250,0.1025,0,0,90.0*
1,1,0.0330,0.0347,0.0125*
1,1,0.0330,0.0347,-0.0125*
1,1,0.0330,-0.0347,-0.0125*
1,1,0.0330,-0.0347,0.0125*
%
%ADD86ROUNDEDRECTD86*%
G04:AMPARAMS|DCode=87|XSize=58mil|YSize=71mil|CornerRadius=16.5mil|HoleSize=0mil|Usage=FLASHONLY|Rotation=90.000|XOffset=0mil|YOffset=0mil|HoleType=Round|Shape=RoundedRectangle|*
%AMROUNDEDRECTD87*
21,1,0.0580,0.0380,0,0,90.0*
21,1,0.0250,0.0710,0,0,90.0*
1,1,0.0330,0.0190,0.0125*
1,1,0.0330,0.0190,-0.0125*
1,1,0.0330,-0.0190,-0.0125*
1,1,0.0330,-0.0190,0.0125*
%
%ADD87ROUNDEDRECTD87*%
%ADD88O,0.0867X0.0356*%
G04:AMPARAMS|DCode=89|XSize=17.4mil|YSize=39.5mil|CornerRadius=6.4mil|HoleSize=0mil|Usage=FLASHONLY|Rotation=90.000|XOffset=0mil|YOffset=0mil|HoleType=Round|Shape=RoundedRectangle|*
%AMROUNDEDRECTD89*
21,1,0.0174,0.0268,0,0,90.0*
21,1,0.0047,0.0395,0,0,90.0*
1,1,0.0127,0.0134,0.0024*
1,1,0.0127,0.0134,-0.0024*
1,1,0.0127,-0.0134,-0.0024*
1,1,0.0127,-0.0134,0.0024*
%
%ADD89ROUNDEDRECTD89*%
G04:AMPARAMS|DCode=90|XSize=67.1mil|YSize=67.1mil|CornerRadius=18.8mil|HoleSize=0mil|Usage=FLASHONLY|Rotation=180.000|XOffset=0mil|YOffset=0mil|HoleType=Round|Shape=RoundedRectangle|*
%AMROUNDEDRECTD90*
21,1,0.0671,0.0295,0,0,180.0*
21,1,0.0295,0.0671,0,0,180.0*
1,1,0.0375,-0.0148,0.0148*
1,1,0.0375,0.0148,0.0148*
1,1,0.0375,0.0148,-0.0148*
1,1,0.0375,-0.0148,-0.0148*
%
%ADD90ROUNDEDRECTD90*%
G04:AMPARAMS|DCode=91|XSize=24mil|YSize=24mil|CornerRadius=12mil|HoleSize=0mil|Usage=FLASHONLY|Rotation=90.000|XOffset=0mil|YOffset=0mil|HoleType=Round|Shape=RoundedRectangle|*
%AMROUNDEDRECTD91*
21,1,0.0240,0.0000,0,0,90.0*
21,1,0.0000,0.0240,0,0,90.0*
1,1,0.0240,0.0000,0.0000*
1,1,0.0240,0.0000,0.0000*
1,1,0.0240,0.0000,0.0000*
1,1,0.0240,0.0000,0.0000*
%
%ADD91ROUNDEDRECTD91*%
%ADD92R,0.1143X0.1182*%
G04:AMPARAMS|DCode=93|XSize=22mil|YSize=48mil|CornerRadius=8mil|HoleSize=0mil|Usage=FLASHONLY|Rotation=270.000|XOffset=0mil|YOffset=0mil|HoleType=Round|Shape=RoundedRectangle|*
%AMROUNDEDRECTD93*
21,1,0.0220,0.0320,0,0,270.0*
21,1,0.0060,0.0480,0,0,270.0*
1,1,0.0160,-0.0160,-0.0030*
1,1,0.0160,-0.0160,0.0030*
1,1,0.0160,0.0160,0.0030*
1,1,0.0160,0.0160,-0.0030*
%
%ADD93ROUNDEDRECTD93*%
G04:AMPARAMS|DCode=94|XSize=108mil|YSize=19.8mil|CornerRadius=7mil|HoleSize=0mil|Usage=FLASHONLY|Rotation=0.000|XOffset=0mil|YOffset=0mil|HoleType=Round|Shape=RoundedRectangle|*
%AMROUNDEDRECTD94*
21,1,0.1080,0.0059,0,0,0.0*
21,1,0.0941,0.0198,0,0,0.0*
1,1,0.0139,0.0470,-0.0030*
1,1,0.0139,-0.0470,-0.0030*
1,1,0.0139,-0.0470,0.0030*
1,1,0.0139,0.0470,0.0030*
%
%ADD94ROUNDEDRECTD94*%
G04:AMPARAMS|DCode=95|XSize=35.6mil|YSize=67.1mil|CornerRadius=10.9mil|HoleSize=0mil|Usage=FLASHONLY|Rotation=270.000|XOffset=0mil|YOffset=0mil|HoleType=Round|Shape=RoundedRectangle|*
%AMROUNDEDRECTD95*
21,1,0.0356,0.0453,0,0,270.0*
21,1,0.0138,0.0671,0,0,270.0*
1,1,0.0218,-0.0226,-0.0069*
1,1,0.0218,-0.0226,0.0069*
1,1,0.0218,0.0226,0.0069*
1,1,0.0218,0.0226,-0.0069*
%
%ADD95ROUNDEDRECTD95*%
G04:AMPARAMS|DCode=96|XSize=31.6mil|YSize=47.4mil|CornerRadius=9.9mil|HoleSize=0mil|Usage=FLASHONLY|Rotation=270.000|XOffset=0mil|YOffset=0mil|HoleType=Round|Shape=RoundedRectangle|*
%AMROUNDEDRECTD96*
21,1,0.0316,0.0276,0,0,270.0*
21,1,0.0118,0.0474,0,0,270.0*
1,1,0.0198,-0.0138,-0.0059*
1,1,0.0198,-0.0138,0.0059*
1,1,0.0198,0.0138,0.0059*
1,1,0.0198,0.0138,-0.0059*
%
%ADD96ROUNDEDRECTD96*%
G04:AMPARAMS|DCode=97|XSize=22mil|YSize=48mil|CornerRadius=8mil|HoleSize=0mil|Usage=FLASHONLY|Rotation=0.000|XOffset=0mil|YOffset=0mil|HoleType=Round|Shape=RoundedRectangle|*
%AMROUNDEDRECTD97*
21,1,0.0220,0.0320,0,0,0.0*
21,1,0.0060,0.0480,0,0,0.0*
1,1,0.0160,0.0030,-0.0160*
1,1,0.0160,-0.0030,-0.0160*
1,1,0.0160,-0.0030,0.0160*
1,1,0.0160,0.0030,0.0160*
%
%ADD97ROUNDEDRECTD97*%
G04:AMPARAMS|DCode=98|XSize=35.6mil|YSize=67.1mil|CornerRadius=10.9mil|HoleSize=0mil|Usage=FLASHONLY|Rotation=180.000|XOffset=0mil|YOffset=0mil|HoleType=Round|Shape=RoundedRectangle|*
%AMROUNDEDRECTD98*
21,1,0.0356,0.0453,0,0,180.0*
21,1,0.0138,0.0671,0,0,180.0*
1,1,0.0218,-0.0069,0.0226*
1,1,0.0218,0.0069,0.0226*
1,1,0.0218,0.0069,-0.0226*
1,1,0.0218,-0.0069,-0.0226*
%
%ADD98ROUNDEDRECTD98*%
D28*
X21750Y38550D02*
D03*
X36150Y34400D02*
D03*
X29000Y40100D02*
D03*
X28500D02*
D03*
X26550D02*
D03*
X27900Y37050D02*
D03*
X27300Y35850D02*
D03*
X27850D02*
D03*
X26750D02*
D03*
X19650Y38200D02*
D03*
X21750Y38150D02*
D03*
X19050Y38200D02*
D03*
X27850Y35450D02*
D03*
X27300D02*
D03*
X26750D02*
D03*
X27600Y40100D02*
D03*
Y39700D02*
D03*
X26550D02*
D03*
X36150Y34000D02*
D03*
X22600Y32700D02*
D03*
Y32300D02*
D03*
X22050Y32700D02*
D03*
Y32300D02*
D03*
X28500Y39700D02*
D03*
X29000D02*
D03*
X27900Y37450D02*
D03*
X19050Y38600D02*
D03*
X19650D02*
D03*
D29*
X35250Y26600D02*
D03*
X34850D02*
D03*
X38450Y31500D02*
D03*
Y31050D02*
D03*
X33750Y34500D02*
D03*
Y33950D02*
D03*
X38850Y28500D02*
D03*
Y29000D02*
D03*
X28600Y29050D02*
D03*
X30150Y28300D02*
D03*
X28600Y28500D02*
D03*
X20500Y37900D02*
D03*
X18850Y35300D02*
D03*
X40200Y35400D02*
D03*
Y36200D02*
D03*
Y34550D02*
D03*
Y33800D02*
D03*
Y33000D02*
D03*
X33350Y34500D02*
D03*
Y33950D02*
D03*
X30150Y29150D02*
D03*
X26700Y34500D02*
D03*
X29000Y29050D02*
D03*
Y28500D02*
D03*
X25850Y26550D02*
D03*
X25450D02*
D03*
X32440Y34000D02*
D03*
X32040D02*
D03*
X30150Y33950D02*
D03*
X30550D02*
D03*
X40600Y36200D02*
D03*
Y35400D02*
D03*
Y34550D02*
D03*
Y33800D02*
D03*
X38450Y28500D02*
D03*
X30150Y31800D02*
D03*
X30550D02*
D03*
Y29150D02*
D03*
Y31250D02*
D03*
X30150D02*
D03*
X30550Y28300D02*
D03*
Y32350D02*
D03*
X30150D02*
D03*
X38850Y31050D02*
D03*
Y31500D02*
D03*
X38450Y29850D02*
D03*
X38850D02*
D03*
X38450Y29000D02*
D03*
X30550Y30500D02*
D03*
X30150D02*
D03*
X38850Y30300D02*
D03*
X38450D02*
D03*
X25000Y20400D02*
D03*
X25400D02*
D03*
X40600Y33000D02*
D03*
X19250Y35300D02*
D03*
X27100Y34500D02*
D03*
X20500Y38700D02*
D03*
X20900D02*
D03*
Y37900D02*
D03*
D38*
X26700Y17900D02*
D03*
X20350Y30300D02*
D03*
X25700Y17900D02*
D03*
X24700D02*
D03*
X27700D02*
D03*
X38700D02*
D03*
X40700D02*
D03*
X39700D02*
D03*
X20350Y31300D02*
D03*
X32210Y43150D02*
D03*
X27210D02*
D03*
X28210D02*
D03*
X26210D02*
D03*
X24210D02*
D03*
X25210D02*
D03*
X29210D02*
D03*
X31210D02*
D03*
X30210D02*
D03*
X32700Y17900D02*
D03*
X28700D02*
D03*
X29700D02*
D03*
X31700D02*
D03*
X30700D02*
D03*
X39210Y43150D02*
D03*
X40210D02*
D03*
X38210D02*
D03*
X41700Y17900D02*
D03*
X36700D02*
D03*
X37700D02*
D03*
X35700D02*
D03*
X33700D02*
D03*
X34700D02*
D03*
X34210Y43150D02*
D03*
X33210D02*
D03*
X35210D02*
D03*
X37210D02*
D03*
X36210D02*
D03*
X41210D02*
D03*
D39*
X18033Y25603D02*
D03*
Y22197D02*
D03*
D40*
X16458Y25603D02*
D03*
Y22197D02*
D03*
D41*
X17836Y22762D02*
D03*
Y25038D02*
D03*
D42*
X45161Y33185D02*
D03*
Y35115D02*
D03*
D43*
X37100Y28400D02*
D03*
X33050Y28950D02*
D03*
X24500Y37600D02*
D03*
Y37300D02*
D03*
X34500Y26050D02*
D03*
X34800Y25450D02*
D03*
X34500D02*
D03*
X35050D02*
D03*
X34400Y25700D02*
D03*
X29694Y26744D02*
D03*
X29200Y26750D02*
D03*
X35525Y28650D02*
D03*
X33050Y29450D02*
D03*
X23000Y35850D02*
D03*
X28750Y39250D02*
D03*
X39950Y27900D02*
D03*
X33850Y28850D02*
D03*
X33300Y30900D02*
D03*
X34000Y30800D02*
D03*
X34100Y31300D02*
D03*
X32950Y27200D02*
D03*
X33325Y27100D02*
D03*
X33850Y26550D02*
D03*
X37100Y28850D02*
D03*
X37400Y28600D02*
D03*
X37650Y29075D02*
D03*
X37700Y29550D02*
D03*
X37475Y31529D02*
D03*
X37050Y31550D02*
D03*
X37060Y31866D02*
D03*
X37050Y31150D02*
D03*
Y30700D02*
D03*
X37550Y31150D02*
D03*
X34000Y32700D02*
D03*
X33800Y33100D02*
D03*
X35050Y32600D02*
D03*
X34600Y33000D02*
D03*
X34250Y32900D02*
D03*
X34750Y33250D02*
D03*
X32900Y26800D02*
D03*
X21300Y32850D02*
D03*
X21350Y22800D02*
D03*
X19400Y25000D02*
D03*
X19600Y24600D02*
D03*
X19650Y23350D02*
D03*
X22600Y35100D02*
D03*
X22300Y38200D02*
D03*
X29150Y25400D02*
D03*
X29700Y26000D02*
D03*
X29750Y25450D02*
D03*
X34850Y27300D02*
D03*
X34450Y26650D02*
D03*
X35850Y26450D02*
D03*
X34600Y26850D02*
D03*
X35850Y25500D02*
D03*
X36000Y25750D02*
D03*
X19200Y38950D02*
D03*
X19650Y39100D02*
D03*
X28000Y39400D02*
D03*
X28400Y39250D02*
D03*
X23850Y38450D02*
D03*
X32100Y29000D02*
D03*
X35300Y30300D02*
D03*
X34400Y30400D02*
D03*
X33800Y30450D02*
D03*
X33450Y30200D02*
D03*
X35050Y29900D02*
D03*
X35500Y30550D02*
D03*
X35100Y30700D02*
D03*
X35500Y30850D02*
D03*
X37000Y30250D02*
D03*
X33163Y27448D02*
D03*
X39650Y28800D02*
D03*
X34750Y31250D02*
D03*
X34700Y30800D02*
D03*
X35150Y31050D02*
D03*
X35500Y31200D02*
D03*
X21500Y35100D02*
D03*
X34450Y26388D02*
D03*
X35600Y26650D02*
D03*
X35300Y25450D02*
D03*
X35650D02*
D03*
X35475D02*
D03*
X35950Y26200D02*
D03*
X36000Y25950D02*
D03*
X35550Y27450D02*
D03*
X35750Y27850D02*
D03*
X25650Y32500D02*
D03*
X26200Y31150D02*
D03*
X26550Y32400D02*
D03*
X25150Y29300D02*
D03*
X34050Y26850D02*
D03*
X35950Y24850D02*
D03*
X29800Y35850D02*
D03*
X41600Y34850D02*
D03*
X24650Y23350D02*
D03*
X25300D02*
D03*
X24950D02*
D03*
X24700Y23650D02*
D03*
X25000D02*
D03*
X25300D02*
D03*
X24750Y23950D02*
D03*
X25250D02*
D03*
X34700Y29800D02*
D03*
X36100D02*
D03*
X38150Y29600D02*
D03*
X38700D02*
D03*
X33700Y29900D02*
D03*
X33650Y30750D02*
D03*
X33550Y31150D02*
D03*
X37850Y26000D02*
D03*
X40050Y29700D02*
D03*
X36850Y27000D02*
D03*
X32750Y27450D02*
D03*
X31400Y27143D02*
D03*
X40350Y30050D02*
D03*
X32800Y32700D02*
D03*
X32350Y32750D02*
D03*
X32100Y34550D02*
D03*
X33600Y32600D02*
D03*
X30800Y35600D02*
D03*
X21800Y29050D02*
D03*
X24200Y31450D02*
D03*
X24400Y32100D02*
D03*
X32300Y28450D02*
D03*
Y28150D02*
D03*
X30300Y28800D02*
D03*
X35150Y28600D02*
D03*
X33600Y27300D02*
D03*
X22500Y29600D02*
D03*
X23200Y28900D02*
D03*
X25050Y27000D02*
D03*
X34250Y27100D02*
D03*
X29350Y28500D02*
D03*
X33100Y28600D02*
D03*
X33500Y28550D02*
D03*
X32200Y35550D02*
D03*
X31250Y35950D02*
D03*
X32100Y34900D02*
D03*
X31800Y34850D02*
D03*
X44650Y32750D02*
D03*
X37100Y29250D02*
D03*
X33350Y20800D02*
D03*
X34001Y21250D02*
D03*
X33600Y21200D02*
D03*
X32950D02*
D03*
X32650Y20750D02*
D03*
X32250Y21150D02*
D03*
X34700Y20900D02*
D03*
X34550Y28600D02*
D03*
X36050D02*
D03*
X34200D02*
D03*
X37100Y29600D02*
D03*
X36050Y32450D02*
D03*
X34350Y27850D02*
D03*
X35750Y32450D02*
D03*
X32150Y30350D02*
D03*
X36750Y27900D02*
D03*
X35500Y32450D02*
D03*
X34850Y28600D02*
D03*
X32050Y31950D02*
D03*
X32150Y31650D02*
D03*
X34650Y27850D02*
D03*
X36200Y27700D02*
D03*
X41200Y35650D02*
D03*
X41250Y36200D02*
D03*
X41150Y33500D02*
D03*
Y33000D02*
D03*
X39300Y28150D02*
D03*
X41550Y25650D02*
D03*
X24350Y36600D02*
D03*
X24100D02*
D03*
X31800Y34600D02*
D03*
X27850Y35200D02*
D03*
X27500D02*
D03*
X27100D02*
D03*
X26150Y34150D02*
D03*
X25900Y34000D02*
D03*
X23750Y34500D02*
D03*
X21950Y40000D02*
D03*
X25550Y34150D02*
D03*
X29000Y29450D02*
D03*
X20250Y24025D02*
D03*
X20600Y23850D02*
D03*
X25000Y25800D02*
D03*
X27200Y23250D02*
D03*
X27350Y23850D02*
D03*
X29750Y35000D02*
D03*
X20100Y38650D02*
D03*
X20500Y24300D02*
D03*
X46634Y35891D02*
D03*
Y32749D02*
D03*
D79*
X35548Y25950D02*
D03*
X35174D02*
D03*
D80*
X34800Y25950D02*
D03*
D81*
X32631Y28496D02*
D03*
Y28811D02*
D03*
Y28654D02*
D03*
Y29284D02*
D03*
Y29126D02*
D03*
Y28969D02*
D03*
Y29599D02*
D03*
Y29441D02*
D03*
Y30386D02*
D03*
Y30701D02*
D03*
Y30544D02*
D03*
Y29756D02*
D03*
Y30071D02*
D03*
Y29914D02*
D03*
Y30859D02*
D03*
Y31174D02*
D03*
Y31016D02*
D03*
Y31489D02*
D03*
Y31331D02*
D03*
Y31646D02*
D03*
Y30229D02*
D03*
Y31804D02*
D03*
X36469Y28496D02*
D03*
X36469Y29126D02*
D03*
Y28969D02*
D03*
X36469Y28811D02*
D03*
Y28654D02*
D03*
Y29284D02*
D03*
Y29599D02*
D03*
Y29441D02*
D03*
Y29914D02*
D03*
Y29756D02*
D03*
Y30229D02*
D03*
X36469Y30859D02*
D03*
Y30544D02*
D03*
X36469Y30386D02*
D03*
Y30071D02*
D03*
Y31016D02*
D03*
Y30701D02*
D03*
X36469Y31174D02*
D03*
X36469Y31489D02*
D03*
Y31331D02*
D03*
Y31804D02*
D03*
Y31646D02*
D03*
D82*
X32896Y28231D02*
D03*
X33054D02*
D03*
X33684D02*
D03*
X33211D02*
D03*
X33369D02*
D03*
X33526Y28231D02*
D03*
X33999Y28231D02*
D03*
X34314D02*
D03*
X33841Y28231D02*
D03*
X34156D02*
D03*
X33211Y32069D02*
D03*
X33369D02*
D03*
X32896D02*
D03*
X33054D02*
D03*
X33684D02*
D03*
X33526D02*
D03*
X34156D02*
D03*
X34314D02*
D03*
X33841D02*
D03*
X33999D02*
D03*
X34786Y28231D02*
D03*
X34471D02*
D03*
X34629D02*
D03*
X35259D02*
D03*
X34944D02*
D03*
X35101D02*
D03*
X35416D02*
D03*
X35574Y28231D02*
D03*
X36046Y28231D02*
D03*
X36204D02*
D03*
X35731Y28231D02*
D03*
X35889Y28231D02*
D03*
X34471Y32069D02*
D03*
X34629D02*
D03*
X35101D02*
D03*
X34786D02*
D03*
X34944D02*
D03*
X35574D02*
D03*
X35259D02*
D03*
X35416D02*
D03*
X36046D02*
D03*
X36204D02*
D03*
X35731D02*
D03*
X35889D02*
D03*
D83*
X34550Y30150D02*
D03*
D84*
X24507Y38110D02*
D03*
X24350D02*
D03*
X24507Y36890D02*
D03*
X24350D02*
D03*
X24193D02*
D03*
X24035Y38110D02*
D03*
Y36890D02*
D03*
X24193Y38110D02*
D03*
X24665Y36890D02*
D03*
Y38110D02*
D03*
D85*
X22673Y34750D02*
D03*
X21627D02*
D03*
D86*
X46476Y37121D02*
D03*
Y30699D02*
D03*
D87*
X42697Y37121D02*
D03*
Y31253D02*
D03*
D88*
X42400Y36548D02*
D03*
Y35249D02*
D03*
Y34383D02*
D03*
Y36115D02*
D03*
Y35682D02*
D03*
Y34816D02*
D03*
Y33950D02*
D03*
Y33517D02*
D03*
Y33084D02*
D03*
D89*
X24960Y37815D02*
D03*
X23740D02*
D03*
X24960Y37343D02*
D03*
Y37185D02*
D03*
X23740Y37500D02*
D03*
Y37343D02*
D03*
X24960Y37657D02*
D03*
Y37500D02*
D03*
X23740Y37185D02*
D03*
Y37657D02*
D03*
D90*
X24350Y37500D02*
D03*
D91*
X19400Y40300D02*
D03*
X21950Y40300D02*
D03*
X20250D02*
D03*
X21100Y40300D02*
D03*
D92*
X25000Y23650D02*
D03*
D93*
X25915Y23847D02*
D03*
Y24241D02*
D03*
Y24044D02*
D03*
Y23650D02*
D03*
Y23453D02*
D03*
Y23256D02*
D03*
Y23059D02*
D03*
X24085D02*
D03*
Y23256D02*
D03*
Y23453D02*
D03*
Y23650D02*
D03*
Y23847D02*
D03*
Y24044D02*
D03*
Y24241D02*
D03*
D94*
X18650Y25250D02*
D03*
X18642Y25101D02*
D03*
Y22699D02*
D03*
Y22581D02*
D03*
Y22896D02*
D03*
Y23014D02*
D03*
Y23211D02*
D03*
Y23408D02*
D03*
Y23605D02*
D03*
Y23802D02*
D03*
Y23998D02*
D03*
Y24195D02*
D03*
Y24392D02*
D03*
Y24589D02*
D03*
Y24786D02*
D03*
Y24904D02*
D03*
D95*
X24700Y34147D02*
D03*
Y35053D02*
D03*
D96*
X24991Y32500D02*
D03*
X24009Y32874D02*
D03*
Y32126D02*
D03*
D97*
X25591Y22735D02*
D03*
X25394D02*
D03*
X25197D02*
D03*
X25000D02*
D03*
X24803D02*
D03*
X24606D02*
D03*
X24409D02*
D03*
Y24565D02*
D03*
X24606D02*
D03*
X24803D02*
D03*
X25000D02*
D03*
X25197D02*
D03*
X25394D02*
D03*
X25591D02*
D03*
D98*
X23747Y40250D02*
D03*
X24653D02*
D03*
X20600Y36750D02*
D03*
X21506D02*
D03*
M02*
