M48
;Layer_Color=9474304
;FILE_FORMAT=2:4
INCH,TZ
;TYPE=PLATED
T1F00S00C0.0138
T3F00S00C0.0256
T4F00S00C0.0320
;TYPE=NON_PLATED
T5F00S00C0.0400
%
T01
X32650Y20750
X33350Y20800
X33600Y21200
X34001Y21250
X34700Y20900
X32950Y21200
X32250Y21150
X32900Y26800
X32950Y27200
X32750Y27450
X33163Y27448
X33325Y27100
X33600Y27300
X34250Y27100
X34050Y26850
X33850Y26550
X34450Y26650
Y26388
X34500Y26050
X34400Y25700
X34500Y25450
X34800
X35050
X35300
X35475
X35650
X35850Y25500
X36000Y25750
Y25950
X35950Y26200
X35850Y26450
X35600Y26650
X35550Y27450
X35750Y27850
X36200Y27700
X36750Y27900
X37100Y28400
Y28850
Y29250
Y29600
X37700Y29550
X38150Y29600
X38700
X40050Y29700
X40350Y30050
X39650Y28800
X39300Y28150
X39950Y27900
X37400Y28600
X37650Y29075
X37000Y30250
X37050Y30700
Y31150
X37550
X35500Y31200
Y30850
Y30550
X35300Y30300
X35100Y30700
X35150Y31050
X34700Y30800
X34000
X33650Y30750
X33800Y30450
X33450Y30200
X33700Y29900
X33050Y29450
Y28950
X33100Y28600
X33500Y28550
X33850Y28850
X34200Y28600
X34550
X34850
X35150
X35525Y28650
X36050Y28600
X36100Y29800
X35050Y29900
X34700Y29800
X34400Y30400
X33300Y30900
X33550Y31150
X32150Y30350
X32100Y29000
X32300Y28450
Y28150
X31400Y27143
X34600Y26850
X34850Y27300
X34650Y27850
X34350
X36850Y27000
X37850Y26000
X35950Y24850
X41550Y25650
X29750Y25450
X29700Y26000
X29694Y26744
X29200Y26750
X29150Y25400
X29350Y28500
X30300Y28800
X29000Y29450
X25150Y29300
X23200Y28900
X22500Y29600
X21800Y29050
X25050Y27000
X25000Y25800
X24750Y23950
X24700Y23650
X25000
X25300
Y23350
X24950
X24650
X25250Y23950
X27350Y23850
X27200Y23250
X21350Y22800
X20600Y23850
X20250Y24025
X20500Y24300
X19600Y24600
X19400Y25000
X19650Y23350
X26200Y31150
X26550Y32400
X25650Y32500
X24400Y32100
X24200Y31450
X23750Y34500
X22600Y35100
X21500
X23000Y35850
X24100Y36600
X24350
X24500Y37300
Y37600
X23850Y38450
X22300Y38200
X21950Y40000
X19650Y39100
X19200Y38950
X20100Y38650
X21300Y32850
X25550Y34150
X25900Y34000
X26150Y34150
X27100Y35200
X27500
X27850
X29750Y35000
X29800Y35850
X30800Y35600
X28750Y39250
X28400
X28000Y39400
X31250Y35950
X32200Y35550
X32100Y34900
Y34550
X31800Y34600
Y34850
X32350Y32750
X32800Y32700
X33600Y32600
X34000Y32700
X34250Y32900
X34600Y33000
X34750Y33250
X35050Y32600
X35500Y32450
X35750
X36050
X37060Y31866
X37050Y31550
X37475Y31529
X34750Y31250
X34100Y31300
X33800Y33100
X32050Y31950
X32150Y31650
X41150Y33000
Y33500
X41600Y34850
X41200Y35650
X41250Y36200
X46634Y35891
Y32749
X44650Y32750
T03
X17836Y22762
Y25038
T04
X31700Y17900
X32700
X33700
X34700
X35700
X36700
X37700
X38700
X39700
X40700
X41700
X30700
X29700
X28700
X27700
X26700
X25700
X24700
X20350Y30300
Y31300
X24210Y43150
X25210
X26210
X27210
X28210
X29210
X30210
X31210
X32210
X33210
X34210
X35210
X36210
X37210
X38210
X39210
X40210
X41210
T05
X45161Y33185
Y35115
M30
