G04*
G04 #@! TF.GenerationSoftware,Altium Limited,Altium Designer,20.2.6 (244)*
G04*
G04 Layer_Color=8388736*
%FSLAX24Y24*%
%MOIN*%
G70*
G04*
G04 #@! TF.SameCoordinates,497DB355-11F3-479B-B1E2-BDA1D3AC948B*
G04*
G04*
G04 #@! TF.FilePolarity,Negative*
G04*
G01*
G75*
G04:AMPARAMS|DCode=27|XSize=23.7mil|YSize=145.8mil|CornerRadius=7.9mil|HoleSize=0mil|Usage=FLASHONLY|Rotation=270.000|XOffset=0mil|YOffset=0mil|HoleType=Round|Shape=RoundedRectangle|*
%AMROUNDEDRECTD27*
21,1,0.0237,0.1299,0,0,270.0*
21,1,0.0079,0.1458,0,0,270.0*
1,1,0.0159,-0.0650,-0.0039*
1,1,0.0159,-0.0650,0.0039*
1,1,0.0159,0.0650,0.0039*
1,1,0.0159,0.0650,-0.0039*
%
%ADD27ROUNDEDRECTD27*%
G04:AMPARAMS|DCode=28|XSize=28mil|YSize=28mil|CornerRadius=9mil|HoleSize=0mil|Usage=FLASHONLY|Rotation=0.000|XOffset=0mil|YOffset=0mil|HoleType=Round|Shape=RoundedRectangle|*
%AMROUNDEDRECTD28*
21,1,0.0280,0.0100,0,0,0.0*
21,1,0.0100,0.0280,0,0,0.0*
1,1,0.0180,0.0050,-0.0050*
1,1,0.0180,-0.0050,-0.0050*
1,1,0.0180,-0.0050,0.0050*
1,1,0.0180,0.0050,0.0050*
%
%ADD28ROUNDEDRECTD28*%
G04:AMPARAMS|DCode=29|XSize=28mil|YSize=28mil|CornerRadius=9mil|HoleSize=0mil|Usage=FLASHONLY|Rotation=270.000|XOffset=0mil|YOffset=0mil|HoleType=Round|Shape=RoundedRectangle|*
%AMROUNDEDRECTD29*
21,1,0.0280,0.0100,0,0,270.0*
21,1,0.0100,0.0280,0,0,270.0*
1,1,0.0180,-0.0050,-0.0050*
1,1,0.0180,-0.0050,0.0050*
1,1,0.0180,0.0050,0.0050*
1,1,0.0180,0.0050,-0.0050*
%
%ADD29ROUNDEDRECTD29*%
%ADD30R,0.0277X0.0277*%
G04:AMPARAMS|DCode=31|XSize=58mil|YSize=78.9mil|CornerRadius=16.5mil|HoleSize=0mil|Usage=FLASHONLY|Rotation=90.000|XOffset=0mil|YOffset=0mil|HoleType=Round|Shape=RoundedRectangle|*
%AMROUNDEDRECTD31*
21,1,0.0580,0.0459,0,0,90.0*
21,1,0.0250,0.0789,0,0,90.0*
1,1,0.0330,0.0229,0.0125*
1,1,0.0330,0.0229,-0.0125*
1,1,0.0330,-0.0229,-0.0125*
1,1,0.0330,-0.0229,0.0125*
%
%ADD31ROUNDEDRECTD31*%
G04:AMPARAMS|DCode=32|XSize=48mil|YSize=82mil|CornerRadius=14mil|HoleSize=0mil|Usage=FLASHONLY|Rotation=180.000|XOffset=0mil|YOffset=0mil|HoleType=Round|Shape=RoundedRectangle|*
%AMROUNDEDRECTD32*
21,1,0.0480,0.0540,0,0,180.0*
21,1,0.0200,0.0820,0,0,180.0*
1,1,0.0280,-0.0100,0.0270*
1,1,0.0280,0.0100,0.0270*
1,1,0.0280,0.0100,-0.0270*
1,1,0.0280,-0.0100,-0.0270*
%
%ADD32ROUNDEDRECTD32*%
G04:AMPARAMS|DCode=33|XSize=35.6mil|YSize=59.2mil|CornerRadius=10.9mil|HoleSize=0mil|Usage=FLASHONLY|Rotation=90.000|XOffset=0mil|YOffset=0mil|HoleType=Round|Shape=RoundedRectangle|*
%AMROUNDEDRECTD33*
21,1,0.0356,0.0374,0,0,90.0*
21,1,0.0138,0.0592,0,0,90.0*
1,1,0.0218,0.0187,0.0069*
1,1,0.0218,0.0187,-0.0069*
1,1,0.0218,-0.0187,-0.0069*
1,1,0.0218,-0.0187,0.0069*
%
%ADD33ROUNDEDRECTD33*%
G04:AMPARAMS|DCode=34|XSize=88mil|YSize=88mil|CornerRadius=24mil|HoleSize=0mil|Usage=FLASHONLY|Rotation=90.000|XOffset=0mil|YOffset=0mil|HoleType=Round|Shape=RoundedRectangle|*
%AMROUNDEDRECTD34*
21,1,0.0880,0.0400,0,0,90.0*
21,1,0.0400,0.0880,0,0,90.0*
1,1,0.0480,0.0200,0.0200*
1,1,0.0480,0.0200,-0.0200*
1,1,0.0480,-0.0200,-0.0200*
1,1,0.0480,-0.0200,0.0200*
%
%ADD34ROUNDEDRECTD34*%
%ADD35C,0.0434*%
G04:AMPARAMS|DCode=36|XSize=25.7mil|YSize=37.5mil|CornerRadius=8.4mil|HoleSize=0mil|Usage=FLASHONLY|Rotation=90.000|XOffset=0mil|YOffset=0mil|HoleType=Round|Shape=RoundedRectangle|*
%AMROUNDEDRECTD36*
21,1,0.0257,0.0207,0,0,90.0*
21,1,0.0089,0.0375,0,0,90.0*
1,1,0.0169,0.0103,0.0044*
1,1,0.0169,0.0103,-0.0044*
1,1,0.0169,-0.0103,-0.0044*
1,1,0.0169,-0.0103,0.0044*
%
%ADD36ROUNDEDRECTD36*%
G04:AMPARAMS|DCode=37|XSize=25.7mil|YSize=37.5mil|CornerRadius=8.4mil|HoleSize=0mil|Usage=FLASHONLY|Rotation=180.000|XOffset=0mil|YOffset=0mil|HoleType=Round|Shape=RoundedRectangle|*
%AMROUNDEDRECTD37*
21,1,0.0257,0.0207,0,0,180.0*
21,1,0.0089,0.0375,0,0,180.0*
1,1,0.0169,-0.0044,0.0103*
1,1,0.0169,0.0044,0.0103*
1,1,0.0169,0.0044,-0.0103*
1,1,0.0169,-0.0044,-0.0103*
%
%ADD37ROUNDEDRECTD37*%
%ADD38C,0.0580*%
%ADD39O,0.0907X0.0474*%
%ADD40O,0.0710X0.0474*%
%ADD41C,0.0336*%
%ADD42C,0.0316*%
%ADD43C,0.0257*%
D27*
X26050Y28198D02*
D03*
Y28749D02*
D03*
Y27922D02*
D03*
Y29576D02*
D03*
Y29300D02*
D03*
Y26268D02*
D03*
Y27095D02*
D03*
Y26820D02*
D03*
Y29024D02*
D03*
Y28473D02*
D03*
Y27646D02*
D03*
Y27371D02*
D03*
Y26544D02*
D03*
D28*
X41950Y26200D02*
D03*
Y25800D02*
D03*
X30100Y27050D02*
D03*
Y26650D02*
D03*
X31400Y26600D02*
D03*
Y26200D02*
D03*
X40250Y31850D02*
D03*
Y31450D02*
D03*
X20850Y20200D02*
D03*
X20150D02*
D03*
X41650Y28050D02*
D03*
X22500Y30350D02*
D03*
X20150Y20600D02*
D03*
X20850D02*
D03*
X22450Y31450D02*
D03*
Y31850D02*
D03*
X41650Y27650D02*
D03*
X22500Y29950D02*
D03*
D29*
X40850Y26400D02*
D03*
X40450D02*
D03*
X40850Y27750D02*
D03*
X40450D02*
D03*
X29150Y27250D02*
D03*
X29550D02*
D03*
X29150Y28150D02*
D03*
X29550Y29850D02*
D03*
X29150Y30750D02*
D03*
Y25750D02*
D03*
Y26500D02*
D03*
Y29000D02*
D03*
X40850Y28450D02*
D03*
Y29250D02*
D03*
X29550Y30750D02*
D03*
Y29000D02*
D03*
Y28150D02*
D03*
X29150Y24900D02*
D03*
X40450Y28450D02*
D03*
Y29250D02*
D03*
X29550Y25750D02*
D03*
Y26500D02*
D03*
Y24900D02*
D03*
X28900Y35250D02*
D03*
X29150Y29850D02*
D03*
X28950Y32750D02*
D03*
X29350D02*
D03*
X29300Y35250D02*
D03*
X40450Y27150D02*
D03*
X40850D02*
D03*
X28950Y33550D02*
D03*
X29350D02*
D03*
X28900Y34400D02*
D03*
X29300D02*
D03*
X23450Y31450D02*
D03*
X23850D02*
D03*
D30*
X39740Y30100D02*
D03*
X39720Y29200D02*
D03*
X39380D02*
D03*
X39400Y30100D02*
D03*
D31*
X43950Y32772D02*
D03*
Y35528D02*
D03*
Y34544D02*
D03*
Y33756D02*
D03*
D32*
X45010Y25400D02*
D03*
X45030Y22950D02*
D03*
X43450Y25400D02*
D03*
X43470Y22950D02*
D03*
D33*
X31272Y34950D02*
D03*
Y34576D02*
D03*
Y35324D02*
D03*
X30328Y34576D02*
D03*
Y34950D02*
D03*
Y35324D02*
D03*
D34*
X45028Y37152D02*
D03*
X47233D02*
D03*
X45028Y31148D02*
D03*
X47233D02*
D03*
D35*
X21800Y28100D02*
D03*
D36*
X21800Y28582D02*
D03*
Y27619D02*
D03*
D37*
X22281Y28100D02*
D03*
X21318D02*
D03*
D38*
X26700Y17900D02*
D03*
X20350Y30300D02*
D03*
X25700Y17900D02*
D03*
X24700D02*
D03*
X27700D02*
D03*
X38700D02*
D03*
X40700D02*
D03*
X39700D02*
D03*
X20350Y31300D02*
D03*
X32210Y43150D02*
D03*
X27210D02*
D03*
X28210D02*
D03*
X26210D02*
D03*
X24210D02*
D03*
X25210D02*
D03*
X29210D02*
D03*
X31210D02*
D03*
X30210D02*
D03*
X32700Y17900D02*
D03*
X28700D02*
D03*
X29700D02*
D03*
X31700D02*
D03*
X30700D02*
D03*
X39210Y43150D02*
D03*
X40210D02*
D03*
X38210D02*
D03*
X41700Y17900D02*
D03*
X36700D02*
D03*
X37700D02*
D03*
X35700D02*
D03*
X33700D02*
D03*
X34700D02*
D03*
X34210Y43150D02*
D03*
X33210D02*
D03*
X35210D02*
D03*
X37210D02*
D03*
X36210D02*
D03*
X41210D02*
D03*
D39*
X18033Y25603D02*
D03*
Y22197D02*
D03*
D40*
X16458Y25603D02*
D03*
Y22197D02*
D03*
D41*
X17836Y22762D02*
D03*
Y25038D02*
D03*
D42*
X45161Y33185D02*
D03*
Y35115D02*
D03*
D43*
X37100Y28400D02*
D03*
X33050Y28950D02*
D03*
X24500Y37600D02*
D03*
Y37300D02*
D03*
X34500Y26050D02*
D03*
X34800Y25450D02*
D03*
X34500D02*
D03*
X35050D02*
D03*
X34400Y25700D02*
D03*
X29694Y26744D02*
D03*
X29200Y26750D02*
D03*
X35525Y28650D02*
D03*
X33050Y29450D02*
D03*
X23000Y35850D02*
D03*
X28750Y39250D02*
D03*
X39950Y27900D02*
D03*
X33850Y28850D02*
D03*
X33300Y30900D02*
D03*
X34000Y30800D02*
D03*
X34100Y31300D02*
D03*
X32950Y27200D02*
D03*
X33325Y27100D02*
D03*
X33850Y26550D02*
D03*
X37100Y28850D02*
D03*
X37400Y28600D02*
D03*
X37650Y29075D02*
D03*
X37700Y29550D02*
D03*
X37475Y31529D02*
D03*
X37050Y31550D02*
D03*
X37060Y31866D02*
D03*
X37050Y31150D02*
D03*
Y30700D02*
D03*
X37550Y31150D02*
D03*
X34000Y32700D02*
D03*
X33800Y33100D02*
D03*
X35050Y32600D02*
D03*
X34600Y33000D02*
D03*
X34250Y32900D02*
D03*
X34750Y33250D02*
D03*
X32900Y26800D02*
D03*
X21300Y32850D02*
D03*
X21350Y22800D02*
D03*
X19400Y25000D02*
D03*
X19600Y24600D02*
D03*
X19650Y23350D02*
D03*
X22600Y35100D02*
D03*
X22300Y38200D02*
D03*
X29150Y25400D02*
D03*
X29700Y26000D02*
D03*
X29750Y25450D02*
D03*
X34850Y27300D02*
D03*
X34450Y26650D02*
D03*
X35850Y26450D02*
D03*
X34600Y26850D02*
D03*
X35850Y25500D02*
D03*
X36000Y25750D02*
D03*
X19200Y38950D02*
D03*
X19650Y39100D02*
D03*
X28000Y39400D02*
D03*
X28400Y39250D02*
D03*
X23850Y38450D02*
D03*
X32100Y29000D02*
D03*
X35300Y30300D02*
D03*
X34400Y30400D02*
D03*
X33800Y30450D02*
D03*
X33450Y30200D02*
D03*
X35050Y29900D02*
D03*
X35500Y30550D02*
D03*
X35100Y30700D02*
D03*
X35500Y30850D02*
D03*
X37000Y30250D02*
D03*
X33163Y27448D02*
D03*
X39650Y28800D02*
D03*
X34750Y31250D02*
D03*
X34700Y30800D02*
D03*
X35150Y31050D02*
D03*
X35500Y31200D02*
D03*
X21500Y35100D02*
D03*
X34450Y26388D02*
D03*
X35600Y26650D02*
D03*
X35300Y25450D02*
D03*
X35650D02*
D03*
X35475D02*
D03*
X35950Y26200D02*
D03*
X36000Y25950D02*
D03*
X35550Y27450D02*
D03*
X35750Y27850D02*
D03*
X25650Y32500D02*
D03*
X26200Y31150D02*
D03*
X26550Y32400D02*
D03*
X25150Y29300D02*
D03*
X34050Y26850D02*
D03*
X35950Y24850D02*
D03*
X29800Y35850D02*
D03*
X41600Y34850D02*
D03*
X24650Y23350D02*
D03*
X25300D02*
D03*
X24950D02*
D03*
X24700Y23650D02*
D03*
X25000D02*
D03*
X25300D02*
D03*
X24750Y23950D02*
D03*
X25250D02*
D03*
X34700Y29800D02*
D03*
X36100D02*
D03*
X38150Y29600D02*
D03*
X38700D02*
D03*
X33700Y29900D02*
D03*
X33650Y30750D02*
D03*
X33550Y31150D02*
D03*
X37850Y26000D02*
D03*
X40050Y29700D02*
D03*
X36850Y27000D02*
D03*
X32750Y27450D02*
D03*
X31400Y27143D02*
D03*
X40350Y30050D02*
D03*
X32800Y32700D02*
D03*
X32350Y32750D02*
D03*
X32100Y34550D02*
D03*
X33600Y32600D02*
D03*
X30800Y35600D02*
D03*
X21800Y29050D02*
D03*
X24200Y31450D02*
D03*
X24400Y32100D02*
D03*
X32300Y28450D02*
D03*
Y28150D02*
D03*
X30300Y28800D02*
D03*
X35150Y28600D02*
D03*
X33600Y27300D02*
D03*
X22500Y29600D02*
D03*
X23200Y28900D02*
D03*
X25050Y27000D02*
D03*
X34250Y27100D02*
D03*
X29350Y28500D02*
D03*
X33100Y28600D02*
D03*
X33500Y28550D02*
D03*
X32200Y35550D02*
D03*
X31250Y35950D02*
D03*
X32100Y34900D02*
D03*
X31800Y34850D02*
D03*
X44650Y32750D02*
D03*
X37100Y29250D02*
D03*
X33350Y20800D02*
D03*
X34001Y21250D02*
D03*
X33600Y21200D02*
D03*
X32950D02*
D03*
X32650Y20750D02*
D03*
X32250Y21150D02*
D03*
X34700Y20900D02*
D03*
X34550Y28600D02*
D03*
X36050D02*
D03*
X34200D02*
D03*
X37100Y29600D02*
D03*
X36050Y32450D02*
D03*
X34350Y27850D02*
D03*
X35750Y32450D02*
D03*
X32150Y30350D02*
D03*
X36750Y27900D02*
D03*
X35500Y32450D02*
D03*
X34850Y28600D02*
D03*
X32050Y31950D02*
D03*
X32150Y31650D02*
D03*
X34650Y27850D02*
D03*
X36200Y27700D02*
D03*
X41200Y35650D02*
D03*
X41250Y36200D02*
D03*
X41150Y33500D02*
D03*
Y33000D02*
D03*
X39300Y28150D02*
D03*
X41550Y25650D02*
D03*
X24350Y36600D02*
D03*
X24100D02*
D03*
X31800Y34600D02*
D03*
X27850Y35200D02*
D03*
X27500D02*
D03*
X27100D02*
D03*
X26150Y34150D02*
D03*
X25900Y34000D02*
D03*
X23750Y34500D02*
D03*
X21950Y40000D02*
D03*
X25550Y34150D02*
D03*
X29000Y29450D02*
D03*
X20250Y24025D02*
D03*
X20600Y23850D02*
D03*
X25000Y25800D02*
D03*
X27200Y23250D02*
D03*
X27350Y23850D02*
D03*
X29750Y35000D02*
D03*
X20100Y38650D02*
D03*
X20500Y24300D02*
D03*
X46634Y35891D02*
D03*
Y32749D02*
D03*
M02*
