G04*
G04 #@! TF.GenerationSoftware,Altium Limited,Altium Designer,20.2.6 (244)*
G04*
G04 Layer_Color=32896*
%FSLAX24Y24*%
%MOIN*%
G70*
G04*
G04 #@! TF.SameCoordinates,497DB355-11F3-479B-B1E2-BDA1D3AC948B*
G04*
G04*
G04 #@! TF.FilePolarity,Positive*
G04*
G01*
G75*
%ADD11C,0.0100*%
%ADD12C,0.0098*%
%ADD13C,0.0010*%
%ADD14C,0.0079*%
%ADD44C,0.0050*%
%ADD46C,0.0060*%
%ADD99C,0.0080*%
G36*
X29090Y39930D02*
X28910D01*
Y39965D01*
X29090D01*
Y39930D01*
D02*
G37*
G36*
X28590D02*
X28410D01*
Y39965D01*
X28590D01*
Y39930D01*
D02*
G37*
G36*
X29090Y39835D02*
X28910D01*
Y39870D01*
X29090D01*
Y39835D01*
D02*
G37*
G36*
X28590D02*
X28410D01*
Y39870D01*
X28590D01*
Y39835D01*
D02*
G37*
G36*
X27695D02*
X27660Y39835D01*
Y39965D01*
X27695Y39965D01*
Y39835D01*
D02*
G37*
G36*
X27540D02*
X27505D01*
Y39965D01*
X27540D01*
Y39835D01*
D02*
G37*
G36*
X26645D02*
X26610Y39835D01*
Y39965D01*
X26645Y39965D01*
Y39835D01*
D02*
G37*
G36*
X26490D02*
X26455D01*
Y39965D01*
X26490D01*
Y39835D01*
D02*
G37*
G36*
X20765Y38760D02*
X20635D01*
Y38795D01*
X20765D01*
Y38760D01*
D02*
G37*
G36*
Y38605D02*
X20635D01*
X20635Y38640D01*
X20765D01*
X20765Y38605D01*
D02*
G37*
G36*
X19740Y38430D02*
X19560D01*
Y38465D01*
X19740D01*
Y38430D01*
D02*
G37*
G36*
X19140D02*
X18960D01*
Y38465D01*
X19140D01*
Y38430D01*
D02*
G37*
G36*
X21840Y38380D02*
X21660D01*
Y38415D01*
X21840D01*
Y38380D01*
D02*
G37*
G36*
X19740Y38335D02*
X19560D01*
Y38370D01*
X19740D01*
Y38335D01*
D02*
G37*
G36*
X19140D02*
X18960D01*
Y38370D01*
X19140D01*
Y38335D01*
D02*
G37*
G36*
X21840Y38285D02*
X21660D01*
Y38320D01*
X21840D01*
Y38285D01*
D02*
G37*
G36*
X20765Y37960D02*
X20635D01*
X20635Y37995D01*
X20765D01*
X20765Y37960D01*
D02*
G37*
G36*
X20765Y37805D02*
X20635D01*
Y37840D01*
X20765D01*
Y37805D01*
D02*
G37*
G36*
X27995Y37185D02*
X27960D01*
Y37315D01*
X27995D01*
Y37185D01*
D02*
G37*
G36*
X27840Y37315D02*
Y37185D01*
X27805Y37185D01*
Y37315D01*
X27840Y37315D01*
D02*
G37*
G36*
X40465Y36260D02*
X40335D01*
X40335Y36295D01*
X40465D01*
X40465Y36260D01*
D02*
G37*
G36*
X40465Y36105D02*
X40335D01*
Y36140D01*
X40465D01*
Y36105D01*
D02*
G37*
G36*
X27940Y35680D02*
X27760D01*
Y35715D01*
X27940D01*
Y35680D01*
D02*
G37*
G36*
X27390D02*
X27210D01*
Y35715D01*
X27390D01*
Y35680D01*
D02*
G37*
G36*
X26840D02*
X26660D01*
Y35715D01*
X26840D01*
Y35680D01*
D02*
G37*
G36*
X27940Y35585D02*
X27760D01*
Y35620D01*
X27940D01*
Y35585D01*
D02*
G37*
G36*
X27390D02*
X27210D01*
Y35620D01*
X27390D01*
Y35585D01*
D02*
G37*
G36*
X26840D02*
X26660D01*
Y35620D01*
X26840D01*
Y35585D01*
D02*
G37*
G36*
X40465Y35460D02*
X40335D01*
X40335Y35495D01*
X40465D01*
X40465Y35460D01*
D02*
G37*
G36*
X19115Y35360D02*
X18985D01*
Y35395D01*
X19115D01*
Y35360D01*
D02*
G37*
G36*
X40465Y35305D02*
X40335D01*
Y35340D01*
X40465D01*
Y35305D01*
D02*
G37*
G36*
X19115Y35205D02*
X18985D01*
X18985Y35240D01*
X19115D01*
X19115Y35205D01*
D02*
G37*
G36*
X40465Y34610D02*
X40335D01*
X40335Y34645D01*
X40465D01*
X40465Y34610D01*
D02*
G37*
G36*
X22110Y34785D02*
X22250D01*
Y34715D01*
X22110D01*
Y34595D01*
X22050D01*
Y34905D01*
X22110D01*
Y34785D01*
D02*
G37*
G36*
X26965Y34560D02*
X26835D01*
Y34595D01*
X26965D01*
Y34560D01*
D02*
G37*
G36*
X40465Y34455D02*
X40335D01*
Y34490D01*
X40465D01*
Y34455D01*
D02*
G37*
G36*
X33615Y34410D02*
X33580D01*
Y34590D01*
X33615D01*
Y34410D01*
D02*
G37*
G36*
X33520D02*
X33485D01*
Y34590D01*
X33520D01*
Y34410D01*
D02*
G37*
G36*
X26965Y34405D02*
X26835D01*
X26835Y34440D01*
X26965D01*
X26965Y34405D01*
D02*
G37*
G36*
X36240Y34230D02*
X36060D01*
Y34265D01*
X36240D01*
Y34230D01*
D02*
G37*
G36*
Y34135D02*
X36060D01*
Y34170D01*
X36240D01*
Y34135D01*
D02*
G37*
G36*
X32305Y34060D02*
X32175D01*
X32175Y34095D01*
X32305D01*
X32305Y34060D01*
D02*
G37*
G36*
X32305Y33905D02*
X32175D01*
Y33940D01*
X32305D01*
Y33905D01*
D02*
G37*
G36*
X40465Y33860D02*
X40335D01*
X40335Y33895D01*
X40465D01*
X40465Y33860D01*
D02*
G37*
G36*
X33615D02*
X33580D01*
Y34040D01*
X33615D01*
Y33860D01*
D02*
G37*
G36*
X33520D02*
X33485D01*
Y34040D01*
X33520D01*
Y33860D01*
D02*
G37*
G36*
X30415D02*
X30380D01*
Y34040D01*
X30415D01*
Y33860D01*
D02*
G37*
G36*
X30320D02*
X30285D01*
Y34040D01*
X30320D01*
Y33860D01*
D02*
G37*
G36*
X40465Y33705D02*
X40335D01*
Y33740D01*
X40465D01*
Y33705D01*
D02*
G37*
G36*
X40465Y33060D02*
X40335D01*
X40335Y33095D01*
X40465D01*
X40465Y33060D01*
D02*
G37*
G36*
X40465Y32905D02*
X40335D01*
Y32940D01*
X40465D01*
Y32905D01*
D02*
G37*
G36*
X22690Y32530D02*
X22510D01*
Y32565D01*
X22690D01*
Y32530D01*
D02*
G37*
G36*
X22140D02*
X21960D01*
Y32565D01*
X22140D01*
Y32530D01*
D02*
G37*
G36*
X22690Y32435D02*
X22510D01*
Y32470D01*
X22690D01*
Y32435D01*
D02*
G37*
G36*
X22140D02*
X21960D01*
Y32470D01*
X22140D01*
Y32435D01*
D02*
G37*
G36*
X30415Y32260D02*
X30380D01*
Y32440D01*
X30415D01*
Y32260D01*
D02*
G37*
G36*
X30320D02*
X30285D01*
Y32440D01*
X30320D01*
Y32260D01*
D02*
G37*
G36*
X30415Y31860D02*
X30285D01*
Y31895D01*
X30415D01*
Y31860D01*
D02*
G37*
G36*
Y31705D02*
X30285D01*
X30285Y31740D01*
X30415D01*
X30415Y31705D01*
D02*
G37*
G36*
X38715Y31410D02*
X38680D01*
Y31590D01*
X38715D01*
Y31410D01*
D02*
G37*
G36*
X38620D02*
X38585D01*
Y31590D01*
X38620D01*
Y31410D01*
D02*
G37*
G36*
X30415Y31160D02*
X30380D01*
Y31340D01*
X30415D01*
Y31160D01*
D02*
G37*
G36*
X30320D02*
X30285D01*
Y31340D01*
X30320D01*
Y31160D01*
D02*
G37*
G36*
X38715Y30960D02*
X38680D01*
Y31140D01*
X38715D01*
Y30960D01*
D02*
G37*
G36*
X38620D02*
X38585D01*
Y31140D01*
X38620D01*
Y30960D01*
D02*
G37*
G36*
X30415Y30410D02*
X30380D01*
Y30590D01*
X30415D01*
Y30410D01*
D02*
G37*
G36*
X30320D02*
X30285D01*
Y30590D01*
X30320D01*
Y30410D01*
D02*
G37*
G36*
X38715Y30210D02*
X38680D01*
Y30390D01*
X38715D01*
Y30210D01*
D02*
G37*
G36*
X38620D02*
X38585D01*
Y30390D01*
X38620D01*
Y30210D01*
D02*
G37*
G36*
X38715Y29910D02*
X38585D01*
Y29945D01*
X38715D01*
Y29910D01*
D02*
G37*
G36*
Y29755D02*
X38585D01*
X38585Y29790D01*
X38715D01*
X38715Y29755D01*
D02*
G37*
G36*
X30415Y29210D02*
X30285D01*
Y29245D01*
X30415D01*
Y29210D01*
D02*
G37*
G36*
X38715Y29060D02*
X38585D01*
X38585Y29095D01*
X38715D01*
X38715Y29060D01*
D02*
G37*
G36*
X30415Y29055D02*
X30285D01*
X30285Y29090D01*
X30415D01*
X30415Y29055D01*
D02*
G37*
G36*
X28865Y28960D02*
X28830D01*
Y29140D01*
X28865D01*
Y28960D01*
D02*
G37*
G36*
X28770D02*
X28735D01*
Y29140D01*
X28770D01*
Y28960D01*
D02*
G37*
G36*
X38715Y28905D02*
X38585D01*
Y28940D01*
X38715D01*
Y28905D01*
D02*
G37*
G36*
Y28410D02*
X38680D01*
Y28590D01*
X38715D01*
Y28410D01*
D02*
G37*
G36*
X38620D02*
X38585D01*
Y28590D01*
X38620D01*
Y28410D01*
D02*
G37*
G36*
X28865D02*
X28830D01*
Y28590D01*
X28865D01*
Y28410D01*
D02*
G37*
G36*
X28770D02*
X28735D01*
Y28590D01*
X28770D01*
Y28410D01*
D02*
G37*
G36*
X30415Y28210D02*
X30380D01*
Y28390D01*
X30415D01*
Y28210D01*
D02*
G37*
G36*
X30320D02*
X30285D01*
Y28390D01*
X30320D01*
Y28210D01*
D02*
G37*
G36*
X35115Y26660D02*
X34985D01*
Y26695D01*
X35115D01*
Y26660D01*
D02*
G37*
G36*
X25715Y26610D02*
X25585D01*
Y26645D01*
X25715D01*
Y26610D01*
D02*
G37*
G36*
X35115Y26505D02*
X34985D01*
X34985Y26540D01*
X35115D01*
X35115Y26505D01*
D02*
G37*
G36*
X25715Y26455D02*
X25585D01*
X25585Y26490D01*
X25715D01*
X25715Y26455D01*
D02*
G37*
G36*
X25265Y20460D02*
X25135D01*
Y20495D01*
X25265D01*
Y20460D01*
D02*
G37*
G36*
Y20305D02*
X25135D01*
X25135Y20340D01*
X25265D01*
X25265Y20305D01*
D02*
G37*
D11*
X32500Y32000D02*
X32700Y32200D01*
X47800Y33850D02*
X48100Y32550D01*
Y30950D02*
Y32550D01*
X47800Y33850D02*
Y36850D01*
X42400D02*
X47800D01*
X42400Y30950D02*
X48100D01*
X42400D02*
Y36850D01*
D12*
X26199Y24550D02*
G03*
X26199Y24550I-49J0D01*
G01*
X25324Y38110D02*
G03*
X25324Y38110I-49J0D01*
G01*
D13*
X34985Y26695D02*
X35115D01*
X34985Y26660D02*
Y26695D01*
Y26660D02*
X35115D01*
Y26695D01*
X34985Y26505D02*
X34985Y26540D01*
X35115D01*
X35115Y26505D01*
X34985D02*
X35115D01*
X25585Y26645D02*
X25715D01*
X25585Y26610D02*
Y26645D01*
Y26610D02*
X25715D01*
Y26645D01*
X25585Y26455D02*
X25585Y26490D01*
X25715D01*
X25715Y26455D01*
X25585D02*
X25715D01*
X27505Y39835D02*
Y39965D01*
Y39835D02*
X27540D01*
Y39965D01*
X27505D02*
X27540D01*
X27660Y39835D02*
X27695Y39835D01*
X27660Y39835D02*
Y39965D01*
X27695Y39965D01*
Y39835D02*
Y39965D01*
X26455Y39835D02*
Y39965D01*
Y39835D02*
X26490D01*
Y39965D01*
X26455D02*
X26490D01*
X26610Y39835D02*
X26645Y39835D01*
X26610Y39835D02*
Y39965D01*
X26645Y39965D01*
Y39835D02*
Y39965D01*
X32175Y34095D02*
X32305D01*
X32175D02*
X32175Y34060D01*
X32305D01*
X32305Y34095D01*
X32175Y33905D02*
Y33940D01*
X32305D01*
Y33905D02*
Y33940D01*
X32175Y33905D02*
X32305D01*
X30380Y34040D02*
X30415D01*
X30380Y33860D02*
X30415D01*
X30380D02*
Y34040D01*
X30415Y33860D02*
Y34040D01*
X30285Y33860D02*
Y34040D01*
X30320Y33860D02*
Y34040D01*
X30285D02*
X30320D01*
X30285Y33860D02*
X30320D01*
X40335Y36295D02*
X40465D01*
X40335D02*
X40335Y36260D01*
X40465D01*
X40465Y36295D01*
X40335Y36105D02*
Y36140D01*
X40465D01*
Y36105D02*
Y36140D01*
X40335Y36105D02*
X40465D01*
X40335Y35495D02*
X40465D01*
X40335D02*
X40335Y35460D01*
X40465D01*
X40465Y35495D01*
X40335Y35305D02*
Y35340D01*
X40465D01*
Y35305D02*
Y35340D01*
X40335Y35305D02*
X40465D01*
X40335Y34645D02*
X40465D01*
X40335D02*
X40335Y34610D01*
X40465D01*
X40465Y34645D01*
X40335Y34455D02*
Y34490D01*
X40465D01*
Y34455D02*
Y34490D01*
X40335Y34455D02*
X40465D01*
X40335Y33895D02*
X40465D01*
X40335D02*
X40335Y33860D01*
X40465D01*
X40465Y33895D01*
X40335Y33705D02*
Y33740D01*
X40465D01*
Y33705D02*
Y33740D01*
X40335Y33705D02*
X40465D01*
X38680Y28590D02*
X38715D01*
X38680Y28410D02*
X38715D01*
X38680D02*
Y28590D01*
X38715Y28410D02*
Y28590D01*
X38585Y28410D02*
Y28590D01*
X38620Y28410D02*
Y28590D01*
X38585D02*
X38620D01*
X38585Y28410D02*
X38620D01*
X30285Y31705D02*
X30415D01*
X30415Y31740D02*
X30415Y31705D01*
X30285Y31740D02*
X30415D01*
X30285Y31705D02*
X30285Y31740D01*
X30415Y31860D02*
Y31895D01*
X30285Y31860D02*
X30415D01*
X30285D02*
Y31895D01*
X30415D01*
X30285Y29055D02*
X30415D01*
X30415Y29090D02*
X30415Y29055D01*
X30285Y29090D02*
X30415D01*
X30285Y29055D02*
X30285Y29090D01*
X30415Y29210D02*
Y29245D01*
X30285Y29210D02*
X30415D01*
X30285D02*
Y29245D01*
X30415D01*
X30285Y31160D02*
X30320D01*
X30285Y31340D02*
X30320D01*
Y31160D02*
Y31340D01*
X30285Y31160D02*
Y31340D01*
X30415Y31160D02*
Y31340D01*
X30380Y31160D02*
Y31340D01*
Y31160D02*
X30415D01*
X30380Y31340D02*
X30415D01*
X30285Y28210D02*
X30320D01*
X30285Y28390D02*
X30320D01*
Y28210D02*
Y28390D01*
X30285Y28210D02*
Y28390D01*
X30415Y28210D02*
Y28390D01*
X30380Y28210D02*
Y28390D01*
Y28210D02*
X30415D01*
X30380Y28390D02*
X30415D01*
X30285Y32260D02*
X30320D01*
X30285Y32440D02*
X30320D01*
Y32260D02*
Y32440D01*
X30285Y32260D02*
Y32440D01*
X30415Y32260D02*
Y32440D01*
X30380Y32260D02*
Y32440D01*
Y32260D02*
X30415D01*
X30380Y32440D02*
X30415D01*
X28830Y29140D02*
X28865D01*
X28830Y28960D02*
X28865D01*
X28830D02*
Y29140D01*
X28865Y28960D02*
Y29140D01*
X28735Y28960D02*
Y29140D01*
X28770Y28960D02*
Y29140D01*
X28735D02*
X28770D01*
X28735Y28960D02*
X28770D01*
X28830Y28590D02*
X28865D01*
X28830Y28410D02*
X28865D01*
X28830D02*
Y28590D01*
X28865Y28410D02*
Y28590D01*
X28735Y28410D02*
Y28590D01*
X28770Y28410D02*
Y28590D01*
X28735D02*
X28770D01*
X28735Y28410D02*
X28770D01*
X38585Y30960D02*
X38620D01*
X38585Y31140D02*
X38620D01*
Y30960D02*
Y31140D01*
X38585Y30960D02*
Y31140D01*
X38715Y30960D02*
Y31140D01*
X38680Y30960D02*
Y31140D01*
Y30960D02*
X38715D01*
X38680Y31140D02*
X38715D01*
X38680Y31590D02*
X38715D01*
X38680Y31410D02*
X38715D01*
X38680D02*
Y31590D01*
X38715Y31410D02*
Y31590D01*
X38585Y31410D02*
Y31590D01*
X38620Y31410D02*
Y31590D01*
X38585D02*
X38620D01*
X38585Y31410D02*
X38620D01*
X38585Y29755D02*
X38715D01*
X38715Y29790D02*
X38715Y29755D01*
X38585Y29790D02*
X38715D01*
X38585Y29755D02*
X38585Y29790D01*
X38715Y29910D02*
Y29945D01*
X38585Y29910D02*
X38715D01*
X38585D02*
Y29945D01*
X38715D01*
X38585Y29095D02*
X38715D01*
X38585D02*
X38585Y29060D01*
X38715D01*
X38715Y29095D01*
X38585Y28905D02*
Y28940D01*
X38715D01*
Y28905D02*
Y28940D01*
X38585Y28905D02*
X38715D01*
X33580Y34590D02*
X33615D01*
X33580Y34410D02*
X33615D01*
X33580D02*
Y34590D01*
X33615Y34410D02*
Y34590D01*
X33485Y34410D02*
Y34590D01*
X33520Y34410D02*
Y34590D01*
X33485D02*
X33520D01*
X33485Y34410D02*
X33520D01*
X30285Y30410D02*
X30320D01*
X30285Y30590D02*
X30320D01*
Y30410D02*
Y30590D01*
X30285Y30410D02*
Y30590D01*
X30415Y30410D02*
Y30590D01*
X30380Y30410D02*
Y30590D01*
Y30410D02*
X30415D01*
X30380Y30590D02*
X30415D01*
X33580Y34040D02*
X33615D01*
X33580Y33860D02*
X33615D01*
X33580D02*
Y34040D01*
X33615Y33860D02*
Y34040D01*
X33485Y33860D02*
Y34040D01*
X33520Y33860D02*
Y34040D01*
X33485D02*
X33520D01*
X33485Y33860D02*
X33520D01*
X38585Y30210D02*
X38620D01*
X38585Y30390D02*
X38620D01*
Y30210D02*
Y30390D01*
X38585Y30210D02*
Y30390D01*
X38715Y30210D02*
Y30390D01*
X38680Y30210D02*
Y30390D01*
Y30210D02*
X38715D01*
X38680Y30390D02*
X38715D01*
X36060Y34230D02*
Y34265D01*
X36240Y34230D02*
Y34265D01*
X36060Y34230D02*
X36240D01*
X36060Y34265D02*
X36240D01*
X36060Y34135D02*
X36240D01*
X36060Y34170D02*
X36240D01*
X36060Y34135D02*
Y34170D01*
X36240Y34135D02*
Y34170D01*
X25135Y20305D02*
X25265D01*
X25265Y20340D02*
X25265Y20305D01*
X25135Y20340D02*
X25265D01*
X25135Y20305D02*
X25135Y20340D01*
X25265Y20460D02*
Y20495D01*
X25135Y20460D02*
X25265D01*
X25135D02*
Y20495D01*
X25265D01*
X40335Y33095D02*
X40465D01*
X40335D02*
X40335Y33060D01*
X40465D01*
X40465Y33095D01*
X40335Y32905D02*
Y32940D01*
X40465D01*
Y32905D02*
Y32940D01*
X40335Y32905D02*
X40465D01*
X22690Y32435D02*
Y32470D01*
X22510Y32435D02*
Y32470D01*
X22690D01*
X22510Y32435D02*
X22690D01*
X22510Y32565D02*
X22690D01*
X22510Y32530D02*
X22690D01*
Y32565D01*
X22510Y32530D02*
Y32565D01*
X27940Y35585D02*
Y35620D01*
X27760Y35585D02*
Y35620D01*
X27940D01*
X27760Y35585D02*
X27940D01*
X27760Y35715D02*
X27940D01*
X27760Y35680D02*
X27940D01*
Y35715D01*
X27760Y35680D02*
Y35715D01*
X22140Y32435D02*
Y32470D01*
X21960Y32435D02*
Y32470D01*
X22140D01*
X21960Y32435D02*
X22140D01*
X21960Y32565D02*
X22140D01*
X21960Y32530D02*
X22140D01*
Y32565D01*
X21960Y32530D02*
Y32565D01*
X18985Y35205D02*
X19115D01*
X19115Y35240D02*
X19115Y35205D01*
X18985Y35240D02*
X19115D01*
X18985Y35205D02*
X18985Y35240D01*
X19115Y35360D02*
Y35395D01*
X18985Y35360D02*
X19115D01*
X18985D02*
Y35395D01*
X19115D01*
X28590Y39835D02*
Y39870D01*
X28410Y39835D02*
Y39870D01*
X28590D01*
X28410Y39835D02*
X28590D01*
X28410Y39965D02*
X28590D01*
X28410Y39930D02*
X28590D01*
Y39965D01*
X28410Y39930D02*
Y39965D01*
X29090Y39835D02*
Y39870D01*
X28910Y39835D02*
Y39870D01*
X29090D01*
X28910Y39835D02*
X29090D01*
X28910Y39965D02*
X29090D01*
X28910Y39930D02*
X29090D01*
Y39965D01*
X28910Y39930D02*
Y39965D01*
X27390Y35585D02*
Y35620D01*
X27210Y35585D02*
Y35620D01*
X27390D01*
X27210Y35585D02*
X27390D01*
X27210Y35715D02*
X27390D01*
X27210Y35680D02*
X27390D01*
Y35715D01*
X27210Y35680D02*
Y35715D01*
X26840Y35585D02*
Y35620D01*
X26660Y35585D02*
Y35620D01*
X26840D01*
X26660Y35585D02*
X26840D01*
X26660Y35715D02*
X26840D01*
X26660Y35680D02*
X26840D01*
Y35715D01*
X26660Y35680D02*
Y35715D01*
X26835Y34405D02*
X26965D01*
X26965Y34440D02*
X26965Y34405D01*
X26835Y34440D02*
X26965D01*
X26835Y34405D02*
X26835Y34440D01*
X26965Y34560D02*
Y34595D01*
X26835Y34560D02*
X26965D01*
X26835D02*
Y34595D01*
X26965D01*
X27805Y37185D02*
Y37315D01*
Y37185D02*
X27840Y37185D01*
Y37315D01*
X27805Y37315D02*
X27840Y37315D01*
X27960Y37185D02*
X27995D01*
X27960D02*
Y37315D01*
X27995D01*
Y37185D02*
Y37315D01*
X21840Y38285D02*
Y38320D01*
X21660Y38285D02*
Y38320D01*
X21840D01*
X21660Y38285D02*
X21840D01*
X21660Y38415D02*
X21840D01*
X21660Y38380D02*
X21840D01*
Y38415D01*
X21660Y38380D02*
Y38415D01*
X19560Y38430D02*
Y38465D01*
X19740Y38430D02*
Y38465D01*
X19560Y38430D02*
X19740D01*
X19560Y38465D02*
X19740D01*
X19560Y38335D02*
X19740D01*
X19560Y38370D02*
X19740D01*
X19560Y38335D02*
Y38370D01*
X19740Y38335D02*
Y38370D01*
X18960Y38430D02*
Y38465D01*
X19140Y38430D02*
Y38465D01*
X18960Y38430D02*
X19140D01*
X18960Y38465D02*
X19140D01*
X18960Y38335D02*
X19140D01*
X18960Y38370D02*
X19140D01*
X18960Y38335D02*
Y38370D01*
X19140Y38335D02*
Y38370D01*
X20635Y37995D02*
X20765D01*
X20635D02*
X20635Y37960D01*
X20765D01*
X20765Y37995D01*
X20635Y37805D02*
Y37840D01*
X20765D01*
Y37805D02*
Y37840D01*
X20635Y37805D02*
X20765D01*
X20635Y38605D02*
X20765D01*
X20765Y38640D02*
X20765Y38605D01*
X20635Y38640D02*
X20765D01*
X20635Y38605D02*
X20635Y38640D01*
X20765Y38760D02*
Y38795D01*
X20635Y38760D02*
X20765D01*
X20635D02*
Y38795D01*
X20765D01*
D14*
X34563Y26300D02*
X34583D01*
X35824Y25650D02*
Y26250D01*
X34524Y25621D02*
Y26261D01*
X35754Y26300D02*
X35774D01*
Y25600D02*
X35824Y25650D01*
X35774Y26300D02*
X35824Y26250D01*
X34524Y26261D02*
X34563Y26300D01*
X34524Y25621D02*
X34554Y25591D01*
X32503Y28103D02*
Y28300D01*
Y28103D02*
X32700Y28103D01*
X36597Y28103D02*
Y28300D01*
X36400Y28103D02*
X36597D01*
X36400Y32197D02*
X36597D01*
X36597Y32000D01*
X24854Y32776D02*
Y33110D01*
X24421D02*
X24854D01*
Y31890D02*
Y32224D01*
X24421Y31890D02*
X24854D01*
X25019Y38012D02*
Y38169D01*
X24862D02*
X25019D01*
X23681D02*
X23838D01*
X23681Y38012D02*
Y38169D01*
Y36831D02*
Y36988D01*
Y36831D02*
X23838D01*
X25019D02*
Y36988D01*
X24862Y36831D02*
X25019D01*
D44*
X21450Y34500D02*
X22850D01*
Y35000D01*
X21450D02*
X22850D01*
X21450Y34500D02*
Y35000D01*
X22450Y34500D02*
Y35000D01*
X23708Y39856D02*
Y39876D01*
X24692Y39856D02*
Y39876D01*
X23708Y40624D02*
Y40644D01*
X24692Y40624D02*
Y40644D01*
X23708Y39856D02*
X24692D01*
X23708Y40644D02*
X24692D01*
X25074Y34108D02*
X25094D01*
X25074Y35092D02*
X25094D01*
X24306Y34108D02*
X24326D01*
X24306Y35092D02*
X24326D01*
X25094Y34108D02*
Y35092D01*
X24306Y34108D02*
Y35092D01*
X20561Y36356D02*
Y36376D01*
X21545Y36356D02*
Y36376D01*
X20561Y37124D02*
Y37144D01*
X21545Y37124D02*
Y37144D01*
X20561Y36356D02*
X21545D01*
X20561Y37144D02*
X21545D01*
D46*
X24015Y24432D02*
Y24635D01*
Y22665D02*
X24218D01*
X25782Y24635D02*
X25985D01*
X25782Y22665D02*
X25985D01*
X24015D02*
Y22868D01*
Y24635D02*
X24218D01*
X25985Y24432D02*
Y24635D01*
Y22665D02*
Y22868D01*
D99*
X16836Y25600D02*
X17536D01*
X15434Y25603D02*
X16036D01*
X16836Y22200D02*
X17536D01*
X15434Y22197D02*
X16036D01*
X15434D02*
Y25603D01*
M02*
